<svg width="174" height="126" viewBox="0 0 174 126" fill="none" xmlns="http://www.w3.org/2000/svg">
<path d="M9.70586 43.5C12.0922 35.284 11.5666 31.1468 9.70586 24L168.836 32.8065C165.042 36.7093 163.641 40.4773 166.3 50.4194C170.763 55.7185 169.54 63.2925 163.764 81.2419C163.444 90.8268 164.108 95.2542 166.3 102L4 94.4516C5.8905 83.8715 6.35172 78.2673 5.26797 69.2903C3.50124 58.5322 3.71332 52.7363 9.70586 43.5Z" fill="#DFD9CE"/>
<path d="M60.0477 45.7282C60.0331 45.9944 60.1649 46.2687 60.4431 46.5511C60.7214 46.8335 60.8532 47.1078 60.8385 47.3741C60.6863 50.1432 60.3172 51.5117 59.7315 51.4795C59.3587 51.459 59.0886 51.2705 58.9213 50.9141C58.7554 50.5311 58.6716 50.1126 58.6698 49.6584C58.6947 49.2058 58.6804 48.7376 58.6269 48.254C58.5733 47.7703 58.4718 47.4309 58.3223 47.2357C55.6799 46.2358 53.4699 46.1143 51.6923 46.8712C51.3833 47.1479 50.9185 47.8301 50.2979 48.9177C49.6787 49.9786 49.2286 50.6349 48.9477 50.8865C48.9155 51.4723 48.6185 52.0168 48.0567 52.5201C47.7319 53.5705 47.4722 54.6512 47.2775 55.7622C47.0829 56.8732 46.9496 57.8406 46.8776 58.6646C46.807 59.4619 46.7242 60.726 46.629 62.4567L46.3567 67.4092C47.1994 74.426 48.914 78.7 51.5005 80.2309C51.8896 80.4393 52.2832 80.5678 52.6811 80.6163C53.1042 80.693 53.5465 80.6639 54.0079 80.5291C54.4679 80.4208 54.862 80.2956 55.1903 80.1534C55.5438 80.0393 55.9941 79.8638 56.5413 79.6268C56.8383 79.0823 57.0249 78.1177 57.101 76.7331C57.1771 75.3486 57.3637 74.384 57.6607 73.8395C58.2997 73.8747 58.8242 74.0504 59.2341 74.3667C59.644 74.683 59.9422 74.8463 60.1286 74.8565L59.8079 80.6877C59.5642 81.2352 59.1924 81.6821 58.6927 82.0285C58.1929 82.3749 57.6849 82.6274 57.1688 82.786C56.6792 82.946 56.0203 83.03 55.192 83.0378C54.3902 83.0472 53.7105 83.0232 53.1528 82.9658C52.5937 82.935 51.8259 82.8127 50.8495 82.5988C49.8983 82.4129 49.2119 82.2684 48.7902 82.1651C48.3952 82.0632 47.7502 81.8942 46.8551 81.6581C46.6702 81.6212 46.5385 81.5872 46.4601 81.5562C46.1582 81.2191 45.6505 80.7372 44.9372 80.1104C44.249 79.5117 43.6541 78.9182 43.1523 78.3297C42.6505 77.7413 42.1805 77.0611 41.7422 76.2892C41.6442 75.6429 41.3986 74.2807 41.0054 72.2026C40.6123 70.1246 40.3258 68.2927 40.1459 66.7071C39.966 65.1215 39.917 63.5832 39.999 62.0921C40.2042 61.2755 40.4889 59.9825 40.8533 58.2132C41.2457 56.4187 41.6124 54.8498 41.9533 53.5065C42.3209 52.1646 42.7366 50.9189 43.2004 49.7693C43.4547 49.5162 43.7163 49.13 43.9852 48.6106C44.2556 48.0647 44.5726 47.6414 44.9364 47.3409C45.9696 46.0357 47.3113 44.9477 48.9616 44.077C50.64 43.1811 52.4377 42.7859 54.3549 42.8913C54.7736 43.0479 55.3239 43.2384 56.006 43.4628C56.7146 43.6888 57.2391 43.8645 57.5794 43.99C57.9463 44.117 58.3614 44.3402 58.8245 44.6594C59.2892 44.952 59.6969 45.3083 60.0477 45.7282ZM76.8072 80.9414C77.2098 73.6191 77.1958 68.5307 76.7652 65.6761C76.3126 65.6512 75.3214 65.4632 73.7917 65.112C72.2901 64.7356 71.0866 64.5226 70.1813 64.4728C69.5648 64.9998 69.1929 66.4215 69.0655 68.738C68.3301 70.9409 67.8079 74.8515 67.499 80.4697C67.8054 80.7269 68.2381 80.8708 68.7973 80.9016C69.3564 80.9323 69.7618 81.0882 70.0134 81.3691L69.8014 83.0399C69.028 83.5049 68.1746 83.725 67.2413 83.7004C66.3079 83.6758 65.4994 83.5646 64.8159 83.3667C64.131 83.1955 63.3137 83.2441 62.3642 83.5123L60.6991 81.7382C61.7443 80.7007 62.6131 80.201 63.3054 80.2391C63.5716 80.2537 63.7764 80.1715 63.9198 79.9924C64.0898 79.8148 64.18 79.6328 64.1902 79.4465C64.2271 79.2615 64.2565 78.9694 64.2785 78.57C64.6753 76.6956 65.2756 73.5505 66.0792 69.1346C66.911 64.6936 67.4765 61.6934 67.7759 60.1342C67.9018 57.8443 68.6106 55.6399 69.9022 53.521C70.6774 51.0798 72.2164 48.3469 74.5193 45.3221C74.5755 45.2718 74.6457 45.2089 74.73 45.1334C74.8143 45.0579 74.9939 44.9476 75.269 44.8025C75.5455 44.6307 75.8058 44.5115 76.0498 44.4448C76.3219 44.3529 76.631 44.3165 76.9772 44.3355C77.3233 44.3546 77.6385 44.452 77.9226 44.6279C78.7512 45.1008 79.5024 46.01 80.1762 47.3557C80.85 48.7014 81.162 49.8269 81.1122 50.7322C81.6795 52.072 82.0228 53.5999 82.1421 55.3157C82.3003 57.7814 82.443 61.5015 82.57 66.476C82.6971 71.4505 82.8108 74.9687 82.9111 77.0306L82.63 82.1429C82.6212 82.3027 82.7404 82.563 82.9876 82.9237C83.2349 83.2845 83.3504 83.6114 83.3343 83.9043C83.3182 84.1971 83.0373 84.4488 82.4916 84.6591L81.4664 84.3624C80.9072 84.3316 80.1062 84.3277 79.0634 84.3504C78.0206 84.3732 77.2063 84.3685 76.6205 84.3363C76.514 84.3304 76.3269 84.3335 76.0591 84.3455C75.7899 84.3841 75.5755 84.399 75.4157 84.3902C75.2811 84.4095 75.1214 84.4008 74.9364 84.3639C74.7501 84.3536 74.6058 84.3056 74.5037 84.2199C74.4282 84.1356 74.3941 84.0269 74.4014 83.8938C74.4278 83.4145 74.7292 82.7901 75.3056 82.0206C75.8806 81.2777 76.3811 80.918 76.8072 80.9414ZM74.2909 49.4758C72.9173 53.0858 71.9234 55.8621 71.3091 57.8047C71.296 58.0443 71.1248 58.7293 70.7955 59.8596C70.4944 60.9647 70.3343 61.6903 70.3153 62.0365C71.9383 62.6332 74.1344 63.0076 76.9036 63.1599L77.1803 58.1275C77.3252 55.4915 76.9479 52.6398 76.0483 49.5724C76.0512 49.5192 76.0415 49.4519 76.0193 49.3705C76.0252 49.264 75.9526 49.1265 75.8016 48.958C75.6773 48.7909 75.482 48.7 75.2157 48.6854L74.2909 49.4758ZM102.959 63.3908C103.901 64.7245 104.525 66.4947 104.83 68.7015C105.138 70.8817 105.287 73.5205 105.277 76.618C105.265 79.742 105.308 81.8676 105.407 82.9947C105.779 83.0152 106.059 83.0306 106.245 83.0408C106.43 83.0777 106.612 83.1678 106.791 83.3112C106.97 83.4546 107.053 83.6594 107.038 83.9257C106.981 84.9641 106.335 85.5428 105.1 85.6619C103.863 85.8075 102.654 85.701 101.472 85.3422C101.26 85.3039 101.101 85.2818 100.995 85.2759C100.515 84.7688 100.334 84.1847 100.45 83.5234C100.567 82.8621 100.771 82.0588 101.063 81.1134C101.381 80.1961 101.441 78.8508 101.245 77.0773C101.177 76.3792 101.167 75.3371 101.217 73.951C101.294 72.5398 101.256 71.2959 101.102 70.2191C100.975 69.1171 100.643 68.1107 100.106 67.1999C99.9829 67.0062 99.8238 66.7437 99.6283 66.4125C99.4595 66.0827 99.3011 65.8069 99.153 65.5851C99.005 65.3633 98.8052 65.112 98.5535 64.8311C98.5682 64.5648 98.4993 64.3607 98.3468 64.2188C98.2225 64.0517 98.0057 63.8662 97.6964 63.6622C97.3871 63.4583 97.1311 63.2573 96.9284 63.0592C96.5556 63.0387 96.2753 63.0366 96.0874 63.053C95.901 63.0427 95.711 63.0991 95.5173 63.2219C95.3236 63.3448 95.2201 63.5261 95.207 63.7657C94.8704 65.0291 94.659 66.4463 94.5726 68.0173C94.4877 69.5616 94.4635 71.2161 94.5 72.9808C94.5379 74.7188 94.5379 75.934 94.4998 76.6263C94.3739 78.9162 94.545 80.6615 95.0131 81.8624C94.997 82.1553 95.2612 82.4502 95.8057 82.7472C96.3769 83.0457 96.6551 83.3281 96.6405 83.5943C96.6361 83.6742 96.6302 83.7807 96.6229 83.9138C96.6156 84.047 96.6105 84.1402 96.6075 84.1934C96.6032 84.2733 96.598 84.3665 96.5922 84.473C96.5863 84.5795 96.5693 84.6453 96.5413 84.6705C96.5117 84.7223 96.4821 84.7741 96.4526 84.8259C96.4216 84.9043 96.3787 84.9553 96.324 84.979C96.2693 85.0027 96.2012 85.0257 96.1199 85.0479C96.0385 85.0702 95.9446 85.0784 95.8381 85.0725C95.5985 85.0593 94.9224 84.9687 93.81 84.8007C92.7227 84.6608 91.7523 84.5808 90.8988 84.5606C90.0438 84.567 89.3694 84.6901 88.8754 84.93C88.1565 84.8905 87.6388 84.8353 87.3222 84.7645C87.0308 84.7218 86.7193 84.5577 86.3878 84.2724C86.0829 83.9886 85.7994 83.5591 85.5373 82.9838C86.1523 82.4835 87.019 82.2641 88.1373 82.3256L88.9389 67.7476C88.9594 67.3748 89.0552 66.8459 89.2264 66.161C89.3976 65.476 89.4986 64.854 89.5294 64.2948C89.5616 63.709 89.4584 63.1559 89.22 62.6353C89.2361 62.3424 89.2951 61.9985 89.3969 61.6035C89.4988 61.2085 89.574 60.812 89.6226 60.4141C89.7756 59.0871 89.8486 57.2751 89.8414 54.9779C89.8341 52.6807 89.8627 50.9463 89.9272 49.7747C87.8503 49.6605 86.8346 49.1907 86.8799 48.3653C86.9444 47.1937 87.2368 46.4887 87.7574 46.2503C88.2779 46.0118 89.2704 45.9329 90.7349 46.0134C91.0278 46.0295 91.3517 45.9672 91.7066 45.8265C92.0882 45.6872 92.4121 45.6249 92.6783 45.6395C94.1027 45.4775 95.5072 45.4346 96.8918 45.5107C98.2778 45.5602 99.6432 45.7421 100.988 46.0564C102.361 46.3455 103.506 46.8892 104.424 47.6875C105.368 48.4872 105.954 49.4809 106.183 50.6686C106.717 53.5823 106.592 55.8588 105.807 57.4982C105.324 58.5132 104.422 59.6121 103.102 60.7947L102.175 61.6251C102.16 61.8913 102.291 62.1789 102.568 62.4879C102.845 62.7969 102.975 63.0979 102.959 63.3908ZM95.2493 48.4249C95.1058 51.0343 95.0191 54.5548 94.989 58.9865C95.0499 59.3371 95.3887 59.4892 96.0055 59.443C96.6223 59.3968 97.3263 59.2219 98.1175 58.9182C98.9353 58.616 99.4987 58.3265 99.8077 58.0497C99.8253 57.7302 99.9766 57.1643 100.262 56.352C100.547 55.5398 100.724 54.9887 100.793 54.6987C100.973 54.3348 101.046 53.7379 101.012 52.908C100.977 52.0782 100.967 51.5302 100.982 51.2639C100.992 51.0775 100.976 50.8897 100.933 50.7004C100.89 50.5111 100.845 50.3617 100.797 50.2523C100.751 50.1162 100.653 49.9639 100.502 49.7954C100.379 49.6016 100.292 49.4767 100.242 49.4205C100.193 49.3377 100.054 49.1965 99.8248 48.997C99.6235 48.7722 99.4977 48.6318 99.4473 48.5756C99.1545 48.5595 98.4481 48.534 97.3283 48.4992C96.2086 48.4643 95.5156 48.4395 95.2493 48.4249ZM130.548 54.6924C130.297 54.4115 130.197 53.7917 130.25 52.8332C130.304 51.848 130.201 51.0545 129.94 50.4526C129.714 50.1998 129.321 50.058 128.762 50.0273C128.203 49.9965 127.52 50.0257 126.714 50.115C125.936 50.179 125.361 50.2008 124.988 50.1803C124.72 50.673 124.568 51.2655 124.529 51.9578C124.491 52.6501 124.502 53.4252 124.562 54.2831C124.65 55.1158 124.684 55.7053 124.665 56.0514L123.8 71.7876L123.431 78.4975L123.338 80.175C123.318 80.5477 123.251 81.0381 123.137 81.6461C123.05 82.2556 122.995 82.7734 122.972 83.1994C122.948 83.6254 122.995 84.0019 123.11 84.3287C123.18 84.5195 123.426 84.6532 123.849 84.7299C124.272 84.8066 124.653 84.9343 124.99 85.1131C125.354 85.2933 125.523 85.6231 125.496 86.1024C124.906 86.6308 124.332 86.8796 123.773 86.8489L116.264 86.436C115.998 86.4214 115.803 86.3172 115.68 86.1235C115.557 85.9298 115.488 85.739 115.471 85.5512C115.482 85.3648 115.497 85.0852 115.518 84.7124C115.784 84.7271 116.204 84.6166 116.778 84.3811C117.351 84.1456 117.771 84.0351 118.038 84.0498L118.589 74.0249C118.539 73.9687 118.617 72.3039 118.824 69.0303C119.03 65.7567 119.134 64.1066 119.136 64.08L119.364 59.9262L119.456 58.2488C119.669 54.3879 119.542 51.5901 119.077 49.8553C117.917 49.5778 116.789 49.449 115.693 49.4689C114.625 49.4636 113.736 49.842 113.026 50.6042C112.318 51.3398 112.048 52.3665 112.216 53.6844C111.653 54.2142 111.107 54.1842 110.579 53.5943C110.598 53.2482 110.563 52.6587 110.476 51.826C110.416 50.9681 110.405 50.193 110.443 49.5007C110.481 48.8084 110.634 48.2159 110.901 47.7232C112.818 46.8671 114.735 46.4918 116.652 46.5972C117.451 46.6411 118.85 46.6914 120.85 46.7479C122.851 46.7778 124.291 46.817 125.17 46.8653C126.421 46.9341 127.419 47.0156 128.161 47.1099C128.932 47.179 129.789 47.373 130.733 47.692C131.705 47.9858 132.297 48.3922 132.509 48.9113C132.753 49.8061 132.878 50.6943 132.883 51.5759C132.889 52.4308 132.688 53.1809 132.279 53.8261C131.897 54.4461 131.321 54.7348 130.548 54.6924Z" fill="#1B1B1B"/>
</svg>
