<svg width="280" height="126" viewBox="0 0 280 126" fill="none" xmlns="http://www.w3.org/2000/svg">
<path d="M20.8716 61.221C23.1324 52.558 21.7259 48.589 17.8924 41.95L253.701 14.4066C248.707 19.128 247.219 23.1707 252.656 32.3904C260.041 36.6108 259.395 44.3746 253.628 63.4287C254.621 72.974 256.276 77.1981 260.536 83.3655L20.2488 112.874C21.4179 101.988 21.2413 96.3442 18.273 87.7195C14.0262 77.4901 13.4532 71.7139 20.8716 61.221Z" fill="#DFD9CE"/>
<path d="M65.8351 58.2854C65.8666 58.5502 66.0436 58.7968 66.3661 59.0252C66.6887 59.2535 66.8657 59.5001 66.8972 59.7649C67.2245 62.5189 67.0972 63.9323 66.515 64.0052C66.1446 64.0516 65.8463 63.9142 65.6202 63.5932C65.3909 63.2456 65.2362 62.8485 65.1563 62.4016C65.1028 61.9514 65.008 61.493 64.8719 61.0263C64.7359 60.5596 64.5775 60.2435 64.3967 60.078C61.6235 59.5653 59.4273 59.8403 57.8081 60.903C57.5517 61.2307 57.2118 61.9855 56.7883 63.1672C56.3617 64.3225 56.0318 65.0491 55.7987 65.347C55.868 65.9296 55.6695 66.5188 55.2032 67.1147C55.0645 68.207 54.9951 69.3176 54.995 70.4463C54.9949 71.575 55.0305 72.5515 55.1016 73.3757C55.1695 74.1734 55.3058 75.4329 55.5104 77.1541L56.0959 82.0794C58.1346 88.8384 60.5588 92.7407 63.3685 93.7863C63.7874 93.922 64.1969 93.9782 64.597 93.955C65.0266 93.9549 65.4569 93.8473 65.8879 93.6321C66.3219 93.4434 66.6883 93.2497 66.9869 93.051C67.3152 92.8756 67.7282 92.6223 68.2259 92.2912C68.4244 91.702 68.4418 90.7189 68.2781 89.3419C68.1144 87.965 68.1318 86.9819 68.3303 86.3927C68.9654 86.3131 69.5119 86.3925 69.9699 86.6308C70.4279 86.8691 70.7495 86.9766 70.9347 86.9534L71.624 92.7526C71.4785 93.3352 71.1896 93.8416 70.7573 94.272C70.3251 94.7024 69.8687 95.0417 69.388 95.29C68.9337 95.535 68.2996 95.7354 67.4856 95.891C66.6981 96.0434 66.025 96.1411 65.4662 96.1842C64.9105 96.2538 64.1337 96.2704 63.1358 96.2341C62.1675 96.221 61.467 96.2012 61.0342 96.1748C60.6278 96.1451 59.9638 96.0938 59.0421 96.0211C58.8538 96.0178 58.7183 96.0079 58.6358 95.9914C58.2805 95.7134 57.6978 95.3295 56.8877 94.8397C56.1071 94.3731 55.4192 93.8948 54.8239 93.405C54.2286 92.9152 53.6488 92.3294 53.0843 91.6476C52.8765 91.0286 52.4 89.7311 51.6549 87.7551C50.9098 85.7791 50.3121 84.0265 49.8618 82.4973C49.4114 80.9681 49.0982 79.462 48.9219 77.9791C48.9831 77.1383 49.0405 75.8143 49.0942 74.007C49.1712 72.1699 49.2618 70.5595 49.3658 69.1759C49.4964 67.789 49.6908 66.4881 49.9492 65.2733C50.1559 64.9786 50.3468 64.5516 50.522 63.9922C50.694 63.4063 50.9332 62.9329 51.2394 62.5721C52.0314 61.1023 53.1646 59.7914 54.6388 58.6393C56.1364 57.4574 57.8378 56.7472 59.7429 56.5087C60.182 56.588 60.7566 56.6773 61.4666 56.7766C62.203 56.8725 62.7495 56.9518 63.1061 57.0147C63.4891 57.0742 63.9361 57.2198 64.447 57.4515C64.9548 57.6566 65.4175 57.9346 65.8351 58.2854ZM90.2916 56.0696C89.865 57.2249 89.8452 59.4311 90.2324 62.6881L91.0917 69.9172L91.8614 76.3916C92.0219 77.7421 92.4107 79.8837 93.0279 82.8164C93.6746 85.7722 94.0767 87.9121 94.2341 89.2361C94.4413 89.3983 94.7015 89.5538 95.0146 89.7027C95.3542 89.8483 95.5979 89.9791 95.746 90.0949C95.9236 90.2339 96.0266 90.4226 96.0549 90.6609L96.2485 92.2894C96.2158 92.2398 96.183 92.1901 96.1503 92.1405C96.1175 92.0908 96.017 92.0362 95.8488 91.9767C95.7071 91.9138 95.5694 91.9982 95.4358 92.2299C95.2071 92.3392 94.9885 92.4203 94.78 92.4733C94.6011 92.5495 94.4719 92.5925 94.3925 92.6024L94.2291 92.5826C94.0174 92.6091 93.6321 92.6439 93.0733 92.687C92.5441 92.7533 91.9752 92.8245 91.3667 92.9007C91.0756 92.9372 90.7448 92.9786 90.3744 93.025C90.0071 93.0978 89.7044 93.1492 89.4663 93.179C89.3478 93.0863 89.2442 93.0052 89.1554 92.9357C89.0666 92.8662 89.0026 92.7802 88.9636 92.6776C88.9541 92.5981 88.933 92.5336 88.9003 92.4839C88.8971 92.4575 88.9157 92.3879 88.956 92.2754C89.026 92.186 89.071 92.1132 89.0912 92.0569C89.1145 92.0271 89.1844 91.9377 89.301 91.7888C89.444 91.6365 89.5388 91.5306 89.5855 91.471C89.5508 91.1797 89.7824 90.8685 90.2801 90.5375C90.7778 90.2064 91.011 89.9084 90.9795 89.6436C90.991 87.7073 90.8598 85.5872 90.586 83.2834C90.3153 81.0061 89.9485 78.4855 89.4857 75.7216C89.0494 72.9545 88.7462 70.8559 88.5762 69.426C88.5479 69.1877 88.4597 69.0106 88.3117 68.8947C88.1605 68.7524 88.0039 68.678 87.842 68.6714L87.6436 68.6962C86.9008 68.5474 86.0664 68.5309 85.1403 68.6469C84.2142 68.7628 83.1901 68.9583 82.0681 69.2331C80.9429 69.4815 80.1157 69.6388 79.5865 69.7051C79.1436 70.2712 78.8291 70.9018 78.6432 71.5969C78.4806 72.2623 78.4028 72.8498 78.4097 73.3596C78.4399 73.8395 78.5163 74.5959 78.6391 75.6286L79.692 84.4862L79.9847 86.9489C80.3388 87.4421 80.563 88.0859 80.6574 88.8803C80.755 89.7011 80.9676 90.3598 81.2951 90.8563C81.7979 90.7933 82.2706 91.0432 82.7135 91.6059C83.1563 92.1685 83.0441 92.6932 82.3769 93.1798C81.6096 93.2759 80.7295 93.4399 79.7366 93.6717C78.7468 93.93 77.8418 94.1105 77.0216 94.2132C76.2013 94.3159 75.3007 94.3078 74.3198 94.1887C73.6351 93.1726 73.5391 92.365 74.0318 91.7658L75.6591 91.562L75.2767 88.3447L73.0623 69.7158L72.8687 68.0873L72.7743 67.2929L72.491 64.9097L72.3918 64.0755C72.0643 63.5791 71.8202 62.6556 71.6597 61.3051C71.4991 59.9546 71.2403 59.0195 70.8831 58.4999C70.3539 58.5661 69.7785 58.356 69.1567 57.8695C68.5645 57.4062 68.5 56.8633 68.9631 56.241L72.2177 55.8335C72.5617 55.7904 73.1243 55.6662 73.9055 55.4609C74.71 55.2258 75.443 55.0668 76.1045 54.984C76.766 54.9011 77.3491 54.9491 77.8537 55.1277C78.277 55.0747 78.6679 55.2005 79.0264 55.5049C79.4113 55.8061 79.6273 56.1553 79.6746 56.5525C79.7407 57.1086 78.9667 57.4877 77.3526 57.6898C77.1428 57.9579 77.0552 58.2376 77.0898 58.5289C77.1213 58.7937 77.2199 59.1711 77.3855 59.6609C77.5745 60.121 77.6926 60.5497 77.7398 60.9469C77.7807 61.2911 77.7838 61.882 77.7491 62.7194C77.7377 63.5271 77.7713 64.2619 77.85 64.9239C77.9287 65.5859 78.1154 66.1403 78.4102 66.5872C81.7593 66.974 84.9874 66.5698 88.0946 65.3745C87.5815 61.0582 86.9512 58.1272 86.2035 56.5815C85.9043 56.3234 85.3578 56.244 84.564 56.3434C83.7702 56.4428 83.2252 56.3766 82.9291 56.145L82.7356 54.5164C84.2319 53.5497 85.8012 53.0845 87.4436 53.1207C87.6118 53.1802 88.0632 53.1372 88.7978 52.9914L89.9044 52.8125C90.4651 53.0111 90.8695 53.3636 91.1177 53.87C91.3923 54.3731 91.449 54.8497 91.2877 55.2999C91.1528 55.7468 90.8208 56.0033 90.2916 56.0696ZM111.076 56.6919C110.777 56.4338 110.58 55.9075 110.486 55.1131C110.392 54.3187 110.183 53.8073 109.861 53.5789C109.297 53.3539 108.721 53.1438 108.134 52.9486C105.462 53.2832 103.616 53.7965 102.597 54.4884C102.504 54.6076 102.412 54.74 102.322 54.8857C102.255 55.0015 102.207 55.1554 102.176 55.3474C102.145 55.5394 102.122 55.69 102.109 55.7993C102.095 55.9085 102.092 56.1104 102.1 56.405C102.132 56.6698 102.154 56.8552 102.166 56.9611C102.179 57.067 102.207 57.3053 102.251 57.6761C102.295 58.0468 102.324 58.2851 102.336 58.391C102.434 59.2119 102.517 60.142 102.587 61.1814C102.684 62.2174 102.76 62.9738 102.817 63.4504C102.886 64.033 103.022 64.7281 103.226 65.5357C103.456 66.34 103.604 67.0203 103.67 67.5763C103.736 68.1324 103.678 68.6637 103.497 69.1702C104.112 69.6037 105.756 69.6532 108.428 69.3185C108.24 67.7297 108.423 66.9005 108.979 66.8309C109.376 66.7812 109.645 66.7878 109.787 66.8507C109.925 66.8871 110.23 67.0774 110.7 67.4216C110.485 68.0935 110.502 68.9111 110.75 69.8743C110.996 70.8111 111.159 71.7312 111.24 72.6349C111.317 73.512 111.118 73.9804 110.641 74.0401C109.49 73.6198 108.883 73.1449 108.82 72.6153L108.721 71.7812L104.713 72.2831C104.563 73.0544 104.518 73.92 104.578 74.8799C104.662 75.81 104.817 76.8924 105.045 78.127C105.269 79.3352 105.405 80.1379 105.452 80.5351C105.559 81.4354 105.754 82.7412 106.038 84.4525C106.322 86.1638 106.491 87.2445 106.544 87.6946C108.222 88.0221 110.409 88.0169 113.108 87.679C113.533 87.4108 113.726 86.997 113.686 86.4376C113.673 85.8749 113.658 85.2989 113.642 84.7098C113.628 84.147 113.834 83.7316 114.259 83.4634C114.629 83.4171 114.948 83.4981 115.214 83.7066C115.507 83.9118 115.722 84.2478 115.858 84.7145C115.994 85.1812 116.094 85.5717 116.158 85.8862C116.225 86.2271 116.294 86.6889 116.363 87.2714C116.423 87.7746 115.978 88.6634 115.028 89.9379L110.94 90.4498C105.543 91.1257 101.196 91.3877 97.9023 91.2358L97.7087 89.6073L100.963 89.1997C101.031 87.74 100.977 86.2687 100.801 84.7858C100.625 83.3029 100.362 81.6561 100.012 79.8456C99.6894 78.0317 99.4618 76.5687 99.3296 75.4565L99.136 73.828L98.1681 65.6853L97.7856 62.4679L96.9216 55.1991L93.667 55.6066L93.4734 53.9781C94.5501 53.5477 96.1444 53.0659 98.2562 52.5327C100.394 51.9962 101.977 51.5293 103.004 51.1319L111.101 50.1181C111.719 50.5781 112.062 51.0862 112.128 51.6423C112.159 51.9071 112.282 52.3754 112.496 53.0473C112.707 53.6928 112.851 54.2257 112.928 54.6461C113.005 55.0664 112.908 55.4951 112.638 55.9321C112.364 56.3425 111.844 56.5958 111.076 56.6919ZM133.006 49.8745C133.037 50.1393 133.214 50.3859 133.537 50.6142C133.859 50.8426 134.036 51.0892 134.068 51.354C134.395 54.1079 134.268 55.5213 133.686 55.5942C133.315 55.6406 133.017 55.5033 132.791 55.1822C132.562 54.8347 132.407 54.4375 132.327 53.9907C132.274 53.5405 132.179 53.0821 132.043 52.6154C131.907 52.1487 131.748 51.8326 131.567 51.6671C128.794 51.1544 126.598 51.4294 124.979 52.4921C124.722 52.8198 124.383 53.5746 123.959 54.7563C123.532 55.9116 123.203 56.6382 122.969 56.9361C123.039 57.5187 122.84 58.1079 122.374 58.7038C122.235 59.7961 122.166 60.9066 122.166 62.0354C122.166 63.1641 122.201 64.1406 122.272 64.9648C122.34 65.7625 122.477 67.022 122.681 68.7432L123.267 73.6685C125.305 80.4274 127.73 84.3297 130.539 85.3754C130.958 85.511 131.368 85.5673 131.768 85.544C132.197 85.544 132.628 85.4364 133.059 85.2212C133.493 85.0324 133.859 84.8388 134.158 84.6401C134.486 84.4646 134.899 84.2114 135.397 83.8803C135.595 83.2911 135.613 82.308 135.449 80.931C135.285 79.554 135.303 78.5709 135.501 77.9817C136.136 77.9022 136.683 77.9816 137.141 78.2199C137.599 78.4581 137.92 78.5657 138.105 78.5425L138.795 84.3416C138.649 84.9242 138.36 85.4307 137.928 85.8611C137.496 86.2914 137.039 86.6308 136.559 86.8791C136.104 87.1241 135.47 87.3244 134.656 87.4801C133.869 87.6325 133.196 87.7302 132.637 87.7733C132.081 87.8429 131.304 87.8595 130.307 87.8232C129.338 87.8101 128.638 87.7903 128.205 87.7639C127.799 87.7341 127.135 87.6829 126.213 87.6102C126.025 87.6069 125.889 87.597 125.807 87.5805C125.451 87.3025 124.869 86.9186 124.058 86.4288C123.278 85.9621 122.59 85.4839 121.995 84.9941C121.399 84.5043 120.82 83.9185 120.255 83.2367C120.047 82.6177 119.571 81.3202 118.826 79.3442C118.081 77.3681 117.483 75.6155 117.033 74.0863C116.582 72.5571 116.269 71.0511 116.093 69.5682C116.154 68.7274 116.211 67.4034 116.265 65.5961C116.342 63.759 116.433 62.1486 116.537 60.765C116.667 59.378 116.862 58.0772 117.12 56.8623C117.327 56.5677 117.518 56.1407 117.693 55.5813C117.865 54.9954 118.104 54.522 118.41 54.1612C119.202 52.6914 120.335 51.3805 121.81 50.2284C123.307 49.0465 125.009 48.3363 126.914 48.0977C127.353 48.1771 127.927 48.2664 128.637 48.3656C129.374 48.4615 129.92 48.5409 130.277 48.6038C130.66 48.6633 131.107 48.8089 131.618 49.0405C132.126 49.2457 132.588 49.5237 133.006 49.8745ZM153.304 48.26C153.544 50.2725 153.332 53.0132 152.67 56.4823C152.452 57.1278 152.119 58.0563 151.672 59.2678C151.249 60.4496 150.965 61.2242 150.821 61.5916C150.871 62.0153 150.927 62.2635 150.99 62.3363C151.075 62.3794 151.317 62.376 151.714 62.3263C152.036 62.5547 152.613 62.8856 153.443 63.3191C154.3 63.7493 154.889 64.0786 155.212 64.307C156.069 65.194 156.757 66.2366 157.275 67.4348C157.791 68.6065 158.303 70.2085 158.813 72.2408C159.347 74.2433 159.696 75.4895 159.862 75.9794C159.906 76.3501 159.898 76.8483 159.838 77.4739C159.808 78.1227 159.816 78.6457 159.864 79.0429C159.914 79.4666 160.072 79.7827 160.339 79.9912C160.37 80.256 160.72 80.6018 161.389 81.0288C162.057 81.4557 162.409 81.8148 162.443 82.1061C162.468 82.3179 162.444 82.5629 162.37 82.8409C162.322 83.1157 162.266 83.3242 162.202 83.4665L162.072 83.7247C161.199 83.8341 159.864 84.0146 158.068 84.2664C156.275 84.5447 155.153 84.712 154.704 84.7683C154.437 84.5598 154.262 84.3265 154.177 84.0683C154.093 83.8101 154.081 83.5966 154.141 83.4278L154.197 83.2192L155.631 81.3869C155.786 80.8838 155.832 80.3674 155.769 79.8378C155.706 79.3082 155.582 78.719 155.398 78.0703C155.216 77.448 155.104 76.9515 155.06 76.5808L154.484 71.7349L154.389 70.9405C154.232 69.6165 153.864 68.3322 153.287 67.0877C152.709 65.8432 152.015 65.0836 151.203 64.8089C149.495 64.2166 147.881 64.4188 146.361 65.4153C146.035 65.8324 145.842 66.4746 145.784 67.3418C145.723 68.1826 145.737 68.9737 145.825 69.7151C145.939 70.4533 146.094 71.4148 146.289 72.5998C146.506 73.755 146.647 74.5974 146.71 75.127C146.773 75.6566 146.707 76.3501 146.514 77.2074C146.35 78.0879 146.3 78.793 146.363 79.3226L146.74 82.5002C147.664 82.8145 148.269 83.2762 148.556 83.8852C148.87 84.4909 148.67 85.0669 147.956 85.6132C147.128 85.4213 146.055 85.5422 144.737 85.976C143.448 86.433 142.391 86.5787 141.566 86.4133C141.092 86.0427 140.808 85.7961 140.713 85.6736C140.644 85.5478 140.588 85.2996 140.544 84.9289C140.73 84.6905 140.958 84.4604 141.227 84.2386C141.496 84.0168 141.689 83.8314 141.805 83.6825C141.922 83.5335 141.966 83.3399 141.938 83.1015L141.461 79.0898L140.696 72.6551C140.746 72.622 140.738 72.3274 140.672 71.7713L140.502 71.0266C140.48 70.8412 140.547 70.2685 140.701 69.3086C140.879 68.3189 140.931 67.5195 140.859 66.9104C140.034 59.9726 139.184 55.188 138.307 52.5566L138.024 50.1734C137.68 50.2164 137.415 50.2496 137.23 50.2728C137.068 50.2662 136.887 50.2083 136.686 50.099C136.485 49.9898 136.368 49.8028 136.337 49.538C135.963 49.5579 135.74 49.2634 135.668 48.6543C135.622 48.042 135.727 47.5719 135.984 47.2442C136.124 47.0654 136.326 46.9595 136.59 46.9263C136.852 46.8667 137.239 46.8452 137.751 46.8617C138.26 46.8517 138.713 46.8218 139.11 46.7721C139.295 46.7489 139.69 46.686 140.296 46.5833C140.898 46.4541 141.411 46.3631 141.834 46.31C142.284 46.2537 142.765 46.2338 143.277 46.2503C143.816 46.2635 144.233 46.3859 144.529 46.6176C144.852 46.8459 145.04 47.1852 145.093 47.6353C145.122 47.8737 145.064 48.069 144.921 48.2212C144.805 48.3702 144.612 48.5556 144.343 48.7774C144.074 48.9992 143.846 49.2293 143.66 49.4676C143.786 50.5269 144.093 51.9799 144.581 53.8269C145.069 55.6739 145.376 57.127 145.502 58.1862C145.521 58.345 145.492 58.6711 145.416 59.1643C145.367 59.6542 145.366 60.0978 145.414 60.495C145.461 60.8922 145.618 61.195 145.884 61.4035C148.528 60.3738 150.12 57.7288 150.661 53.4687C150.598 52.9391 150.636 52.1281 150.774 51.0358C150.939 49.9401 150.989 49.1142 150.923 48.5582L149.296 48.7619C149.261 48.4706 149.082 48.2108 148.76 47.9825C148.464 47.7508 148.3 47.5026 148.269 47.2378C148.514 46.5889 149.263 46.1188 150.518 45.8274C151.795 45.5062 152.597 45.2446 152.922 45.0426C153.691 45.1882 154.2 45.5141 154.448 46.0206C154.723 46.5237 154.726 47.0069 154.459 47.4704C154.218 47.9305 153.834 48.1937 153.304 48.26ZM182.594 77.6075C182.115 78.7694 181.47 79.6699 180.66 80.3088C179.019 81.643 177.318 82.3532 175.556 82.4394C173.82 82.5224 172.225 82.2114 170.772 81.5066C169.322 80.8282 168.176 79.8833 167.334 78.6719C166.134 76.9409 165.087 75.137 164.193 73.2603C163.412 71.2082 162.763 68.0107 162.247 63.6679C162.203 63.2972 162.12 62.8239 161.998 62.2479C161.875 61.672 161.783 61.1192 161.72 60.5896C161.654 60.0335 161.636 59.4311 161.666 58.7823C161.762 57.1041 161.785 56.0532 161.735 55.6295C161.773 55.2753 161.803 54.7341 161.824 54.0059C161.844 53.2776 161.897 52.7067 161.982 52.2929C162.068 51.8791 162.215 51.5382 162.425 51.27C162.692 50.8066 163.061 50.075 163.533 49.0753C164.032 48.0723 164.448 47.2811 164.782 46.7018C165.139 46.0927 165.612 45.4422 166.202 44.7504C166.817 44.0552 167.549 43.547 168.397 43.2258C169.245 42.9046 170.221 42.7556 171.324 42.7786C172.912 42.5798 174.197 42.6607 175.18 43.0214C176.189 43.3788 177.176 44.1152 178.141 45.2306C179.483 45.8957 180.679 47.0359 181.73 48.6511C182.808 50.263 183.562 52.09 183.993 54.1323C184.228 55.2047 184.451 56.628 184.662 58.4022C184.681 58.5611 184.723 58.9186 184.789 59.4747C184.852 60.0043 184.898 60.3882 184.926 60.6266C184.954 60.8649 184.987 61.2505 185.023 61.7834C185.083 62.2865 185.12 62.7119 185.135 63.0594C185.149 63.407 185.158 63.8224 185.162 64.3057C185.166 64.789 185.155 65.2606 185.129 65.7207C185.103 66.1809 185.064 66.6426 185.012 67.106C184.665 70.9656 183.859 74.4661 182.594 77.6075ZM178.996 77.4938C179.665 74.9913 180.112 72.651 180.336 70.4729C180.674 68.7914 180.649 66.3221 180.261 63.065C180.195 62.5089 180.153 61.8155 180.135 60.9846C180.14 60.124 180.111 59.4289 180.048 58.8993C179.985 58.3697 179.838 57.5819 179.606 56.5359C179.401 55.4867 179.265 54.684 179.199 54.1279C178.872 53.6314 178.511 52.8569 178.117 51.8044C177.724 50.7518 177.348 49.9657 176.991 49.4461C176.896 49.3236 176.649 48.938 176.249 48.2893C175.876 47.6372 175.593 47.1755 175.4 46.9041C175.203 46.6062 174.896 46.2819 174.479 45.9311C174.084 45.5505 173.691 45.2907 173.298 45.1517C172.796 45.2146 172.25 45.2561 171.662 45.276C171.1 45.2926 170.541 45.3357 169.985 45.4053C168.75 46.9844 167.888 49.0003 167.401 51.4531C166.974 52.6084 166.89 54.2717 167.148 56.4431C167.147 61.63 168.132 67.54 170.102 74.1732C170.364 74.5704 170.685 75.2423 171.066 76.1889C171.477 77.1587 171.86 77.7826 172.215 78.0606C172.506 78.0242 172.712 78.1731 172.832 78.5074C172.982 78.8649 173.131 79.1015 173.279 79.2174C173.96 79.7502 175.026 79.7914 176.476 79.3411C177.956 78.9139 178.796 78.2981 178.996 77.4938ZM196.185 73.9304C197.991 75.3436 199.524 75.4742 200.784 74.3221C201.412 73.7329 201.884 72.9616 202.2 72.0082C202.517 71.0549 202.661 69.8947 202.633 68.5276C202.631 67.1573 202.605 66.1526 202.556 65.5138C202.504 64.8485 202.398 63.8406 202.237 62.4901L200.797 50.3754C200.706 49.6075 200.639 48.5946 200.597 47.3368C200.578 46.0491 200.522 45.0081 200.427 44.2137C200.33 43.3928 200.133 42.759 199.839 42.3121C199.569 42.0772 199.294 41.91 199.014 41.8108C198.73 41.685 198.507 41.6188 198.346 41.6122L198.147 41.6371C198.131 41.5047 197.888 41.038 197.417 40.237C197.175 39.7836 197.213 39.537 197.53 39.4972C198.006 39.4376 198.941 39.2802 200.334 39.0252C201.753 38.7668 202.795 38.6095 203.46 38.5531C204.389 38.4636 205.139 38.5579 205.709 38.8359C206.276 39.0874 206.555 39.4018 206.546 39.7791C206.564 40.1532 206.469 40.4875 206.263 40.7821C205.664 41.3946 205.358 42.3198 205.344 43.5577C205.33 44.7957 205.427 46.2885 205.635 48.0362C205.869 49.7806 205.952 51.1543 205.883 52.1572L206.841 60.2205L206.945 61.0943C207.257 63.7159 207.352 65.9882 207.232 67.9114C207.138 69.8313 206.728 71.6965 206.004 73.5072C204.641 76.9565 202.677 78.8418 200.11 79.1632C199.925 79.1864 199.715 79.2261 199.48 79.2824C199.245 79.3387 198.823 79.405 198.215 79.4812C196.143 79.445 194.193 78.2917 192.365 76.0212C191.762 75.2368 191.265 73.9956 190.876 72.2976C190.489 70.626 190.168 69.5106 189.914 68.9512L187.511 48.7335C187.507 48.707 187.441 47.9226 187.311 46.3801C187.182 44.8376 187.058 44.02 186.939 43.9274C186.881 43.6659 186.709 43.459 186.422 43.3068C186.136 43.1545 185.829 43.0586 185.502 43.0189C185.198 42.9494 184.913 42.8104 184.647 42.6019C184.38 42.3934 184.227 42.1171 184.186 41.7728C184.326 41.5941 184.47 41.455 184.62 41.3557C184.766 41.2299 184.955 41.1256 185.187 41.0428C185.418 40.9601 185.6 40.9104 185.733 40.8938C185.888 40.8475 186.151 40.8011 186.522 40.7547C186.889 40.6818 187.164 40.6206 187.346 40.5709C188.045 40.349 188.926 40.1983 189.991 40.1187C191.056 40.0392 191.854 40.2079 192.387 40.6249C192.92 41.0419 192.705 41.9423 191.742 43.326L192.313 48.1322L193.182 55.4407C193.323 56.6323 193.497 58.0887 193.701 59.81C193.929 61.5014 194.073 62.5986 194.133 63.1018C194.753 68.3184 195.437 71.9279 196.185 73.9304ZM228.788 43.0005C228.492 42.7689 228.287 42.1764 228.174 41.2231C228.057 40.2433 227.819 39.4804 227.459 38.9343C227.192 38.7258 226.781 38.6563 226.225 38.7259C225.67 38.7955 225.003 38.9461 224.225 39.1779C223.47 39.3799 222.907 39.5041 222.537 39.5505C222.359 40.0835 222.31 40.6942 222.392 41.3827C222.474 42.0712 222.618 42.8325 222.825 43.6666C223.055 44.4709 223.19 45.0452 223.231 45.3894L225.091 61.0392L225.885 67.7123L226.083 69.3805C226.127 69.7512 226.146 70.2461 226.139 70.8651C226.158 71.4808 226.193 72.0004 226.243 72.4241C226.294 72.8478 226.404 73.2102 226.574 73.5114C226.675 73.6869 226.941 73.7745 227.371 73.7745C227.8 73.7744 228.197 73.8323 228.559 73.9481C228.949 74.0606 229.172 74.3552 229.228 74.8318C228.739 75.4575 228.216 75.8051 227.661 75.8747L220.199 76.809C219.934 76.8422 219.725 76.7743 219.57 76.6055C219.416 76.4367 219.315 76.2613 219.266 76.0793C219.244 75.8939 219.211 75.6159 219.167 75.2452C219.432 75.212 219.826 75.0283 220.35 74.6939C220.874 74.3595 221.269 74.1757 221.533 74.1426L220.348 64.1728C220.289 64.1265 220.079 62.4731 219.718 59.2127C219.358 55.9523 219.176 54.3089 219.173 54.2824L218.682 50.1515L218.483 48.4833C218.027 44.6436 217.42 41.9112 216.663 40.2861C215.473 40.22 214.341 40.2946 213.266 40.5099C212.214 40.6954 211.404 41.2268 210.837 42.104C210.267 42.9548 210.178 44.014 210.57 45.2817C210.107 45.9041 209.565 45.972 208.943 45.4855C208.902 45.1412 208.767 44.5669 208.537 43.7626C208.33 42.9285 208.186 42.1672 208.104 41.4787C208.022 40.7902 208.07 40.1795 208.249 39.6466C209.988 38.4614 211.81 37.7495 213.715 37.5109C214.509 37.4115 215.895 37.2111 217.873 36.9096C219.848 36.5817 221.272 36.3631 222.145 36.2537C223.389 36.098 224.384 36.0002 225.131 35.9604C225.902 35.8908 226.779 35.9288 227.763 36.0743C228.77 36.1901 229.423 36.4846 229.721 36.9579C230.116 37.7953 230.392 38.6476 230.549 39.5148C230.702 40.3556 230.633 41.1301 230.342 41.8385C230.073 42.5171 229.555 42.9044 228.788 43.0005Z" fill="#1B1B1B"/>
</svg>
