<svg width="510" height="134" viewBox="0 0 510 134" fill="none" xmlns="http://www.w3.org/2000/svg">
<g filter="url(#filter0_d_7_17)">
<path d="M8.79467 71.382C14.7086 62.2636 14.574 55.9466 7.17511 42.1803L494.123 0C491.635 6.91873 491.482 10.8356 491.964 17.8455C502.947 23.1408 505.941 28.5706 497.902 48.6695C493.798 64.7829 496.115 71.899 506 82.1974L9.87438 126C11.53 117.654 12.1968 112.787 11.4939 102.747C4.12181 88.9594 0.411906 81.3325 8.79467 71.382Z" fill="#DFD9CE"/>
</g>
<path d="M43.6182 91.6824C44.7906 91.5774 45.5552 91.4148 45.9119 91.1946C46.2782 90.9631 46.5034 90.7338 46.5877 90.5066C46.6823 90.2785 46.7157 90.0089 46.6878 89.6976L46.2766 85.2792L38.6874 73.7537C38.278 73.1524 37.8833 72.7747 37.5035 72.6204C36.8635 72.364 36.0714 72.278 35.1273 72.3625L34.974 70.6506L43.9848 69.8439L44.1381 71.5558C43.1421 71.645 42.567 71.822 42.4129 72.0868C42.2692 72.3506 42.3865 72.7846 42.7648 73.3887L48.2368 82.4682L52.2425 72.5402C52.5179 71.8776 52.5491 71.4669 52.3362 71.3082C51.9546 71.0182 51.0843 70.934 49.7251 71.0556L49.5719 69.3437L57.6178 68.6234L57.7711 70.3353C57.0033 70.4041 56.382 70.5904 55.9073 70.8944C55.4428 71.1974 55.072 71.6699 54.7948 72.3117L49.5682 84.3727L50.0182 89.3995C50.0767 90.0531 50.3242 90.4807 50.7606 90.6821C51.1969 90.8836 52.0688 90.9258 53.376 90.8088L53.5293 92.5207L43.7714 93.3943L43.6182 91.6824ZM59.1919 80.2481C59.0154 78.2769 59.1598 76.5017 59.625 74.9227C60.0893 73.3333 60.7852 71.9951 61.7128 70.908C63.5397 68.7678 66.0094 67.5584 69.122 67.2798C72.2345 67.0011 74.8784 67.7371 77.0535 69.4876C79.4642 71.4157 80.8433 74.32 81.1907 78.2003C81.5381 82.0806 80.7831 85.1549 78.9259 87.4233C77.0782 89.6804 74.5254 90.9548 71.2676 91.2464C68.0201 91.5372 65.2802 90.7209 63.0477 88.7978C60.8153 86.8746 59.53 84.0247 59.1919 80.2481ZM71.1331 89.2191C72.9488 89.0565 74.4136 88.2456 75.5275 86.7863C76.9314 84.9455 77.4778 82.2872 77.1666 78.8115C76.8555 75.3358 75.9625 72.8378 74.4877 71.3174C73.013 69.797 71.2692 69.1269 69.2564 69.3071C67.254 69.4864 65.6725 70.4542 64.512 72.2105C63.3609 73.9555 62.9317 76.4621 63.2243 79.7303C63.645 84.4302 65.2088 87.412 67.9156 88.6757C68.909 89.1411 69.9815 89.3222 71.1331 89.2191ZM95.9646 86.7451C100.084 86.3763 101.914 83.6345 101.456 78.5195L100.534 68.217C100.473 67.5426 100.322 67.1326 100.079 66.987C99.6375 66.7337 98.8671 66.6562 97.7674 66.7547L97.6141 65.0428L105.52 64.335L105.673 66.0469C104.688 66.1352 104.053 66.2913 103.77 66.5154C103.486 66.7291 103.312 66.9486 103.248 67.1739C103.185 67.3992 103.167 67.6675 103.195 67.9787L104.118 78.1087C104.574 83.2029 103.053 86.5393 99.5544 88.1179C98.4381 88.6153 97.3456 88.9118 96.2769 89.0075C95.2083 89.1032 94.3039 89.1057 93.5637 89.0151C92.8348 88.9339 92.1235 88.757 91.4297 88.4845C89.9122 87.8883 88.6569 86.8921 87.6639 85.4959C86.6708 84.0997 86.0698 82.2344 85.8608 79.9L84.9399 69.613C84.8805 68.949 84.7287 68.539 84.4847 68.3831C84.0748 68.1269 83.3563 68.0448 82.3291 68.1368L82.1759 66.4249L90.891 65.6447L91.0443 67.3566C89.9964 67.4504 89.3204 67.6103 89.0164 67.8362C88.7219 68.0508 88.5377 68.2712 88.4638 68.4975C88.4003 68.7228 88.3825 68.9911 88.4104 69.3023L89.3606 79.9161C89.5844 82.4165 90.3157 84.2179 91.5543 85.3201C92.793 86.4224 94.263 86.8974 95.9646 86.7451ZM128.26 83.8852C129.069 83.8128 129.39 82.8428 129.223 80.9752L130.717 80.8415C130.865 81.2048 130.951 81.5265 130.976 81.8066C131.001 82.0867 131.023 82.3933 131.043 82.7262C131.061 83.0488 130.975 83.4853 130.784 84.0358C130.324 85.3319 129.311 86.0501 127.745 86.1903C126.178 86.3306 125.038 86.0353 124.324 85.3043C123.621 84.5725 123.098 83.814 122.756 83.0289C122.412 82.2334 122.13 81.537 121.91 80.9397C121.283 79.3121 120.801 78.257 120.465 77.7746C119.849 76.8468 119.084 76.4237 118.171 76.5054L114.747 76.8119L115.281 82.7725C115.328 83.3016 115.392 83.7247 115.473 84.0416C115.554 84.3586 115.76 84.6225 116.093 84.8333C116.436 85.0431 117.417 85.0756 119.035 84.9307L119.189 86.6426L109.555 87.505L109.402 85.7931C110.491 85.6956 111.163 85.5414 111.416 85.3305C111.668 85.1092 111.81 84.8873 111.842 84.6647C111.875 84.4422 111.877 84.1753 111.849 83.8641L110.369 67.3364C110.309 66.662 110.157 66.2521 109.914 66.1065C109.473 65.8531 108.703 65.7757 107.603 65.8742L107.45 64.1623L117.005 63.3068C122.11 62.8498 125.089 64.1728 125.942 67.2758C126.082 67.7862 126.183 68.3889 126.245 69.0841C126.379 70.5781 126.021 71.8965 125.171 73.0393C124.331 74.1708 123.123 75.0424 121.546 75.6542C122.985 75.9542 124.128 76.9814 124.975 78.7357C125.257 79.3067 125.574 80.0469 125.927 80.9566C126.28 81.8662 126.556 82.4899 126.754 82.8278C127.187 83.5838 127.689 83.9363 128.26 83.8852ZM118.079 74.945C119.853 74.7861 121.07 74.2484 121.731 73.3316C122.39 72.4046 122.648 71.1369 122.504 69.5288C122.359 67.9103 121.818 66.7193 120.882 65.9561C119.946 65.1928 118.398 64.9077 116.24 65.1009L113.719 65.3266L114.608 75.2557L118.079 74.945ZM147.593 82.3741C148.765 82.2691 149.535 82.1061 149.902 81.8849C150.269 81.6535 150.499 81.4237 150.594 81.1956C150.688 80.9675 150.722 80.6978 150.694 80.3865L149.071 62.2559L145.88 62.5415C144.168 62.6948 143.269 63.6904 143.183 65.5283L143.014 68.728L140.756 68.9144L140.754 61.1807L160.565 59.4071L161.937 67.0182L159.682 67.2358L158.948 64.117C158.758 63.2868 158.482 62.7102 158.118 62.3872C157.461 61.8185 156.676 61.5751 155.763 61.6568L152.572 61.9424L154.195 80.0731C154.254 80.7267 154.506 81.1538 154.953 81.3543C155.41 81.5539 156.293 81.5952 157.6 81.4782L157.753 83.1901L147.746 84.086L147.593 82.3741ZM163.156 80.9808C164.017 80.9037 164.654 80.716 165.066 80.4176C165.488 80.1079 165.792 79.6415 165.976 79.0184L172.595 58.3301L175.257 58.0919L184.729 77.3395C185.069 77.9784 185.421 78.4019 185.784 78.6099C186.147 78.8075 186.827 78.8617 187.823 78.7725L187.976 80.4844L178.374 81.3441L178.22 79.6321C179.59 79.5095 180.391 79.3437 180.623 79.1347C180.866 78.9247 180.967 78.7117 180.927 78.4957C180.897 78.2787 180.805 78.015 180.652 77.7045L178.902 73.9237L169.86 74.7331L168.606 78.7829C168.424 79.4268 168.536 79.8612 168.943 80.0862C169.349 80.3009 170.258 80.345 171.669 80.2187L171.822 81.9306L163.309 82.6927L163.156 80.9808ZM178.141 72.2661L173.628 62.5047L170.407 72.9585L178.141 72.2661ZM199.32 58.6045C198.716 57.9265 197.526 57.6669 195.752 57.8258C193.988 57.9837 192.822 58.6842 192.254 59.9273C192.062 60.3524 191.992 60.8606 192.045 61.452C192.143 62.5414 192.719 63.4938 193.775 64.3091C194.473 64.8533 195.415 65.3912 196.603 65.9228C197.8 66.4535 198.811 66.9331 199.633 67.3614C202.737 68.9661 204.388 70.8786 204.587 73.0989C204.763 75.0701 204.173 76.6551 202.816 77.8538C201.47 79.0515 199.645 79.7535 197.341 79.9597C195.049 80.165 193.167 79.8785 191.695 79.1004C190.234 78.3109 189.451 77.3299 189.346 76.1576C189.24 74.9748 189.64 74.1336 190.547 73.6341C190.826 73.4732 191.136 73.3775 191.478 73.3468C192.132 73.2883 192.686 73.4583 193.14 73.8569C193.604 74.2546 193.866 74.7854 193.926 75.4495C193.985 76.1135 193.735 76.7059 193.175 77.2266C194.057 77.9634 195.431 78.2482 197.299 78.081C199.177 77.9129 200.407 77.1649 200.988 75.8369C201.198 75.3788 201.277 74.8593 201.225 74.2783C201.135 73.2719 200.533 72.3846 199.418 71.6163C198.839 71.2185 197.874 70.7244 196.525 70.134C195.184 69.5324 194.125 69.0259 193.345 68.6146C190.481 67.114 188.943 65.1809 188.732 62.8154C188.566 60.9686 189.128 59.4124 190.416 58.1466C191.714 56.88 193.391 56.1547 195.445 55.9708C197.51 55.7859 199.24 56.0755 200.637 56.8394C202.044 57.6024 202.804 58.6168 202.917 59.8826C202.979 60.5673 202.817 61.1622 202.434 61.6672C202.06 62.1608 201.551 62.4364 200.908 62.494C199.922 62.5823 199.199 62.213 198.738 61.3862C198.6 61.1371 198.519 60.8672 198.493 60.5767C198.421 59.7778 198.697 59.1204 199.32 58.6045ZM212.147 76.5949C213.32 76.4899 214.089 76.3269 214.457 76.1057C214.823 75.8743 215.053 75.6445 215.148 75.4164C215.243 75.1883 215.276 74.9186 215.248 74.6073L213.625 56.4767L210.435 56.7623C208.723 56.9156 207.823 57.9112 207.737 59.7491L207.569 62.9488L205.311 63.1352L205.308 55.4015L225.12 53.6279L226.491 61.239L224.236 61.4566L223.502 58.3378C223.313 57.5076 223.036 56.931 222.673 56.608C222.015 56.0393 221.23 55.7959 220.317 55.8776L217.127 56.1632L218.75 74.2939C218.808 74.9475 219.061 75.3746 219.508 75.5751C219.965 75.7747 220.847 75.816 222.154 75.699L222.307 77.4109L212.301 78.3068L212.147 76.5949ZM228.986 75.0874C229.993 74.9973 230.633 74.8458 230.906 74.6331C231.18 74.4203 231.349 74.2065 231.414 73.9915C231.477 73.7662 231.495 73.498 231.467 73.1867L229.985 56.6279C229.927 55.9847 229.696 55.5609 229.291 55.3566C228.884 55.142 228.194 55.0783 227.218 55.1656L227.065 53.4537L243.997 51.9379L245.11 57.5328L242.855 57.7504L242.277 56.0294C241.995 55.2076 241.734 54.6975 241.497 54.4992C241.079 54.1496 240.413 54.0158 239.5 54.0975L233.337 54.6492L234.148 63.7067L237.167 63.4365C238.34 63.3315 239.049 63.1896 239.294 63.0107C239.55 62.831 239.712 62.5917 239.779 62.2928C239.857 61.993 239.871 61.5682 239.822 61.0183L241.845 60.8371L242.384 66.8599L240.361 67.0411C240.275 66.0762 240.029 65.4968 239.625 65.3029C239.23 65.0977 238.462 65.0462 237.321 65.1484L234.301 65.4187L235.118 74.5384L241.732 73.9463C242.936 73.8386 243.698 73.3624 244.02 72.5178C244.122 72.2577 244.224 71.9872 244.324 71.7063L244.853 69.7294L247.109 69.5273L247.006 75.1998L229.139 76.7993L228.986 75.0874ZM271.768 71.2573C275.036 70.9647 276.966 69.2755 277.558 66.1896L279.799 65.989C279.872 66.7983 279.725 67.6166 279.36 68.4442C278.994 69.2613 278.444 70.0113 277.71 70.694C276.09 72.2195 273.91 73.1049 271.171 73.3502C268.432 73.5954 266.006 72.8923 263.892 71.2409C261.441 69.3372 260.035 66.357 259.671 62.3003C259.382 59.0632 260.009 56.2566 261.553 53.8802C262.646 52.1823 264.191 50.9301 266.19 50.1237C267.219 49.7073 268.367 49.4425 269.633 49.3292C272.133 49.1053 274.239 49.4972 275.95 50.5049C277.66 51.5022 278.593 52.8672 278.748 54.5998C278.864 55.8967 278.434 56.8138 277.457 57.3509C277.168 57.5127 276.848 57.6094 276.495 57.641C275.405 57.7385 274.633 57.3423 274.176 56.4524C274.036 56.1721 273.949 55.8348 273.913 55.4406C273.877 55.0359 273.956 54.6314 274.15 54.2271C274.343 53.8124 274.617 53.4846 274.972 53.2437C273.987 51.7108 272.411 51.0414 270.242 51.2355C268.074 51.4296 266.384 52.4124 265.173 54.1837C263.96 55.9446 263.502 58.4748 263.797 61.7741C264.092 65.063 265.006 67.512 266.541 69.1211C268.075 70.7199 269.818 71.4319 271.768 71.2573ZM282.891 60.2216C282.715 58.2503 282.859 56.4751 283.324 54.8961C283.788 53.3067 284.484 51.9685 285.412 50.8815C287.239 48.7413 289.709 47.5319 292.821 47.2532C295.934 46.9746 298.577 47.7105 300.753 49.461C303.163 51.3892 304.542 54.2934 304.89 58.1737C305.237 62.054 304.482 65.1284 302.625 67.3968C300.777 69.6538 298.224 70.9282 294.967 71.2199C291.719 71.5106 288.979 70.6944 286.747 68.7712C284.514 66.848 283.229 63.9981 282.891 60.2216ZM294.832 69.1925C296.648 69.03 298.113 68.2191 299.227 66.7598C300.631 64.9189 301.177 62.2606 300.866 58.785C300.555 55.3093 299.662 52.8112 298.187 51.2909C296.712 49.7705 294.968 49.1004 292.956 49.2806C290.953 49.4598 289.372 50.4276 288.211 52.1839C287.06 53.9289 286.631 56.4355 286.923 59.7037C287.344 64.4037 288.908 67.3855 291.615 68.6491C292.608 69.1145 293.681 69.2956 294.832 69.1925ZM308.123 68.0027C309.108 67.9145 309.743 67.7635 310.028 67.5498C310.311 67.3257 310.484 67.1011 310.548 66.8757C310.611 66.6504 310.629 66.3822 310.601 66.0709L309.106 49.5446C309.046 48.8703 308.894 48.4603 308.651 48.3147C308.21 48.0614 307.439 47.9839 306.339 48.0824L306.186 46.3705L314.948 45.5861L315.101 47.298C314.116 47.3862 313.481 47.5424 313.198 47.7664C312.914 47.9801 312.74 48.1996 312.677 48.4249C312.613 48.6502 312.595 48.9185 312.623 49.2298L314.246 67.3604L319.615 66.8797C321.275 66.7311 322.335 65.7211 322.795 63.8497L323.26 62.0354L325.409 61.8587L324.897 68.2266L308.276 69.7146L308.123 68.0027ZM327.981 66.2249C328.967 66.1367 329.601 65.9857 329.886 65.772C330.169 65.548 330.342 65.3233 330.406 65.098C330.469 64.8727 330.487 64.6044 330.459 64.2931L328.964 47.7669C328.904 47.0925 328.752 46.6825 328.509 46.5369C328.068 46.2836 327.297 46.2061 326.198 46.3046L326.044 44.5927L334.806 43.8083L334.959 45.5202C333.974 45.6084 333.339 45.7646 333.056 45.9886C332.772 46.2023 332.598 46.4218 332.535 46.6471C332.471 46.8724 332.453 47.1407 332.481 47.452L334.104 65.5826L339.473 65.1019C341.133 64.9533 342.193 63.9433 342.653 62.0719L343.119 60.2576L345.268 60.0809L344.755 66.4488L328.134 67.9368L327.981 66.2249ZM347.823 64.4485C348.83 64.3584 349.47 64.207 349.744 63.9942C350.017 63.7815 350.187 63.5676 350.251 63.3527C350.315 63.1274 350.332 62.8591 350.304 62.5478L348.822 45.9891C348.764 45.3458 348.533 44.922 348.128 44.7178C347.722 44.5031 347.031 44.4395 346.056 44.5268L345.902 42.8149L362.835 41.299L363.947 46.894L361.692 47.1116L361.115 45.3906C360.832 44.5688 360.572 44.0587 360.334 43.8603C359.916 43.5108 359.25 43.3769 358.337 43.4586L352.175 44.0104L352.985 53.0679L356.005 52.7976C357.177 52.6927 357.886 52.5507 358.131 52.3719C358.387 52.1921 358.549 51.9528 358.616 51.6539C358.694 51.3541 358.708 50.9293 358.659 50.3794L360.682 50.1983L361.221 56.2211L359.198 56.4022C359.112 55.4373 358.866 54.8579 358.462 54.664C358.067 54.4589 357.299 54.4073 356.158 54.5095L353.139 54.7798L353.955 63.8996L360.569 63.3074C361.773 63.1997 362.536 62.7236 362.857 61.879C362.96 61.6188 363.061 61.3483 363.161 61.0674L363.69 59.0905L365.947 58.8885L365.843 64.561L347.977 66.1604L347.823 64.4485ZM379.961 61.5715C383.229 61.2789 385.159 59.5896 385.75 56.5037L387.992 56.3031C388.064 57.1124 387.918 57.9308 387.552 58.7583C387.186 59.5755 386.636 60.3254 385.903 61.0081C384.282 62.5337 382.103 63.4191 379.364 63.6643C376.624 63.9095 374.198 63.2064 372.084 61.555C369.634 59.6513 368.227 56.6711 367.864 52.6144C367.574 49.3774 368.201 46.5707 369.745 44.1944C370.838 42.4964 372.383 41.2442 374.382 40.4378C375.411 40.0215 376.559 39.7566 377.825 39.6433C380.325 39.4194 382.431 39.8114 384.142 40.819C385.853 41.8163 386.785 43.1813 386.941 44.914C387.057 46.2109 386.626 47.1279 385.649 47.665C385.361 47.8269 385.04 47.9236 384.687 47.9551C383.598 48.0527 382.825 47.6565 382.369 46.7665C382.229 46.4862 382.141 46.1489 382.106 45.7547C382.069 45.3501 382.148 44.9456 382.342 44.5413C382.535 44.1266 382.809 43.7988 383.164 43.5578C382.18 42.0249 380.603 41.3555 378.435 41.5496C376.266 41.7438 374.576 42.7265 373.365 44.4978C372.153 46.2588 371.694 48.7889 371.989 52.0882C372.284 55.3771 373.199 57.8262 374.734 59.4353C376.268 61.034 378.01 61.7461 379.961 61.5715ZM396.473 60.0932C397.645 59.9883 398.415 59.8252 398.782 59.6041C399.148 59.3726 399.379 59.1428 399.473 58.9147C399.568 58.6866 399.601 58.4169 399.573 58.1057L397.95 39.9751L394.76 40.2607C393.048 40.414 392.149 41.4096 392.062 43.2475L391.894 46.4471L389.636 46.6336L389.634 38.8999L409.445 37.1263L410.817 44.7374L408.562 44.955L407.827 41.8361C407.638 41.006 407.362 40.4294 406.998 40.1063C406.34 39.5377 405.555 39.2942 404.642 39.376L401.452 39.6616L403.075 57.7922C403.134 58.4458 403.386 58.8729 403.833 59.0735C404.29 59.2731 405.172 59.3144 406.479 59.1974L406.633 60.9093L396.626 61.8051L396.473 60.0932ZM413.467 58.5718C414.453 58.4836 415.088 58.3326 415.372 58.1189C415.655 57.8948 415.828 57.6702 415.892 57.4448C415.955 57.2195 415.973 56.9513 415.945 56.64L414.45 40.1137C414.39 39.4394 414.233 39.0298 413.979 38.8852C413.549 38.6309 412.784 38.553 411.684 38.6515L411.531 36.9396L420.277 36.1566L420.43 37.8685C419.444 37.9567 418.81 38.1128 418.527 38.3369C418.243 38.5506 418.069 38.7701 418.005 38.9954C417.942 39.2207 417.924 39.489 417.952 39.8003L419.447 56.3265C419.507 57.0009 419.664 57.4104 419.918 57.5551C420.348 57.8093 421.114 57.8872 422.213 57.7888L422.367 59.5007L413.62 60.2837L413.467 58.5718ZM423.765 47.6099C423.589 45.6386 423.733 43.8634 424.198 42.2844C424.663 40.695 425.358 39.3568 426.286 38.2698C428.113 36.1296 430.583 34.9202 433.695 34.6415C436.808 34.3629 439.452 35.0988 441.627 36.8493C444.037 38.7775 445.416 41.6817 445.764 45.562C446.111 49.4423 445.356 52.5167 443.499 54.7851C441.651 57.0422 439.099 58.3165 435.841 58.6082C432.593 58.8989 429.853 58.0827 427.621 56.1595C425.388 54.2363 424.103 51.3864 423.765 47.6099ZM435.706 56.5808C437.522 56.4183 438.987 55.6074 440.101 54.1481C441.505 52.3072 442.051 49.6489 441.74 46.1733C441.429 42.6976 440.536 40.1995 439.061 38.6792C437.586 37.1588 435.842 36.4887 433.83 36.6689C431.827 36.8481 430.246 37.8159 429.085 39.5722C427.934 41.3172 427.505 43.8238 427.797 47.092C428.218 51.792 429.782 54.7738 432.489 56.0375C433.482 56.5028 434.555 56.6839 435.706 56.5808ZM448.916 55.3668C449.933 55.2758 450.583 55.1183 450.866 54.8942C451.15 54.6702 451.323 54.4455 451.386 54.2202C451.459 53.9835 451.482 53.7096 451.454 53.3984L449.986 36.9952C449.925 36.3208 449.763 35.9066 449.498 35.7525C449.056 35.4888 448.269 35.4075 447.139 35.5088L446.983 33.7657L452.352 33.2851L467.222 49.0375L466.015 35.5602C465.954 34.8754 465.797 34.4607 465.543 34.3161C465.101 34.0523 464.32 33.9706 463.199 34.0709L463.043 32.3279L470.887 31.6257L471.043 33.3687C470.026 33.4598 469.376 33.6173 469.093 33.8414C468.81 34.0654 468.632 34.2958 468.559 34.5324C468.495 34.7577 468.477 35.026 468.505 35.3372L470.284 55.2109L468.37 55.3822L452.651 38.7332L453.944 53.1754C454.004 53.8498 454.167 54.2641 454.432 54.4181C454.874 54.6819 455.665 54.7626 456.807 54.6605L456.963 56.4035L449.072 57.1099L448.916 55.3668Z" fill="#1B1B1B"/>
<defs>
<filter id="filter0_d_7_17" x="0" y="0" width="510" height="134" filterUnits="userSpaceOnUse" color-interpolation-filters="sRGB">
<feFlood flood-opacity="0" result="BackgroundImageFix"/>
<feColorMatrix in="SourceAlpha" type="matrix" values="0 0 0 0 0 0 0 0 0 0 0 0 0 0 0 0 0 0 127 0" result="hardAlpha"/>
<feOffset dy="4"/>
<feGaussianBlur stdDeviation="2"/>
<feComposite in2="hardAlpha" operator="out"/>
<feColorMatrix type="matrix" values="0 0 0 0 0 0 0 0 0 0 0 0 0 0 0 0 0 0 0.25 0"/>
<feBlend mode="normal" in2="BackgroundImageFix" result="effect1_dropShadow_7_17"/>
<feBlend mode="normal" in="SourceGraphic" in2="effect1_dropShadow_7_17" result="shape"/>
</filter>
</defs>
</svg>
