<svg width="510" height="134" viewBox="0 0 510 134" fill="none" xmlns="http://www.w3.org/2000/svg">
<g filter="url(#filter0_d_5_7)">
<path d="M8.79467 71.382C14.7086 62.2636 14.574 55.9466 7.17511 42.1803L494.123 0C491.635 6.91873 491.482 10.8356 491.964 17.8455C502.947 23.1408 505.941 28.5706 497.902 48.6695C493.798 64.7829 496.115 71.899 506 82.1974L9.87438 126C11.53 117.654 12.1968 112.787 11.4939 102.747C4.12181 88.9594 0.411906 81.3325 8.79467 71.382Z" fill="#DFD9CE"/>
</g>
<path d="M50.1682 65.8502C50.3037 67.3642 50.1324 68.1425 49.6544 68.1853L47.3038 68.3958C47.1265 69.1077 46.7083 71.3138 46.0489 75.014C45.3872 78.6877 44.7231 81.4378 44.0566 83.2645C43.7446 83.6673 43.5292 84.1016 43.4102 84.5674C43.3155 85.0042 43.2703 85.3965 43.2746 85.7441C43.3055 86.0894 43.3832 86.6581 43.5077 87.4502C43.6298 88.2157 43.7146 88.864 43.7621 89.3952C43.6456 89.8876 43.6051 90.333 43.6408 90.7314C43.703 91.1274 43.8084 91.707 43.9571 92.4701C44.1299 93.2043 44.2282 93.7042 44.252 93.9698C44.2948 94.4478 44.3396 95.247 44.3863 96.3673C44.4354 97.5142 44.4788 98.4474 44.5165 99.1669C44.5807 99.884 44.7136 100.622 44.9154 101.38C45.1461 102.163 45.4495 102.711 45.8257 103.026C47.2021 102.849 47.9129 103.013 47.9581 103.517C48.5333 104.858 48.5612 105.619 48.0419 105.799C47.2883 106.054 46.4998 106.218 45.6764 106.292C44.8554 106.392 44.0296 106.439 43.1991 106.433C42.3686 106.427 41.8206 106.436 41.555 106.46L37.7303 106.802C36.9731 106.121 36.9053 105.364 37.527 104.531C37.7712 104.269 38.2784 104.103 39.0486 104.034C39.8189 103.965 40.3117 103.787 40.5269 103.5C40.4817 102.995 40.4023 101.958 40.2886 100.389C40.1772 98.8459 40.0714 97.6639 39.9711 96.8429C39.8998 96.0461 39.7734 94.9329 39.5918 93.5034C39.4103 92.0739 39.185 90.9027 38.9158 89.9897C38.6732 89.0744 38.3716 88.0974 38.0109 87.0587C37.6478 85.9935 37.1927 85.0972 36.6457 84.3698C36.1228 83.6134 35.5189 82.9981 34.8339 82.524C34.3982 81.5456 33.4819 79.8338 32.085 77.3886C30.7709 74.3738 30.0271 71.8969 29.8535 69.958C28.3396 70.0935 27.5612 69.9222 27.5184 69.4442C27.413 68.8646 27.4523 68.4059 27.6362 68.0682C27.8467 67.7281 28.1754 67.5112 28.6221 67.4177C29.0665 67.2976 29.5024 67.2318 29.9297 67.2203C30.3547 67.1822 30.8496 67.1781 31.4145 67.2078C31.9794 67.2376 32.3814 67.2418 32.6205 67.2204C33.0986 67.1776 33.8591 67.1496 34.9021 67.1366C35.9693 67.0946 36.7552 67.051 37.2598 67.0058C37.8096 67.4653 38.1297 68.1997 38.2201 69.209C38.0873 69.2209 37.7916 69.2072 37.3329 69.1679C36.8742 69.1287 36.4614 69.1522 36.0943 69.2387C35.7514 69.2961 35.4832 69.4406 35.2897 69.6721C35.3979 69.9837 35.5945 70.9835 35.8795 72.6715C35.9489 73.1472 36.0628 73.6724 36.2214 74.2473C36.3799 74.8221 36.4711 75.2423 36.4949 75.5079C37.0312 77.0127 37.7077 78.4381 38.5243 79.784C39.3385 81.1033 40.1507 82.1015 40.961 82.7786C41.4177 82.4968 41.7598 82.1315 41.9874 81.6827C42.2125 81.2074 42.4332 80.5317 42.6492 79.6557C42.8895 78.7506 43.0968 78.0761 43.2713 77.6321C44.2454 75.055 44.6294 72.3165 44.4233 69.4167C44.39 69.0448 43.9088 68.7532 42.9796 68.5419C42.048 68.304 41.4389 67.9302 41.1523 67.4204C41.1119 66.9689 41.4189 66.6603 42.0734 66.4946C42.7521 66.2999 43.8532 66.188 45.3766 66.1587C46.8977 66.1028 47.7379 66.0678 47.8973 66.0535C48.0832 66.0369 48.3175 65.9623 48.6001 65.8299C48.907 65.6686 49.1799 65.5772 49.419 65.5558C49.6846 65.5321 49.9343 65.6302 50.1682 65.8502ZM71.945 99.884C71.4316 101.028 70.7604 101.904 69.9315 102.514C68.2518 103.789 66.5295 104.438 64.7646 104.462C63.0263 104.484 61.4406 104.118 60.0076 103.362C58.5769 102.634 57.458 101.649 56.6509 100.41C55.5018 98.6386 54.5072 96.7999 53.6672 94.8939C52.9458 92.8166 52.3901 89.6 52.0001 85.2441C51.9668 84.8723 51.8975 84.3966 51.792 83.817C51.6866 83.2374 51.6101 82.682 51.5625 82.1508C51.5126 81.593 51.5122 80.9907 51.5614 80.3437C51.7061 78.6708 51.7595 77.6219 51.7214 77.1969C51.7702 76.8445 51.8156 76.305 51.8577 75.5783C51.8997 74.8517 51.9693 74.2832 52.0664 73.8729C52.1636 73.4626 52.321 73.1272 52.5386 72.8668C52.8193 72.4133 53.2102 71.6956 53.7113 70.7137C54.2389 69.7293 54.6782 68.9538 55.0291 68.3869C55.4041 67.7911 55.8963 67.158 56.5056 66.4877C57.1415 65.8149 57.8881 65.3331 58.7456 65.0422C59.6031 64.7512 60.5834 64.6367 61.6867 64.6985C63.2803 64.5559 64.5633 64.682 65.5358 65.0768C66.5347 65.4693 67.5006 66.2396 68.4334 67.3877C69.7554 68.0993 70.9187 69.2803 71.9232 70.9306C72.9542 72.5786 73.6554 74.4301 74.0268 76.4851C74.2306 77.5646 74.4121 78.9941 74.5714 80.7737C74.5857 80.933 74.6178 81.2916 74.6677 81.8494C74.7153 82.3806 74.7497 82.7657 74.7711 83.0048C74.7925 83.2438 74.8137 83.6301 74.8347 84.1637C74.8799 84.6683 74.9047 85.0945 74.909 85.4422C74.9134 85.7898 74.9104 86.2051 74.9001 86.6879C74.8898 87.1708 74.865 87.6415 74.8257 88.1002C74.7864 88.5588 74.7339 89.0187 74.6681 89.4797C74.2089 93.3226 73.3012 96.7907 71.945 99.884ZM68.3492 99.6437C69.0914 97.1676 69.6064 94.8458 69.8943 92.6781C70.2804 91.0104 70.3273 88.5431 70.0348 85.2761C69.9849 84.7184 69.9629 84.0242 69.9689 83.1937C69.999 82.3343 69.9903 81.6389 69.9428 81.1077C69.8952 80.5765 69.7707 79.7845 69.5694 78.7316C69.3946 77.6763 69.2822 76.8697 69.2323 76.312C68.9191 75.8045 68.581 75.0182 68.2179 73.953C67.8548 72.8878 67.5022 72.0894 67.1601 71.5578C67.0686 71.4321 66.8325 71.0383 66.4519 70.3762C66.098 69.7118 65.8282 69.2407 65.6427 68.9628C65.4548 68.6583 65.1571 68.3235 64.7496 67.9584C64.3662 67.5644 63.9803 67.291 63.5918 67.1384C63.0872 67.1836 62.5403 67.2057 61.9512 67.2049C61.3887 67.2018 60.8286 67.2251 60.2708 67.2751C58.9891 68.8088 58.069 70.7921 57.5103 73.2249C57.0501 74.3638 56.9174 76.0222 57.1124 78.2002C56.9604 83.3811 57.7731 89.3189 59.5505 96.0138C59.801 96.4197 60.1031 97.1022 60.4567 98.0611C60.8392 99.0443 61.2041 99.6809 61.5513 99.9711C61.8435 99.945 62.0449 100.101 62.1555 100.439C62.295 100.801 62.4371 101.043 62.5818 101.164C63.2474 101.72 64.312 101.799 65.7756 101.4C67.2681 101.026 68.126 100.44 68.3492 99.6437ZM85.645 96.6897C87.4103 98.1648 88.9395 98.3492 90.2326 97.2428C90.878 96.6763 91.3728 95.9225 91.7169 94.9814C92.061 94.0403 92.2388 92.8866 92.2504 91.5201C92.2885 90.1512 92.2923 89.1469 92.2618 88.5071C92.2289 87.8407 92.1518 86.8302 92.0305 85.4756L90.9427 73.3242C90.8737 72.554 90.8365 71.5399 90.831 70.282C90.8496 68.9953 90.8233 67.9535 90.752 67.1566C90.6783 66.3333 90.5005 65.6932 90.2186 65.2366C89.9558 64.9923 89.6857 64.8157 89.4082 64.7067C89.1283 64.5711 88.9075 64.4972 88.7457 64.4849L88.5465 64.5027C88.5346 64.3699 88.3047 63.8952 87.8568 63.0786C87.6281 62.6171 87.6731 62.3721 87.9918 62.3436C88.4699 62.3008 89.4092 62.1765 90.8098 61.9708C92.2369 61.7627 93.2837 61.6423 93.9501 61.6094C94.8821 61.5527 95.6291 61.6732 96.1912 61.971C96.751 62.2421 97.0209 62.566 97.0011 62.9426C97.0078 63.3169 96.9036 63.6475 96.6883 63.9345C96.0718 64.5251 95.7386 65.4385 95.6886 66.6745C95.6387 67.9106 95.6921 69.4051 95.8491 71.1581C96.0326 72.9087 96.0753 74.2837 95.9774 75.2831L96.7014 83.3707L96.7799 84.2472C97.0153 86.8767 97.0448 89.1498 96.8683 91.0665C96.7184 92.9808 96.2548 94.8295 95.4773 96.6126C94.0144 100.01 91.9948 101.824 89.4184 102.055C89.2325 102.071 89.0212 102.104 88.7845 102.151C88.5479 102.199 88.1241 102.251 87.5132 102.305C85.4419 102.196 83.5254 100.976 81.7638 98.6435C81.183 97.8388 80.7224 96.5815 80.382 94.8717C80.0439 93.1885 79.7557 92.063 79.5174 91.4954L77.702 71.2165C77.6996 71.1899 77.656 70.404 77.5712 68.8587C77.4864 67.3135 77.3862 66.4925 77.2704 66.3957C77.2201 66.1325 77.0538 65.9198 76.7715 65.7577C76.4893 65.5955 76.1852 65.4889 75.8594 65.4377C75.5577 65.3577 75.2766 65.2088 75.0162 64.9911C74.7557 64.7735 74.6101 64.492 74.5792 64.1467C74.7243 63.9731 74.8729 63.8393 75.0251 63.7454C75.175 63.6249 75.3671 63.5274 75.6014 63.4528C75.8356 63.3783 76.0192 63.3351 76.152 63.3232C76.309 63.2824 76.5734 63.2453 76.9452 63.212C77.3147 63.1522 77.5912 63.1007 77.7748 63.0575C78.48 62.8605 79.3662 62.741 80.4334 62.699C81.5006 62.657 82.2946 62.8536 82.8155 63.2889C83.3364 63.7242 83.0949 64.616 82.0911 65.9642L82.5227 70.7849L83.179 78.1156C83.286 79.3108 83.4168 80.7716 83.5713 82.498C83.7501 84.1955 83.862 85.2966 83.9072 85.8012C84.3756 91.0337 84.9549 94.6631 85.645 96.6897ZM116.755 77.3988C117.879 78.5833 118.75 80.2456 119.37 82.3855C119.988 84.4988 120.514 87.0889 120.949 90.1556C121.387 93.2489 121.735 95.3462 121.994 96.4475C122.366 96.4142 122.645 96.3892 122.831 96.3726C123.019 96.3825 123.212 96.4455 123.41 96.5617C123.608 96.6779 123.719 96.8687 123.743 97.1343C123.835 98.1702 123.279 98.8358 122.074 99.1311C120.871 99.4529 119.659 99.5213 118.438 99.3361C118.223 99.3286 118.062 99.3296 117.956 99.3391C117.409 98.9062 117.145 98.3542 117.165 97.683C117.186 97.0119 117.272 96.1875 117.426 95.2099C117.608 94.2565 117.475 92.9164 117.026 91.1896C116.858 90.5085 116.699 89.4786 116.548 88.0999C116.422 86.6921 116.206 85.4666 115.898 84.4232C115.615 83.3509 115.141 82.4026 114.479 81.5784C114.329 81.4044 114.134 81.1675 113.893 80.8678C113.679 80.5657 113.482 80.3156 113.304 80.1174C113.125 79.9192 112.891 79.6991 112.602 79.4573C112.578 79.1917 112.481 78.9996 112.31 78.8811C112.162 78.7336 111.921 78.5812 111.586 78.4238C111.251 78.2664 110.968 78.1043 110.739 77.9374C110.367 77.9707 110.09 78.0089 109.906 78.0521C109.72 78.0688 109.54 78.1518 109.366 78.3013C109.192 78.4507 109.116 78.6449 109.137 78.884C108.986 80.1827 108.98 81.6155 109.12 83.1826C109.258 84.7231 109.472 86.3639 109.762 88.105C110.049 89.8196 110.224 91.0221 110.286 91.7127C110.49 93.9969 110.91 95.6995 111.546 96.8206C111.572 97.1128 111.876 97.3667 112.458 97.5824C113.066 97.7957 113.382 98.0351 113.406 98.3007C113.413 98.3804 113.422 98.4867 113.434 98.6195C113.446 98.7523 113.454 98.8452 113.459 98.8983C113.466 98.978 113.474 99.071 113.484 99.1772C113.493 99.2835 113.486 99.3511 113.462 99.38C113.44 99.4355 113.418 99.491 113.397 99.5465C113.377 99.6286 113.342 99.6852 113.291 99.7166C113.241 99.7479 113.177 99.7804 113.099 99.8141C113.022 99.8478 112.93 99.8694 112.824 99.8789C112.585 99.9003 111.903 99.9078 110.778 99.9014C109.682 99.9192 108.71 99.9795 107.862 100.082C107.017 100.211 106.367 100.43 105.913 100.739C105.196 100.803 104.676 100.823 104.352 100.798C104.058 100.798 103.726 100.68 103.357 100.445C103.014 100.208 102.672 99.8239 102.33 99.2923C102.867 98.7088 103.693 98.3671 104.808 98.2672L103.506 83.7254C103.473 83.3535 103.492 82.8164 103.563 82.1139C103.634 81.4114 103.644 80.7813 103.595 80.2236C103.542 79.6392 103.361 79.1066 103.05 78.6257C103.024 78.3336 103.033 77.9847 103.077 77.5792C103.121 77.1737 103.138 76.7705 103.129 76.3697C103.09 75.0345 102.902 73.2308 102.564 70.9585C102.227 68.6862 102.006 66.9657 101.901 65.7971C99.8297 65.9825 98.757 65.6636 98.6833 64.8402C98.5786 63.6715 98.7668 62.9318 99.2476 62.621C99.7285 62.3103 100.699 62.0895 102.16 61.9587C102.452 61.9325 102.764 61.8243 103.095 61.634C103.453 61.4414 103.764 61.3332 104.03 61.3094C105.416 60.9443 106.8 60.7 108.181 60.5763C109.56 60.4261 110.937 60.4099 112.313 60.5277C113.713 60.6165 114.925 60.99 115.947 61.6481C116.997 62.3038 117.72 63.2029 118.117 64.3454C119.064 67.1521 119.267 69.423 118.726 71.1582C118.394 72.2321 117.66 73.4491 116.523 74.8092L115.725 75.7641C115.749 76.0297 115.92 76.2955 116.238 76.5615C116.557 76.8275 116.729 77.1066 116.755 77.3988ZM106.974 63.6963C107.207 66.2993 107.627 69.7957 108.235 74.1857C108.345 74.5239 108.702 74.6258 109.306 74.4914C109.91 74.3571 110.581 74.0827 111.321 73.6685C112.087 73.2519 112.603 72.8844 112.869 72.5661C112.84 72.2474 112.909 71.6656 113.074 70.8208C113.239 69.9761 113.335 69.4052 113.362 69.1083C113.488 68.7222 113.475 68.121 113.321 67.3048C113.168 66.4885 113.079 65.9476 113.056 65.682C113.039 65.4961 112.996 65.3125 112.926 65.1314C112.856 64.9502 112.79 64.8089 112.727 64.7074C112.662 64.5793 112.543 64.4428 112.369 64.2977C112.22 64.1236 112.116 64.0124 112.058 63.9641C111.998 63.8891 111.84 63.7694 111.585 63.6049C111.353 63.4114 111.208 63.2905 111.15 63.2422C110.858 63.2683 110.156 63.3446 109.042 63.471C107.929 63.5975 107.24 63.6726 106.974 63.6963ZM162.728 63.0423C162.439 62.8005 162.251 62.2015 162.166 61.2453C162.078 60.2626 161.861 59.4921 161.517 58.9339C161.256 58.7163 160.847 58.6324 160.29 58.6824C159.732 58.7323 159.06 58.8593 158.276 59.0635C157.515 59.2387 156.949 59.3429 156.577 59.3762C156.383 59.9022 156.317 60.5106 156.379 61.2011C156.44 61.8917 156.562 62.6572 156.745 63.4976C156.951 64.3091 157.07 64.8875 157.101 65.2328L158.506 80.93L159.105 87.6232L159.255 89.2965C159.289 89.6684 159.293 90.1633 159.268 90.7813C159.269 91.397 159.289 91.9173 159.327 92.3423C159.365 92.7672 159.465 93.1331 159.626 93.44C159.723 93.6188 159.986 93.7157 160.415 93.7308C160.845 93.7458 161.24 93.8176 161.599 93.9461C161.985 94.0721 162.2 94.3742 162.243 94.8523C161.735 95.46 161.202 95.7888 160.644 95.8388L153.154 96.5093C152.889 96.5331 152.681 96.4579 152.532 96.2839C152.382 96.1099 152.286 95.9311 152.243 95.7475C152.226 95.5616 152.201 95.2827 152.168 94.9109C152.433 94.8871 152.833 94.7175 153.367 94.4019C153.901 94.0864 154.301 93.9167 154.566 93.8929L153.671 83.8929C153.613 83.8446 153.451 82.1857 153.186 78.9164C152.92 75.6471 152.785 73.9992 152.783 73.9726L152.412 69.8292L152.262 68.1559C151.918 64.3046 151.39 61.554 150.68 59.9041C149.493 59.7962 148.358 59.8309 147.276 60.008C146.218 60.1563 145.393 60.6585 144.8 61.5148C144.205 62.3445 144.086 63.3994 144.441 64.6794C143.96 65.2847 143.415 65.3335 142.808 64.8257C142.777 64.4804 142.658 63.902 142.452 63.0905C142.269 62.2501 142.147 61.4846 142.085 60.794C142.024 60.1034 142.09 59.4951 142.283 58.9691C144.057 57.8465 145.9 57.1995 147.812 57.0283C148.609 56.957 150.001 56.8056 151.989 56.5741C153.973 56.3161 155.404 56.1479 156.281 56.0694C157.529 55.9577 158.527 55.8951 159.276 55.8816C160.048 55.8392 160.925 55.908 161.905 56.088C162.909 56.2391 163.553 56.5562 163.837 57.0395C164.208 57.8898 164.459 58.7509 164.591 59.6226C164.72 60.4678 164.628 61.239 164.316 61.9363C164.028 62.6047 163.498 62.9733 162.728 63.0423ZM180.821 90.6992C180.167 83.3951 179.422 78.3615 178.585 75.5984C178.134 75.6388 177.126 75.5952 175.561 75.4675C174.021 75.3108 172.8 75.2729 171.897 75.3538C171.362 75.9639 171.199 77.4243 171.405 79.735C170.994 82.0208 171.04 85.9658 171.541 91.5701C171.881 91.7806 172.33 91.8609 172.888 91.8109C173.446 91.761 173.869 91.857 174.159 92.0988L174.189 93.7828C173.491 94.354 172.678 94.6945 171.751 94.8043C170.823 94.9141 170.007 94.9202 169.302 94.8227C168.6 94.7517 167.798 94.9172 166.897 95.3191L164.994 93.8028C165.88 92.6258 166.667 92.0064 167.358 91.9446C167.624 91.9208 167.815 91.81 167.931 91.6122C168.073 91.412 168.136 91.2189 168.12 91.033C168.13 90.8447 168.117 90.5514 168.081 90.153C168.205 88.241 168.347 85.0423 168.507 80.5568C168.692 76.0423 168.821 72.992 168.893 71.4059C168.688 69.1217 169.073 66.8383 170.047 64.5557C170.463 62.0286 171.593 59.1028 173.437 55.7784C173.486 55.7206 173.546 55.6482 173.619 55.5614C173.691 55.4746 173.853 55.3396 174.105 55.1565C174.354 54.9468 174.594 54.7914 174.826 54.6903C175.082 54.5603 175.383 54.4798 175.728 54.4489C176.073 54.418 176.399 54.4691 176.706 54.6023C177.594 54.9512 178.468 55.7431 179.328 56.978C180.188 58.2129 180.659 59.2818 180.739 60.1849C181.493 61.4293 182.053 62.8919 182.417 64.5727C182.928 66.9901 183.604 70.6511 184.445 75.5557C185.285 80.4603 185.904 83.9256 186.299 85.9518L186.756 91.0514C186.77 91.2107 186.925 91.4512 187.222 91.7727C187.518 92.0942 187.68 92.401 187.706 92.6932C187.732 92.9854 187.49 93.2747 186.98 93.5613L185.923 93.415C185.365 93.465 184.572 93.5761 183.543 93.7486C182.515 93.921 181.708 94.0333 181.124 94.0856C181.018 94.0952 180.833 94.1251 180.57 94.1754C180.309 94.2523 180.099 94.2979 179.939 94.3122C179.809 94.3506 179.649 94.3649 179.461 94.355C179.275 94.3716 179.126 94.3449 179.012 94.2747C178.925 94.2021 178.876 94.0995 178.864 93.9667C178.821 93.4886 179.03 92.8273 179.49 91.983C179.952 91.1652 180.396 90.7372 180.821 90.6992ZM173.808 59.9219C172.968 63.6918 172.383 66.5821 172.055 68.5928C172.076 68.8318 172.005 69.5343 171.842 70.7002C171.702 71.8371 171.648 72.5782 171.679 72.9235C173.371 73.2807 175.598 73.3357 178.36 73.0884L177.911 68.0685C177.676 65.439 176.892 62.6711 175.561 59.7649C175.557 59.7118 175.537 59.6466 175.504 59.5693C175.494 59.463 175.403 59.3374 175.229 59.1923C175.082 59.0448 174.876 58.983 174.61 59.0067L173.808 59.9219ZM198.917 53.8588C198.864 53.2745 199.13 52.9562 199.715 52.9039C200.087 52.8706 200.367 52.8589 200.555 52.8688C200.741 52.8522 200.921 52.9164 201.094 53.0615C201.292 53.1777 201.403 53.3685 201.427 53.6341C201.714 53.8494 201.876 54.1695 201.914 54.5945C201.95 54.9929 201.924 55.4504 201.836 55.9669C201.746 56.4569 201.709 56.7815 201.723 56.9409C201.682 57.0785 201.606 57.286 201.497 57.5635C201.415 57.8386 201.341 58.0594 201.276 58.2259C201.21 58.3924 201.123 58.6144 201.014 58.8919C200.929 59.1404 200.841 59.3492 200.749 59.518C200.681 59.658 200.589 59.8268 200.473 60.0247C200.354 60.1959 200.233 60.3406 200.11 60.4587C199.984 60.5503 199.844 60.6298 199.69 60.6972C199.535 60.7646 199.365 60.8066 199.179 60.8232C199.017 60.8109 198.838 60.76 198.643 60.6704C198.383 60.4527 198.233 60.1314 198.195 59.7065C198.157 59.2815 198.162 58.7323 198.208 58.0587C198.282 57.3828 198.301 56.8457 198.265 56.4473C197.8 56.0338 197.153 55.6901 196.325 55.4161C195.498 55.1422 194.685 55.0409 193.889 55.1122C193.513 56.0026 193.401 57.2977 193.554 58.9975C193.706 60.6974 194.047 61.9654 194.577 62.8014C195.015 63.5118 195.664 64.1767 196.522 64.7959C197.408 65.4128 198.271 65.9378 199.113 66.3712C199.953 66.7779 200.86 67.3393 201.834 68.0552C202.809 68.7712 203.589 69.5581 204.174 70.416C204.94 71.4987 205.575 72.4592 206.079 73.2977C207.078 74.8949 207.67 76.7161 207.853 78.7612C208.098 81.4969 207.792 84.0677 206.937 86.4736C206.423 87.9118 205.669 89.0636 204.676 89.929C203.685 90.8209 202.345 91.5566 200.657 92.1362L197.231 92.4429C196.513 92.5071 195.616 92.1993 194.537 91.5194C193.486 90.8371 192.596 90.1671 191.868 89.5094C190.376 87.2065 189.857 84.6962 190.31 81.9783C190.018 82.0045 189.739 82.1767 189.473 82.495C189.233 82.811 188.981 82.9808 188.715 83.0046C188.078 82.4726 187.71 81.6488 187.61 80.5333C188.357 80.1987 189.435 79.8344 190.846 79.4404C192.283 79.044 193.423 78.6207 194.266 78.1704C195.116 78.0943 195.746 78.3994 196.155 79.0856C196.565 79.7718 196.595 80.5589 196.246 81.4469C195.131 81.5467 194.307 81.915 193.775 82.5516C192.97 83.4269 192.839 84.8041 193.382 86.6832C193.954 88.5864 194.87 89.6958 196.129 90.0114C196.421 89.9852 196.701 89.813 196.967 89.4947C197.233 89.1764 197.512 89.0041 197.804 88.978C200.162 87.5085 201.645 85.2339 202.253 82.1541C202.89 79.0984 202.626 75.8557 201.463 72.4258C200.937 71.6429 200.4 71.0216 199.85 70.5622C199.3 70.1027 198.593 69.6841 197.729 69.3062C196.537 68.8507 195.319 68.103 194.075 67.0632C193.814 66.8455 193.377 66.5902 192.761 66.2973C192.146 66.0043 191.577 65.6269 191.054 65.165C190.967 65.0925 190.721 64.8869 190.316 64.5484C189.937 64.2074 189.675 63.9765 189.531 63.8556C189.384 63.7081 189.15 63.4881 188.829 63.1955C188.535 62.9006 188.312 62.6528 188.16 62.4522C188.033 62.2227 187.903 61.9666 187.77 61.6839C187.638 61.4013 187.56 61.1272 187.536 60.8615C186.677 58.743 187.324 56.396 189.476 53.8205C189.688 53.8015 190.14 53.6138 190.831 53.2574C191.522 52.9011 192.173 52.6955 192.784 52.6409C193.315 52.5933 193.783 52.5915 194.189 52.6355C194.594 52.6796 195.07 52.7575 195.615 52.8693C196.161 52.9811 196.677 53.0687 197.165 53.1321C197.749 53.6689 198.332 53.9112 198.917 53.8588ZM227.002 57.2882C226.713 57.0463 226.525 56.4473 226.44 55.4912C226.352 54.5084 226.136 53.738 225.791 53.1798C225.531 52.9622 225.122 52.8783 224.564 52.9282C224.006 52.9782 223.335 53.1052 222.55 53.3093C221.789 53.4845 221.223 53.5888 220.851 53.6221C220.657 54.1481 220.591 54.7564 220.653 55.447C220.715 56.1376 220.837 56.9031 221.019 57.7435C221.226 58.555 221.344 59.1334 221.375 59.4787L222.78 75.1759L223.38 81.8691L223.529 83.5424C223.563 83.9143 223.567 84.4092 223.542 85.0272C223.543 85.6429 223.563 86.1632 223.601 86.5881C223.639 87.0131 223.739 87.379 223.9 87.6859C223.997 87.8646 224.26 87.9616 224.689 87.9766C225.119 87.9917 225.514 88.0635 225.873 88.1919C226.259 88.318 226.474 88.6201 226.517 89.0982C226.009 89.7059 225.476 90.0347 224.918 90.0846L217.428 90.7552C217.163 90.779 216.955 90.7038 216.806 90.5298C216.656 90.3558 216.56 90.177 216.517 89.9934C216.5 89.8075 216.475 89.5286 216.442 89.1568C216.707 89.133 217.107 88.9633 217.641 88.6478C218.175 88.3323 218.575 88.1626 218.841 88.1388L217.945 78.1388C217.888 78.0905 217.726 76.4316 217.46 73.1623C217.194 69.893 217.06 68.2451 217.057 68.2185L216.686 64.0751L216.537 62.4018C216.192 58.5505 215.664 55.7999 214.954 54.15C213.767 54.0421 212.632 54.0768 211.55 54.2539C210.492 54.4022 209.667 54.9044 209.075 55.7607C208.48 56.5904 208.36 57.6452 208.715 58.9253C208.234 59.5306 207.69 59.5794 207.082 59.0715C207.051 58.7262 206.932 58.1479 206.726 57.3364C206.543 56.496 206.421 55.7305 206.36 55.0399C206.298 54.3493 206.364 53.741 206.558 53.215C208.331 52.0923 210.174 51.4454 212.087 51.2742C212.883 51.2029 214.275 51.0515 216.263 50.82C218.248 50.562 219.678 50.3938 220.555 50.3153C221.803 50.2035 222.802 50.1409 223.55 50.1275C224.323 50.0851 225.199 50.1539 226.179 50.3339C227.183 50.485 227.827 50.8021 228.111 51.2854C228.482 52.1357 228.733 52.9967 228.865 53.8685C228.994 54.7137 228.902 55.4849 228.59 56.1822C228.302 56.8506 227.773 57.2192 227.002 57.2882ZM247.695 54.3916C247.403 54.1232 247.221 53.5906 247.15 52.7938C247.079 51.9969 246.885 51.4788 246.569 51.2394C246.012 50.9947 245.442 50.7646 244.861 50.5489C242.178 50.7891 240.317 51.2368 239.278 51.8921C239.181 52.0078 239.086 52.1369 238.991 52.2792C238.921 52.3925 238.868 52.5446 238.832 52.7352C238.795 52.9259 238.768 53.0756 238.751 53.1842C238.734 53.2928 238.725 53.4944 238.725 53.7889C238.749 54.0545 238.765 54.2405 238.775 54.3467C238.785 54.4529 238.806 54.692 238.839 55.0638C238.872 55.4357 238.894 55.6747 238.903 55.781C238.977 56.6043 239.034 57.5363 239.073 58.577C239.14 59.6152 239.194 60.3733 239.237 60.8514C239.289 61.4358 239.405 62.1349 239.585 62.9487C239.792 63.7602 239.92 64.4448 239.97 65.0026C240.02 65.5604 239.947 66.089 239.75 66.5885C240.353 67.0432 241.996 67.1505 244.679 66.9103C244.536 65.3167 244.744 64.4949 245.301 64.445C245.7 64.4093 245.969 64.4254 246.109 64.4932C246.247 64.5344 246.546 64.7352 247.006 65.0956C246.771 65.7592 246.764 66.5764 246.985 67.5472C247.203 68.4915 247.34 69.4164 247.394 70.3218C247.446 71.2007 247.233 71.6615 246.755 71.7043C245.616 71.2441 245.022 70.7483 244.975 70.2171L244.9 69.3804L240.876 69.7407C240.704 70.5058 240.634 71.3688 240.666 72.3297C240.723 73.2617 240.847 74.3483 241.038 75.5895C241.227 76.8042 241.34 77.6107 241.375 78.0091C241.456 78.9122 241.614 80.2233 241.848 81.9426C242.082 83.6619 242.219 84.7473 242.26 85.1989C243.928 85.585 246.116 85.6568 248.825 85.4143C249.258 85.1614 249.462 84.7549 249.439 84.1947C249.442 83.6322 249.444 83.0564 249.445 82.4673C249.448 81.9048 249.666 81.4971 250.098 81.2442C250.47 81.2109 250.786 81.303 251.047 81.5207C251.334 81.736 251.539 82.0791 251.661 82.55C251.784 83.021 251.872 83.4146 251.928 83.731C251.985 84.0739 252.04 84.5375 252.092 85.1218C252.137 85.6265 251.667 86.4986 250.68 87.7382L246.576 88.1056C241.158 88.5906 236.804 88.6993 233.513 88.4317L233.367 86.7982L236.634 86.5057C236.745 85.0501 236.733 83.5785 236.6 82.0911C236.467 80.6038 236.252 78.9497 235.955 77.1289C235.685 75.3057 235.5 73.8364 235.4 72.7208L235.254 71.0874L234.523 62.92L234.234 59.693L233.581 52.4021L230.314 52.6946L230.168 51.0611C231.257 50.6691 232.866 50.244 234.993 49.7858C237.147 49.3252 238.744 48.9145 239.782 48.5538L247.91 47.8262C248.515 48.3075 248.843 48.827 248.893 49.3848C248.917 49.6504 249.026 50.1225 249.22 50.8012C249.413 51.4533 249.541 51.9907 249.606 52.4133C249.67 52.8358 249.561 53.2606 249.278 53.6875C248.993 54.0879 248.465 54.3226 247.695 54.3916ZM289.746 46.5708C289.77 46.8364 289.94 47.0889 290.255 47.3283C290.571 47.5678 290.741 47.8203 290.765 48.0859C291.012 50.8482 290.844 52.2555 290.26 52.3078C289.888 52.3411 289.593 52.1934 289.377 51.8648C289.157 51.5096 289.014 51.1074 288.947 50.6583C288.907 50.2067 288.825 49.7455 288.703 49.2745C288.58 48.8036 288.431 48.4823 288.255 48.3106C285.496 47.7008 283.292 47.8982 281.642 48.9027C281.376 49.221 281.014 49.9629 280.556 51.1284C280.095 52.2673 279.744 52.9814 279.503 53.2708C279.555 53.8552 279.339 54.4367 278.856 55.0155C278.685 56.1017 278.583 57.2085 278.55 58.3359C278.517 59.4633 278.525 60.4399 278.572 61.2657C278.616 62.0649 278.716 63.3277 278.871 65.0541L279.313 69.9944C281.155 76.8172 283.466 80.8004 286.246 81.9437C286.661 82.094 287.069 82.1646 287.47 82.1555C287.9 82.1705 288.333 82.0782 288.77 81.8784C289.21 81.7052 289.582 81.5246 289.886 81.3367C290.22 81.173 290.64 80.9346 291.148 80.6214C291.363 80.0399 291.409 79.0585 291.286 77.6774C291.162 76.2962 291.208 75.3149 291.424 74.7333C292.061 74.6763 292.606 74.7748 293.057 75.0289C293.508 75.283 293.826 75.4018 294.012 75.3851L294.533 81.2019C294.37 81.7787 294.067 82.2744 293.622 82.689C293.177 83.1037 292.711 83.4265 292.223 83.6576C291.761 83.8864 291.121 84.0641 290.303 84.191C289.511 84.3154 288.834 84.3893 288.274 84.4127C287.717 84.4627 286.939 84.4519 285.942 84.3805C284.974 84.3333 284.274 84.2889 283.842 84.2473C283.436 84.2033 282.774 84.1287 281.854 84.0237C281.666 84.0137 281.531 83.9991 281.449 83.9796C281.101 83.6894 280.53 83.2855 279.734 82.7677C278.967 82.2742 278.292 81.7723 277.711 81.2621C277.13 80.7518 276.567 80.1463 276.023 79.4454C275.833 78.8198 275.394 77.5071 274.706 75.5071C274.018 73.5071 273.472 71.7355 273.066 70.1922C272.66 68.6489 272.39 67.1336 272.257 65.6462C272.343 64.8085 272.439 63.4881 272.545 61.6847C272.676 59.8525 272.813 58.2472 272.957 56.8688C273.128 55.4881 273.361 54.1955 273.654 52.9912C273.87 52.7042 274.073 52.2844 274.264 51.7318C274.454 51.1526 274.706 50.6882 275.023 50.3386C275.858 48.8984 277.03 47.6289 278.538 46.53C280.07 45.4022 281.792 44.7527 283.704 44.5815C284.141 44.6763 284.713 44.7857 285.421 44.9098C286.154 45.0315 286.699 45.1301 287.053 45.2054C287.435 45.2784 287.878 45.4395 288.382 45.6889C288.884 45.9117 289.338 46.2056 289.746 46.5708ZM314.529 78.1667C314.016 79.3104 313.345 80.1871 312.516 80.7967C310.836 82.0716 309.114 82.7211 307.349 82.7452C305.611 82.767 304.025 82.4002 302.592 81.645C301.161 80.9163 300.043 79.9322 299.235 78.6926C298.086 76.9213 297.092 75.0827 296.252 73.1766C295.53 71.0994 294.975 67.8828 294.585 63.5268C294.551 63.155 294.482 62.6793 294.377 62.0997C294.271 61.5201 294.195 60.9648 294.147 60.4335C294.097 59.8758 294.097 59.2734 294.146 58.6264C294.291 56.9535 294.344 55.9046 294.306 55.4796C294.355 55.1272 294.4 54.5877 294.442 53.861C294.484 53.1344 294.554 52.5659 294.651 52.1556C294.748 51.7453 294.905 51.41 295.123 51.1495C295.404 50.696 295.795 49.9783 296.296 48.9964C296.823 48.0121 297.263 47.2365 297.614 46.6696C297.989 46.0738 298.481 45.4407 299.09 44.7704C299.726 44.0977 300.473 43.6158 301.33 43.3249C302.188 43.0339 303.168 42.9194 304.271 42.9813C305.865 42.8386 307.148 42.9647 308.12 43.3596C309.119 43.7521 310.085 44.5223 311.018 45.6704C312.34 46.382 313.503 47.563 314.508 49.2133C315.539 50.8613 316.24 52.7128 316.611 54.7679C316.815 55.8473 316.997 57.2769 317.156 59.0564C317.17 59.2158 317.202 59.5743 317.252 60.1321C317.3 60.6633 317.334 61.0484 317.356 61.2875C317.377 61.5265 317.398 61.9128 317.419 62.4464C317.464 62.9511 317.489 63.3772 317.494 63.7249C317.498 64.0726 317.495 64.4878 317.485 64.9707C317.474 65.4535 317.449 65.9243 317.41 66.3829C317.371 66.8416 317.318 67.3014 317.253 67.7625C316.793 71.6054 315.886 75.0735 314.529 78.1667ZM310.934 77.9264C311.676 75.4504 312.191 73.1285 312.479 70.9609C312.865 69.2931 312.912 66.8258 312.619 63.5589C312.569 63.0011 312.547 62.307 312.553 61.4764C312.584 60.617 312.575 59.9217 312.527 59.3905C312.48 58.8593 312.355 58.0672 312.154 57.0143C311.979 55.959 311.867 55.1525 311.817 54.5947C311.504 54.0873 311.166 53.301 310.802 52.2358C310.439 51.1706 310.087 50.3722 309.745 49.8405C309.653 49.7149 309.417 49.321 309.036 48.659C308.682 47.9946 308.413 47.5234 308.227 47.2455C308.039 46.9411 307.742 46.6063 307.334 46.2411C306.951 45.8471 306.565 45.5737 306.176 45.4211C305.672 45.4663 305.125 45.4885 304.536 45.4877C303.973 45.4845 303.413 45.5079 302.855 45.5578C301.574 47.0915 300.653 49.0748 300.095 51.5076C299.635 52.6465 299.502 54.305 299.697 56.4829C299.545 61.6638 300.358 67.6016 302.135 74.2965C302.386 74.7024 302.688 75.3849 303.041 76.3438C303.424 77.327 303.789 77.9637 304.136 78.2538C304.428 78.2277 304.629 78.3837 304.74 78.7218C304.88 79.0842 305.022 79.3258 305.166 79.4467C305.832 80.0029 306.896 80.0816 308.36 79.6829C309.853 79.3083 310.711 78.7228 310.934 77.9264ZM327.956 41.8649C327.741 42.4464 327.453 42.9675 327.092 43.4281C326.73 43.8622 326.56 44.2121 326.584 44.4777C326.8 46.8947 327.012 51.802 327.219 59.1997C327.45 66.5684 327.909 72.4442 328.596 76.8271C328.632 77.2255 328.679 77.4489 328.737 77.4972C328.821 77.5432 329.09 77.5593 329.544 77.5454C329.706 77.5577 329.972 77.5339 330.341 77.4741C330.739 77.4384 331.005 77.4146 331.138 77.4027C331.565 77.3913 332.11 77.3425 332.771 77.2565L333.648 77.178L333.206 72.2378L332.909 68.931C333.127 68.6706 333.369 68.5285 333.634 68.5047C333.927 68.4785 334.157 68.5114 334.326 68.6034L334.583 68.7812C335.106 69.2431 335.467 69.8399 335.667 70.5717C335.866 71.3035 335.973 72.3515 335.988 73.7155C336.006 75.1062 336.025 75.9211 336.047 76.1601C336.061 76.3195 336.143 76.6334 336.292 77.102C336.467 77.5682 336.573 78.0005 336.608 78.3989C336.646 78.8239 336.558 79.1799 336.343 79.4669C334.693 79.8823 332.288 80.2315 329.127 80.5144C325.993 80.795 323.747 81.1299 322.39 81.5192C322.161 81.3523 321.879 81.1901 321.543 81.0327C321.208 80.8753 320.967 80.7229 320.82 80.5754C320.675 80.4545 320.591 80.2613 320.567 79.9957C320.546 79.7566 320.622 79.5624 320.796 79.4129C320.97 79.2635 321.149 79.1672 321.332 79.1239C321.518 79.1073 321.797 79.0823 322.169 79.049C322.507 78.6439 322.696 78.212 322.736 77.7534C322.777 77.3213 322.755 76.6271 322.67 75.6709C322.98 72.8587 322.841 68.1591 322.251 61.5721L322.172 60.6956L321.513 53.3251C321.165 49.4473 320.638 46.6967 319.93 45.0733C319.909 44.8343 319.826 44.6543 319.681 44.5334C319.537 44.4125 319.297 44.2733 318.961 44.1159C318.626 43.9585 318.344 43.7964 318.114 43.6295L317.965 41.9562L318.841 41.8777C319.319 41.8349 320.574 41.6423 322.605 41.2998C324.66 40.9284 326.198 40.764 327.219 40.8064C327.354 40.8211 327.463 40.8381 327.545 40.8575C327.625 40.8504 327.692 40.8578 327.748 40.8796C327.801 40.8748 327.831 40.9123 327.838 40.9919C327.872 41.0692 327.891 41.1345 327.896 41.1876C327.898 41.2141 327.906 41.3071 327.921 41.4665C327.935 41.6258 327.947 41.7586 327.956 41.8649ZM346.826 40.1756C346.61 40.7571 346.322 41.2782 345.962 41.7388C345.599 42.1729 345.43 42.5227 345.454 42.7883C345.67 45.2053 345.882 50.1127 346.089 57.5103C346.32 64.8791 346.779 70.7549 347.466 75.1378C347.502 75.5362 347.549 75.7595 347.607 75.8079C347.691 75.8539 347.96 75.87 348.414 75.8561C348.576 75.8684 348.841 75.8446 349.211 75.7848C349.609 75.7491 349.875 75.7253 350.008 75.7134C350.435 75.7019 350.98 75.6532 351.641 75.5672L352.518 75.4887L352.075 70.5485L351.779 67.2417C351.997 66.9813 352.239 66.8392 352.504 66.8154C352.796 66.7892 353.027 66.8221 353.196 66.9141L353.453 67.0919C353.976 67.5538 354.337 68.1506 354.537 68.8824C354.736 69.6142 354.843 70.6621 354.858 72.0262C354.876 73.4169 354.895 74.2317 354.916 74.4708C354.931 74.6301 355.012 74.9441 355.161 75.4127C355.337 75.8789 355.443 76.3112 355.478 76.7096C355.516 77.1346 355.428 77.4906 355.212 77.7776C353.563 78.193 351.158 78.5421 347.997 78.8251C344.863 79.1057 342.617 79.4406 341.26 79.8299C341.031 79.663 340.749 79.5008 340.413 79.3434C340.078 79.186 339.837 79.0336 339.689 78.8861C339.545 78.7652 339.461 78.572 339.437 78.3063C339.415 78.0673 339.492 77.8731 339.666 77.7236C339.84 77.5742 340.019 77.4778 340.202 77.4346C340.388 77.418 340.667 77.393 341.039 77.3597C341.377 76.9546 341.566 76.5227 341.605 76.064C341.647 75.6319 341.625 74.9378 341.54 73.9816C341.85 71.1694 341.71 66.4698 341.121 59.8828L341.042 59.0063L340.382 51.6358C340.035 47.758 339.508 45.0074 338.8 43.384C338.779 43.1449 338.696 42.965 338.551 42.8441C338.406 42.7231 338.166 42.584 337.831 42.4266C337.496 42.2692 337.213 42.1071 336.984 41.9402L336.835 40.2669L337.711 40.1884C338.189 40.1456 339.444 39.953 341.474 39.6105C343.53 39.2391 345.068 39.0746 346.089 39.1171C346.224 39.1318 346.333 39.1488 346.415 39.1682C346.494 39.1611 346.562 39.1684 346.617 39.1902C346.671 39.1855 346.701 39.2229 346.708 39.3026C346.742 39.3799 346.761 39.4451 346.766 39.4983C346.768 39.5248 346.776 39.6178 346.791 39.7772C346.805 39.9365 346.817 40.0693 346.826 40.1756ZM371.418 43.3152C371.127 43.0468 370.945 42.5142 370.874 41.7174C370.802 40.9206 370.609 40.4025 370.293 40.163C369.736 39.9184 369.166 39.6883 368.585 39.4726C365.902 39.7128 364.041 40.1605 363.002 40.8157C362.905 40.9315 362.81 41.0605 362.715 41.2028C362.645 41.3162 362.592 41.4682 362.555 41.6589C362.519 41.8496 362.492 41.9992 362.475 42.1079C362.458 42.2165 362.449 42.4181 362.449 42.7126C362.473 42.9782 362.489 43.1641 362.499 43.2704C362.508 43.3766 362.53 43.6157 362.563 43.9875C362.596 44.3594 362.618 44.5984 362.627 44.7046C362.701 45.528 362.758 46.46 362.797 47.5006C362.863 48.5389 362.918 49.297 362.961 49.7751C363.013 50.3594 363.129 51.0585 363.309 51.8724C363.516 52.6839 363.644 53.3685 363.694 53.9263C363.744 54.484 363.671 55.0127 363.474 55.5122C364.077 55.9669 365.72 56.0742 368.403 55.834C368.26 54.2404 368.468 53.4186 369.025 53.3687C369.424 53.333 369.693 53.3491 369.833 53.4168C369.97 53.4581 370.27 53.6589 370.73 54.0192C370.495 54.6828 370.488 55.5001 370.709 56.4709C370.927 57.4152 371.063 58.3401 371.118 59.2455C371.17 60.1244 370.957 60.5852 370.478 60.628C369.34 60.1677 368.746 59.672 368.699 59.1408L368.624 58.3041L364.6 58.6644C364.427 59.4294 364.357 60.2925 364.39 61.2534C364.447 62.1854 364.571 63.272 364.762 64.5132C364.951 65.7278 365.064 66.5344 365.099 66.9328C365.18 67.8358 365.338 69.147 365.572 70.8663C365.806 72.5856 365.943 73.671 365.984 74.1225C367.652 74.5087 369.84 74.5805 372.549 74.338C372.982 74.0851 373.186 73.6785 373.163 73.1184C373.166 72.5559 373.168 71.9801 373.169 71.391C373.172 70.8285 373.39 70.4207 373.822 70.1678C374.194 70.1345 374.51 70.2267 374.771 70.4444C375.058 70.6596 375.263 71.0027 375.385 71.4737C375.508 71.9446 375.596 72.3383 375.651 72.6546C375.709 72.9976 375.764 73.4612 375.816 74.0455C375.861 74.5502 375.391 75.4223 374.404 76.6619L370.3 77.0292C364.882 77.5143 360.528 77.623 357.237 77.3553L357.091 75.7219L360.358 75.4294C360.469 73.9737 360.457 72.5022 360.324 71.0148C360.191 69.5274 359.976 67.8733 359.679 66.0526C359.409 64.2294 359.224 62.7601 359.124 61.6445L358.978 60.0111L358.246 51.8437L357.958 48.6166L357.305 41.3258L354.038 41.6182L353.892 39.9848C354.981 39.5927 356.59 39.1676 358.717 38.7094C360.871 38.2488 362.468 37.8382 363.506 37.4775L371.634 36.7499C372.239 37.2311 372.567 37.7507 372.617 38.3084C372.641 38.574 372.75 39.0462 372.944 39.7249C373.137 40.377 373.265 40.9143 373.33 41.3369C373.394 41.7595 373.285 42.1843 373.002 42.6112C372.717 43.0116 372.189 43.2463 371.418 43.3152ZM393.55 37.2778C393.573 37.5434 393.743 37.7959 394.059 38.0354C394.375 38.2748 394.545 38.5273 394.569 38.793C394.816 41.5552 394.647 42.9625 394.063 43.0148C393.691 43.0481 393.397 42.9005 393.18 42.5718C392.961 42.2166 392.818 41.8144 392.751 41.3653C392.71 40.9138 392.629 40.4525 392.506 39.9816C392.384 39.5106 392.235 39.1893 392.059 39.0177C389.3 38.4079 387.096 38.6052 385.445 39.6097C385.179 39.928 384.817 40.6699 384.359 41.8354C383.899 42.9743 383.548 43.6885 383.306 43.9779C383.358 44.5622 383.143 45.1437 382.659 45.7225C382.489 46.8087 382.387 47.9155 382.354 49.0429C382.321 50.1704 382.328 51.147 382.375 51.9727C382.42 52.7719 382.52 54.0347 382.674 55.7611L383.117 60.7014C384.959 67.5243 387.27 71.5074 390.05 72.6508C390.465 72.801 390.873 72.8716 391.273 72.8625C391.703 72.8776 392.137 72.7852 392.574 72.5854C393.014 72.4122 393.386 72.2316 393.69 72.0437C394.023 71.88 394.444 71.6416 394.951 71.3284C395.167 70.7469 395.213 69.7655 395.089 68.3844C394.966 67.0033 395.012 66.0219 395.227 65.4404C395.865 65.3833 396.409 65.4818 396.86 65.7359C397.311 65.9901 397.63 66.1088 397.816 66.0922L398.337 71.9089C398.174 72.4857 397.87 72.9814 397.426 73.396C396.981 73.8107 396.514 74.1336 396.026 74.3647C395.565 74.5934 394.925 74.7712 394.106 74.898C393.314 75.0225 392.638 75.0964 392.078 75.1197C391.52 75.1697 390.743 75.159 389.746 75.0876C388.778 75.0404 388.078 74.996 387.646 74.9543C387.24 74.9103 386.577 74.8358 385.658 74.7307C385.469 74.7208 385.334 74.7061 385.252 74.6867C384.905 74.3965 384.333 73.9925 383.537 73.4748C382.77 72.9812 382.096 72.4793 381.515 71.9691C380.934 71.4589 380.371 70.8533 379.826 70.1524C379.636 69.5269 379.198 68.2141 378.51 66.2141C377.822 64.2141 377.275 62.4425 376.869 60.8992C376.463 59.3559 376.194 57.8406 376.061 56.3532C376.146 55.5156 376.242 54.1951 376.349 52.3918C376.479 50.5595 376.617 48.9542 376.761 47.5758C376.932 46.1951 377.164 44.9025 377.458 43.6982C377.673 43.4112 377.877 42.9914 378.068 42.4388C378.257 41.8596 378.51 41.3952 378.827 41.0456C379.662 39.6054 380.833 38.3359 382.341 37.237C383.873 36.1093 385.596 35.4598 387.508 35.2886C387.945 35.3833 388.517 35.4928 389.224 35.6169C389.958 35.7386 390.502 35.8371 390.857 35.9124C391.238 35.9854 391.681 36.1465 392.185 36.3959C392.687 36.6187 393.142 36.9127 393.55 37.2778ZM417.257 40.2557C416.968 40.0139 416.78 39.4149 416.695 38.4587C416.607 37.476 416.39 36.7055 416.046 36.1473C415.785 35.9297 415.376 35.8458 414.819 35.8958C414.261 35.9457 413.589 36.0727 412.804 36.2769C412.044 36.4521 411.477 36.5563 411.106 36.5896C410.912 37.1157 410.846 37.724 410.908 38.4145C410.969 39.1051 411.091 39.8706 411.274 40.711C411.48 41.5225 411.599 42.1009 411.63 42.4462L413.035 58.1434L413.634 64.8366L413.784 66.51C413.817 66.8818 413.822 67.3767 413.797 67.9948C413.798 68.6104 413.818 69.1307 413.856 69.5557C413.894 69.9806 413.994 70.3465 414.155 70.6534C414.251 70.8322 414.514 70.9291 414.944 70.9442C415.374 70.9593 415.769 71.031 416.128 71.1595C416.514 71.2855 416.729 71.5876 416.771 72.0657C416.264 72.6734 415.731 73.0022 415.173 73.0522L407.683 73.7227C407.417 73.7465 407.21 73.6714 407.06 73.4973C406.911 73.3233 406.815 73.1445 406.771 72.961C406.755 72.775 406.73 72.4961 406.697 72.1243C406.962 72.1005 407.362 71.9309 407.896 71.6153C408.43 71.2998 408.83 71.1301 409.095 71.1064L408.2 61.1063C408.142 61.058 407.98 59.3991 407.714 56.1298C407.449 52.8605 407.314 51.2126 407.312 51.186L406.941 47.0426L406.791 45.3693C406.446 41.518 405.919 38.7674 405.209 37.1175C404.021 37.0096 402.887 37.0443 401.805 37.2215C400.747 37.3697 399.922 37.8719 399.329 38.7282C398.734 39.5579 398.615 40.6128 398.97 41.8928C398.489 42.4982 397.944 42.5469 397.337 42.0391C397.306 41.6938 397.187 41.1154 396.981 40.3039C396.798 39.4635 396.676 38.698 396.614 38.0074C396.552 37.3168 396.618 36.7085 396.812 36.1825C398.586 35.0599 400.429 34.413 402.341 34.2418C403.138 34.1704 404.53 34.019 406.517 33.7876C408.502 33.5295 409.933 33.3613 410.81 33.2828C412.058 33.1711 413.056 33.1085 413.805 33.095C414.577 33.0526 415.454 33.1214 416.434 33.3014C417.438 33.4525 418.082 33.7696 418.366 34.2529C418.737 35.1032 418.988 35.9643 419.119 36.836C419.249 37.6812 419.157 38.4524 418.845 39.1497C418.556 39.8181 418.027 40.1867 417.257 40.2557ZM428.113 34.7055C427.941 35.7652 427.894 36.586 427.972 37.1679C428.051 37.7499 428.191 38.5673 428.393 39.6202C428.621 40.6707 428.748 41.4894 428.773 42.0761C428.87 43.7541 429 46.4064 429.164 50.0329C429.328 53.6594 429.489 56.9515 429.647 59.9092C429.831 62.8646 430.043 65.6835 430.284 68.3661C430.602 68.6321 431.039 68.8742 431.594 69.0922C432.175 69.3079 432.596 69.5245 432.857 69.7422C432.878 69.9812 432.828 70.1731 432.707 70.3178C432.589 70.489 432.392 70.6807 432.116 70.8928C431.841 71.1049 431.606 71.3267 431.413 71.5582C430.831 71.3425 429.651 71.3143 427.871 71.4736C426.118 71.6306 424.817 71.5998 423.967 71.3814C423.36 70.8735 423.312 70.3423 423.825 69.7877C423.798 69.4956 423.985 69.3316 424.383 69.296C424.808 69.2579 425.128 69.0954 425.343 68.8084C425.561 68.548 425.652 68.2185 425.616 67.8201C425.581 67.4217 425.474 66.9761 425.296 66.4834C425.147 66.0148 425.065 65.7008 425.051 65.5415C424.975 64.6915 424.881 63.4951 424.77 61.9522C424.683 60.3804 424.603 59.1961 424.532 58.3993C424.388 57.6893 424.291 57.0554 424.241 56.4976L423.581 49.1271L422.337 35.2227C421.991 35.2536 421.726 35.2774 421.54 35.2941C421.378 35.2818 421.198 35.2175 421 35.1014C420.803 34.9852 420.692 34.7943 420.668 34.5287L420.522 32.8953C420.5 32.6562 420.569 32.5296 420.729 32.5153C420.888 32.501 421.186 32.5413 421.623 32.636C422.084 32.7019 422.527 32.7157 422.952 32.6777C423.297 32.6468 423.943 32.5354 424.89 32.3436C425.861 32.1228 426.745 31.9767 427.542 31.9054C428.338 31.8341 428.986 31.8965 429.486 32.0928C429.976 32.4773 430.062 32.9917 429.745 33.6358C429.427 34.28 428.884 34.6366 428.113 34.7055ZM453.233 65.7494C452.719 66.8931 452.048 67.7697 451.219 68.3794C449.539 69.6543 447.817 70.3038 446.052 70.3279C444.314 70.3496 442.728 69.9829 441.295 69.2277C439.865 68.499 438.746 67.5149 437.939 66.2752C436.789 64.504 435.795 62.6653 434.955 60.7593C434.233 58.682 433.678 55.4654 433.288 51.1095C433.254 50.7377 433.185 50.262 433.08 49.6824C432.974 49.1028 432.898 48.5474 432.85 48.0162C432.8 47.4584 432.8 46.8561 432.849 46.2091C432.994 44.5362 433.047 43.4873 433.009 43.0623C433.058 42.7099 433.103 42.1704 433.145 41.4437C433.187 40.7171 433.257 40.1486 433.354 39.7383C433.451 39.328 433.609 38.9926 433.826 38.7322C434.107 38.2787 434.498 37.561 434.999 36.5791C435.527 35.5947 435.966 34.8192 436.317 34.2523C436.692 33.6565 437.184 33.0234 437.793 32.3531C438.429 31.6803 439.176 31.1985 440.033 30.9076C440.891 30.6166 441.871 30.5021 442.974 30.5639C444.568 30.4213 445.851 30.5474 446.823 30.9422C447.822 31.3347 448.788 32.105 449.721 33.2531C451.043 33.9647 452.206 35.1457 453.211 36.796C454.242 38.444 454.943 40.2955 455.314 42.3505C455.518 43.43 455.7 44.8595 455.859 46.6391C455.873 46.7984 455.905 47.157 455.955 47.7148C456.003 48.246 456.037 48.6311 456.059 48.8701C456.08 49.1092 456.101 49.4955 456.122 50.0291C456.168 50.5337 456.192 50.9599 456.197 51.3076C456.201 51.6552 456.198 52.0705 456.188 52.5533C456.177 53.0362 456.153 53.5069 456.113 53.9656C456.074 54.4242 456.022 54.8841 455.956 55.3451C455.497 59.188 454.589 62.6561 453.233 65.7494ZM449.637 65.5091C450.379 63.033 450.894 60.7112 451.182 58.5435C451.568 56.8758 451.615 54.4085 451.322 51.1415C451.272 50.5838 451.251 49.8896 451.256 49.0591C451.287 48.1997 451.278 47.5043 451.23 46.9731C451.183 46.4419 451.058 45.6499 450.857 44.597C450.682 43.5417 450.57 42.7351 450.52 42.1774C450.207 41.6699 449.869 40.8836 449.506 39.8184C449.142 38.7532 448.79 37.9548 448.448 37.4232C448.356 37.2975 448.12 36.9037 447.74 36.2416C447.386 35.5772 447.116 35.1061 446.93 34.8282C446.742 34.5237 446.445 34.1889 446.037 33.8238C445.654 33.4298 445.268 33.1564 444.879 33.0038C444.375 33.049 443.828 33.0711 443.239 33.0703C442.676 33.0671 442.116 33.0905 441.558 33.1405C440.277 34.6742 439.357 36.6575 438.798 39.0903C438.338 40.2292 438.205 41.8876 438.4 44.0656C438.248 49.2465 439.061 55.1843 440.838 61.8792C441.089 62.2851 441.391 62.9676 441.744 63.9265C442.127 64.9097 442.492 65.5463 442.839 65.8365C443.131 65.8104 443.332 65.9664 443.443 66.3045C443.583 66.6668 443.725 66.9085 443.869 67.0294C444.535 67.5856 445.6 67.6643 447.063 67.2655C448.556 66.891 449.414 66.3055 449.637 65.5091ZM479.989 27.6117C480.01 27.8507 479.966 28.109 479.857 28.3865C479.748 28.664 479.633 28.8751 479.512 29.0198L479.335 29.2766L477.701 29.4229C477.484 29.6833 477.388 29.9596 477.414 30.2518C477.438 30.5174 477.524 30.8845 477.673 31.3531C477.849 31.8193 477.954 32.2516 477.99 32.65C478.028 33.0749 478.193 35.0682 478.485 38.6296C478.804 42.1887 479.017 44.5659 479.124 45.7611C479.255 46.9274 479.457 48.8905 479.731 51.6504C480.032 54.4079 480.316 56.8323 480.583 58.9234C480.88 61.0387 481.203 63.1517 481.552 65.2622C481.645 66.0036 481.452 66.5296 480.971 66.8404C480.492 67.1777 479.955 67.3062 479.359 67.2257C478.765 67.1717 478.309 67.0118 477.99 66.7458C477.586 65.8181 476.846 64.1307 475.77 61.6836C474.694 59.2364 473.703 56.9825 472.795 54.9219C471.912 52.8323 471.187 51.0097 470.619 49.4542C470.304 48.6256 469.538 47.1012 468.322 44.8808L467.69 43.6522C467.565 43.4492 467.33 42.7741 466.987 41.6269C466.643 40.4796 466.138 39.7752 465.472 39.5135L465.972 45.0912L466.542 51.4657L467.117 57.88L467.331 60.2705L467.687 64.2545C468.266 64.7382 469.073 64.9337 470.109 64.8409C470.133 65.1065 470.175 65.4241 470.235 65.7935C470.321 66.1606 470.374 66.4504 470.393 66.6629C470.441 66.8996 470.448 67.1265 470.413 67.3438C470.408 67.5852 470.331 67.7661 470.181 67.8867C470.031 68.0072 469.81 68.0805 469.518 68.1066C468.856 68.1927 468.26 68.2594 467.729 68.307C467.463 68.3308 466.575 68.4237 465.063 68.5858C463.554 68.7745 462.666 68.8807 462.401 68.9045C462.241 68.9187 462.117 68.8763 462.028 68.7772C461.939 68.6781 461.871 68.5235 461.826 68.3134C461.807 68.1009 461.787 67.8751 461.765 67.6361C461.746 67.4236 461.733 67.1302 461.726 66.756C461.722 66.4084 461.708 66.1017 461.684 65.8361C462.594 66.1295 463.025 66.0106 462.978 65.4794C463.174 64.9799 463.257 64.4102 463.226 63.7704C463.225 63.1547 463.145 62.4122 462.987 61.5429C462.855 60.6711 462.779 60.1158 462.757 59.8767C462.681 59.0268 462.513 57.7433 462.252 56.0264C462.018 54.3071 461.879 53.2084 461.836 52.7304C461.789 52.1991 461.693 51.284 461.55 49.9849C461.434 48.6835 461.348 47.7273 461.294 47.1164C461.241 46.5321 461.117 45.74 460.92 44.7402C460.724 43.7404 460.601 42.9749 460.554 42.4437C460.53 42.1781 460.414 41.7736 460.204 41.2301C460.022 40.6842 459.918 40.2784 459.895 40.0128L459.823 39.216L459.606 36.7857C459.584 36.5467 459.545 36.2557 459.487 35.9128C459.427 35.5433 459.38 35.1594 459.344 34.761C459.308 34.3626 459.145 33.8819 458.854 33.319C458.56 32.7295 458.402 32.3152 458.381 32.0762C457.611 32.1452 456.999 32.0393 456.545 31.7586C456.092 31.4779 455.846 31.1251 455.808 30.7001C455.772 30.3017 455.874 29.9446 456.114 29.6286C456.353 29.3127 456.672 29.1369 457.07 29.1012C457.363 29.075 457.64 29.0368 457.903 28.9865C458.191 28.9072 458.519 28.8376 458.889 28.7778C459.152 28.7274 459.553 28.7183 460.091 28.7504C460.654 28.7536 461.121 28.7386 461.493 28.7053C461.811 28.6768 462.101 28.7713 462.361 28.989C462.622 29.2066 462.804 29.4447 462.907 29.7031L463.019 30.0546C464.104 31.4032 465.105 32.8665 466.022 34.4442C466.94 36.022 467.976 38.0177 469.129 40.4311C470.306 42.8156 471.137 44.4682 471.621 45.3887C472.328 47.012 473.305 48.7987 474.55 50.7488C474.603 51.3331 474.902 52.1363 475.449 53.1583C475.516 53.3129 475.688 53.7392 475.965 54.4373C476.266 55.1065 476.568 55.789 476.871 56.4847C477.198 57.1515 477.496 57.6336 477.763 57.9309C477.855 58.0565 477.881 57.8936 477.84 57.4421C477.807 57.0702 477.676 56.2118 477.449 54.8667C477.217 53.4685 477.083 52.5702 477.047 52.1718C476.933 50.8969 476.791 48.7142 476.621 45.6237C476.45 42.5066 476.289 40.1114 476.139 38.4381L476.068 37.6413C475.994 36.8179 475.765 35.7541 475.38 34.4499C474.996 33.1456 474.768 32.0951 474.696 31.2983C473.539 30.331 472.681 29.8723 472.124 29.9222C472.008 29.8255 471.809 29.696 471.527 29.5339C471.268 29.3428 471.095 29.1977 471.006 29.0986C470.943 28.9971 470.901 28.8269 470.88 28.5878C470.882 28.3198 470.959 27.9783 471.109 27.5633C471.348 27.5419 471.538 27.5651 471.678 27.6329C471.844 27.6983 472.14 27.712 472.565 27.6739C472.91 27.643 473.228 27.6012 473.517 27.5485C473.831 27.4668 474.052 27.3935 474.18 27.3285L474.336 27.2744C475.014 27.3743 475.694 27.3402 476.375 27.1721C477.08 26.9751 477.782 26.8856 478.48 26.9034C479.204 26.9189 479.707 27.155 479.989 27.6117Z" fill="black"/>
<defs>
<filter id="filter0_d_5_7" x="0" y="0" width="510" height="134" filterUnits="userSpaceOnUse" color-interpolation-filters="sRGB">
<feFlood flood-opacity="0" result="BackgroundImageFix"/>
<feColorMatrix in="SourceAlpha" type="matrix" values="0 0 0 0 0 0 0 0 0 0 0 0 0 0 0 0 0 0 127 0" result="hardAlpha"/>
<feOffset dy="4"/>
<feGaussianBlur stdDeviation="2"/>
<feComposite in2="hardAlpha" operator="out"/>
<feColorMatrix type="matrix" values="0 0 0 0 0 0 0 0 0 0 0 0 0 0 0 0 0 0 0.25 0"/>
<feBlend mode="normal" in2="BackgroundImageFix" result="effect1_dropShadow_5_7"/>
<feBlend mode="normal" in="SourceGraphic" in2="effect1_dropShadow_5_7" result="shape"/>
</filter>
</defs>
</svg>
