<svg width="502" height="126" viewBox="0 0 502 126" fill="none" xmlns="http://www.w3.org/2000/svg">
<path d="M4.79467 71.382C10.7086 62.2636 10.574 55.9466 3.17511 42.1803L490.123 0C487.635 6.91873 487.482 10.8356 487.964 17.8455C498.947 23.1408 501.941 28.5706 493.902 48.6695C489.798 64.7829 492.115 71.899 502 82.1974L5.87438 126C7.52998 117.654 8.19681 112.787 7.49394 102.747C0.121806 88.9594 -3.58809 81.3325 4.79467 71.382Z" fill="#DFD9CE"/>
<path d="M46.1682 65.8502C46.3037 67.3642 46.1324 68.1425 45.6544 68.1853L43.3038 68.3958C43.1265 69.1077 42.7083 71.3138 42.0489 75.014C41.3872 78.6877 40.7231 81.4378 40.0566 83.2645C39.7446 83.6673 39.5292 84.1016 39.4102 84.5674C39.3155 85.0042 39.2703 85.3965 39.2746 85.7441C39.3055 86.0894 39.3832 86.6581 39.5077 87.4502C39.6298 88.2157 39.7146 88.864 39.7621 89.3952C39.6456 89.8876 39.6051 90.333 39.6408 90.7314C39.703 91.1274 39.8084 91.707 39.9571 92.4701C40.1299 93.2043 40.2282 93.7042 40.252 93.9698C40.2948 94.4478 40.3396 95.247 40.3863 96.3673C40.4354 97.5142 40.4788 98.4474 40.5165 99.1669C40.5807 99.884 40.7136 100.622 40.9154 101.38C41.1461 102.163 41.4495 102.711 41.8257 103.026C43.2021 102.849 43.9129 103.013 43.9581 103.517C44.5333 104.858 44.5612 105.619 44.0419 105.799C43.2883 106.054 42.4998 106.218 41.6764 106.292C40.8554 106.392 40.0296 106.439 39.1991 106.433C38.3686 106.427 37.8206 106.436 37.555 106.46L33.7303 106.802C32.9731 106.121 32.9053 105.364 33.527 104.531C33.7712 104.269 34.2784 104.103 35.0486 104.034C35.8189 103.965 36.3117 103.787 36.5269 103.5C36.4817 102.995 36.4023 101.958 36.2886 100.389C36.1772 98.8459 36.0714 97.6639 35.9711 96.8429C35.8998 96.0461 35.7734 94.9329 35.5918 93.5034C35.4103 92.0739 35.185 90.9027 34.9158 89.9897C34.6732 89.0744 34.3716 88.0974 34.0109 87.0587C33.6478 85.9935 33.1927 85.0972 32.6457 84.3698C32.1228 83.6134 31.5189 82.9981 30.8339 82.524C30.3982 81.5456 29.4819 79.8338 28.085 77.3886C26.7709 74.3738 26.0271 71.8969 25.8535 69.958C24.3396 70.0935 23.5612 69.9222 23.5184 69.4442C23.413 68.8646 23.4523 68.4059 23.6362 68.0682C23.8467 67.7281 24.1754 67.5112 24.6221 67.4177C25.0665 67.2976 25.5024 67.2318 25.9297 67.2203C26.3547 67.1822 26.8496 67.1781 27.4145 67.2078C27.9794 67.2376 28.3814 67.2418 28.6205 67.2204C29.0986 67.1776 29.8591 67.1496 30.9021 67.1366C31.9693 67.0946 32.7552 67.051 33.2598 67.0058C33.8096 67.4653 34.1297 68.1997 34.2201 69.209C34.0873 69.2209 33.7916 69.2072 33.3329 69.1679C32.8742 69.1287 32.4614 69.1522 32.0943 69.2387C31.7514 69.2961 31.4832 69.4406 31.2897 69.6721C31.3979 69.9837 31.5945 70.9835 31.8795 72.6715C31.9489 73.1472 32.0628 73.6724 32.2214 74.2473C32.3799 74.8221 32.4711 75.2423 32.4949 75.5079C33.0312 77.0127 33.7077 78.4381 34.5243 79.784C35.3385 81.1033 36.1507 82.1015 36.961 82.7786C37.4177 82.4968 37.7598 82.1315 37.9874 81.6827C38.2125 81.2074 38.4332 80.5317 38.6492 79.6557C38.8895 78.7506 39.0968 78.0761 39.2713 77.6321C40.2454 75.055 40.6294 72.3165 40.4233 69.4167C40.39 69.0448 39.9088 68.7532 38.9796 68.5419C38.048 68.304 37.4389 67.9302 37.1523 67.4204C37.1119 66.9689 37.4189 66.6603 38.0734 66.4946C38.7521 66.2999 39.8532 66.188 41.3766 66.1587C42.8977 66.1028 43.7379 66.0678 43.8973 66.0535C44.0832 66.0369 44.3175 65.9623 44.6001 65.8299C44.907 65.6686 45.1799 65.5772 45.419 65.5558C45.6846 65.5321 45.9343 65.6302 46.1682 65.8502ZM67.945 99.884C67.4316 101.028 66.7604 101.904 65.9315 102.514C64.2518 103.789 62.5295 104.438 60.7646 104.462C59.0263 104.484 57.4406 104.118 56.0076 103.362C54.5769 102.634 53.458 101.649 52.6509 100.41C51.5018 98.6386 50.5072 96.7999 49.6672 94.8939C48.9458 92.8166 48.3901 89.6 48.0001 85.2441C47.9668 84.8723 47.8975 84.3966 47.792 83.817C47.6866 83.2374 47.6101 82.682 47.5625 82.1508C47.5126 81.593 47.5122 80.9907 47.5614 80.3437C47.7061 78.6708 47.7595 77.6219 47.7214 77.1969C47.7702 76.8445 47.8156 76.305 47.8577 75.5783C47.8997 74.8517 47.9693 74.2832 48.0664 73.8729C48.1636 73.4626 48.321 73.1272 48.5386 72.8668C48.8193 72.4133 49.2102 71.6956 49.7113 70.7137C50.2389 69.7293 50.6782 68.9538 51.0291 68.3869C51.4041 67.7911 51.8963 67.158 52.5056 66.4877C53.1415 65.8149 53.8881 65.3331 54.7456 65.0422C55.6031 64.7512 56.5834 64.6367 57.6867 64.6985C59.2803 64.5559 60.5633 64.682 61.5358 65.0768C62.5347 65.4693 63.5006 66.2396 64.4334 67.3877C65.7554 68.0993 66.9187 69.2803 67.9232 70.9306C68.9542 72.5786 69.6554 74.4301 70.0268 76.4851C70.2306 77.5646 70.4121 78.9941 70.5714 80.7737C70.5857 80.933 70.6178 81.2916 70.6677 81.8494C70.7153 82.3806 70.7497 82.7657 70.7711 83.0048C70.7925 83.2438 70.8137 83.6301 70.8347 84.1637C70.8799 84.6683 70.9047 85.0945 70.909 85.4422C70.9134 85.7898 70.9104 86.2051 70.9001 86.6879C70.8898 87.1708 70.865 87.6415 70.8257 88.1002C70.7864 88.5588 70.7339 89.0187 70.6681 89.4797C70.2089 93.3226 69.3012 96.7907 67.945 99.884ZM64.3492 99.6437C65.0914 97.1676 65.6064 94.8458 65.8943 92.6781C66.2804 91.0104 66.3273 88.5431 66.0348 85.2761C65.9849 84.7184 65.9629 84.0242 65.9689 83.1937C65.999 82.3343 65.9903 81.6389 65.9428 81.1077C65.8952 80.5765 65.7707 79.7845 65.5694 78.7316C65.3946 77.6763 65.2822 76.8697 65.2323 76.312C64.9191 75.8045 64.581 75.0182 64.2179 73.953C63.8548 72.8878 63.5022 72.0894 63.1601 71.5578C63.0686 71.4321 62.8325 71.0383 62.4519 70.3762C62.098 69.7118 61.8282 69.2407 61.6427 68.9628C61.4548 68.6583 61.1571 68.3235 60.7496 67.9584C60.3662 67.5644 59.9803 67.291 59.5918 67.1384C59.0872 67.1836 58.5403 67.2057 57.9512 67.2049C57.3887 67.2018 56.8286 67.2251 56.2708 67.2751C54.9891 68.8088 54.069 70.7921 53.5103 73.2249C53.0501 74.3638 52.9174 76.0222 53.1124 78.2002C52.9604 83.3811 53.7731 89.3189 55.5505 96.0138C55.801 96.4197 56.1031 97.1022 56.4567 98.0611C56.8392 99.0443 57.2041 99.6809 57.5513 99.9711C57.8435 99.945 58.0449 100.101 58.1555 100.439C58.295 100.801 58.4371 101.043 58.5818 101.164C59.2474 101.72 60.312 101.799 61.7756 101.4C63.2681 101.026 64.126 100.44 64.3492 99.6437ZM81.645 96.6897C83.4103 98.1648 84.9395 98.3492 86.2326 97.2428C86.878 96.6763 87.3728 95.9225 87.7169 94.9814C88.061 94.0403 88.2388 92.8866 88.2504 91.5201C88.2885 90.1512 88.2923 89.1469 88.2618 88.5071C88.2289 87.8407 88.1518 86.8302 88.0305 85.4756L86.9427 73.3242C86.8737 72.554 86.8365 71.5399 86.831 70.282C86.8496 68.9953 86.8233 67.9535 86.752 67.1566C86.6783 66.3333 86.5005 65.6932 86.2186 65.2366C85.9558 64.9923 85.6857 64.8157 85.4082 64.7067C85.1283 64.5711 84.9075 64.4972 84.7457 64.4849L84.5465 64.5027C84.5346 64.3699 84.3047 63.8952 83.8568 63.0786C83.6281 62.6171 83.6731 62.3721 83.9918 62.3436C84.4699 62.3008 85.4092 62.1765 86.8098 61.9708C88.2369 61.7627 89.2837 61.6423 89.9501 61.6094C90.8821 61.5527 91.6291 61.6732 92.1912 61.971C92.751 62.2421 93.0209 62.566 93.0011 62.9426C93.0078 63.3169 92.9036 63.6475 92.6883 63.9345C92.0718 64.5251 91.7386 65.4385 91.6886 66.6745C91.6387 67.9106 91.6921 69.4051 91.8491 71.1581C92.0326 72.9087 92.0753 74.2837 91.9774 75.2831L92.7014 83.3707L92.7799 84.2472C93.0153 86.8767 93.0448 89.1498 92.8683 91.0665C92.7184 92.9808 92.2548 94.8295 91.4773 96.6126C90.0144 100.01 87.9948 101.824 85.4184 102.055C85.2325 102.071 85.0212 102.104 84.7845 102.151C84.5479 102.199 84.1241 102.251 83.5132 102.305C81.4419 102.196 79.5254 100.976 77.7638 98.6435C77.183 97.8388 76.7224 96.5815 76.382 94.8717C76.0439 93.1885 75.7557 92.063 75.5174 91.4954L73.702 71.2165C73.6996 71.1899 73.656 70.404 73.5712 68.8587C73.4864 67.3135 73.3862 66.4925 73.2704 66.3957C73.2201 66.1325 73.0538 65.9198 72.7715 65.7577C72.4893 65.5955 72.1852 65.4889 71.8594 65.4377C71.5577 65.3577 71.2766 65.2088 71.0162 64.9911C70.7557 64.7735 70.6101 64.492 70.5792 64.1467C70.7243 63.9731 70.8729 63.8393 71.0251 63.7454C71.175 63.6249 71.3671 63.5274 71.6014 63.4528C71.8356 63.3783 72.0192 63.3351 72.152 63.3232C72.309 63.2824 72.5734 63.2453 72.9452 63.212C73.3147 63.1522 73.5912 63.1007 73.7748 63.0575C74.48 62.8605 75.3662 62.741 76.4334 62.699C77.5006 62.657 78.2946 62.8536 78.8155 63.2889C79.3364 63.7242 79.0949 64.616 78.0911 65.9642L78.5227 70.7849L79.179 78.1156C79.286 79.3108 79.4168 80.7716 79.5713 82.498C79.7501 84.1955 79.862 85.2966 79.9072 85.8012C80.3756 91.0337 80.9549 94.6631 81.645 96.6897ZM112.755 77.3988C113.879 78.5833 114.75 80.2456 115.37 82.3855C115.988 84.4988 116.514 87.0889 116.949 90.1556C117.387 93.2489 117.735 95.3462 117.994 96.4475C118.366 96.4142 118.645 96.3892 118.831 96.3726C119.019 96.3825 119.212 96.4455 119.41 96.5617C119.608 96.6779 119.719 96.8687 119.743 97.1343C119.835 98.1702 119.279 98.8358 118.074 99.1311C116.871 99.4529 115.659 99.5213 114.438 99.3361C114.223 99.3286 114.062 99.3296 113.956 99.3391C113.409 98.9062 113.145 98.3542 113.165 97.683C113.186 97.0119 113.272 96.1875 113.426 95.2099C113.608 94.2565 113.475 92.9164 113.026 91.1896C112.858 90.5085 112.699 89.4786 112.548 88.0999C112.422 86.6921 112.206 85.4666 111.898 84.4232C111.615 83.3509 111.141 82.4026 110.479 81.5784C110.329 81.4044 110.134 81.1675 109.893 80.8678C109.679 80.5657 109.482 80.3156 109.304 80.1174C109.125 79.9192 108.891 79.6991 108.602 79.4573C108.578 79.1917 108.481 78.9996 108.31 78.8811C108.162 78.7336 107.921 78.5812 107.586 78.4238C107.251 78.2664 106.968 78.1043 106.739 77.9374C106.367 77.9707 106.09 78.0089 105.906 78.0521C105.72 78.0688 105.54 78.1518 105.366 78.3013C105.192 78.4507 105.116 78.6449 105.137 78.884C104.986 80.1827 104.98 81.6155 105.12 83.1826C105.258 84.7231 105.472 86.3639 105.762 88.105C106.049 89.8196 106.224 91.0221 106.286 91.7127C106.49 93.9969 106.91 95.6995 107.546 96.8206C107.572 97.1128 107.876 97.3667 108.458 97.5824C109.066 97.7957 109.382 98.0351 109.406 98.3007C109.413 98.3804 109.422 98.4867 109.434 98.6195C109.446 98.7523 109.454 98.8452 109.459 98.8983C109.466 98.978 109.474 99.071 109.484 99.1772C109.493 99.2835 109.486 99.3511 109.462 99.38C109.44 99.4355 109.418 99.491 109.397 99.5465C109.377 99.6286 109.342 99.6852 109.291 99.7166C109.241 99.7479 109.177 99.7804 109.099 99.8141C109.022 99.8478 108.93 99.8694 108.824 99.8789C108.585 99.9003 107.903 99.9078 106.778 99.9014C105.682 99.9192 104.71 99.9795 103.862 100.082C103.017 100.211 102.367 100.43 101.913 100.739C101.196 100.803 100.676 100.823 100.352 100.798C100.058 100.798 99.7258 100.68 99.3567 100.445C99.0142 100.208 98.6719 99.8239 98.3298 99.2923C98.8666 98.7088 99.6927 98.3671 100.808 98.2672L99.5064 83.7254C99.4731 83.3535 99.492 82.8164 99.563 82.1139C99.6339 81.4114 99.6445 80.7813 99.5945 80.2236C99.5422 79.6392 99.3607 79.1066 99.0499 78.6257C99.0237 78.3336 99.0327 77.9847 99.0767 77.5792C99.1207 77.1737 99.1381 76.7705 99.129 76.3697C99.0898 75.0345 98.9016 73.2308 98.5643 70.9585C98.227 68.6862 98.006 66.9657 97.9014 65.7971C95.8297 65.9825 94.757 65.6636 94.6833 64.8402C94.5786 63.6715 94.7668 62.9318 95.2476 62.621C95.7285 62.3103 96.6993 62.0895 98.1602 61.9587C98.4523 61.9325 98.7639 61.8243 99.0949 61.634C99.4525 61.4414 99.7641 61.3332 100.03 61.3094C101.416 60.9443 102.8 60.7 104.181 60.5763C105.56 60.4261 106.937 60.4099 108.313 60.5277C109.713 60.6165 110.925 60.99 111.947 61.6481C112.997 62.3038 113.72 63.2029 114.117 64.3454C115.064 67.1521 115.267 69.423 114.726 71.1582C114.394 72.2321 113.66 73.4491 112.523 74.8092L111.725 75.7641C111.749 76.0297 111.92 76.2955 112.238 76.5615C112.557 76.8275 112.729 77.1066 112.755 77.3988ZM102.974 63.6963C103.207 66.2993 103.627 69.7957 104.235 74.1857C104.345 74.5239 104.702 74.6258 105.306 74.4914C105.91 74.3571 106.581 74.0827 107.321 73.6685C108.087 73.2519 108.603 72.8844 108.869 72.5661C108.84 72.2474 108.909 71.6656 109.074 70.8208C109.239 69.9761 109.335 69.4052 109.362 69.1083C109.488 68.7222 109.475 68.121 109.321 67.3048C109.168 66.4885 109.079 65.9476 109.056 65.682C109.039 65.4961 108.996 65.3125 108.926 65.1314C108.856 64.9502 108.79 64.8089 108.727 64.7074C108.662 64.5793 108.543 64.4428 108.369 64.2977C108.22 64.1236 108.116 64.0124 108.058 63.9641C107.998 63.8891 107.84 63.7694 107.585 63.6049C107.353 63.4114 107.208 63.2905 107.15 63.2422C106.858 63.2683 106.156 63.3446 105.042 63.471C103.929 63.5975 103.24 63.6726 102.974 63.6963ZM158.728 63.0423C158.439 62.8005 158.251 62.2015 158.166 61.2453C158.078 60.2626 157.861 59.4921 157.517 58.9339C157.256 58.7163 156.847 58.6324 156.29 58.6824C155.732 58.7323 155.06 58.8593 154.276 59.0635C153.515 59.2387 152.949 59.3429 152.577 59.3762C152.383 59.9022 152.317 60.5106 152.379 61.2011C152.44 61.8917 152.562 62.6572 152.745 63.4976C152.951 64.3091 153.07 64.8875 153.101 65.2328L154.506 80.93L155.105 87.6232L155.255 89.2965C155.289 89.6684 155.293 90.1633 155.268 90.7813C155.269 91.397 155.289 91.9173 155.327 92.3423C155.365 92.7672 155.465 93.1331 155.626 93.44C155.723 93.6188 155.986 93.7157 156.415 93.7308C156.845 93.7458 157.24 93.8176 157.599 93.9461C157.985 94.0721 158.2 94.3742 158.243 94.8523C157.735 95.46 157.202 95.7888 156.644 95.8388L149.154 96.5093C148.889 96.5331 148.681 96.4579 148.532 96.2839C148.382 96.1099 148.286 95.9311 148.243 95.7475C148.226 95.5616 148.201 95.2827 148.168 94.9109C148.433 94.8871 148.833 94.7175 149.367 94.4019C149.901 94.0864 150.301 93.9167 150.566 93.8929L149.671 83.8929C149.613 83.8446 149.451 82.1857 149.186 78.9164C148.92 75.6471 148.785 73.9992 148.783 73.9726L148.412 69.8292L148.262 68.1559C147.918 64.3046 147.39 61.554 146.68 59.9041C145.493 59.7962 144.358 59.8309 143.276 60.008C142.218 60.1563 141.393 60.6585 140.8 61.5148C140.205 62.3445 140.086 63.3994 140.441 64.6794C139.96 65.2847 139.415 65.3335 138.808 64.8257C138.777 64.4804 138.658 63.902 138.452 63.0905C138.269 62.2501 138.147 61.4846 138.085 60.794C138.024 60.1034 138.09 59.4951 138.283 58.9691C140.057 57.8465 141.9 57.1995 143.812 57.0283C144.609 56.957 146.001 56.8056 147.989 56.5741C149.973 56.3161 151.404 56.1479 152.281 56.0694C153.529 55.9577 154.527 55.8951 155.276 55.8816C156.048 55.8392 156.925 55.908 157.905 56.088C158.909 56.2391 159.553 56.5562 159.837 57.0395C160.208 57.8898 160.459 58.7509 160.591 59.6226C160.72 60.4678 160.628 61.239 160.316 61.9363C160.028 62.6047 159.498 62.9733 158.728 63.0423ZM176.821 90.6992C176.167 83.3951 175.422 78.3615 174.585 75.5984C174.134 75.6388 173.126 75.5952 171.561 75.4675C170.021 75.3108 168.8 75.2729 167.897 75.3538C167.362 75.9639 167.199 77.4243 167.405 79.735C166.994 82.0208 167.04 85.9658 167.541 91.5701C167.881 91.7806 168.33 91.8609 168.888 91.8109C169.446 91.761 169.869 91.857 170.159 92.0988L170.189 93.7828C169.491 94.354 168.678 94.6945 167.751 94.8043C166.823 94.9141 166.007 94.9202 165.302 94.8227C164.6 94.7517 163.798 94.9172 162.897 95.3191L160.994 93.8028C161.88 92.6258 162.667 92.0064 163.358 91.9446C163.624 91.9208 163.815 91.81 163.931 91.6122C164.073 91.412 164.136 91.2189 164.12 91.033C164.13 90.8447 164.117 90.5514 164.081 90.153C164.205 88.241 164.347 85.0423 164.507 80.5568C164.692 76.0423 164.821 72.992 164.893 71.4059C164.688 69.1217 165.073 66.8383 166.047 64.5557C166.463 62.0286 167.593 59.1028 169.437 55.7784C169.486 55.7206 169.546 55.6482 169.619 55.5614C169.691 55.4746 169.853 55.3396 170.105 55.1565C170.354 54.9468 170.594 54.7914 170.826 54.6903C171.082 54.5603 171.383 54.4798 171.728 54.4489C172.073 54.418 172.399 54.4691 172.706 54.6023C173.594 54.9512 174.468 55.7431 175.328 56.978C176.188 58.2129 176.659 59.2818 176.739 60.1849C177.493 61.4293 178.053 62.8919 178.417 64.5727C178.928 66.9901 179.604 70.6511 180.445 75.5557C181.285 80.4603 181.904 83.9256 182.299 85.9518L182.756 91.0514C182.77 91.2107 182.925 91.4512 183.222 91.7727C183.518 92.0942 183.68 92.401 183.706 92.6932C183.732 92.9854 183.49 93.2747 182.98 93.5613L181.923 93.415C181.365 93.465 180.572 93.5761 179.543 93.7486C178.515 93.921 177.708 94.0333 177.124 94.0856C177.018 94.0952 176.833 94.1251 176.57 94.1754C176.309 94.2523 176.099 94.2979 175.939 94.3122C175.809 94.3506 175.649 94.3649 175.461 94.355C175.275 94.3716 175.126 94.3449 175.012 94.2747C174.925 94.2021 174.876 94.0995 174.864 93.9667C174.821 93.4886 175.03 92.8273 175.49 91.983C175.952 91.1652 176.396 90.7372 176.821 90.6992ZM169.808 59.9219C168.968 63.6918 168.383 66.5821 168.055 68.5928C168.076 68.8318 168.005 69.5343 167.842 70.7002C167.702 71.8371 167.648 72.5782 167.679 72.9235C169.371 73.2807 171.598 73.3357 174.36 73.0884L173.911 68.0685C173.676 65.439 172.892 62.6711 171.561 59.7649C171.557 59.7118 171.537 59.6466 171.504 59.5693C171.494 59.463 171.403 59.3374 171.229 59.1923C171.082 59.0448 170.876 58.983 170.61 59.0067L169.808 59.9219ZM194.917 53.8588C194.864 53.2745 195.13 52.9562 195.715 52.9039C196.087 52.8706 196.367 52.8589 196.555 52.8688C196.741 52.8522 196.921 52.9164 197.094 53.0615C197.292 53.1777 197.403 53.3685 197.427 53.6341C197.714 53.8494 197.876 54.1695 197.914 54.5945C197.95 54.9929 197.924 55.4504 197.836 55.9669C197.746 56.4569 197.709 56.7815 197.723 56.9409C197.682 57.0785 197.606 57.286 197.497 57.5635C197.415 57.8386 197.341 58.0594 197.276 58.2259C197.21 58.3924 197.123 58.6144 197.014 58.8919C196.929 59.1404 196.841 59.3492 196.749 59.518C196.681 59.658 196.589 59.8268 196.473 60.0247C196.354 60.1959 196.233 60.3406 196.11 60.4587C195.984 60.5503 195.844 60.6298 195.69 60.6972C195.535 60.7646 195.365 60.8066 195.179 60.8232C195.017 60.8109 194.838 60.76 194.643 60.6704C194.383 60.4527 194.233 60.1314 194.195 59.7065C194.157 59.2815 194.162 58.7323 194.208 58.0587C194.282 57.3828 194.301 56.8457 194.265 56.4473C193.8 56.0338 193.153 55.6901 192.325 55.4161C191.498 55.1422 190.685 55.0409 189.889 55.1122C189.513 56.0026 189.401 57.2977 189.554 58.9975C189.706 60.6974 190.047 61.9654 190.577 62.8014C191.015 63.5118 191.664 64.1767 192.522 64.7959C193.408 65.4128 194.271 65.9378 195.113 66.3712C195.953 66.7779 196.86 67.3393 197.834 68.0552C198.809 68.7712 199.589 69.5581 200.174 70.416C200.94 71.4987 201.575 72.4592 202.079 73.2977C203.078 74.8949 203.67 76.7161 203.853 78.7612C204.098 81.4969 203.792 84.0677 202.937 86.4736C202.423 87.9118 201.669 89.0636 200.676 89.929C199.685 90.8209 198.345 91.5566 196.657 92.1362L193.231 92.4429C192.513 92.5071 191.616 92.1993 190.537 91.5194C189.486 90.8371 188.596 90.1671 187.868 89.5094C186.376 87.2065 185.857 84.6962 186.31 81.9783C186.018 82.0045 185.739 82.1767 185.473 82.495C185.233 82.811 184.981 82.9808 184.715 83.0046C184.078 82.4726 183.71 81.6488 183.61 80.5333C184.357 80.1987 185.435 79.8344 186.846 79.4404C188.283 79.044 189.423 78.6207 190.266 78.1704C191.116 78.0943 191.746 78.3994 192.155 79.0856C192.565 79.7718 192.595 80.5589 192.246 81.4469C191.131 81.5467 190.307 81.915 189.775 82.5516C188.97 83.4269 188.839 84.8041 189.382 86.6832C189.954 88.5864 190.87 89.6958 192.129 90.0114C192.421 89.9852 192.701 89.813 192.967 89.4947C193.233 89.1764 193.512 89.0041 193.804 88.978C196.162 87.5085 197.645 85.2339 198.253 82.1541C198.89 79.0984 198.626 75.8557 197.463 72.4258C196.937 71.6429 196.4 71.0216 195.85 70.5622C195.3 70.1027 194.593 69.6841 193.729 69.3062C192.537 68.8507 191.319 68.103 190.075 67.0632C189.814 66.8455 189.377 66.5902 188.761 66.2973C188.146 66.0043 187.577 65.6269 187.054 65.165C186.967 65.0925 186.721 64.8869 186.316 64.5484C185.937 64.2074 185.675 63.9765 185.531 63.8556C185.384 63.7081 185.15 63.4881 184.829 63.1955C184.535 62.9006 184.312 62.6528 184.16 62.4522C184.033 62.2227 183.903 61.9666 183.77 61.6839C183.638 61.4013 183.56 61.1272 183.536 60.8615C182.677 58.743 183.324 56.396 185.476 53.8205C185.688 53.8015 186.14 53.6138 186.831 53.2574C187.522 52.9011 188.173 52.6955 188.784 52.6409C189.315 52.5933 189.783 52.5915 190.189 52.6355C190.594 52.6796 191.07 52.7575 191.615 52.8693C192.161 52.9811 192.677 53.0687 193.165 53.1321C193.749 53.6689 194.332 53.9112 194.917 53.8588ZM223.002 57.2882C222.713 57.0463 222.525 56.4473 222.44 55.4912C222.352 54.5084 222.136 53.738 221.791 53.1798C221.531 52.9622 221.122 52.8783 220.564 52.9282C220.006 52.9782 219.335 53.1052 218.55 53.3093C217.789 53.4845 217.223 53.5888 216.851 53.6221C216.657 54.1481 216.591 54.7564 216.653 55.447C216.715 56.1376 216.837 56.9031 217.019 57.7435C217.226 58.555 217.344 59.1334 217.375 59.4787L218.78 75.1759L219.38 81.8691L219.529 83.5424C219.563 83.9143 219.567 84.4092 219.542 85.0272C219.543 85.6429 219.563 86.1632 219.601 86.5881C219.639 87.0131 219.739 87.379 219.9 87.6859C219.997 87.8646 220.26 87.9616 220.689 87.9766C221.119 87.9917 221.514 88.0635 221.873 88.1919C222.259 88.318 222.474 88.6201 222.517 89.0982C222.009 89.7059 221.476 90.0347 220.918 90.0846L213.428 90.7552C213.163 90.779 212.955 90.7038 212.806 90.5298C212.656 90.3558 212.56 90.177 212.517 89.9934C212.5 89.8075 212.475 89.5286 212.442 89.1568C212.707 89.133 213.107 88.9633 213.641 88.6478C214.175 88.3323 214.575 88.1626 214.841 88.1388L213.945 78.1388C213.888 78.0905 213.726 76.4316 213.46 73.1623C213.194 69.893 213.06 68.2451 213.057 68.2185L212.686 64.0751L212.537 62.4018C212.192 58.5505 211.664 55.7999 210.954 54.15C209.767 54.0421 208.632 54.0768 207.55 54.2539C206.492 54.4022 205.667 54.9044 205.075 55.7607C204.48 56.5904 204.36 57.6452 204.715 58.9253C204.234 59.5306 203.69 59.5794 203.082 59.0715C203.051 58.7262 202.932 58.1479 202.726 57.3364C202.543 56.496 202.421 55.7305 202.36 55.0399C202.298 54.3493 202.364 53.741 202.558 53.215C204.331 52.0923 206.174 51.4454 208.087 51.2742C208.883 51.2029 210.275 51.0515 212.263 50.82C214.248 50.562 215.678 50.3938 216.555 50.3153C217.803 50.2035 218.802 50.1409 219.55 50.1275C220.323 50.0851 221.199 50.1539 222.179 50.3339C223.183 50.485 223.827 50.8021 224.111 51.2854C224.482 52.1357 224.733 52.9967 224.865 53.8685C224.994 54.7137 224.902 55.4849 224.59 56.1822C224.302 56.8506 223.773 57.2192 223.002 57.2882ZM243.695 54.3916C243.403 54.1232 243.221 53.5906 243.15 52.7938C243.079 51.9969 242.885 51.4788 242.569 51.2394C242.012 50.9947 241.442 50.7646 240.861 50.5489C238.178 50.7891 236.317 51.2368 235.278 51.8921C235.181 52.0078 235.086 52.1369 234.991 52.2792C234.921 52.3925 234.868 52.5446 234.832 52.7352C234.795 52.9259 234.768 53.0756 234.751 53.1842C234.734 53.2928 234.725 53.4944 234.725 53.7889C234.749 54.0545 234.765 54.2405 234.775 54.3467C234.785 54.4529 234.806 54.692 234.839 55.0638C234.872 55.4357 234.894 55.6747 234.903 55.781C234.977 56.6043 235.034 57.5363 235.073 58.577C235.14 59.6152 235.194 60.3733 235.237 60.8514C235.289 61.4358 235.405 62.1349 235.585 62.9487C235.792 63.7602 235.92 64.4448 235.97 65.0026C236.02 65.5604 235.947 66.089 235.75 66.5885C236.353 67.0432 237.996 67.1505 240.679 66.9103C240.536 65.3167 240.744 64.4949 241.301 64.445C241.7 64.4093 241.969 64.4254 242.109 64.4932C242.247 64.5344 242.546 64.7352 243.006 65.0956C242.771 65.7592 242.764 66.5764 242.985 67.5472C243.203 68.4915 243.34 69.4164 243.394 70.3218C243.446 71.2007 243.233 71.6615 242.755 71.7043C241.616 71.2441 241.022 70.7483 240.975 70.2171L240.9 69.3804L236.876 69.7407C236.704 70.5058 236.634 71.3688 236.666 72.3297C236.723 73.2617 236.847 74.3483 237.038 75.5895C237.227 76.8042 237.34 77.6107 237.375 78.0091C237.456 78.9122 237.614 80.2233 237.848 81.9426C238.082 83.6619 238.219 84.7473 238.26 85.1989C239.928 85.585 242.116 85.6568 244.825 85.4143C245.258 85.1614 245.462 84.7549 245.439 84.1947C245.442 83.6322 245.444 83.0564 245.445 82.4673C245.448 81.9048 245.666 81.4971 246.098 81.2442C246.47 81.2109 246.786 81.303 247.047 81.5207C247.334 81.736 247.539 82.0791 247.661 82.55C247.784 83.021 247.872 83.4146 247.928 83.731C247.985 84.0739 248.04 84.5375 248.092 85.1218C248.137 85.6265 247.667 86.4986 246.68 87.7382L242.576 88.1056C237.158 88.5906 232.804 88.6993 229.513 88.4317L229.367 86.7982L232.634 86.5057C232.745 85.0501 232.733 83.5785 232.6 82.0911C232.467 80.6038 232.252 78.9497 231.955 77.1289C231.685 75.3057 231.5 73.8364 231.4 72.7208L231.254 71.0874L230.523 62.92L230.234 59.693L229.581 52.4021L226.314 52.6946L226.168 51.0611C227.257 50.6691 228.866 50.244 230.993 49.7858C233.147 49.3252 234.744 48.9145 235.782 48.5538L243.91 47.8262C244.515 48.3075 244.843 48.827 244.893 49.3848C244.917 49.6504 245.026 50.1225 245.22 50.8012C245.413 51.4533 245.541 51.9907 245.606 52.4133C245.67 52.8358 245.561 53.2606 245.278 53.6875C244.993 54.0879 244.465 54.3226 243.695 54.3916ZM285.746 46.5708C285.77 46.8364 285.94 47.0889 286.255 47.3283C286.571 47.5678 286.741 47.8203 286.765 48.0859C287.012 50.8482 286.844 52.2555 286.26 52.3078C285.888 52.3411 285.593 52.1934 285.377 51.8648C285.157 51.5096 285.014 51.1074 284.947 50.6583C284.907 50.2067 284.825 49.7455 284.703 49.2745C284.58 48.8036 284.431 48.4823 284.255 48.3106C281.496 47.7008 279.292 47.8982 277.642 48.9027C277.376 49.221 277.014 49.9629 276.556 51.1284C276.095 52.2673 275.744 52.9814 275.503 53.2708C275.555 53.8552 275.339 54.4367 274.856 55.0155C274.685 56.1017 274.583 57.2085 274.55 58.3359C274.517 59.4633 274.525 60.4399 274.572 61.2657C274.616 62.0649 274.716 63.3277 274.871 65.0541L275.313 69.9944C277.155 76.8172 279.466 80.8004 282.246 81.9437C282.661 82.094 283.069 82.1646 283.47 82.1555C283.9 82.1705 284.333 82.0782 284.77 81.8784C285.21 81.7052 285.582 81.5246 285.886 81.3367C286.22 81.173 286.64 80.9346 287.148 80.6214C287.363 80.0399 287.409 79.0585 287.286 77.6774C287.162 76.2962 287.208 75.3149 287.424 74.7333C288.061 74.6763 288.606 74.7748 289.057 75.0289C289.508 75.283 289.826 75.4018 290.012 75.3851L290.533 81.2019C290.37 81.7787 290.067 82.2744 289.622 82.689C289.177 83.1037 288.711 83.4265 288.223 83.6576C287.761 83.8864 287.121 84.0641 286.303 84.191C285.511 84.3154 284.834 84.3893 284.274 84.4127C283.717 84.4627 282.939 84.4519 281.942 84.3805C280.974 84.3333 280.274 84.2889 279.842 84.2473C279.436 84.2033 278.774 84.1287 277.854 84.0237C277.666 84.0137 277.531 83.9991 277.449 83.9796C277.101 83.6894 276.53 83.2855 275.734 82.7677C274.967 82.2742 274.292 81.7723 273.711 81.2621C273.13 80.7518 272.567 80.1463 272.023 79.4454C271.833 78.8198 271.394 77.5071 270.706 75.5071C270.018 73.5071 269.472 71.7355 269.066 70.1922C268.66 68.6489 268.39 67.1336 268.257 65.6462C268.343 64.8085 268.439 63.4881 268.545 61.6847C268.676 59.8525 268.813 58.2472 268.957 56.8688C269.128 55.4881 269.361 54.1955 269.654 52.9912C269.87 52.7042 270.073 52.2844 270.264 51.7318C270.454 51.1526 270.706 50.6882 271.023 50.3386C271.858 48.8984 273.03 47.6289 274.538 46.53C276.07 45.4022 277.792 44.7527 279.704 44.5815C280.141 44.6763 280.713 44.7857 281.421 44.9098C282.154 45.0315 282.699 45.1301 283.053 45.2054C283.435 45.2784 283.878 45.4395 284.382 45.6889C284.884 45.9117 285.338 46.2056 285.746 46.5708ZM310.529 78.1667C310.016 79.3104 309.345 80.1871 308.516 80.7967C306.836 82.0716 305.114 82.7211 303.349 82.7452C301.611 82.767 300.025 82.4002 298.592 81.645C297.161 80.9163 296.043 79.9322 295.235 78.6926C294.086 76.9213 293.092 75.0827 292.252 73.1766C291.53 71.0994 290.975 67.8828 290.585 63.5268C290.551 63.155 290.482 62.6793 290.377 62.0997C290.271 61.5201 290.195 60.9648 290.147 60.4335C290.097 59.8758 290.097 59.2734 290.146 58.6264C290.291 56.9535 290.344 55.9046 290.306 55.4796C290.355 55.1272 290.4 54.5877 290.442 53.861C290.484 53.1344 290.554 52.5659 290.651 52.1556C290.748 51.7453 290.905 51.41 291.123 51.1495C291.404 50.696 291.795 49.9783 292.296 48.9964C292.823 48.0121 293.263 47.2365 293.614 46.6696C293.989 46.0738 294.481 45.4407 295.09 44.7704C295.726 44.0977 296.473 43.6158 297.33 43.3249C298.188 43.0339 299.168 42.9194 300.271 42.9813C301.865 42.8386 303.148 42.9647 304.12 43.3596C305.119 43.7521 306.085 44.5223 307.018 45.6704C308.34 46.382 309.503 47.563 310.508 49.2133C311.539 50.8613 312.24 52.7128 312.611 54.7679C312.815 55.8473 312.997 57.2769 313.156 59.0564C313.17 59.2158 313.202 59.5743 313.252 60.1321C313.3 60.6633 313.334 61.0484 313.356 61.2875C313.377 61.5265 313.398 61.9128 313.419 62.4464C313.464 62.9511 313.489 63.3772 313.494 63.7249C313.498 64.0726 313.495 64.4878 313.485 64.9707C313.474 65.4535 313.449 65.9243 313.41 66.3829C313.371 66.8416 313.318 67.3014 313.253 67.7625C312.793 71.6054 311.886 75.0735 310.529 78.1667ZM306.934 77.9264C307.676 75.4504 308.191 73.1285 308.479 70.9609C308.865 69.2931 308.912 66.8258 308.619 63.5589C308.569 63.0011 308.547 62.307 308.553 61.4764C308.584 60.617 308.575 59.9217 308.527 59.3905C308.48 58.8593 308.355 58.0672 308.154 57.0143C307.979 55.959 307.867 55.1525 307.817 54.5947C307.504 54.0873 307.166 53.301 306.802 52.2358C306.439 51.1706 306.087 50.3722 305.745 49.8405C305.653 49.7149 305.417 49.321 305.036 48.659C304.682 47.9946 304.413 47.5234 304.227 47.2455C304.039 46.9411 303.742 46.6063 303.334 46.2411C302.951 45.8471 302.565 45.5737 302.176 45.4211C301.672 45.4663 301.125 45.4885 300.536 45.4877C299.973 45.4845 299.413 45.5079 298.855 45.5578C297.574 47.0915 296.653 49.0748 296.095 51.5076C295.635 52.6465 295.502 54.305 295.697 56.4829C295.545 61.6638 296.358 67.6016 298.135 74.2965C298.386 74.7024 298.688 75.3849 299.041 76.3438C299.424 77.327 299.789 77.9637 300.136 78.2538C300.428 78.2277 300.629 78.3837 300.74 78.7218C300.88 79.0842 301.022 79.3258 301.166 79.4467C301.832 80.0029 302.896 80.0816 304.36 79.6829C305.853 79.3083 306.711 78.7228 306.934 77.9264ZM323.956 41.8649C323.741 42.4464 323.453 42.9675 323.092 43.4281C322.73 43.8622 322.56 44.2121 322.584 44.4777C322.8 46.8947 323.012 51.802 323.219 59.1997C323.45 66.5684 323.909 72.4442 324.596 76.8271C324.632 77.2255 324.679 77.4489 324.737 77.4972C324.821 77.5432 325.09 77.5593 325.544 77.5454C325.706 77.5577 325.972 77.5339 326.341 77.4741C326.739 77.4384 327.005 77.4146 327.138 77.4027C327.565 77.3913 328.11 77.3425 328.771 77.2565L329.648 77.178L329.206 72.2378L328.909 68.931C329.127 68.6706 329.369 68.5285 329.634 68.5047C329.927 68.4785 330.157 68.5114 330.326 68.6034L330.583 68.7812C331.106 69.2431 331.467 69.8399 331.667 70.5717C331.866 71.3035 331.973 72.3515 331.988 73.7155C332.006 75.1062 332.025 75.9211 332.047 76.1601C332.061 76.3195 332.143 76.6334 332.292 77.102C332.467 77.5682 332.573 78.0005 332.608 78.3989C332.646 78.8239 332.558 79.1799 332.343 79.4669C330.693 79.8823 328.288 80.2315 325.127 80.5144C321.993 80.795 319.747 81.1299 318.39 81.5192C318.161 81.3523 317.879 81.1901 317.543 81.0327C317.208 80.8753 316.967 80.7229 316.82 80.5754C316.675 80.4545 316.591 80.2613 316.567 79.9957C316.546 79.7566 316.622 79.5624 316.796 79.4129C316.97 79.2635 317.149 79.1672 317.332 79.1239C317.518 79.1073 317.797 79.0823 318.169 79.049C318.507 78.6439 318.696 78.212 318.736 77.7534C318.777 77.3213 318.755 76.6271 318.67 75.6709C318.98 72.8587 318.841 68.1591 318.251 61.5721L318.172 60.6956L317.513 53.3251C317.165 49.4473 316.638 46.6967 315.93 45.0733C315.909 44.8343 315.826 44.6543 315.681 44.5334C315.537 44.4125 315.297 44.2733 314.961 44.1159C314.626 43.9585 314.344 43.7964 314.114 43.6295L313.965 41.9562L314.841 41.8777C315.319 41.8349 316.574 41.6423 318.605 41.2998C320.66 40.9284 322.198 40.764 323.219 40.8064C323.354 40.8211 323.463 40.8381 323.545 40.8575C323.625 40.8504 323.692 40.8578 323.748 40.8796C323.801 40.8748 323.831 40.9123 323.838 40.9919C323.872 41.0692 323.891 41.1345 323.896 41.1876C323.898 41.2141 323.906 41.3071 323.921 41.4665C323.935 41.6258 323.947 41.7586 323.956 41.8649ZM342.826 40.1756C342.61 40.7571 342.322 41.2782 341.962 41.7388C341.599 42.1729 341.43 42.5227 341.454 42.7883C341.67 45.2053 341.882 50.1127 342.089 57.5103C342.32 64.8791 342.779 70.7549 343.466 75.1378C343.502 75.5362 343.549 75.7595 343.607 75.8079C343.691 75.8539 343.96 75.87 344.414 75.8561C344.576 75.8684 344.841 75.8446 345.211 75.7848C345.609 75.7491 345.875 75.7253 346.008 75.7134C346.435 75.7019 346.98 75.6532 347.641 75.5672L348.518 75.4887L348.075 70.5485L347.779 67.2417C347.997 66.9813 348.239 66.8392 348.504 66.8154C348.796 66.7892 349.027 66.8221 349.196 66.9141L349.453 67.0919C349.976 67.5538 350.337 68.1506 350.537 68.8824C350.736 69.6142 350.843 70.6621 350.858 72.0262C350.876 73.4169 350.895 74.2317 350.916 74.4708C350.931 74.6301 351.012 74.9441 351.161 75.4127C351.337 75.8789 351.443 76.3112 351.478 76.7096C351.516 77.1346 351.428 77.4906 351.212 77.7776C349.563 78.193 347.158 78.5421 343.997 78.8251C340.863 79.1057 338.617 79.4406 337.26 79.8299C337.031 79.663 336.749 79.5008 336.413 79.3434C336.078 79.186 335.837 79.0336 335.689 78.8861C335.545 78.7652 335.461 78.572 335.437 78.3063C335.415 78.0673 335.492 77.8731 335.666 77.7236C335.84 77.5742 336.019 77.4778 336.202 77.4346C336.388 77.418 336.667 77.393 337.039 77.3597C337.377 76.9546 337.566 76.5227 337.605 76.064C337.647 75.6319 337.625 74.9378 337.54 73.9816C337.85 71.1694 337.71 66.4698 337.121 59.8828L337.042 59.0063L336.382 51.6358C336.035 47.758 335.508 45.0074 334.8 43.384C334.779 43.1449 334.696 42.965 334.551 42.8441C334.406 42.7231 334.166 42.584 333.831 42.4266C333.496 42.2692 333.213 42.1071 332.984 41.9402L332.835 40.2669L333.711 40.1884C334.189 40.1456 335.444 39.953 337.474 39.6105C339.53 39.2391 341.068 39.0746 342.089 39.1171C342.224 39.1318 342.333 39.1488 342.415 39.1682C342.494 39.1611 342.562 39.1684 342.617 39.1902C342.671 39.1855 342.701 39.2229 342.708 39.3026C342.742 39.3799 342.761 39.4451 342.766 39.4983C342.768 39.5248 342.776 39.6178 342.791 39.7772C342.805 39.9365 342.817 40.0693 342.826 40.1756ZM367.418 43.3152C367.127 43.0468 366.945 42.5142 366.874 41.7174C366.802 40.9206 366.609 40.4025 366.293 40.163C365.736 39.9184 365.166 39.6883 364.585 39.4726C361.902 39.7128 360.041 40.1605 359.002 40.8157C358.905 40.9315 358.81 41.0605 358.715 41.2028C358.645 41.3162 358.592 41.4682 358.555 41.6589C358.519 41.8496 358.492 41.9992 358.475 42.1079C358.458 42.2165 358.449 42.4181 358.449 42.7126C358.473 42.9782 358.489 43.1641 358.499 43.2704C358.508 43.3766 358.53 43.6157 358.563 43.9875C358.596 44.3594 358.618 44.5984 358.627 44.7046C358.701 45.528 358.758 46.46 358.797 47.5006C358.863 48.5389 358.918 49.297 358.961 49.7751C359.013 50.3594 359.129 51.0585 359.309 51.8724C359.516 52.6839 359.644 53.3685 359.694 53.9263C359.744 54.484 359.671 55.0127 359.474 55.5122C360.077 55.9669 361.72 56.0742 364.403 55.834C364.26 54.2404 364.468 53.4186 365.025 53.3687C365.424 53.333 365.693 53.3491 365.833 53.4168C365.97 53.4581 366.27 53.6589 366.73 54.0192C366.495 54.6828 366.488 55.5001 366.709 56.4709C366.927 57.4152 367.063 58.3401 367.118 59.2455C367.17 60.1244 366.957 60.5852 366.478 60.628C365.34 60.1677 364.746 59.672 364.699 59.1408L364.624 58.3041L360.6 58.6644C360.427 59.4294 360.357 60.2925 360.39 61.2534C360.447 62.1854 360.571 63.272 360.762 64.5132C360.951 65.7278 361.064 66.5344 361.099 66.9328C361.18 67.8358 361.338 69.147 361.572 70.8663C361.806 72.5856 361.943 73.671 361.984 74.1225C363.652 74.5087 365.84 74.5805 368.549 74.338C368.982 74.0851 369.186 73.6785 369.163 73.1184C369.166 72.5559 369.168 71.9801 369.169 71.391C369.172 70.8285 369.39 70.4207 369.822 70.1678C370.194 70.1345 370.51 70.2267 370.771 70.4444C371.058 70.6596 371.263 71.0027 371.385 71.4737C371.508 71.9446 371.596 72.3383 371.651 72.6546C371.709 72.9976 371.764 73.4612 371.816 74.0455C371.861 74.5502 371.391 75.4223 370.404 76.6619L366.3 77.0292C360.882 77.5143 356.528 77.623 353.237 77.3553L353.091 75.7219L356.358 75.4294C356.469 73.9737 356.457 72.5022 356.324 71.0148C356.191 69.5274 355.976 67.8733 355.679 66.0526C355.409 64.2294 355.224 62.7601 355.124 61.6445L354.978 60.0111L354.246 51.8437L353.958 48.6166L353.305 41.3258L350.038 41.6182L349.892 39.9848C350.981 39.5927 352.59 39.1676 354.717 38.7094C356.871 38.2488 358.468 37.8382 359.506 37.4775L367.634 36.7499C368.239 37.2311 368.567 37.7507 368.617 38.3084C368.641 38.574 368.75 39.0462 368.944 39.7249C369.137 40.377 369.265 40.9143 369.33 41.3369C369.394 41.7595 369.285 42.1843 369.002 42.6112C368.717 43.0116 368.189 43.2463 367.418 43.3152ZM389.55 37.2778C389.573 37.5434 389.743 37.7959 390.059 38.0354C390.375 38.2748 390.545 38.5273 390.569 38.793C390.816 41.5552 390.647 42.9625 390.063 43.0148C389.691 43.0481 389.397 42.9005 389.18 42.5718C388.961 42.2166 388.818 41.8144 388.751 41.3653C388.71 40.9138 388.629 40.4525 388.506 39.9816C388.384 39.5106 388.235 39.1893 388.059 39.0177C385.3 38.4079 383.096 38.6052 381.445 39.6097C381.179 39.928 380.817 40.6699 380.359 41.8354C379.899 42.9743 379.548 43.6885 379.306 43.9779C379.358 44.5622 379.143 45.1437 378.659 45.7225C378.489 46.8087 378.387 47.9155 378.354 49.0429C378.321 50.1704 378.328 51.147 378.375 51.9727C378.42 52.7719 378.52 54.0347 378.674 55.7611L379.117 60.7014C380.959 67.5243 383.27 71.5074 386.05 72.6508C386.465 72.801 386.873 72.8716 387.273 72.8625C387.703 72.8776 388.137 72.7852 388.574 72.5854C389.014 72.4122 389.386 72.2316 389.69 72.0437C390.023 71.88 390.444 71.6416 390.951 71.3284C391.167 70.7469 391.213 69.7655 391.089 68.3844C390.966 67.0033 391.012 66.0219 391.227 65.4404C391.865 65.3833 392.409 65.4818 392.86 65.7359C393.311 65.9901 393.63 66.1088 393.816 66.0922L394.337 71.9089C394.174 72.4857 393.87 72.9814 393.426 73.396C392.981 73.8107 392.514 74.1336 392.026 74.3647C391.565 74.5934 390.925 74.7712 390.106 74.898C389.314 75.0225 388.638 75.0964 388.078 75.1197C387.52 75.1697 386.743 75.159 385.746 75.0876C384.778 75.0404 384.078 74.996 383.646 74.9543C383.24 74.9103 382.577 74.8358 381.658 74.7307C381.469 74.7208 381.334 74.7061 381.252 74.6867C380.905 74.3965 380.333 73.9925 379.537 73.4748C378.77 72.9812 378.096 72.4793 377.515 71.9691C376.934 71.4589 376.371 70.8533 375.826 70.1524C375.636 69.5269 375.198 68.2141 374.51 66.2141C373.822 64.2141 373.275 62.4425 372.869 60.8992C372.463 59.3559 372.194 57.8406 372.061 56.3532C372.146 55.5156 372.242 54.1951 372.349 52.3918C372.479 50.5595 372.617 48.9542 372.761 47.5758C372.932 46.1951 373.164 44.9025 373.458 43.6982C373.673 43.4112 373.877 42.9914 374.068 42.4388C374.257 41.8596 374.51 41.3952 374.827 41.0456C375.662 39.6054 376.833 38.3359 378.341 37.237C379.873 36.1093 381.596 35.4598 383.508 35.2886C383.945 35.3833 384.517 35.4928 385.224 35.6169C385.958 35.7386 386.502 35.8371 386.857 35.9124C387.238 35.9854 387.681 36.1465 388.185 36.3959C388.687 36.6187 389.142 36.9127 389.55 37.2778ZM413.257 40.2557C412.968 40.0139 412.78 39.4149 412.695 38.4587C412.607 37.476 412.39 36.7055 412.046 36.1473C411.785 35.9297 411.376 35.8458 410.819 35.8958C410.261 35.9457 409.589 36.0727 408.804 36.2769C408.044 36.4521 407.477 36.5563 407.106 36.5896C406.912 37.1157 406.846 37.724 406.908 38.4145C406.969 39.1051 407.091 39.8706 407.274 40.711C407.48 41.5225 407.599 42.1009 407.63 42.4462L409.035 58.1434L409.634 64.8366L409.784 66.51C409.817 66.8818 409.822 67.3767 409.797 67.9948C409.798 68.6104 409.818 69.1307 409.856 69.5557C409.894 69.9806 409.994 70.3465 410.155 70.6534C410.251 70.8322 410.514 70.9291 410.944 70.9442C411.374 70.9593 411.769 71.031 412.128 71.1595C412.514 71.2855 412.729 71.5876 412.771 72.0657C412.264 72.6734 411.731 73.0022 411.173 73.0522L403.683 73.7227C403.417 73.7465 403.21 73.6714 403.06 73.4973C402.911 73.3233 402.815 73.1445 402.771 72.961C402.755 72.775 402.73 72.4961 402.697 72.1243C402.962 72.1005 403.362 71.9309 403.896 71.6153C404.43 71.2998 404.83 71.1301 405.095 71.1064L404.2 61.1063C404.142 61.058 403.98 59.3991 403.714 56.1298C403.449 52.8605 403.314 51.2126 403.312 51.186L402.941 47.0426L402.791 45.3693C402.446 41.518 401.919 38.7674 401.209 37.1175C400.021 37.0096 398.887 37.0443 397.805 37.2215C396.747 37.3697 395.922 37.8719 395.329 38.7282C394.734 39.5579 394.615 40.6128 394.97 41.8928C394.489 42.4982 393.944 42.5469 393.337 42.0391C393.306 41.6938 393.187 41.1154 392.981 40.3039C392.798 39.4635 392.676 38.698 392.614 38.0074C392.552 37.3168 392.618 36.7085 392.812 36.1825C394.586 35.0599 396.429 34.413 398.341 34.2418C399.138 34.1704 400.53 34.019 402.517 33.7876C404.502 33.5295 405.933 33.3613 406.81 33.2828C408.058 33.1711 409.056 33.1085 409.805 33.095C410.577 33.0526 411.454 33.1214 412.434 33.3014C413.438 33.4525 414.082 33.7696 414.366 34.2529C414.737 35.1032 414.988 35.9643 415.119 36.836C415.249 37.6812 415.157 38.4524 414.845 39.1497C414.556 39.8181 414.027 40.1867 413.257 40.2557ZM424.113 34.7055C423.941 35.7652 423.894 36.586 423.972 37.1679C424.051 37.7499 424.191 38.5673 424.393 39.6202C424.621 40.6707 424.748 41.4894 424.773 42.0761C424.87 43.7541 425 46.4064 425.164 50.0329C425.328 53.6594 425.489 56.9515 425.647 59.9092C425.831 62.8646 426.043 65.6835 426.284 68.3661C426.602 68.6321 427.039 68.8742 427.594 69.0922C428.175 69.3079 428.596 69.5245 428.857 69.7422C428.878 69.9812 428.828 70.1731 428.707 70.3178C428.589 70.489 428.392 70.6807 428.116 70.8928C427.841 71.1049 427.606 71.3267 427.413 71.5582C426.831 71.3425 425.651 71.3143 423.871 71.4736C422.118 71.6306 420.817 71.5998 419.967 71.3814C419.36 70.8735 419.312 70.3423 419.825 69.7877C419.798 69.4956 419.985 69.3316 420.383 69.296C420.808 69.2579 421.128 69.0954 421.343 68.8084C421.561 68.548 421.652 68.2185 421.616 67.8201C421.581 67.4217 421.474 66.9761 421.296 66.4834C421.147 66.0148 421.065 65.7008 421.051 65.5415C420.975 64.6915 420.881 63.4951 420.77 61.9522C420.683 60.3804 420.603 59.1961 420.532 58.3993C420.388 57.6893 420.291 57.0554 420.241 56.4976L419.581 49.1271L418.337 35.2227C417.991 35.2536 417.726 35.2774 417.54 35.2941C417.378 35.2818 417.198 35.2175 417 35.1014C416.803 34.9852 416.692 34.7943 416.668 34.5287L416.522 32.8953C416.5 32.6562 416.569 32.5296 416.729 32.5153C416.888 32.501 417.186 32.5413 417.623 32.636C418.084 32.7019 418.527 32.7157 418.952 32.6777C419.297 32.6468 419.943 32.5354 420.89 32.3436C421.861 32.1228 422.745 31.9767 423.542 31.9054C424.338 31.8341 424.986 31.8965 425.486 32.0928C425.976 32.4773 426.062 32.9917 425.745 33.6358C425.427 34.28 424.884 34.6366 424.113 34.7055ZM449.233 65.7494C448.719 66.8931 448.048 67.7697 447.219 68.3794C445.539 69.6543 443.817 70.3038 442.052 70.3279C440.314 70.3496 438.728 69.9829 437.295 69.2277C435.865 68.499 434.746 67.5149 433.939 66.2752C432.789 64.504 431.795 62.6653 430.955 60.7593C430.233 58.682 429.678 55.4654 429.288 51.1095C429.254 50.7377 429.185 50.262 429.08 49.6824C428.974 49.1028 428.898 48.5474 428.85 48.0162C428.8 47.4584 428.8 46.8561 428.849 46.2091C428.994 44.5362 429.047 43.4873 429.009 43.0623C429.058 42.7099 429.103 42.1704 429.145 41.4437C429.187 40.7171 429.257 40.1486 429.354 39.7383C429.451 39.328 429.609 38.9926 429.826 38.7322C430.107 38.2787 430.498 37.561 430.999 36.5791C431.527 35.5947 431.966 34.8192 432.317 34.2523C432.692 33.6565 433.184 33.0234 433.793 32.3531C434.429 31.6803 435.176 31.1985 436.033 30.9076C436.891 30.6166 437.871 30.5021 438.974 30.5639C440.568 30.4213 441.851 30.5474 442.823 30.9422C443.822 31.3347 444.788 32.105 445.721 33.2531C447.043 33.9647 448.206 35.1457 449.211 36.796C450.242 38.444 450.943 40.2955 451.314 42.3505C451.518 43.43 451.7 44.8595 451.859 46.6391C451.873 46.7984 451.905 47.157 451.955 47.7148C452.003 48.246 452.037 48.6311 452.059 48.8701C452.08 49.1092 452.101 49.4955 452.122 50.0291C452.168 50.5337 452.192 50.9599 452.197 51.3076C452.201 51.6552 452.198 52.0705 452.188 52.5533C452.177 53.0362 452.153 53.5069 452.113 53.9656C452.074 54.4242 452.022 54.8841 451.956 55.3451C451.497 59.188 450.589 62.6561 449.233 65.7494ZM445.637 65.5091C446.379 63.033 446.894 60.7112 447.182 58.5435C447.568 56.8758 447.615 54.4085 447.322 51.1415C447.272 50.5838 447.251 49.8896 447.256 49.0591C447.287 48.1997 447.278 47.5043 447.23 46.9731C447.183 46.4419 447.058 45.6499 446.857 44.597C446.682 43.5417 446.57 42.7351 446.52 42.1774C446.207 41.6699 445.869 40.8836 445.506 39.8184C445.142 38.7532 444.79 37.9548 444.448 37.4232C444.356 37.2975 444.12 36.9037 443.74 36.2416C443.386 35.5772 443.116 35.1061 442.93 34.8282C442.742 34.5237 442.445 34.1889 442.037 33.8238C441.654 33.4298 441.268 33.1564 440.879 33.0038C440.375 33.049 439.828 33.0711 439.239 33.0703C438.676 33.0671 438.116 33.0905 437.558 33.1405C436.277 34.6742 435.357 36.6575 434.798 39.0903C434.338 40.2292 434.205 41.8876 434.4 44.0656C434.248 49.2465 435.061 55.1843 436.838 61.8792C437.089 62.2851 437.391 62.9676 437.744 63.9265C438.127 64.9097 438.492 65.5463 438.839 65.8365C439.131 65.8104 439.332 65.9664 439.443 66.3045C439.583 66.6668 439.725 66.9085 439.869 67.0294C440.535 67.5856 441.6 67.6643 443.063 67.2655C444.556 66.891 445.414 66.3055 445.637 65.5091ZM475.989 27.6117C476.01 27.8507 475.966 28.109 475.857 28.3865C475.748 28.664 475.633 28.8751 475.512 29.0198L475.335 29.2766L473.701 29.4229C473.484 29.6833 473.388 29.9596 473.414 30.2518C473.438 30.5174 473.524 30.8845 473.673 31.3531C473.849 31.8193 473.954 32.2516 473.99 32.65C474.028 33.0749 474.193 35.0682 474.485 38.6296C474.804 42.1887 475.017 44.5659 475.124 45.7611C475.255 46.9274 475.457 48.8905 475.731 51.6504C476.032 54.4079 476.316 56.8323 476.583 58.9234C476.88 61.0387 477.203 63.1517 477.552 65.2622C477.645 66.0036 477.452 66.5296 476.971 66.8404C476.492 67.1777 475.955 67.3062 475.359 67.2257C474.765 67.1717 474.309 67.0118 473.99 66.7458C473.586 65.8181 472.846 64.1307 471.77 61.6836C470.694 59.2364 469.703 56.9825 468.795 54.9219C467.912 52.8323 467.187 51.0097 466.619 49.4542C466.304 48.6256 465.538 47.1012 464.322 44.8808L463.69 43.6522C463.565 43.4492 463.33 42.7741 462.987 41.6269C462.643 40.4796 462.138 39.7752 461.472 39.5135L461.972 45.0912L462.542 51.4657L463.117 57.88L463.331 60.2705L463.687 64.2545C464.266 64.7382 465.073 64.9337 466.109 64.8409C466.133 65.1065 466.175 65.4241 466.235 65.7935C466.321 66.1606 466.374 66.4504 466.393 66.6629C466.441 66.8996 466.448 67.1265 466.413 67.3438C466.408 67.5852 466.331 67.7661 466.181 67.8867C466.031 68.0072 465.81 68.0805 465.518 68.1066C464.856 68.1927 464.26 68.2594 463.729 68.307C463.463 68.3308 462.575 68.4237 461.063 68.5858C459.554 68.7745 458.666 68.8807 458.401 68.9045C458.241 68.9187 458.117 68.8763 458.028 68.7772C457.939 68.6781 457.871 68.5235 457.826 68.3134C457.807 68.1009 457.787 67.8751 457.765 67.6361C457.746 67.4236 457.733 67.1302 457.726 66.756C457.722 66.4084 457.708 66.1017 457.684 65.8361C458.594 66.1295 459.025 66.0106 458.978 65.4794C459.174 64.9799 459.257 64.4102 459.226 63.7704C459.225 63.1547 459.145 62.4122 458.987 61.5429C458.855 60.6711 458.779 60.1158 458.757 59.8767C458.681 59.0268 458.513 57.7433 458.252 56.0264C458.018 54.3071 457.879 53.2084 457.836 52.7304C457.789 52.1991 457.693 51.284 457.55 49.9849C457.434 48.6835 457.348 47.7273 457.294 47.1164C457.241 46.5321 457.117 45.74 456.92 44.7402C456.724 43.7404 456.601 42.9749 456.554 42.4437C456.53 42.1781 456.414 41.7736 456.204 41.2301C456.022 40.6842 455.918 40.2784 455.895 40.0128L455.823 39.216L455.606 36.7857C455.584 36.5467 455.545 36.2557 455.487 35.9128C455.427 35.5433 455.38 35.1594 455.344 34.761C455.308 34.3626 455.145 33.8819 454.854 33.319C454.56 32.7295 454.402 32.3152 454.381 32.0762C453.611 32.1452 452.999 32.0393 452.545 31.7586C452.092 31.4779 451.846 31.1251 451.808 30.7001C451.772 30.3017 451.874 29.9446 452.114 29.6286C452.353 29.3127 452.672 29.1369 453.07 29.1012C453.363 29.075 453.64 29.0368 453.903 28.9865C454.191 28.9072 454.519 28.8376 454.889 28.7778C455.152 28.7274 455.553 28.7183 456.091 28.7504C456.654 28.7536 457.121 28.7386 457.493 28.7053C457.811 28.6768 458.101 28.7713 458.361 28.989C458.622 29.2066 458.804 29.4447 458.907 29.7031L459.019 30.0546C460.104 31.4032 461.105 32.8665 462.022 34.4442C462.94 36.022 463.976 38.0177 465.129 40.4311C466.306 42.8156 467.137 44.4682 467.621 45.3887C468.328 47.012 469.305 48.7987 470.55 50.7488C470.603 51.3331 470.902 52.1363 471.449 53.1583C471.516 53.3129 471.688 53.7392 471.965 54.4373C472.266 55.1065 472.568 55.789 472.871 56.4847C473.198 57.1515 473.496 57.6336 473.763 57.9309C473.855 58.0565 473.881 57.8936 473.84 57.4421C473.807 57.0702 473.676 56.2118 473.449 54.8667C473.217 53.4685 473.083 52.5702 473.047 52.1718C472.933 50.8969 472.791 48.7142 472.621 45.6237C472.45 42.5066 472.289 40.1114 472.139 38.4381L472.068 37.6413C471.994 36.8179 471.765 35.7541 471.38 34.4499C470.996 33.1456 470.768 32.0951 470.696 31.2983C469.539 30.331 468.681 29.8723 468.124 29.9222C468.008 29.8255 467.809 29.696 467.527 29.5339C467.268 29.3428 467.095 29.1977 467.006 29.0986C466.943 28.9971 466.901 28.8269 466.88 28.5878C466.882 28.3198 466.959 27.9783 467.109 27.5633C467.348 27.5419 467.538 27.5651 467.678 27.6329C467.844 27.6983 468.14 27.712 468.565 27.6739C468.91 27.643 469.228 27.6012 469.517 27.5485C469.831 27.4668 470.052 27.3935 470.18 27.3285L470.336 27.2744C471.014 27.3743 471.694 27.3402 472.375 27.1721C473.08 26.9751 473.782 26.8856 474.48 26.9034C475.204 26.9189 475.707 27.155 475.989 27.6117Z" fill="black"/>
</svg>
