<svg width="519" height="126" viewBox="0 0 519 126" fill="none" xmlns="http://www.w3.org/2000/svg">
<path d="M23.766 71.382C29.6446 62.2636 29.5108 55.9466 22.1561 42.1803L506.194 0C503.721 6.91873 503.569 10.8356 504.048 17.8455C514.966 23.1408 517.942 28.5706 509.951 48.6695C505.871 64.7829 508.174 71.899 518 82.1974L24.8393 126C26.485 117.654 27.1478 112.787 26.4492 102.747C19.1211 88.9594 15.4333 81.3325 23.766 71.382Z" fill="#DFD9CE"/>
<path d="M46.0115 100.874L49.3581 100.574C49.6503 100.548 49.9306 100.389 50.199 100.097C50.4674 99.8055 50.7344 99.6477 51 99.624L50.1618 90.2614C50.0239 88.7209 49.7078 86.8349 49.2135 84.6034C48.7458 82.3696 48.4798 80.8941 48.4156 80.1769C48.0114 75.6617 47.4422 72.5935 46.7081 70.9725L46.4013 67.5462C46.0826 67.5748 45.6913 67.6901 45.2275 67.8923C44.7613 68.0679 44.399 68.2074 44.1405 68.3109C43.8797 68.3878 43.6347 68.3428 43.4056 68.1759C43.174 67.9824 43.0309 67.5802 42.9763 66.9694C42.9549 66.7303 43.0046 66.5384 43.1255 66.3937C43.273 66.2467 43.4978 66.0659 43.7999 65.8515C44.1019 65.637 44.3497 65.414 44.5432 65.1825L45.3014 64.2311C46.367 63.5735 48.0419 63.1424 50.3261 62.9379C50.6979 62.9046 51.1217 62.8533 51.5974 62.7839C52.0973 62.6856 52.573 62.6163 53.0245 62.5759C53.4761 62.5354 54.012 62.541 54.6324 62.5926C54.6566 62.5636 54.6953 62.5468 54.7484 62.542C54.7991 62.5107 54.8909 62.4891 55.0237 62.4772C55.1541 62.4388 55.2748 62.4413 55.3858 62.485C55.7018 62.7244 56.2976 63.0994 57.1733 63.6101C58.0731 64.0917 58.6822 64.4656 59.0006 64.7316C59.5532 64.9231 60.0778 65.2509 60.5745 65.7152C61.0712 66.1794 61.4581 66.6133 61.7352 67.0168C62.0123 67.4204 62.3556 67.9653 62.7651 68.6515C64.4006 71.3698 65.4668 73.858 65.9634 76.1161C65.9995 76.2199 66.0643 76.4952 66.1578 76.942C66.249 77.3622 66.3017 77.652 66.316 77.8114C66.3568 77.9684 66.4228 78.257 66.514 78.6772C66.6028 79.0708 66.6567 79.3739 66.6757 79.5864C66.7189 79.7699 66.7583 80.0609 66.794 80.4593C66.8562 80.8553 66.898 81.1729 66.9194 81.4119C66.9408 81.651 66.9549 81.9576 66.9616 82.3318C66.9949 82.7037 66.9981 83.038 66.9711 83.335C66.9707 83.6295 66.9473 83.9663 66.9009 84.3453C66.8787 84.6953 66.842 85.0332 66.7909 85.3591C66.8789 86.3418 66.8243 87.3775 66.6273 88.4661C66.4279 89.5281 66.2251 90.403 66.0189 91.0908C65.8127 91.7786 65.3889 92.7268 64.7475 93.9355C64.106 95.1442 63.6801 95.9186 63.4696 96.2587C63.2856 96.5964 62.8077 97.3889 62.0358 98.636C61.8329 98.7613 61.329 99.1143 60.5242 99.695C59.7219 100.302 58.9342 100.774 58.1611 101.111C57.3881 101.448 56.4836 101.663 55.4478 101.756L53.8143 101.902C52.7221 102.562 50.7684 103.018 47.953 103.27C46.7134 102.283 46.0662 101.485 46.0115 100.874ZM52.1878 65.3415C52.0185 65.5441 51.8986 65.8493 51.828 66.2572C51.784 66.6628 51.7763 67.0249 51.8048 67.3436C51.831 67.6358 51.869 68.0608 51.9189 68.6185C51.9954 69.1739 52.0384 69.5047 52.0479 69.611C52.1288 70.514 52.2528 71.6006 52.4201 72.8708C52.6139 74.1385 52.7334 75.0247 52.7786 75.5294C52.8285 76.0872 52.9625 76.9855 53.1805 78.2243C53.3985 79.4631 53.5479 80.5341 53.6288 81.4371L54.3849 89.8833C54.4372 90.4677 54.6606 91.3178 55.055 92.4338C55.447 93.5231 55.6668 94.3334 55.7144 94.8646C55.7524 95.2896 55.7276 95.7604 55.64 96.2769C55.5524 96.7934 55.5216 97.1978 55.5478 97.4899C55.5763 97.8087 55.7341 98.0757 56.0211 98.2909C56.3133 98.2648 56.7252 98.0807 57.2568 97.7386C57.7908 97.423 58.2038 97.2522 58.496 97.226C58.4722 96.9604 58.5196 96.742 58.6381 96.5707C58.7856 96.4237 58.9378 96.3297 59.0948 96.2889L59.294 96.2711C59.5331 96.2496 59.7131 96.1666 59.834 96.0219C59.9549 95.8772 60.0082 95.7252 59.9939 95.5658L60.0159 95.3631C60.4782 94.5453 60.7898 93.5401 60.9508 92.3477C61.1142 91.1818 61.1734 90.1993 61.1287 89.4001C61.1081 88.572 61.03 87.4009 60.8945 85.887C60.8636 85.5417 60.862 84.926 60.8898 84.04C60.9441 83.1517 60.9344 82.2958 60.8607 81.4724C60.7846 80.6225 60.5938 79.8364 60.2881 79.1141L60.0599 76.5643C59.8676 75.9121 59.5913 74.9195 59.231 73.5863C58.8949 72.2242 58.6139 71.1784 58.3879 70.449C58.1885 69.7172 57.848 68.9043 57.3664 68.0104C56.8848 67.1164 56.3244 66.3901 55.6854 65.8316C55.2803 65.493 54.8484 65.3041 54.3897 65.2648C53.9311 65.2256 53.1971 65.2511 52.1878 65.3415ZM84.8122 66.3163C84.5204 66.0479 84.3389 65.5153 84.2675 64.7185C84.1962 63.9217 84.0026 63.4036 83.6866 63.1641C83.1293 62.9195 82.5598 62.6894 81.9783 62.4737C79.2956 62.7139 77.4348 63.1616 76.3958 63.8168C76.299 63.9326 76.2035 64.0616 76.1092 64.2039C76.039 64.3173 75.9857 64.4693 75.9492 64.66C75.9127 64.8507 75.8859 65.0004 75.8689 65.109C75.8518 65.2176 75.8431 65.4192 75.8427 65.7137C75.8665 65.9793 75.8831 66.1652 75.8926 66.2715C75.9022 66.3777 75.9236 66.6168 75.9569 66.9886C75.9901 67.3605 76.0115 67.5995 76.0211 67.7057C76.0948 68.5291 76.1514 69.4611 76.191 70.5017C76.2572 71.54 76.3117 72.2981 76.3545 72.7762C76.4068 73.3605 76.5229 74.0596 76.7029 74.8735C76.9094 75.685 77.0376 76.3696 77.0876 76.9274C77.1375 77.4852 77.0644 78.0138 76.8681 78.5133C77.4711 78.968 79.1138 79.0753 81.7964 78.8351C81.6538 77.2415 81.8613 76.4197 82.4191 76.3698C82.8175 76.3341 83.0867 76.3502 83.2266 76.4179C83.3642 76.4592 83.6633 76.66 84.1239 77.0203C83.8888 77.6839 83.8816 78.5012 84.1024 79.472C84.3208 80.4163 84.4572 81.3412 84.5114 82.2466C84.5634 83.1255 84.3503 83.5863 83.8722 83.6291C82.7333 83.1688 82.14 82.6731 82.0925 82.1419L82.0176 81.3052L77.9937 81.6655C77.8212 82.4306 77.7512 83.2936 77.7837 84.2545C77.8404 85.1865 77.9644 86.2731 78.1558 87.5143C78.3449 88.7289 78.4573 89.5355 78.4929 89.9339C78.5738 90.8369 78.7313 92.1481 78.9656 93.8674C79.1998 95.5867 79.3371 96.6721 79.3776 97.1236C81.0453 97.5098 83.2338 97.5816 85.9429 97.3391C86.3754 97.0862 86.58 96.6796 86.5566 96.1195C86.5598 95.557 86.5618 94.9812 86.5626 94.3921C86.5658 93.8296 86.7836 93.4218 87.2161 93.1689C87.588 93.1356 87.9041 93.2278 88.1646 93.4455C88.4516 93.6607 88.6563 94.0038 88.7788 94.4748C88.9013 94.9458 88.9901 95.3394 89.0452 95.6558C89.1026 95.9987 89.1575 96.4623 89.2099 97.0466C89.255 97.5513 88.7843 98.4234 87.7975 99.663L83.6939 100.03C78.2756 100.515 73.9213 100.624 70.631 100.356L70.4847 98.723L73.7517 98.4305C73.8623 96.9748 73.8511 95.5033 73.7179 94.0159C73.5847 92.5285 73.3697 90.8745 73.0729 89.0537C72.8025 87.2305 72.6175 85.7612 72.5176 84.6456L72.3714 83.0122L71.6402 74.8448L71.3513 71.6177L70.6986 64.3269L67.4316 64.6194L67.2854 62.9859C68.3748 62.5939 69.9833 62.1687 72.1109 61.7105C74.2651 61.2499 75.8615 60.8393 76.9001 60.4786L85.0276 59.751C85.6329 60.2322 85.9606 60.7518 86.0105 61.3095C86.0343 61.5751 86.1435 62.0473 86.3381 62.726C86.5304 63.3781 86.6588 63.9154 86.7234 64.338C86.788 64.7606 86.6788 65.1854 86.3957 65.6123C86.1103 66.0127 85.5824 66.2474 84.8122 66.3163ZM98.5821 59.7423C98.3664 60.3239 98.0784 60.8449 97.718 61.3056C97.3553 61.7397 97.1858 62.0895 97.2096 62.3551C97.426 64.7721 97.6377 69.6794 97.8449 77.0771C98.0762 84.4458 98.5353 90.3216 99.2221 94.7045C99.2578 95.1029 99.3046 95.3263 99.3625 95.3747C99.4469 95.4206 99.7161 95.4367 100.17 95.4228C100.332 95.4351 100.597 95.4114 100.967 95.3515C101.365 95.3158 101.631 95.2921 101.764 95.2802C102.191 95.2687 102.735 95.2199 103.397 95.1339L104.274 95.0555L103.831 90.1152L103.535 86.8085C103.753 86.548 103.995 86.4059 104.26 86.3821C104.552 86.356 104.783 86.3889 104.952 86.4809L105.209 86.6587C105.732 87.1205 106.093 87.7173 106.293 88.4491C106.492 89.1809 106.599 90.2289 106.614 91.593C106.632 92.9836 106.651 93.7985 106.672 94.0375C106.687 94.1969 106.768 94.5109 106.917 94.9794C107.093 95.4456 107.199 95.8779 107.234 96.2763C107.272 96.7013 107.184 97.0573 106.968 97.3443C105.319 97.7597 102.914 98.1089 99.7531 98.3919C96.6189 98.6724 94.3732 99.0073 93.0158 99.3966C92.7867 99.2297 92.5044 99.0676 92.1691 98.9102C91.8337 98.7528 91.5925 98.6003 91.4454 98.4529C91.3007 98.332 91.2165 98.1387 91.1927 97.8731C91.1713 97.634 91.2476 97.4398 91.4216 97.2904C91.5957 97.1409 91.7745 97.0446 91.958 97.0014C92.1439 96.9847 92.4228 96.9598 92.7947 96.9265C93.1332 96.5213 93.3221 96.0894 93.3614 95.6308C93.403 95.1987 93.381 94.5045 93.2954 93.5484C93.6059 90.7361 93.4663 86.0365 92.8766 79.4496L92.7981 78.5731L92.1383 71.2025C91.7911 67.3247 91.2638 64.5741 90.5562 62.9507C90.5348 62.7117 90.4518 62.5317 90.3071 62.4108C90.1624 62.2899 89.9223 62.1507 89.587 61.9933C89.2516 61.836 88.9694 61.6738 88.7402 61.5069L88.5904 59.8336L89.4669 59.7551C89.945 59.7123 91.1995 59.5197 93.2304 59.1773C95.2855 58.8059 96.8236 58.6414 97.8448 58.6838C97.9799 58.6985 98.0886 58.7156 98.1706 58.735C98.2503 58.7278 98.3179 58.7352 98.3734 58.757C98.4265 58.7522 98.4566 58.7897 98.4638 58.8694C98.4975 58.9467 98.5167 59.0119 98.5215 59.065C98.5238 59.0916 98.5322 59.1845 98.5464 59.3439C98.5607 59.5033 98.5726 59.6361 98.5821 59.7423ZM114.934 60.0856C114.761 61.1453 114.714 61.9661 114.793 62.548C114.872 63.13 115.012 63.9474 115.213 65.0003C115.441 66.0508 115.568 66.8694 115.594 67.4562C115.69 69.1342 115.821 71.7865 115.985 75.413C116.149 79.0395 116.31 82.3316 116.467 85.2893C116.651 88.2446 116.864 91.0636 117.104 93.7462C117.422 94.0122 117.859 94.2542 118.414 94.4723C118.995 94.688 119.416 94.9046 119.677 95.1223C119.698 95.3613 119.648 95.5532 119.528 95.6979C119.409 95.8691 119.212 96.0608 118.936 96.2729C118.661 96.4849 118.426 96.7067 118.233 96.9382C117.651 96.7226 116.471 96.6944 114.691 96.8537C112.938 97.0106 111.637 96.9799 110.788 96.7614C110.18 96.2536 110.132 95.7224 110.645 95.1678C110.619 94.8756 110.805 94.7117 111.203 94.6761C111.628 94.638 111.948 94.4755 112.164 94.1885C112.381 93.928 112.472 93.5986 112.437 93.2002C112.401 92.8018 112.294 92.3562 112.116 91.8635C111.967 91.3949 111.885 91.0809 111.871 90.9215C111.795 90.0716 111.701 88.8752 111.59 87.3323C111.503 85.7605 111.424 84.5762 111.352 83.7794C111.208 83.0694 111.111 82.4355 111.062 81.8777L110.402 74.5072L109.157 60.6028C108.812 60.6337 108.546 60.6575 108.36 60.6741C108.198 60.6618 108.019 60.5976 107.821 60.4815C107.623 60.3653 107.512 60.1744 107.488 59.9088L107.342 58.2753C107.321 58.0363 107.39 57.9096 107.549 57.8954C107.708 57.8811 108.007 57.9214 108.443 58.0161C108.904 58.0819 109.347 58.0958 109.772 58.0578C110.118 58.0269 110.764 57.9155 111.71 57.7236C112.681 57.5029 113.565 57.3568 114.362 57.2855C115.159 57.2141 115.807 57.2766 116.306 57.4728C116.796 57.8574 116.882 58.3717 116.565 59.0159C116.248 59.6601 115.704 60.0167 114.934 60.0856ZM133.981 55.6094C134.454 55.808 135.01 55.8788 135.647 55.8217C136.284 55.7646 136.984 55.6485 137.744 55.4733C138.529 55.2691 139.081 55.1528 139.4 55.1243C139.689 55.3661 139.907 55.5608 140.054 55.7082C140.202 55.8557 140.355 56.0696 140.513 56.3499C140.67 56.6036 140.749 56.891 140.751 57.2121C140.751 57.5066 140.674 57.8481 140.522 58.2366L138.928 58.3793C138.73 58.8522 138.575 59.3747 138.466 59.9467C138.381 60.4898 138.294 61.1669 138.206 61.978C138.142 62.7602 138.068 63.4228 137.983 63.9659C137.471 66.9299 136.8 71.836 135.967 78.6842C135.158 85.5035 134.339 90.7039 133.508 94.2856C132.792 95.5545 132.047 95.4606 131.274 94.0037C131.149 93.8007 130.751 92.9395 130.079 91.42C129.484 90.4559 129.115 89.177 128.973 87.5834C128.333 85.82 127.27 82.7693 125.784 78.4312C125.314 77.3755 124.861 76.198 124.423 74.8985C123.983 73.5724 123.642 72.4517 123.399 71.5364C123.157 70.621 122.833 69.3917 122.427 67.8484C122.047 66.3027 121.777 65.2292 121.616 64.6278C120.98 62.302 120.635 60.8469 120.583 60.2626C120.571 60.1298 120.522 60.0271 120.435 59.9546C120.372 59.8531 120.261 59.8095 120.102 59.8237C119.967 59.8091 119.833 59.8077 119.7 59.8196C119.567 59.8315 119.382 59.8614 119.146 59.9093C118.933 59.9284 118.774 59.9426 118.668 59.9522C118.644 59.6865 118.57 59.305 118.445 58.8075C118.346 58.3076 118.285 57.9248 118.262 57.6592C118.25 57.5264 118.28 57.4166 118.353 57.3298C118.449 57.214 118.591 57.1478 118.777 57.1312C118.96 57.088 119.132 57.0593 119.291 57.045C119.45 57.0307 119.651 57.0262 119.892 57.0313C120.131 57.0099 120.304 56.9945 120.41 56.985C123.093 56.7448 125.015 56.5326 126.176 56.3483C127.048 56.2167 127.562 56.5723 127.718 57.4151C127.876 58.2845 127.624 59.0567 126.961 59.7318C126.618 60.0838 126.194 60.2824 125.689 60.3276C125.856 62.1868 126.713 65.778 128.26 71.1012C129.891 77.3541 131.337 81.6957 132.599 84.1262C132.597 83.8051 132.76 82.7865 133.088 81.0704C133.443 79.3519 133.598 78.2404 133.553 77.7357C133.709 76.4902 133.994 74.7378 134.407 72.4786C134.845 70.1904 135.191 68.0712 135.445 66.1208C135.723 64.1414 135.881 62.1728 135.92 60.2149C135.906 60.0555 135.932 59.9058 136 59.7659C136.066 59.5994 136.121 59.4739 136.167 59.3895C136.213 59.3051 136.205 59.2121 136.142 59.1106C136.104 58.9802 135.983 58.8304 135.781 58.6611C135.578 58.4918 135.255 58.3199 134.811 58.1455C134.367 57.9711 134.001 57.7762 133.714 57.5609C133.425 57.3191 133.26 56.9724 133.22 56.5209C133.273 56.5162 133.339 56.5102 133.419 56.5031C133.523 56.467 133.648 56.3754 133.796 56.2284C133.941 56.0547 134.003 55.8484 133.981 55.6094ZM159.786 59.6043C159.494 59.336 159.312 58.8034 159.241 58.0065C159.17 57.2097 158.976 56.6916 158.66 56.4522C158.103 56.2075 157.533 55.9774 156.952 55.7617C154.269 56.0019 152.408 56.4496 151.369 57.1049C151.273 57.2206 151.177 57.3497 151.083 57.492C151.013 57.6053 150.959 57.7574 150.923 57.948C150.886 58.1387 150.86 58.2884 150.842 58.397C150.825 58.5056 150.817 58.7072 150.816 59.0017C150.84 59.2673 150.857 59.4533 150.866 59.5595C150.876 59.6657 150.897 59.9048 150.93 60.2766C150.964 60.6485 150.985 60.8875 150.995 60.9938C151.068 61.8171 151.125 62.7491 151.165 63.7898C151.231 64.828 151.285 65.5861 151.328 66.0642C151.38 66.6486 151.497 67.3477 151.676 68.1615C151.883 68.973 152.011 69.6576 152.061 70.2154C152.111 70.7732 152.038 71.3018 151.842 71.8013C152.445 72.256 154.087 72.3633 156.77 72.1231C156.627 70.5295 156.835 69.7077 157.393 69.6578C157.791 69.6221 158.06 69.6382 158.2 69.706C158.338 69.7472 158.637 69.948 159.097 70.3084C158.862 70.972 158.855 71.7892 159.076 72.76C159.294 73.7043 159.431 74.6292 159.485 75.5346C159.537 76.4135 159.324 76.8743 158.846 76.9171C157.707 76.4569 157.114 75.9611 157.066 75.4299L156.991 74.5932L152.967 74.9535C152.795 75.7186 152.725 76.5816 152.757 77.5425C152.814 78.4745 152.938 79.5611 153.129 80.8023C153.318 82.017 153.431 82.8235 153.467 83.2219C153.547 84.125 153.705 85.4361 153.939 87.1554C154.173 88.8747 154.311 89.9601 154.351 90.4117C156.019 90.7978 158.207 90.8696 160.917 90.6271C161.349 90.3742 161.554 89.9677 161.53 89.4075C161.533 88.845 161.535 88.2692 161.536 87.6801C161.539 87.1176 161.757 86.7099 162.19 86.457C162.562 86.4237 162.878 86.5158 163.138 86.7335C163.425 86.9488 163.63 87.2919 163.752 87.7628C163.875 88.2338 163.964 88.6274 164.019 88.9438C164.076 89.2867 164.131 89.7503 164.183 90.3346C164.229 90.8393 163.758 91.7114 162.771 92.951L158.668 93.3184C153.249 93.8034 148.895 93.9121 145.605 93.6445L145.458 92.011L148.725 91.7185C148.836 90.2629 148.825 88.7913 148.691 87.3039C148.558 85.8166 148.343 84.1625 148.046 82.3417C147.776 80.5185 147.591 79.0492 147.491 77.9336L147.345 76.3002L146.614 68.1328L146.325 64.9057L145.672 57.6149L142.405 57.9074L142.259 56.2739C143.348 55.8819 144.957 55.4568 147.084 54.9985C149.239 54.538 150.835 54.1273 151.874 53.7666L160.001 53.039C160.607 53.5203 160.934 54.0398 160.984 54.5976C161.008 54.8632 161.117 55.3353 161.312 56.014C161.504 56.6661 161.632 57.2035 161.697 57.626C161.762 58.0486 161.652 58.4734 161.369 58.9003C161.084 59.3007 160.556 59.5354 159.786 59.6043ZM181.128 68.9787C182.251 70.1632 183.123 71.8254 183.743 73.9653C184.361 76.0787 184.887 78.6687 185.322 81.7355C185.76 84.8288 186.108 86.9261 186.367 88.0273C186.739 87.9941 187.018 87.9691 187.204 87.9524C187.392 87.9624 187.585 88.0254 187.783 88.1416C187.981 88.2577 188.092 88.4486 188.116 88.7142C188.208 89.7501 187.652 90.4156 186.447 90.7109C185.244 91.0328 184.032 91.1012 182.811 90.916C182.596 90.9085 182.435 90.9094 182.329 90.9189C181.782 90.486 181.518 89.934 181.538 89.2629C181.558 88.5917 181.645 87.7674 181.799 86.7898C181.981 85.8364 181.848 84.4963 181.399 82.7694C181.231 82.0884 181.072 81.0585 180.921 79.6797C180.795 78.272 180.578 77.0465 180.271 76.0031C179.987 74.9307 179.514 73.9825 178.852 73.1583C178.702 72.9843 178.507 72.7474 178.266 72.4477C178.051 72.1456 177.855 71.8955 177.677 71.6972C177.498 71.499 177.264 71.279 176.975 71.0372C176.951 70.7716 176.854 70.5795 176.682 70.461C176.535 70.3135 176.294 70.1611 175.959 70.0037C175.623 69.8463 175.341 69.6841 175.112 69.5172C174.74 69.5505 174.462 69.5888 174.279 69.632C174.093 69.6486 173.913 69.7317 173.739 69.8811C173.565 70.0306 173.489 70.2248 173.51 70.4638C173.359 71.7625 173.353 73.1954 173.493 74.7625C173.631 76.303 173.845 77.9438 174.135 79.6849C174.422 81.3994 174.597 82.602 174.658 83.2925C174.863 85.5767 175.283 87.2794 175.919 88.4005C175.945 88.6927 176.249 88.9466 176.831 89.1622C177.439 89.3755 177.755 89.615 177.778 89.8806C177.785 89.9603 177.795 90.0665 177.807 90.1993C177.819 90.3321 177.827 90.4251 177.832 90.4782C177.839 90.5579 177.847 90.6508 177.857 90.7571C177.866 90.8633 177.859 90.9309 177.835 90.9599C177.813 91.0154 177.791 91.0709 177.769 91.1264C177.75 91.2084 177.715 91.2651 177.664 91.2964C177.613 91.3277 177.549 91.3602 177.472 91.3939C177.395 91.4276 177.303 91.4492 177.197 91.4587C176.958 91.4801 176.276 91.4877 175.151 91.4813C174.055 91.4991 173.083 91.5593 172.235 91.662C171.39 91.7912 170.74 92.01 170.286 92.3184C169.569 92.3826 169.048 92.4024 168.725 92.3778C168.43 92.3774 168.099 92.2599 167.73 92.0252C167.387 91.7881 167.045 91.4038 166.703 90.8721C167.239 90.2886 168.066 89.9469 169.181 89.8471L167.879 75.3052C167.846 74.9334 167.865 74.3962 167.936 73.6938C168.007 72.9913 168.017 72.3612 167.967 71.8034C167.915 71.2191 167.734 70.6865 167.423 70.2056C167.397 69.9134 167.406 69.5646 167.45 69.159C167.494 68.7535 167.511 68.3503 167.502 67.9496C167.463 66.6144 167.274 64.8107 166.937 62.5384C166.6 60.2661 166.379 58.5456 166.274 57.3769C164.203 57.5624 163.13 57.2434 163.056 56.4201C162.951 55.2514 163.14 54.5117 163.62 54.2009C164.101 53.8901 165.072 53.6693 166.533 53.5385C166.825 53.5124 167.137 53.4042 167.468 53.2139C167.825 53.0213 168.137 52.913 168.403 52.8893C169.789 52.5242 171.173 52.2798 172.554 52.1562C173.933 52.006 175.31 51.9898 176.686 52.1075C178.086 52.1964 179.297 52.5698 180.32 53.2279C181.37 53.8836 182.093 54.7828 182.489 55.9253C183.437 58.732 183.64 61.0029 183.099 62.738C182.767 63.8119 182.033 65.0289 180.896 66.389L180.098 67.344C180.122 67.6096 180.293 67.8754 180.611 68.1414C180.93 68.4074 181.102 68.6865 181.128 68.9787ZM171.347 55.2762C171.58 57.8791 172 61.3756 172.607 65.7656C172.718 66.1038 173.075 66.2056 173.679 66.0713C174.283 65.9369 174.954 65.6626 175.694 65.2484C176.46 64.8317 176.976 64.4643 177.242 64.1459C177.213 63.8272 177.281 63.2455 177.447 62.4007C177.612 61.5559 177.708 60.9851 177.735 60.6882C177.861 60.302 177.848 59.7009 177.694 58.8846C177.541 58.0684 177.452 57.5275 177.428 57.2619C177.412 57.0759 177.369 56.8924 177.299 56.7112C177.229 56.5301 177.163 56.3887 177.1 56.2872C177.035 56.1592 176.916 56.0226 176.742 55.8775C176.593 55.7035 176.489 55.5923 176.431 55.5439C176.371 55.469 176.213 55.3493 175.957 55.1848C175.726 54.9913 175.581 54.8704 175.523 54.822C175.231 54.8482 174.528 54.9245 173.415 55.0509C172.302 55.1773 171.613 55.2524 171.347 55.2762ZM209.085 48.9661C209.22 50.48 209.049 51.2584 208.571 51.3012L206.22 51.5116C206.043 52.2236 205.625 54.4297 204.966 58.1299C204.304 61.8035 203.64 64.5537 202.973 66.3804C202.661 66.7832 202.446 67.2174 202.327 67.6832C202.232 68.1201 202.187 68.5123 202.191 68.86C202.222 69.2053 202.3 69.774 202.424 70.566C202.546 71.3315 202.631 71.9799 202.679 72.5111C202.562 73.0034 202.522 73.4488 202.557 73.8472C202.62 74.2433 202.725 74.8228 202.874 75.5859C203.047 76.3201 203.145 76.82 203.169 77.0856C203.211 77.5637 203.256 78.3629 203.303 79.4832C203.352 80.6301 203.395 81.5632 203.433 82.2827C203.497 82.9999 203.63 83.7376 203.832 84.496C204.063 85.2785 204.366 85.827 204.742 86.1414C206.119 85.9646 206.83 86.1285 206.875 86.6332C207.45 87.9739 207.478 88.7345 206.958 88.9148C206.205 89.1697 205.416 89.334 204.593 89.4077C203.772 89.508 202.946 89.5551 202.116 89.5492C201.285 89.5432 200.737 89.5521 200.472 89.5759L196.647 89.9183C195.89 89.2364 195.822 88.4794 196.444 87.6474C196.688 87.3845 197.195 87.2186 197.965 87.1497C198.736 87.0807 199.228 86.9028 199.444 86.6157C199.398 86.1111 199.319 85.0741 199.205 83.5046C199.094 81.9617 198.988 80.7798 198.888 79.9588C198.816 79.162 198.69 78.0488 198.508 76.6193C198.327 75.1898 198.102 74.0186 197.832 73.1056C197.59 72.1902 197.288 71.2132 196.928 70.1746C196.564 69.1094 196.109 68.2131 195.562 67.4856C195.039 66.7292 194.435 66.114 193.75 65.6398C193.315 64.6614 192.399 62.9497 191.002 60.5045C189.688 57.4896 188.944 55.0128 188.77 53.0739C187.256 53.2094 186.478 53.0381 186.435 52.56C186.33 51.9805 186.369 51.5218 186.553 51.184C186.763 50.8439 187.092 50.6271 187.539 50.5335C187.983 50.4134 188.419 50.3476 188.846 50.3362C189.271 50.2981 189.766 50.294 190.331 50.3237C190.896 50.3535 191.298 50.3576 191.537 50.3362C192.015 50.2934 192.776 50.2655 193.819 50.2525C194.886 50.2105 195.672 50.1669 196.176 50.1217C196.726 50.5812 197.046 51.3155 197.137 52.3248C197.004 52.3367 196.708 52.323 196.25 52.2838C195.791 52.2445 195.378 52.2681 195.011 52.3545C194.668 52.412 194.4 52.5565 194.206 52.788C194.315 53.0996 194.511 54.0994 194.796 55.7873C194.865 56.2631 194.979 56.7883 195.138 57.3631C195.297 57.938 195.388 58.3582 195.411 58.6238C195.948 60.1286 196.624 61.554 197.441 62.8998C198.255 64.2192 199.067 65.2174 199.878 65.8945C200.334 65.6127 200.676 65.2474 200.904 64.7986C201.129 64.3233 201.35 63.6476 201.566 62.7715C201.806 61.8665 202.013 61.192 202.188 60.748C203.162 58.1709 203.546 55.4324 203.34 52.5325C203.307 52.1607 202.825 51.8691 201.896 51.6578C200.965 51.4199 200.356 51.0461 200.069 50.5363C200.028 50.0847 200.336 49.7761 200.99 49.6104C201.669 49.4158 202.77 49.3039 204.293 49.2746C205.814 49.2187 206.655 49.1836 206.814 49.1694C207 49.1527 207.234 49.0782 207.517 48.9458C207.824 48.7845 208.097 48.6931 208.336 48.6717C208.601 48.6479 208.851 48.7461 209.085 48.9661ZM249.24 81.9168C248.586 74.6127 247.841 69.5791 247.004 66.816C246.553 66.8564 245.545 66.8128 243.981 66.6851C242.441 66.5284 241.219 66.4905 240.316 66.5714C239.782 67.1815 239.618 68.6419 239.825 70.9527C239.413 73.2384 239.459 77.1834 239.96 82.7877C240.301 82.9982 240.75 83.0785 241.307 83.0286C241.865 82.9786 242.289 83.0746 242.578 83.3164L242.608 85.0004C241.91 85.5716 241.097 85.9121 240.17 86.0219C239.242 86.1317 238.426 86.1378 237.722 86.0403C237.019 85.9693 236.217 86.1348 235.316 86.5367L233.413 85.0204C234.299 83.8434 235.087 83.224 235.777 83.1622C236.043 83.1384 236.234 83.0276 236.35 82.8298C236.493 82.6296 236.556 82.4366 236.539 82.2506C236.549 82.0623 236.536 81.769 236.5 81.3706C236.624 79.4586 236.766 76.2599 236.926 71.7744C237.111 67.2599 237.24 64.2096 237.312 62.6235C237.107 60.3393 237.492 58.0559 238.466 55.7734C238.882 53.2462 240.012 50.3204 241.857 46.996C241.905 46.9382 241.965 46.8658 242.038 46.779C242.11 46.6922 242.272 46.5572 242.524 46.3741C242.773 46.1644 243.013 46.009 243.245 45.9079C243.501 45.7779 243.802 45.6974 244.147 45.6665C244.492 45.6356 244.818 45.6867 245.125 45.8199C246.013 46.1688 246.887 46.9607 247.747 48.1956C248.607 49.4305 249.078 50.4994 249.159 51.4025C249.913 52.6469 250.472 54.1095 250.837 55.7904C251.347 58.2078 252.023 61.8687 252.864 66.7733C253.705 71.6779 254.323 75.1433 254.718 77.1694L255.175 82.269C255.189 82.4284 255.344 82.6688 255.641 82.9903C255.938 83.3118 256.099 83.6186 256.125 83.9108C256.151 84.203 255.909 84.4923 255.4 84.779L254.342 84.6326C253.785 84.6826 252.991 84.7937 251.963 84.9662C250.934 85.1386 250.127 85.2509 249.543 85.3033C249.437 85.3128 249.252 85.3427 248.989 85.393C248.728 85.4699 248.518 85.5155 248.358 85.5298C248.228 85.5682 248.069 85.5825 247.88 85.5726C247.694 85.5892 247.545 85.5625 247.431 85.4923C247.345 85.4197 247.295 85.3171 247.283 85.1843C247.241 84.7062 247.449 84.045 247.909 83.2006C248.371 82.3828 248.815 81.9548 249.24 81.9168ZM242.228 51.1395C241.387 54.9094 240.802 57.7997 240.474 59.8104C240.495 60.0494 240.424 60.7519 240.261 61.9178C240.122 63.0547 240.067 63.7958 240.098 64.1411C241.79 64.4983 244.017 64.5533 246.78 64.306L246.33 59.2861C246.095 56.6566 245.312 53.8888 243.98 50.9825C243.976 50.9294 243.957 50.8642 243.923 50.7869C243.913 50.6807 243.822 50.555 243.648 50.4099C243.501 50.2624 243.295 50.2006 243.029 50.2243L242.228 51.1395ZM278.355 43.0056C278.377 43.2447 278.333 43.503 278.224 43.7804C278.115 44.0579 278 44.269 277.879 44.4137L277.701 44.6706L276.068 44.8168C275.85 45.0773 275.754 45.3536 275.78 45.6457C275.804 45.9114 275.891 46.2784 276.04 46.747C276.215 47.2132 276.321 47.6455 276.356 48.0439C276.395 48.4689 276.56 50.4621 276.852 54.0236C277.17 57.5827 277.383 59.9599 277.49 61.1551C277.621 62.3214 277.824 64.2845 278.098 67.0444C278.398 69.8019 278.682 72.2262 278.95 74.3174C279.246 76.4327 279.569 78.5456 279.919 80.6562C280.012 81.3975 279.818 81.9236 279.337 82.2344C278.859 82.5717 278.321 82.7001 277.725 82.6196C277.131 82.5657 276.675 82.4057 276.357 82.1397C275.952 81.2121 275.212 79.5247 274.137 77.0775C273.061 74.6304 272.069 72.3765 271.162 70.3159C270.279 68.2263 269.553 66.4037 268.986 64.8481C268.67 64.0196 267.905 62.4951 266.689 60.2747L266.057 59.0462C265.931 58.8432 265.697 58.1681 265.353 57.0208C265.009 55.8736 264.505 55.1691 263.839 54.9075L264.338 60.4852L264.909 66.8597L265.483 73.274L265.697 75.6644L266.054 79.6485C266.632 80.1322 267.44 80.3276 268.475 80.2349C268.499 80.5005 268.541 80.818 268.601 81.1875C268.687 81.5546 268.74 81.8444 268.759 82.0569C268.807 82.2935 268.814 82.5205 268.78 82.7377C268.775 82.9791 268.697 83.1601 268.547 83.2806C268.398 83.4011 268.177 83.4745 267.884 83.5006C267.223 83.5866 266.626 83.6534 266.095 83.701C265.829 83.7247 264.941 83.8177 263.429 83.9798C261.92 84.1684 261.033 84.2746 260.767 84.2984C260.608 84.3127 260.483 84.2703 260.394 84.1712C260.305 84.072 260.238 83.9174 260.192 83.7073C260.173 83.4949 260.153 83.2691 260.131 83.03C260.112 82.8176 260.1 82.5242 260.093 82.15C260.089 81.8023 260.074 81.4957 260.051 81.2301C260.96 81.5235 261.392 81.4045 261.344 80.8733C261.54 80.3738 261.623 79.8042 261.593 79.1644C261.591 78.5487 261.511 77.8062 261.353 76.9368C261.221 76.0651 261.145 75.5097 261.124 75.2707C261.047 74.4207 260.879 73.1373 260.618 71.4204C260.384 69.7011 260.245 68.6024 260.203 68.1243C260.155 67.5931 260.06 66.678 259.917 65.3789C259.8 64.0774 259.715 63.1212 259.66 62.5104C259.608 61.926 259.483 61.134 259.287 60.1342C259.09 59.1344 258.968 58.3689 258.92 57.8377C258.897 57.5721 258.78 57.1675 258.571 56.624C258.388 56.0781 258.285 55.6724 258.261 55.4068L258.19 54.61L257.972 52.1797C257.951 51.9407 257.911 51.6497 257.854 51.3068C257.794 50.9373 257.746 50.5534 257.71 50.155C257.675 49.7566 257.511 49.2759 257.22 48.713C256.926 48.1235 256.769 47.7092 256.747 47.4702C255.977 47.5391 255.365 47.4333 254.912 47.1526C254.458 46.8719 254.212 46.5191 254.174 46.0941C254.139 45.6957 254.24 45.3385 254.48 45.0226C254.719 44.7066 255.038 44.5308 255.437 44.4952C255.729 44.469 256.007 44.4308 256.27 44.3804C256.557 44.3011 256.886 44.2316 257.255 44.1717C257.518 44.1214 257.919 44.1123 258.457 44.1444C259.02 44.1476 259.487 44.1325 259.859 44.0993C260.178 44.0707 260.467 44.1653 260.728 44.3829C260.988 44.6006 261.17 44.8386 261.274 45.0971L261.385 45.4485C262.47 46.7972 263.471 48.2604 264.389 49.8382C265.306 51.416 266.342 53.4116 267.495 55.8251C268.672 58.2096 269.503 59.8621 269.987 60.7826C270.695 62.406 271.671 64.1927 272.917 66.1428C272.969 66.7271 273.268 67.5302 273.815 68.5522C273.882 68.7068 274.054 69.1332 274.331 69.8313C274.632 70.5005 274.934 71.1829 275.237 71.8787C275.565 72.5455 275.862 73.0275 276.13 73.3248C276.221 73.4505 276.247 73.2876 276.207 72.8361C276.173 72.4642 276.043 71.6058 275.815 70.2607C275.583 68.8625 275.449 67.9642 275.413 67.5658C275.299 66.2909 275.157 64.1082 274.988 61.0176C274.816 57.9006 274.655 55.5054 274.505 53.8321L274.434 53.0352C274.36 52.2119 274.131 51.1481 273.747 49.8438C273.362 48.5396 273.134 47.489 273.063 46.6922C271.905 45.7249 271.048 45.2662 270.49 45.3162C270.374 45.2194 270.175 45.09 269.893 44.9279C269.635 44.7368 269.461 44.5917 269.372 44.4926C269.309 44.3911 269.267 44.2208 269.246 43.9818C269.249 43.7138 269.325 43.3723 269.476 42.9572C269.715 42.9358 269.904 42.959 270.044 43.0268C270.21 43.0922 270.506 43.1059 270.931 43.0679C271.276 43.037 271.594 42.9951 271.884 42.9424C272.198 42.8608 272.419 42.7874 272.547 42.7224L272.703 42.6683C273.381 42.7682 274.061 42.7342 274.742 42.5661C275.447 42.3691 276.148 42.2795 276.846 42.2974C277.57 42.3129 278.073 42.549 278.355 43.0056ZM283.538 79.6093L286.885 79.3097C287.177 79.2835 287.457 79.1246 287.726 78.8328C287.994 78.5411 288.261 78.3833 288.527 78.3595L287.688 68.997C287.55 67.4564 287.234 65.5705 286.74 63.339C286.272 61.1051 286.006 59.6296 285.942 58.9125C285.538 54.3972 284.969 51.3291 284.235 49.7081L283.928 46.2818C283.609 46.3103 283.218 46.4257 282.754 46.6278C282.288 46.8034 281.926 46.943 281.667 47.0464C281.406 47.1233 281.161 47.0783 280.932 46.9114C280.701 46.718 280.558 46.3158 280.503 45.7049C280.481 45.4658 280.531 45.274 280.652 45.1293C280.8 44.9822 281.024 44.8015 281.326 44.587C281.629 44.3725 281.876 44.1496 282.07 43.9181L282.828 42.9667C283.894 42.309 285.568 41.878 287.853 41.6735C288.225 41.6402 288.648 41.5888 289.124 41.5195C289.624 41.4212 290.1 41.3518 290.551 41.3114C291.003 41.271 291.539 41.2765 292.159 41.3281C292.183 41.2992 292.222 41.2823 292.275 41.2776C292.326 41.2462 292.418 41.2246 292.55 41.2127C292.681 41.1743 292.801 41.1769 292.912 41.2205C293.228 41.4599 293.824 41.835 294.7 42.3456C295.6 42.8273 296.209 43.2011 296.527 43.4671C297.08 43.6586 297.604 43.9865 298.101 44.4507C298.598 44.9149 298.985 45.3488 299.262 45.7524C299.539 46.1559 299.882 46.7008 300.292 47.3871C301.927 50.1054 302.993 52.5936 303.49 54.8516C303.526 54.9555 303.591 55.2308 303.684 55.6776C303.776 56.0978 303.828 56.3876 303.843 56.5469C303.883 56.7039 303.949 56.9925 304.041 57.4127C304.129 57.8064 304.183 58.1094 304.202 58.3219C304.246 58.5055 304.285 58.7964 304.321 59.1948C304.383 59.5909 304.425 59.9084 304.446 60.1475C304.467 60.3865 304.482 60.6931 304.488 61.0674C304.522 61.4392 304.525 61.7736 304.498 62.0705C304.497 62.365 304.474 62.7018 304.428 63.0808C304.405 63.4308 304.369 63.7688 304.318 64.0946C304.405 65.0774 304.351 66.113 304.154 67.2016C303.954 68.2636 303.752 69.1385 303.546 69.8263C303.339 70.5141 302.916 71.4623 302.274 72.671C301.633 73.8797 301.207 74.6541 300.996 74.9942C300.812 75.332 300.334 76.1244 299.562 77.3715C299.359 77.4968 298.856 77.8498 298.051 78.4305C297.248 79.0378 296.461 79.5099 295.688 79.8469C294.915 80.1838 294.01 80.3987 292.974 80.4914L291.341 80.6376C290.249 81.2976 288.295 81.7537 285.48 82.0057C284.24 81.019 283.593 80.2202 283.538 79.6093ZM289.714 44.077C289.545 44.2796 289.425 44.5848 289.355 44.9928C289.311 45.3983 289.303 45.7604 289.331 46.0792C289.358 46.3713 289.396 46.7963 289.446 47.3541C289.522 47.9094 289.565 48.2403 289.575 48.3465C289.655 49.2496 289.779 50.3362 289.947 51.6063C290.141 52.8741 290.26 53.7603 290.305 54.2649C290.355 54.8227 290.489 55.721 290.707 56.9598C290.925 58.1987 291.075 59.2696 291.155 60.1727L291.912 68.6189C291.964 69.2032 292.187 70.0533 292.582 71.1693C292.974 72.2587 293.193 73.069 293.241 73.6002C293.279 74.0251 293.254 74.4959 293.167 75.0124C293.079 75.529 293.048 75.9333 293.074 76.2255C293.103 76.5442 293.261 76.8112 293.548 77.0265C293.84 77.0003 294.252 76.8162 294.783 76.4741C295.317 76.1586 295.73 75.9877 296.023 75.9615C295.999 75.6959 296.046 75.4775 296.165 75.3063C296.312 75.1592 296.464 75.0652 296.621 75.0244L296.821 75.0066C297.06 74.9852 297.24 74.9021 297.361 74.7574C297.481 74.6128 297.535 74.4607 297.521 74.3014L297.543 74.0986C298.005 73.2808 298.316 72.2757 298.477 71.0832C298.641 69.9174 298.7 68.9348 298.655 68.1356C298.635 67.3075 298.557 66.1365 298.421 64.6225C298.39 64.2772 298.389 63.6616 298.416 62.7756C298.471 61.8872 298.461 61.0313 298.387 60.2079C298.311 59.358 298.12 58.5719 297.815 57.8496L297.586 55.2998C297.394 54.6477 297.118 53.655 296.758 52.3218C296.422 50.9597 296.14 49.9139 295.915 49.1845C295.715 48.4527 295.375 47.6398 294.893 46.7459C294.411 45.8519 293.851 45.1257 293.212 44.5671C292.807 44.2285 292.375 44.0396 291.916 44.0004C291.458 43.9611 290.724 43.9867 289.714 44.077ZM337.002 74.2608C338.356 74.1395 339.304 74.2555 339.844 74.6087C340.413 74.9861 340.377 75.6319 339.736 76.546C338.754 76.634 337.576 76.7929 336.205 77.0228C334.862 77.2769 333.686 77.4491 332.677 77.5395C331.694 77.6274 330.701 77.5959 329.697 77.4448C329.065 76.9659 328.723 76.4343 328.67 75.85C329.057 75.387 329.353 75.1061 329.559 75.0074C329.766 74.9353 330.282 74.8623 331.105 74.7886C331.349 74.5258 331.478 74.1663 331.491 73.71C331.506 73.2802 331.442 72.7237 331.301 72.0402C331.159 71.3568 331.08 70.9221 331.064 70.7362C330.859 68.7465 330.663 66.2608 330.476 63.2788C330.29 60.2969 330.144 58.2217 330.04 57.053C330.011 56.7343 329.974 56.1753 329.93 55.3761C329.885 54.5769 329.828 53.7922 329.759 53.022C329.688 52.2252 329.59 51.4307 329.465 50.6387C329.369 50.4599 329.266 49.6123 329.157 48.096C329.073 46.5507 328.986 45.2867 328.898 44.304C328.884 44.1446 328.864 43.9189 328.838 43.6267C328.836 43.3056 328.829 43.0786 328.817 42.9458C328.803 42.7865 328.761 42.6162 328.691 42.435C328.645 42.2249 328.578 42.0703 328.489 41.9712C328.397 41.8456 328.269 41.7633 328.105 41.7244C327.83 41.642 327.439 41.6101 326.932 41.6287C326.422 41.6207 325.995 41.4849 325.65 41.2213C325.399 41.1099 325.203 41.007 325.061 40.9127C324.942 40.7894 324.865 40.6758 324.829 40.5719C324.817 40.4391 324.807 40.3196 324.797 40.2134C324.814 40.1048 324.87 39.9793 324.964 39.837C325.083 39.6657 325.178 39.5367 325.251 39.4499C325.323 39.3631 325.446 39.2317 325.617 39.0557C325.789 38.8796 325.912 38.7615 325.987 38.7013C326.745 38.4995 327.506 38.3243 328.269 38.1757C329.059 38.0246 329.891 37.8966 330.765 37.7916C331.639 37.6866 332.368 37.6079 332.953 37.5556C333.535 37.4767 334.371 37.4018 335.463 37.3309C336.578 37.231 337.375 37.1597 337.853 37.1169C337.986 37.105 338.209 37.0582 338.523 36.9766C338.864 36.8925 339.211 36.8882 339.566 36.9635C341.128 37.0646 342.602 37.9769 343.988 39.7001C345.371 41.3969 346.39 43.3538 347.044 45.5711C347.341 48.8911 347.262 51.1472 346.806 52.3392C346.672 52.9402 346.421 53.5651 346.05 54.2141C345.678 54.8364 345.322 55.3502 344.983 55.7553C344.642 56.1339 344.166 56.6451 343.554 57.2889C342.94 57.9061 342.525 58.3449 342.307 58.6053C341.572 59.0727 340.811 59.3952 340.024 59.5727C339.234 59.7238 338.083 59.867 336.569 60.0026C336.515 60.0073 336.437 60.0277 336.333 60.0638C336.253 60.071 336.141 60.1613 335.996 60.335C335.848 60.482 335.785 60.6751 335.807 60.9141L336.103 64.2209C336.169 64.9646 336.197 66.0197 336.185 67.3862C336.176 68.7792 336.222 70.0335 336.322 71.149C336.421 72.2645 336.648 73.3018 337.002 74.2608ZM335.058 52.5476L335.429 56.691C335.865 57.0803 336.432 57.2839 337.13 57.3018C337.854 57.3172 338.378 57.19 338.702 56.92C339.454 56.3441 340.11 55.6026 340.672 54.6956C341.231 53.762 341.577 52.8475 341.711 51.9519C341.748 51.7613 341.792 51.503 341.843 51.1771C341.891 50.8247 341.926 50.6075 341.945 50.5254C341.964 50.4434 341.977 50.2816 341.982 50.0402C342.014 49.7964 342.025 49.6214 342.015 49.5151C342.03 49.38 342.025 49.1796 342.001 48.914C342.004 48.646 341.994 48.3792 341.97 48.1136C341.944 47.8214 341.912 47.4629 341.874 47.0379C341.638 44.4084 340.97 42.1791 339.869 40.35C339.63 40.3714 339.152 40.2669 338.436 40.0366C337.719 39.8062 337.055 39.7184 336.444 39.7731L333.934 39.9978C333.78 41.2699 333.767 42.6098 333.893 44.0175C334.016 45.3987 334.221 46.9332 334.506 48.6212C334.791 50.3092 334.975 51.618 335.058 52.5476ZM364.171 71.6277C363.517 64.3235 362.772 59.2899 361.935 56.5268C361.484 56.5673 360.476 56.5236 358.912 56.3959C357.372 56.2393 356.15 56.2014 355.247 56.2823C354.713 56.8923 354.549 58.3528 354.756 60.6635C354.344 62.9493 354.39 66.8943 354.891 72.4985C355.232 72.7091 355.681 72.7893 356.238 72.7394C356.796 72.6895 357.22 72.7854 357.509 73.0272L357.539 74.7113C356.841 75.2825 356.028 75.623 355.101 75.7328C354.173 75.8426 353.357 75.8487 352.653 75.7511C351.95 75.6802 351.148 75.8456 350.247 76.2476L348.344 74.7312C349.23 73.5543 350.018 72.9349 350.708 72.873C350.974 72.8493 351.165 72.7385 351.281 72.5407C351.424 72.3405 351.487 72.1474 351.47 71.9615C351.48 71.7732 351.467 71.4798 351.431 71.0814C351.555 69.1695 351.697 65.9707 351.857 61.4852C352.042 56.9708 352.171 53.9205 352.243 52.3344C352.038 50.0502 352.423 47.7668 353.397 45.4842C353.813 42.957 354.943 40.0313 356.788 36.7069C356.836 36.649 356.896 36.5767 356.969 36.4899C357.041 36.403 357.203 36.2681 357.455 36.0849C357.704 35.8752 357.944 35.7198 358.176 35.6188C358.432 35.4887 358.733 35.4083 359.078 35.3774C359.423 35.3464 359.749 35.3976 360.056 35.5308C360.944 35.8797 361.818 36.6716 362.678 37.9064C363.538 39.1413 364.009 40.2103 364.09 41.1133C364.844 42.3577 365.403 43.8204 365.767 45.5012C366.278 47.9186 366.954 51.5796 367.795 56.4842C368.636 61.3888 369.254 64.8541 369.649 66.8802L370.106 71.9798C370.12 72.1392 370.275 72.3796 370.572 72.7011C370.869 73.0227 371.03 73.3295 371.056 73.6217C371.082 73.9138 370.84 74.2032 370.331 74.4898L369.273 74.3435C368.715 74.3934 367.922 74.5046 366.894 74.677C365.865 74.8494 365.058 74.9618 364.474 75.0141C364.368 75.0236 364.183 75.0535 363.92 75.1039C363.659 75.1808 363.449 75.2264 363.289 75.2406C363.159 75.2791 363 75.2934 362.811 75.2834C362.625 75.3001 362.476 75.2733 362.362 75.2031C362.276 75.1306 362.226 75.0279 362.214 74.8951C362.172 74.417 362.38 73.7558 362.84 72.9114C363.302 72.0936 363.746 71.6657 364.171 71.6277ZM357.158 40.8503C356.318 44.6203 355.733 47.5106 355.405 49.5213C355.426 49.7603 355.355 50.4628 355.192 51.6286C355.053 52.7656 354.998 53.5067 355.029 53.852C356.721 54.2092 358.948 54.2642 361.711 54.0169L361.261 48.9969C361.026 46.3675 360.243 43.5996 358.911 40.6934C358.907 40.6403 358.887 40.5751 358.854 40.4978C358.844 40.3915 358.753 40.2658 358.579 40.1207C358.432 39.9733 358.226 39.9114 357.96 39.9352L357.158 40.8503ZM391.052 32.6755C391.188 34.1895 391.017 34.9678 390.539 35.0106L388.188 35.2211C388.011 35.933 387.592 38.1391 386.933 41.8393C386.271 45.513 385.607 48.2631 384.941 50.0898C384.629 50.4926 384.413 50.9269 384.294 51.3927C384.2 51.8295 384.154 52.2218 384.159 52.5694C384.19 52.9147 384.267 53.4834 384.392 54.2755C384.514 55.041 384.599 55.6893 384.646 56.2205C384.53 56.7129 384.489 57.1583 384.525 57.5567C384.587 57.9527 384.693 58.5323 384.841 59.2954C385.014 60.0296 385.112 60.5295 385.136 60.7951C385.179 61.2732 385.224 62.0723 385.27 63.1926C385.32 64.3395 385.363 65.2727 385.401 65.9922C385.465 66.7093 385.598 67.4471 385.8 68.2054C386.03 68.988 386.334 69.5364 386.71 69.8508C388.086 69.674 388.797 69.838 388.842 70.3426C389.417 71.6834 389.445 72.4439 388.926 72.6242C388.172 72.8791 387.384 73.0434 386.561 73.1171C385.74 73.2174 384.914 73.2646 384.083 73.2586C383.253 73.2526 382.705 73.2615 382.439 73.2853L378.614 73.6277C377.857 72.9458 377.79 72.1889 378.411 71.3568C378.655 71.094 379.163 70.9281 379.933 70.8591C380.703 70.7902 381.196 70.6122 381.411 70.3252C381.366 69.8205 381.286 68.7835 381.173 67.214C381.061 65.6712 380.956 64.4892 380.855 63.6682C380.784 62.8714 380.658 61.7582 380.476 60.3287C380.295 58.8992 380.069 57.728 379.8 56.815C379.557 55.8997 379.256 54.9227 378.895 53.884C378.532 52.8188 378.077 51.9225 377.53 51.1951C377.007 50.4387 376.403 49.8234 375.718 49.3493C375.282 48.3709 374.366 46.6591 372.969 44.2139C371.655 41.1991 370.911 38.7222 370.738 36.7833C369.224 36.9188 368.445 36.7476 368.403 36.2695C368.297 35.6899 368.336 35.2312 368.52 34.8935C368.731 34.5534 369.06 34.3365 369.506 34.243C369.951 34.1229 370.387 34.0571 370.814 34.0456C371.239 34.0075 371.734 34.0034 372.299 34.0331C372.864 34.0629 373.266 34.0671 373.505 34.0457C373.983 34.0029 374.743 33.9749 375.786 33.9619C376.853 33.9199 377.639 33.8763 378.144 33.8311C378.694 34.2906 379.014 35.025 379.104 36.0343C378.971 36.0462 378.676 36.0325 378.217 35.9932C377.758 35.954 377.346 35.9775 376.978 36.064C376.636 36.1214 376.367 36.2659 376.174 36.4974C376.282 36.809 376.479 37.8088 376.764 39.4968C376.833 39.9725 376.947 40.4978 377.106 41.0726C377.264 41.6474 377.355 42.0676 377.379 42.3332C377.915 43.838 378.592 45.2634 379.408 46.6093C380.223 47.9286 381.035 48.9268 381.845 49.6039C382.302 49.3221 382.644 48.9568 382.872 48.5081C383.097 48.0327 383.317 47.357 383.533 46.481C383.774 45.5759 383.981 44.9014 384.155 44.4574C385.13 41.8803 385.514 39.1418 385.308 36.242C385.274 35.8701 384.793 35.5786 383.864 35.3672C382.932 35.1294 382.323 34.7555 382.036 34.2457C381.996 33.7942 382.303 33.4856 382.958 33.3199C383.636 33.1253 384.737 33.0133 386.261 32.984C387.782 32.9281 388.622 32.8931 388.781 32.8788C388.967 32.8622 389.202 32.7877 389.484 32.6553C389.791 32.4939 390.064 32.4025 390.303 32.3811C390.569 32.3574 390.818 32.4555 391.052 32.6755ZM411.844 52.0989C412.167 50.6243 412.489 48.0921 412.811 44.5025C412.879 43.7735 413.019 42.7971 413.231 41.5733C413.467 40.3206 413.642 39.2876 413.757 38.4741C413.786 38.2038 413.875 37.7005 414.023 36.9643C414.171 36.2282 414.264 35.6175 414.301 35.1323C414.362 34.6181 414.37 34.1087 414.325 33.6041C414.253 32.8073 414.533 32.0459 415.164 31.3201C415.793 30.5677 416.519 30.1546 417.343 30.0809L422.243 29.6422C422.482 29.6208 422.674 29.6706 422.819 29.7915C422.99 29.91 423.183 30.1203 423.397 30.4224C423.609 30.6979 423.831 30.9324 424.063 31.1259C423.821 31.4153 423.613 31.6347 423.439 31.7841C423.291 31.9312 423.077 32.0842 422.797 32.2432C422.543 32.3998 422.256 32.479 421.935 32.481C421.614 32.483 421.246 32.4088 420.831 32.2586C420.656 32.9971 420.599 33.7117 420.661 34.4022C420.723 35.0928 420.845 35.8583 421.027 36.6987C421.236 37.5368 421.366 38.2347 421.416 38.7925L421.712 42.0992L422.079 46.2028L422.668 52.7765C422.72 53.3609 422.768 54.0526 422.813 54.8518C422.856 55.6244 422.903 56.3029 422.955 56.8872C423.005 57.445 423.08 57.9871 423.181 58.5136C423.378 59.5134 423.519 60.4913 423.604 61.4475C423.69 62.4037 423.751 63.3888 423.789 64.4029C423.828 65.4435 423.871 66.2161 423.916 66.7208C425.217 66.6042 426.25 66.9268 427.015 67.6883C427.663 68.3531 427.647 68.9169 426.965 69.3795C426.673 69.4056 426.377 69.3919 426.078 69.3384C425.779 69.2849 425.483 69.2712 425.191 69.2973C424.925 69.3211 424.637 69.3871 424.325 69.4953C424.016 69.6301 423.715 69.7106 423.423 69.7367L421.964 69.5863C422.089 69.4947 422.074 69.4693 421.917 69.5101C420.369 69.8629 419.475 70.05 419.236 70.0714C419.21 69.7792 419.058 69.5786 418.781 69.4696C418.503 69.3606 418.352 69.1733 418.329 68.9077C418.307 68.6686 418.422 68.4575 418.674 68.2744C418.951 68.0889 419.295 67.8841 419.703 67.6602C420.14 67.4604 420.456 67.2447 420.649 67.0132C420.342 65.6753 420.059 64.1611 419.801 62.4708C419.569 60.7781 419.408 59.427 419.317 58.4177C419.224 57.3819 419.096 55.6531 418.933 53.2313C418.768 50.783 418.651 49.187 418.585 48.4433C418.552 48.0715 418.545 47.2554 418.567 45.9952C418.585 44.7084 418.57 43.7861 418.52 43.2284L418.224 39.9216C418.275 39.5957 418.122 39.0873 417.766 38.3963C417.756 38.2901 417.746 38.1706 417.734 38.0378C417.746 37.876 417.749 37.7553 417.741 37.6756C417.761 37.5936 417.753 37.5006 417.716 37.3967C417.68 37.2929 417.604 37.1926 417.489 37.0959C417.397 36.9702 417.265 36.8348 417.091 36.6897C417.278 37.2887 417.288 37.85 417.121 38.3737C416.913 39.0349 416.73 39.8411 416.575 40.7921C416.419 41.7431 416.245 42.9367 416.052 44.373C415.859 45.8092 415.701 46.8809 415.577 47.5881C415.305 48.737 415.141 49.595 415.084 50.1623C414.685 54.0801 414.425 56.5532 414.303 57.5815C414.254 57.934 414.218 58.5797 414.195 59.5189C414.199 60.4556 414.159 61.2088 414.076 61.7785C413.996 62.3747 413.836 62.6835 413.597 62.7049C413.331 62.7287 412.906 62.6195 412.322 62.3772C411.767 62.1592 411.37 62.0609 411.131 62.0823C411.098 61.7104 411.037 61.3277 410.948 60.934C410.859 60.5404 410.779 60.2397 410.707 60.0319C410.635 59.8242 410.498 59.4884 410.295 59.0246C410.117 58.5319 409.995 58.2082 409.927 58.0536C408.178 53.4713 407.286 51.1282 407.25 51.0243C406.463 49.1135 405.758 47.5167 405.134 46.2339C405.098 46.13 404.996 45.8848 404.828 45.4983C404.657 45.0852 404.478 44.7397 404.293 44.4618C404.107 44.1839 403.884 43.9362 403.624 43.7185L404.138 49.4556C404.19 50.0399 404.162 51.2205 404.053 52.9972C403.942 54.7474 403.925 56.0475 404.001 56.8974L404.372 61.0409L405.031 68.4114C405.377 68.3805 405.642 68.3567 405.828 68.34C406.017 68.35 406.21 68.413 406.407 68.5292C406.605 68.6453 406.716 68.8362 406.74 69.1018C406.783 69.5799 406.617 69.9696 406.242 70.2708C405.894 70.5697 405.378 70.7899 404.695 70.9314C404.038 71.0706 403.417 71.1663 402.833 71.2186C402.278 71.2951 401.626 71.3401 400.877 71.3535C400.129 71.367 399.675 71.3808 399.516 71.3951C399.276 71.4165 399.071 71.3679 398.9 71.2494C398.755 71.1285 398.576 70.917 398.361 70.6149C398.149 70.3394 397.927 70.1049 397.696 69.9114C397.793 69.7957 397.934 69.5822 398.121 69.271C398.309 68.9864 398.454 68.8128 398.556 68.7501C398.657 68.6875 398.841 68.6443 399.106 68.6205C399.372 68.5968 399.714 68.6733 400.131 68.8501L399.396 60.6429L398.44 49.9656L398.294 48.3321L397.559 40.125L397.046 34.3879C396.754 34.4141 396.493 34.491 396.263 34.6186C396.058 34.7173 395.836 34.7774 395.597 34.7988C395.358 34.8202 395.049 34.8077 394.67 34.7613C394.315 34.6859 394.005 34.6602 393.739 34.684C393.276 34.297 392.996 34.0142 392.9 33.8354C392.828 33.6277 392.755 33.1121 392.681 32.2887C394.715 31.3838 397.754 31.3795 401.796 32.2759C402.208 32.9887 403.178 34.5484 404.705 36.9552L404.78 37.7918C405.221 38.5288 405.687 39.3974 406.178 40.3975C406.696 41.3954 407.092 42.23 407.366 42.9016C407.667 43.5708 408.089 44.5503 408.633 45.8403C409.175 47.1037 409.531 47.942 409.702 48.3551C409.901 48.7923 410.084 49.1909 410.25 49.5509C410.441 49.8819 410.584 50.1368 410.68 50.3156C410.803 50.492 410.989 50.7699 411.237 51.1493C411.485 51.5287 411.687 51.8452 411.844 52.0989ZM443.495 34.2054C443.203 33.937 443.022 33.4044 442.95 32.6076C442.879 31.8108 442.685 31.2927 442.369 31.0532C441.812 30.8086 441.243 30.5785 440.661 30.3628C437.978 30.603 436.118 31.0507 435.078 31.7059C434.982 31.8217 434.886 31.9507 434.792 32.093C434.722 32.2064 434.668 32.3584 434.632 32.5491C434.595 32.7398 434.569 32.8894 434.552 32.9981C434.535 33.1067 434.526 33.3083 434.525 33.6028C434.549 33.8684 434.566 34.0543 434.575 34.1606C434.585 34.2668 434.606 34.5059 434.64 34.8777C434.673 35.2496 434.694 35.4886 434.704 35.5948C434.777 36.4182 434.834 37.3502 434.874 38.3908C434.94 39.4291 434.994 40.1872 435.037 40.6653C435.09 41.2496 435.206 41.9487 435.386 42.7626C435.592 43.5741 435.72 44.2587 435.77 44.8165C435.82 45.3742 435.747 45.9029 435.551 46.4024C436.154 46.8571 437.797 46.9644 440.479 46.7242C440.336 45.1306 440.544 44.3088 441.102 44.2589C441.5 44.2232 441.769 44.2392 441.909 44.307C442.047 44.3483 442.346 44.5491 442.807 44.9094C442.571 45.573 442.564 46.3903 442.785 47.3611C443.004 48.3054 443.14 49.2303 443.194 50.1357C443.246 51.0146 443.033 51.4754 442.555 51.5182C441.416 51.0579 440.823 50.5622 440.775 50.031L440.7 49.1943L436.676 49.5546C436.504 50.3196 436.434 51.1827 436.466 52.1436C436.523 53.0756 436.647 54.1622 436.839 55.4034C437.028 56.618 437.14 57.4246 437.176 57.823C437.256 58.726 437.414 60.0372 437.648 61.7565C437.883 63.4758 438.02 64.5612 438.06 65.0127C439.728 65.3989 441.916 65.4707 444.626 65.2282C445.058 64.9753 445.263 64.5687 445.239 64.0086C445.243 63.4461 445.245 62.8703 445.245 62.2812C445.249 61.7187 445.466 61.3109 445.899 61.058C446.271 61.0247 446.587 61.1169 446.847 61.3346C447.134 61.5498 447.339 61.8929 447.462 62.3639C447.584 62.8348 447.673 63.2285 447.728 63.5448C447.785 63.8878 447.84 64.3514 447.893 64.9357C447.938 65.4403 447.467 66.3125 446.48 67.5521L442.377 67.9194C436.958 68.4045 432.604 68.5132 429.314 68.2455L429.167 66.6121L432.434 66.3196C432.545 64.8639 432.534 63.3924 432.401 61.905C432.267 60.4176 432.052 58.7635 431.756 56.9428C431.485 55.1196 431.3 53.6503 431.2 52.5347L431.054 50.9012L430.323 42.7339L430.034 39.5068L429.381 32.216L426.114 32.5084L425.968 30.875C427.057 30.4829 428.666 30.0578 430.794 29.5996C432.948 29.139 434.544 28.7284 435.583 28.3677L443.71 27.6401C444.316 28.1213 444.643 28.6409 444.693 29.1986C444.717 29.4642 444.826 29.9364 445.021 30.6151C445.213 31.2672 445.341 31.8045 445.406 32.2271C445.471 32.6497 445.361 33.0745 445.078 33.5014C444.793 33.9018 444.265 34.1365 443.495 34.2054ZM470.594 25.7955C470.616 26.0346 470.572 26.2928 470.463 26.5703C470.354 26.8478 470.239 27.0589 470.118 27.2036L469.94 27.4605L468.307 27.6067C468.089 27.8672 467.993 28.1435 468.019 28.4356C468.043 28.7012 468.13 29.0683 468.279 29.5369C468.454 30.0031 468.56 30.4354 468.595 30.8338C468.634 31.2588 468.799 33.252 469.091 36.8135C469.409 40.3726 469.622 42.7497 469.729 43.945C469.86 45.1112 470.063 47.0743 470.337 49.8343C470.637 52.5918 470.921 55.0161 471.189 57.1073C471.485 59.2226 471.808 61.3355 472.158 63.4461C472.251 64.1874 472.057 64.7135 471.576 65.0242C471.098 65.3616 470.56 65.49 469.964 65.4095C469.37 65.3556 468.914 65.1956 468.596 64.9296C468.191 64.002 467.451 62.3146 466.376 59.8674C465.3 57.4203 464.308 55.1664 463.401 53.1057C462.518 51.0162 461.792 49.1936 461.225 47.638C460.909 46.8095 460.144 45.285 458.928 43.0646L458.295 41.8361C458.17 41.6331 457.936 40.958 457.592 39.8107C457.248 38.6635 456.744 37.959 456.078 37.6974L456.577 43.275L457.148 49.6496L457.722 56.0639L457.936 58.4543L458.293 62.4384C458.871 62.9221 459.679 63.1175 460.714 63.0248C460.738 63.2904 460.78 63.6079 460.84 63.9774C460.926 64.3445 460.979 64.6343 460.998 64.8468C461.046 65.0834 461.053 65.3104 461.019 65.5276C461.014 65.769 460.936 65.95 460.786 66.0705C460.637 66.191 460.415 66.2643 460.123 66.2905C459.462 66.3765 458.865 66.4433 458.334 66.4908C458.068 66.5146 457.18 66.6076 455.668 66.7697C454.159 66.9583 453.272 67.0645 453.006 67.0883C452.847 67.1026 452.722 67.0602 452.633 66.961C452.544 66.8619 452.477 66.7073 452.431 66.4972C452.412 66.2847 452.392 66.059 452.37 65.8199C452.351 65.6075 452.339 65.3141 452.332 64.9399C452.328 64.5922 452.313 64.2856 452.29 64.02C453.199 64.3134 453.631 64.1944 453.583 63.6632C453.779 63.1637 453.862 62.5941 453.832 61.9543C453.83 61.3386 453.75 60.5961 453.592 59.7267C453.46 58.855 453.384 58.2996 453.363 58.0606C453.286 57.2106 453.118 55.9272 452.857 54.2103C452.623 52.491 452.484 51.3923 452.442 50.9142C452.394 50.383 452.299 49.4679 452.156 48.1688C452.039 46.8673 451.954 45.9111 451.899 45.3002C451.847 44.7159 451.722 43.9239 451.526 42.9241C451.329 41.9243 451.207 41.1588 451.159 40.6276C451.136 40.362 451.019 39.9574 450.81 39.4139C450.627 38.868 450.524 38.4623 450.5 38.1967L450.429 37.3999L450.211 34.9696C450.19 34.7306 450.15 34.4396 450.093 34.0967C450.033 33.7272 449.985 33.3433 449.949 32.9449C449.914 32.5465 449.75 32.0658 449.459 31.5029C449.165 30.9134 449.008 30.4991 448.986 30.2601C448.216 30.329 447.604 30.2231 447.151 29.9425C446.697 29.6618 446.451 29.309 446.413 28.884C446.378 28.4856 446.479 28.1284 446.719 27.8125C446.958 27.4965 447.277 27.3207 447.676 27.2851C447.968 27.2589 448.246 27.2207 448.509 27.1703C448.796 27.091 449.125 27.0215 449.494 26.9616C449.757 26.9113 450.158 26.9022 450.696 26.9343C451.259 26.9375 451.726 26.9224 452.098 26.8891C452.417 26.8606 452.706 26.9552 452.967 27.1728C453.227 27.3905 453.409 27.6285 453.513 27.887L453.624 28.2384C454.709 29.5871 455.71 31.0503 456.628 32.6281C457.545 34.2059 458.581 36.2015 459.734 38.615C460.911 40.9995 461.742 42.652 462.226 43.5725C462.934 45.1959 463.91 46.9826 465.156 48.9326C465.208 49.517 465.507 50.3201 466.054 51.3421C466.121 51.4967 466.293 51.9231 466.57 52.6212C466.871 53.2904 467.173 53.9728 467.476 54.6686C467.804 55.3354 468.101 55.8174 468.369 56.1147C468.46 56.2404 468.486 56.0775 468.446 55.6259C468.412 55.2541 468.282 54.3956 468.054 53.0506C467.822 51.6524 467.688 50.7541 467.652 50.3557C467.538 49.0808 467.396 46.8981 467.227 43.8075C467.055 40.6905 466.894 38.2953 466.744 36.622L466.673 35.8251C466.599 35.0018 466.37 33.938 465.986 32.6337C465.601 31.3295 465.373 30.2789 465.302 29.4821C464.144 28.5148 463.287 28.0561 462.729 28.1061C462.613 28.0093 462.414 27.8799 462.132 27.7178C461.874 27.5267 461.7 27.3816 461.611 27.2825C461.548 27.181 461.506 27.0107 461.485 26.7717C461.488 26.5037 461.564 26.1622 461.715 25.7471C461.954 25.7257 462.143 25.7489 462.283 25.8167C462.449 25.8821 462.745 25.8958 463.17 25.8578C463.515 25.8269 463.833 25.785 464.123 25.7323C464.437 25.6507 464.658 25.5773 464.786 25.5123L464.942 25.4582C465.62 25.5581 466.3 25.5241 466.981 25.356C467.686 25.159 468.387 25.0694 469.085 25.0873C469.809 25.1028 470.312 25.3388 470.594 25.7955ZM493.03 30.815C492.74 30.5732 492.553 29.9742 492.467 29.018C492.379 28.0353 492.163 27.2648 491.818 26.7066C491.558 26.489 491.149 26.4051 490.591 26.4551C490.033 26.505 489.362 26.632 488.577 26.8362C487.816 27.0114 487.25 27.1156 486.878 27.1489C486.684 27.675 486.618 28.2833 486.68 28.9738C486.742 29.6644 486.864 30.4299 487.046 31.2703C487.253 32.0818 487.372 32.6602 487.402 33.0055L488.808 48.7027L489.407 55.3959L489.557 57.0693C489.59 57.4411 489.594 57.936 489.569 58.5541C489.571 59.1697 489.591 59.69 489.629 60.115C489.667 60.5399 489.766 60.9058 489.928 61.2127C490.024 61.3915 490.287 61.4884 490.717 61.5035C491.147 61.5186 491.541 61.5903 491.901 61.7188C492.287 61.8448 492.501 62.1469 492.544 62.625C492.036 63.2327 491.503 63.5615 490.946 63.6115L483.456 64.282C483.19 64.3058 482.982 64.2307 482.833 64.0566C482.684 63.8826 482.587 63.7038 482.544 63.5203C482.527 63.3343 482.502 63.0555 482.469 62.6836C482.735 62.6598 483.135 62.4902 483.669 62.1746C484.203 61.8591 484.602 61.6894 484.868 61.6657L483.973 51.6656C483.915 51.6173 483.753 49.9584 483.487 46.6891C483.221 43.4198 483.087 41.7719 483.085 41.7453L482.714 37.6019L482.564 35.9286C482.219 32.0773 481.692 29.3267 480.982 27.6768C479.794 27.5689 478.659 27.6036 477.577 27.7808C476.52 27.929 475.695 28.4312 475.102 29.2875C474.507 30.1172 474.387 31.1721 474.743 32.4521C474.261 33.0575 473.717 33.1062 473.109 32.5984C473.078 32.2531 472.96 31.6747 472.753 30.8632C472.571 30.0228 472.449 29.2573 472.387 28.5667C472.325 27.8761 472.391 27.2678 472.585 26.7418C474.359 25.6192 476.202 24.9723 478.114 24.8011C478.911 24.7297 480.303 24.5783 482.29 24.3469C484.275 24.0888 485.706 23.9206 486.582 23.8421C487.83 23.7304 488.829 23.6678 489.577 23.6543C490.35 23.6119 491.226 23.6807 492.206 23.8607C493.21 24.0118 493.855 24.3289 494.139 24.8122C494.509 25.6625 494.76 26.5236 494.892 27.3953C495.021 28.2405 494.93 29.0117 494.617 29.709C494.329 30.3774 493.8 30.7461 493.03 30.815Z" fill="black"/>
</svg>
