<svg width="546" height="126" viewBox="0 0 546 126" fill="none" xmlns="http://www.w3.org/2000/svg">
<path d="M5.14806 71.382C11.4979 62.2636 11.3533 55.9466 3.40913 42.1803L526.248 0C523.576 6.91873 523.412 10.8356 523.929 17.8455C535.722 23.1408 538.937 28.5706 530.305 48.6695C525.898 64.7829 528.387 71.899 539 82.1974L6.30735 126C8.08497 117.654 8.80095 112.787 8.04628 102.747C0.130783 88.9594 -3.85255 81.3325 5.14806 71.382Z" fill="#DFD9CE"/>
<path d="M47.264 72.143C46.9746 71.9012 46.7871 71.3022 46.7015 70.346C46.6135 69.3633 46.3973 68.5928 46.0528 68.0347C45.7924 67.817 45.3833 67.7332 44.8255 67.7831C44.2677 67.833 43.5964 67.9601 42.8114 68.1642C42.0507 68.3394 41.4844 68.4437 41.1126 68.4769C40.9187 69.003 40.8527 69.6113 40.9145 70.3019C40.9763 70.9924 41.0984 71.7579 41.2807 72.5984C41.4872 73.4098 41.606 73.9882 41.6369 74.3335L43.0422 90.0307L43.6414 96.724L43.7912 98.3973C43.8245 98.7691 43.8286 99.2641 43.8036 99.8821C43.8052 100.498 43.825 101.018 43.863 101.443C43.9011 101.868 44.0008 102.234 44.1621 102.541C44.2584 102.719 44.5215 102.816 44.9512 102.832C45.3809 102.847 45.7755 102.918 46.1351 103.047C46.5212 103.173 46.7357 103.475 46.7785 103.953C46.2706 104.561 45.7378 104.89 45.1801 104.939L37.69 105.61C37.4244 105.634 37.2169 105.559 37.0674 105.385C36.918 105.211 36.8217 105.032 36.7785 104.848C36.7618 104.662 36.7368 104.383 36.7036 104.012C36.9692 103.988 37.369 103.818 37.9029 103.503C38.4369 103.187 38.8367 103.017 39.1023 102.994L38.2071 92.9937C38.1492 92.9453 37.9873 91.2865 37.7214 88.0172C37.4555 84.7478 37.3214 83.0999 37.319 83.0733L36.948 78.9299L36.7982 77.2566C36.4535 73.4053 35.9261 70.6547 35.2161 69.0048C34.0285 68.897 32.8937 68.9316 31.8119 69.1088C30.7542 69.257 29.929 69.7593 29.3363 70.6155C28.7413 71.4452 28.6215 72.5001 28.9771 73.7802C28.4958 74.3855 27.9513 74.4342 27.3436 73.9264C27.3127 73.5811 27.194 73.0027 26.9875 72.1912C26.8052 71.3508 26.6831 70.5853 26.6213 69.8947C26.5594 69.2042 26.6255 68.5959 26.8193 68.0698C28.593 66.9472 30.4359 66.3003 32.3483 66.1291C33.1451 66.0577 34.5372 65.9063 36.5244 65.6749C38.5093 65.4169 39.94 65.2486 40.8165 65.1702C42.0649 65.0584 43.0633 64.9958 43.8117 64.9823C44.5843 64.9399 45.4606 65.0087 46.4406 65.1888C47.4447 65.3398 48.0889 65.657 48.3731 66.1402C48.7438 66.9906 48.9949 67.8516 49.1265 68.7233C49.2557 69.5685 49.1641 70.3398 48.8517 71.0371C48.5635 71.7054 48.0342 72.0741 47.264 72.143ZM71.8143 65.6882C71.354 66.8271 71.2701 69.0301 71.5626 72.297L72.2118 79.548L72.7931 86.042C72.9144 87.3966 73.241 89.5494 73.7729 92.5004C74.3338 95.4756 74.6736 97.6272 74.7925 98.9552C74.9951 99.1245 75.2508 99.289 75.5596 99.4487C75.895 99.6061 76.135 99.7453 76.2797 99.8662C76.4533 100.011 76.5508 100.203 76.5722 100.442L76.7185 102.076C76.6872 102.025 76.6558 101.974 76.6245 101.924C76.5932 101.873 76.4943 101.815 76.3278 101.749C76.1879 101.682 76.0477 101.761 75.9074 101.988C75.6755 102.089 75.4545 102.162 75.2444 102.208C75.0632 102.278 74.9328 102.316 74.8531 102.323L74.6902 102.298C74.4777 102.317 74.0914 102.338 73.5312 102.361C73 102.409 72.429 102.46 71.8181 102.515C71.5259 102.541 71.1939 102.57 70.822 102.604C70.4526 102.664 70.1483 102.704 69.9093 102.726C69.7935 102.629 69.6922 102.544 69.6054 102.472C69.5186 102.399 69.4572 102.311 69.4211 102.207C69.414 102.127 69.3947 102.062 69.3634 102.011C69.361 101.985 69.3817 101.916 69.4253 101.805C69.4978 101.718 69.545 101.647 69.5668 101.592C69.591 101.563 69.6635 101.476 69.7844 101.331C69.9319 101.184 70.0298 101.082 70.0782 101.024C70.052 100.732 70.2927 100.429 70.8001 100.116C71.3075 99.8026 71.5494 99.5132 71.5256 99.2476C71.5934 97.3139 71.5239 95.1916 71.3171 92.8809C71.1126 90.5967 70.8191 88.0661 70.4366 85.2891C70.0807 82.5098 69.8385 80.403 69.7101 78.9687C69.6887 78.7297 69.6057 78.5497 69.461 78.4288C69.3139 78.2813 69.1595 78.2015 68.9978 78.1892L68.7986 78.207C68.06 78.0321 67.226 77.9863 66.2964 78.0696C65.3667 78.1528 64.3368 78.3119 63.2066 78.547C62.074 78.7555 61.2421 78.8835 60.7109 78.931C60.2515 79.4809 59.9186 80.0997 59.7125 80.7875C59.5305 81.4463 59.4355 82.0304 59.4276 82.5398C59.4438 83.0203 59.4983 83.7785 59.5911 84.8143L60.3864 93.6988L60.6076 96.1689C60.9473 96.674 61.1528 97.3249 61.2242 98.1217C61.2979 98.9451 61.4913 99.6105 61.8045 100.118C62.3091 100.073 62.7747 100.339 63.2012 100.917C63.6278 101.494 63.5003 102.014 62.8189 102.477C62.0486 102.546 61.1636 102.679 60.1638 102.875C59.1664 103.098 58.256 103.247 57.4326 103.321C56.6092 103.394 55.7088 103.354 54.7312 103.201C54.0759 102.162 54.0034 101.352 54.5136 100.771L56.1471 100.624L55.8582 97.3973L54.1854 78.712L54.0392 77.0786L53.9678 76.2818L53.7538 73.8913L53.6789 73.0547C53.3658 72.5472 53.1486 71.6162 53.0273 70.2616C52.906 68.9071 52.6743 67.964 52.3322 67.4323C51.801 67.4799 51.2316 67.2498 50.6239 66.7419C50.0451 66.2583 49.9964 65.7138 50.4776 65.1085L53.7446 64.816C54.0898 64.7851 54.6561 64.6808 55.4434 64.5033C56.2549 64.2967 56.9927 64.1638 57.6567 64.1043C58.3207 64.0449 58.9024 64.1133 59.4019 64.3095C59.8269 64.2715 60.2142 64.4108 60.5638 64.7276C60.94 65.0419 61.146 65.3983 61.1816 65.7967C61.2316 66.3545 60.4464 66.7059 58.8263 66.851C58.6086 67.1114 58.5129 67.3877 58.539 67.6799C58.5628 67.9455 58.6504 68.3259 58.8018 68.821C58.9774 69.2872 59.0831 69.7195 59.1187 70.1179C59.1496 70.4632 59.1356 71.0535 59.0765 71.8887C59.0416 72.695 59.0538 73.4302 59.1133 74.0942C59.1727 74.7582 59.3434 75.3186 59.6252 75.7753C62.9635 76.2796 66.2038 75.9895 69.3463 74.905C68.9587 70.5756 68.4135 67.6258 67.7107 66.0556C67.419 65.7872 66.8747 65.6887 66.0779 65.76C65.2811 65.8313 64.738 65.7461 64.4486 65.5043L64.3023 63.8708C65.827 62.9579 67.4101 62.5484 69.0517 62.6424C69.2182 62.7078 69.6709 62.6807 70.4099 62.561L71.5218 62.4213C72.0768 62.6393 72.4711 63.0056 72.7045 63.5202C72.9646 64.0324 73.0074 64.5105 72.8329 64.9545C72.6851 65.3961 72.3455 65.6407 71.8143 65.6882ZM93.564 97.2747C92.9101 89.9705 92.165 84.9369 91.3286 82.1738C90.8771 82.2143 89.8692 82.1706 88.3049 82.0429C86.7648 81.8863 85.5432 81.8484 84.6402 81.9293C84.1058 82.5393 83.942 83.9998 84.1489 86.3105C83.7377 88.5963 83.783 92.5413 84.2847 98.1456C84.6248 98.3561 85.0738 98.4363 85.6316 98.3864C86.1893 98.3365 86.6129 98.4324 86.9023 98.6743L86.9326 100.358C86.234 100.929 85.4212 101.27 84.4939 101.38C83.5667 101.49 82.7507 101.496 82.0458 101.398C81.3434 101.327 80.5416 101.493 79.6405 101.895L77.7377 100.378C78.623 99.2013 79.4109 98.5819 80.1014 98.5201C80.367 98.4963 80.5579 98.3855 80.6741 98.1877C80.8168 97.9875 80.8798 97.7944 80.8632 97.6085C80.8731 97.4202 80.8602 97.1268 80.8246 96.7284C80.9479 94.8165 81.0899 91.6178 81.2506 87.1322C81.4354 82.6178 81.564 79.5675 81.6362 77.9814C81.4317 75.6972 81.8163 73.4138 82.7899 71.1312C83.2063 68.604 84.3365 65.6783 86.1808 62.3539C86.2292 62.296 86.2896 62.2237 86.3622 62.1369C86.4347 62.0501 86.5967 61.9151 86.848 61.7319C87.097 61.5222 87.3374 61.3668 87.5693 61.2658C87.8254 61.1357 88.1261 61.0553 88.4714 61.0244C88.8167 60.9935 89.1425 61.0446 89.4489 61.1778C90.3369 61.5267 91.211 62.3186 92.0712 63.5534C92.9314 64.7883 93.402 65.8573 93.4828 66.7604C94.2368 68.0047 94.7961 69.4674 95.1607 71.1482C95.6717 73.5656 96.3475 77.2266 97.1881 82.1312C98.0288 87.0358 98.6469 90.5011 99.0425 92.5272L99.4991 97.6269C99.5133 97.7862 99.6687 98.0267 99.9652 98.3482C100.262 98.6697 100.423 98.9765 100.449 99.2687C100.475 99.5608 100.234 99.8502 99.7238 100.137L98.6665 99.9905C98.1087 100.04 97.3155 100.152 96.2868 100.324C95.258 100.496 94.4515 100.609 93.8672 100.661C93.7609 100.671 93.5762 100.701 93.313 100.751C93.0521 100.828 92.842 100.873 92.6827 100.888C92.5522 100.926 92.3929 100.94 92.2046 100.93C92.0187 100.947 91.869 100.92 91.7556 100.85C91.6688 100.778 91.6195 100.675 91.6076 100.542C91.5648 100.064 91.7733 99.4028 92.2332 98.5584C92.6954 97.7406 93.1391 97.3127 93.564 97.2747ZM86.5517 66.4973C85.7112 70.2673 85.1266 73.1576 84.7979 75.1683C84.8193 75.4073 84.7483 76.1098 84.585 77.2756C84.4458 78.4126 84.3917 79.1537 84.4226 79.499C86.1145 79.8562 88.3416 79.9112 91.1039 79.6639L90.6545 74.644C90.4191 72.0145 89.6358 69.2466 88.3047 66.3404C88.3 66.2873 88.2807 66.2221 88.247 66.1448C88.2375 66.0385 88.146 65.9129 87.9723 65.7678C87.8253 65.6203 87.6189 65.5584 87.3533 65.5822L86.5517 66.4973ZM122.679 58.3635C122.701 58.6025 122.657 58.8608 122.548 59.1383C122.439 59.4158 122.324 59.6269 122.203 59.7716L122.025 60.0285L120.392 60.1747C120.174 60.4351 120.078 60.7114 120.105 61.0036C120.128 61.2692 120.215 61.6363 120.364 62.1049C120.539 62.5711 120.645 63.0034 120.681 63.4018C120.719 63.8268 120.884 65.82 121.176 69.3815C121.495 72.9406 121.707 75.3177 121.814 76.5129C121.946 77.6792 122.148 79.6423 122.422 82.4022C122.722 85.1598 123.006 87.5841 123.274 89.6752C123.57 91.7906 123.893 93.9035 124.243 96.0141C124.336 96.7554 124.142 97.2814 123.661 97.5922C123.183 97.9296 122.645 98.058 122.049 97.9775C121.455 97.9236 120.999 97.7636 120.681 97.4976C120.277 96.5699 119.537 94.8826 118.461 92.4354C117.385 89.9882 116.393 87.7344 115.486 85.6737C114.603 83.5841 113.877 81.7616 113.31 80.206C112.995 79.3775 112.229 77.853 111.013 75.6326L110.381 74.404C110.255 74.2011 110.021 73.526 109.677 72.3787C109.334 71.2314 108.829 70.527 108.163 70.2653L108.662 75.843L109.233 82.2175L109.807 88.6319L110.021 91.0223L110.378 95.0064C110.957 95.49 111.764 95.6855 112.8 95.5928C112.824 95.8584 112.865 96.1759 112.925 96.5454C113.012 96.9125 113.064 97.2022 113.083 97.4147C113.131 97.6514 113.138 97.8783 113.104 98.0956C113.099 98.337 113.021 98.518 112.872 98.6385C112.722 98.759 112.501 98.8323 112.209 98.8585C111.547 98.9445 110.951 99.0113 110.419 99.0588C110.154 99.0826 109.265 99.1755 107.754 99.3376C106.244 99.5263 105.357 99.6325 105.091 99.6563C104.932 99.6706 104.808 99.6281 104.719 99.529C104.629 99.4299 104.562 99.2753 104.516 99.0652C104.497 98.8527 104.477 98.627 104.456 98.3879C104.437 98.1754 104.424 97.8821 104.417 97.5078C104.413 97.1602 104.399 96.8535 104.375 96.5879C105.285 96.8813 105.716 96.7624 105.668 96.2312C105.864 95.7317 105.947 95.1621 105.917 94.5222C105.915 93.9066 105.835 93.1641 105.677 92.2947C105.546 91.423 105.469 90.8676 105.448 90.6285C105.372 89.7786 105.203 88.4952 104.942 86.7783C104.708 85.059 104.57 83.9603 104.527 83.4822C104.479 82.951 104.384 82.0358 104.241 80.7367C104.124 79.4353 104.039 78.4791 103.984 77.8682C103.932 77.2839 103.807 76.4918 103.611 75.492C103.414 74.4923 103.292 73.7268 103.245 73.1956C103.221 72.9299 103.104 72.5254 102.895 71.9819C102.712 71.436 102.609 71.0303 102.585 70.7647L102.514 69.9679L102.296 67.5376C102.275 67.2985 102.235 67.0076 102.178 66.6646C102.118 66.2952 102.07 65.9112 102.035 65.5128C101.999 65.1144 101.836 64.6338 101.544 64.0708C101.25 63.4813 101.093 63.0671 101.071 62.828C100.301 62.897 99.6893 62.7911 99.2358 62.5104C98.7823 62.2298 98.5365 61.8769 98.4985 61.452C98.4628 61.0536 98.5647 60.6964 98.8042 60.3804C99.0436 60.0645 99.3625 59.8887 99.761 59.853C100.053 59.8269 100.331 59.7886 100.594 59.7383C100.881 59.659 101.21 59.5894 101.579 59.5296C101.843 59.4793 102.243 59.4702 102.782 59.5023C103.344 59.5055 103.811 59.4904 104.183 59.4571C104.502 59.4286 104.792 59.5231 105.052 59.7408C105.312 59.9584 105.494 60.1965 105.598 60.455L105.71 60.8064C106.794 62.1551 107.795 63.6183 108.713 65.1961C109.631 66.7739 110.666 68.7695 111.819 71.1829C112.997 73.5675 113.827 75.22 114.311 76.1405C115.019 77.7639 115.995 79.5506 117.241 81.5006C117.293 82.0849 117.593 82.8881 118.139 83.9101C118.207 84.0647 118.379 84.4911 118.655 85.1892C118.956 85.8583 119.258 86.5408 119.562 87.2365C119.889 87.9033 120.186 88.3854 120.454 88.6827C120.546 88.8084 120.571 88.6454 120.531 88.1939C120.497 87.8221 120.367 86.9636 120.14 85.6185C119.907 84.2204 119.773 83.3221 119.738 82.9236C119.624 81.6487 119.482 79.466 119.312 76.3755C119.14 73.2584 118.979 70.8632 118.829 69.1899L118.758 68.3931C118.684 67.5697 118.455 66.5059 118.071 65.2017C117.686 63.8974 117.458 62.8469 117.387 62.0501C116.23 61.0828 115.372 60.6241 114.814 60.674C114.698 60.5773 114.499 60.4479 114.217 60.2857C113.959 60.0946 113.785 59.9495 113.696 59.8504C113.634 59.749 113.592 59.5787 113.57 59.3396C113.573 59.0717 113.649 58.7301 113.8 58.3151C114.039 58.2937 114.228 58.3169 114.368 58.3847C114.535 58.4501 114.83 58.4638 115.255 58.4257C115.601 58.3948 115.918 58.353 116.208 58.3003C116.522 58.2186 116.743 58.1453 116.871 58.0803L117.027 58.0262C117.705 58.1261 118.385 58.092 119.066 57.924C119.771 57.727 120.473 57.6374 121.17 57.6553C121.895 57.6707 122.398 57.9068 122.679 58.3635ZM141.756 59.5071C141.937 61.5256 141.645 64.2558 140.883 67.6975C140.645 68.3346 140.285 69.2503 139.803 70.4447C139.345 71.6102 139.039 72.3739 138.884 72.7358C138.922 73.1608 138.971 73.4107 139.031 73.4857C139.116 73.5317 139.357 73.5368 139.756 73.5011C140.072 73.7406 140.639 74.0914 141.456 74.5537C142.301 75.0136 142.881 75.3632 143.197 75.6027C144.028 76.5188 144.686 77.5844 145.17 78.7995C145.651 79.988 146.117 81.6062 146.568 83.6541C147.043 85.6731 147.357 86.9302 147.508 87.4253C147.541 87.7972 147.519 88.2945 147.441 88.9173C147.392 89.5642 147.385 90.0869 147.421 90.4853C147.459 90.9103 147.608 91.2316 147.868 91.4493C147.892 91.7149 148.232 92.0726 148.888 92.5226C149.544 92.9726 149.885 93.3436 149.912 93.6358C149.931 93.8483 149.899 94.0921 149.816 94.3672C149.76 94.6399 149.699 94.8463 149.631 94.9862L149.493 95.2395C148.616 95.318 147.276 95.4513 145.472 95.6396C143.671 95.8544 142.545 95.982 142.093 96.0224C141.833 95.8048 141.664 95.5655 141.587 95.3047C141.51 95.0438 141.505 94.8302 141.57 94.6637L141.632 94.4573L143.119 92.6776C143.289 92.1805 143.35 91.6664 143.302 91.1352C143.255 90.6039 143.148 90.0111 142.982 89.3566C142.819 88.7287 142.721 88.2288 142.687 87.8569L142.252 82.9964L142.181 82.1995C142.062 80.8715 141.732 79.5758 141.19 78.3124C140.649 77.049 139.976 76.2658 139.173 75.9629C137.481 75.3112 135.861 75.4562 134.312 76.3981C133.974 76.8032 133.763 77.4379 133.68 78.3021C133.594 79.1397 133.584 79.9304 133.651 80.6741C133.744 81.4154 133.871 82.3813 134.031 83.5717C134.215 84.7333 134.331 85.5796 134.379 86.1108C134.426 86.642 134.341 87.3324 134.122 88.1819C133.933 89.0557 133.862 89.7581 133.909 90.2893L134.195 93.4766C135.109 93.8231 135.701 94.3055 135.971 94.924C136.267 95.54 136.05 96.1083 135.32 96.6288C134.497 96.4079 133.42 96.491 132.09 96.8778C130.788 97.2889 129.727 97.3973 128.906 97.203C128.443 96.8161 128.166 96.5598 128.074 96.4341C128.009 96.3061 127.96 96.0561 127.927 95.6843C128.12 95.4528 128.355 95.231 128.63 95.0189C128.906 94.8068 129.104 94.6284 129.225 94.4838C129.346 94.3391 129.395 94.1472 129.374 93.9082L129.014 89.8842L128.436 83.4301C128.487 83.3987 128.487 83.1042 128.437 82.5464L128.29 81.7966C128.273 81.6107 128.356 81.041 128.538 80.0876C128.745 79.1053 128.821 78.3087 128.766 77.6978C128.143 70.7389 127.431 65.9299 126.631 63.2707L126.417 60.8802C126.072 60.9112 125.806 60.9349 125.62 60.9516C125.459 60.9393 125.279 60.8751 125.081 60.7589C124.883 60.6427 124.772 60.4519 124.749 60.1863C124.374 60.193 124.16 59.8909 124.105 59.28C124.077 58.6667 124.196 58.201 124.462 57.8826C124.607 57.709 124.813 57.6103 125.078 57.5865C125.341 57.5362 125.729 57.5283 126.241 57.5628C126.75 57.5707 127.204 57.5568 127.602 57.5212C127.788 57.5045 128.186 57.4556 128.794 57.3743C129.4 57.2665 129.916 57.1936 130.341 57.1556C130.792 57.1151 131.274 57.1122 131.786 57.1467C132.324 57.1788 132.738 57.3158 133.027 57.5576C133.343 57.797 133.521 58.1425 133.562 58.5941C133.583 58.8331 133.52 59.0262 133.373 59.1732C133.252 59.3179 133.054 59.4963 132.778 59.7084C132.502 59.9205 132.268 60.1423 132.075 60.3738C132.17 61.4362 132.434 62.8984 132.869 64.7604C133.303 66.6224 133.568 68.0846 133.663 69.1471C133.677 69.3064 133.64 69.6311 133.55 70.1211C133.486 70.6087 133.472 71.0517 133.508 71.4501C133.544 71.8485 133.692 72.1565 133.952 72.3742C136.626 71.4387 138.295 68.8528 138.96 64.6167C138.913 64.0855 138.974 63.2768 139.145 62.1906C139.342 61.102 139.415 60.2788 139.365 59.7211L137.732 59.8673C137.706 59.5751 137.535 59.3093 137.219 59.0699C136.929 58.828 136.773 58.5743 136.749 58.3087C137.013 57.6693 137.777 57.2261 139.04 56.9792C140.327 56.7033 141.136 56.4702 141.467 56.28C142.232 56.4524 142.731 56.7959 142.965 57.3105C143.225 57.8227 143.214 58.3055 142.934 58.759C142.68 59.2102 142.287 59.4595 141.756 59.5071ZM161.461 55.9759C161.409 55.3916 161.675 55.0733 162.259 55.021C162.631 54.9877 162.911 54.976 163.099 54.9859C163.285 54.9693 163.465 55.0335 163.639 55.1786C163.836 55.2947 163.947 55.4856 163.971 55.7512C164.258 55.9665 164.421 56.2866 164.459 56.7116C164.494 57.11 164.468 57.5674 164.381 58.084C164.291 58.574 164.253 58.8986 164.267 59.058C164.226 59.1955 164.151 59.4031 164.042 59.6806C163.959 59.9557 163.885 60.1765 163.82 60.343C163.754 60.5095 163.667 60.7315 163.558 61.009C163.473 61.2575 163.385 61.4662 163.293 61.6351C163.225 61.775 163.133 61.9439 163.017 62.1417C162.898 62.313 162.778 62.4577 162.654 62.5758C162.529 62.6674 162.388 62.7469 162.234 62.8142C162.079 62.8816 161.909 62.9237 161.723 62.9403C161.561 62.928 161.383 62.8771 161.187 62.7875C160.927 62.5698 160.778 62.2485 160.74 61.8235C160.702 61.3986 160.706 60.8493 160.753 60.1758C160.826 59.4999 160.845 58.9628 160.809 58.5643C160.344 58.1509 159.697 57.8071 158.87 57.5332C158.042 57.2592 157.23 57.1579 156.433 57.2293C156.057 58.1196 155.946 59.4147 156.098 61.1146C156.25 62.8145 156.591 64.0824 157.121 64.9185C157.56 65.6289 158.208 66.2937 159.067 66.913C159.952 67.5298 160.816 68.0549 161.657 68.4882C162.497 68.895 163.404 69.4564 164.379 70.1723C165.353 70.8883 166.133 71.6752 166.718 72.5331C167.485 73.6157 168.119 74.5763 168.623 75.4147C169.623 77.012 170.214 78.8331 170.397 80.8783C170.642 83.614 170.337 86.1848 169.481 88.5907C168.967 90.0289 168.214 91.1807 167.22 92.0461C166.229 92.938 164.889 93.6737 163.201 94.2532L159.775 94.56C159.058 94.6242 158.16 94.3163 157.082 93.6364C156.03 92.9542 155.14 92.2842 154.412 91.6265C152.921 89.3236 152.401 86.8133 152.854 84.0954C152.562 84.1215 152.283 84.2938 152.017 84.6121C151.777 84.9281 151.525 85.0979 151.259 85.1217C150.623 84.5897 150.254 83.7659 150.154 82.6504C150.901 82.3158 151.979 81.9515 153.39 81.5575C154.827 81.1611 155.967 80.7378 156.81 80.2875C157.66 80.2114 158.29 80.5164 158.699 81.2027C159.109 81.8889 159.139 82.676 158.79 83.564C157.675 83.6638 156.851 84.0321 156.319 84.6687C155.514 85.544 155.383 86.9212 155.926 88.8002C156.498 90.7035 157.414 91.8129 158.674 92.1285C158.966 92.1023 159.245 91.9301 159.511 91.6118C159.777 91.2934 160.056 91.1212 160.348 91.0951C162.706 89.6256 164.19 87.3509 164.797 84.2711C165.434 81.2155 165.171 77.9728 164.007 74.5429C163.481 73.7599 162.944 73.1387 162.394 72.6793C161.844 72.2198 161.137 71.8011 160.274 71.4233C159.082 70.9678 157.863 70.2201 156.619 69.1803C156.359 68.9626 155.921 68.7073 155.306 68.4143C154.69 68.1214 154.121 67.7439 153.598 67.2821C153.511 67.2096 153.265 67.004 152.86 66.6654C152.481 66.3245 152.22 66.0936 152.075 65.9727C151.928 65.8252 151.694 65.6052 151.373 65.3126C151.079 65.0177 150.856 64.7699 150.704 64.5693C150.577 64.3398 150.447 64.0837 150.314 63.801C150.182 63.5184 150.104 63.2442 150.08 62.9786C149.221 60.8601 149.868 58.5131 152.02 55.9376C152.232 55.9186 152.684 55.7309 153.375 55.3745C154.066 55.0182 154.717 54.8126 155.328 54.7579C155.859 54.7104 156.328 54.7086 156.733 54.7526C157.139 54.7966 157.614 54.8745 158.16 54.9864C158.705 55.0982 159.222 55.1858 159.709 55.2492C160.293 55.786 160.877 56.0282 161.461 55.9759ZM211.079 57.2366C211.1 57.4757 211.024 57.6699 210.85 57.8194C210.676 57.9688 210.497 58.0651 210.314 58.1083C210.128 58.125 209.862 58.1488 209.517 58.1797C209.233 57.6964 208.995 57.142 208.806 56.5165C208.616 55.8909 208.486 55.3403 208.417 54.8645C208.372 54.3599 208.304 53.6029 208.213 52.5936C203.884 52.9812 200.921 53.5276 199.324 54.2328C199.155 54.7299 199.113 55.4565 199.198 56.4127C199.284 57.3689 199.443 58.5461 199.675 59.9443C199.907 61.3425 200.057 62.4134 200.123 63.1571C200.137 63.3165 200.113 63.6399 200.049 64.1275C199.986 64.6151 199.972 65.0581 200.008 65.4566C200.043 65.855 200.178 66.1642 200.412 66.3842L202.882 66.1631L202.593 62.936C203.228 62.8523 203.759 62.9521 204.186 63.2351C204.611 63.4916 204.905 63.9338 205.068 64.5618C205.258 65.1873 205.39 65.7645 205.464 66.2934C205.536 66.7956 205.583 67.4741 205.606 68.3288C205.629 69.1835 205.653 69.7436 205.676 70.0092C205.314 70.4433 205.029 70.7097 204.824 70.8084C204.643 70.8782 204.141 70.9499 203.317 71.0236L203.175 69.43C202.594 68.9198 201.745 68.7146 200.63 68.8145C200.197 69.3619 199.936 69.8939 199.849 70.4105C199.785 70.8981 199.851 71.6285 200.045 72.6017C200.237 73.5484 200.349 74.2076 200.383 74.5795C199.947 75.6894 199.851 77.6123 200.096 80.348L200.314 82.7783C200.506 84.9297 200.917 86.5261 201.545 87.5675C201.944 87.5318 202.437 87.809 203.025 88.3989C203.787 89.1338 203.777 89.6167 202.995 89.8474L202.52 89.93C202.541 90.1691 202.486 90.2945 202.353 90.3064C202.22 90.3183 202.002 90.2709 201.698 90.1643C201.396 90.0842 201.152 90.0525 200.966 90.0691C200.727 90.0905 200.274 90.2649 199.607 90.5924C198.967 90.9174 198.342 91.1073 197.731 91.162C197.465 91.1858 196.909 91.1017 196.062 90.9098C195.241 90.7155 194.698 90.6303 194.432 90.6541C194.193 90.6755 193.999 90.5992 193.85 90.4251C193.7 90.2511 193.604 90.0723 193.561 89.8888C193.544 89.7028 193.52 89.4372 193.489 89.0919C193.707 88.8315 193.943 88.623 194.196 88.4664C194.45 88.3098 194.643 88.2256 194.776 88.2137L195.012 88.1525C195.468 87.8706 195.731 87.3652 195.8 86.6362C195.897 85.9313 195.925 85.0453 195.883 83.9781C195.87 82.9352 195.929 82.0999 196.06 81.4724L195.482 75.0182C195.449 74.6463 195.463 74.2033 195.524 73.6892C195.609 73.1461 195.634 72.6753 195.598 72.2769C195.56 71.8519 195.4 71.4111 195.119 70.9544C195.102 70.7685 195.195 70.3184 195.399 69.604C195.603 68.8897 195.679 68.2403 195.626 67.656C195.555 66.8592 195.301 65.5165 194.864 63.6279C194.427 61.7393 194.172 60.3834 194.098 59.56C194.068 59.2147 194.07 58.6389 194.104 57.8326C194.166 57.0239 194.167 56.2875 194.107 55.6235C194.046 54.9329 193.874 54.3593 193.592 53.9026C193.22 53.9359 192.721 54.0475 192.096 54.2374C191.468 54.4007 190.941 54.5013 190.516 54.5394C190.118 54.575 189.789 54.4841 189.528 54.2664C188.66 53.5409 188.588 52.7308 189.311 51.8361L205.566 50.3809L208.793 50.092C209.244 50.0516 209.617 50.1788 209.911 50.4738C210.232 50.7664 210.461 51.2278 210.597 51.8581C210.732 52.4619 210.823 53.0294 210.87 53.5606C210.918 54.0918 210.952 54.7715 210.972 55.5996C211.017 56.3988 211.053 56.9445 211.079 57.2366ZM233.926 84.1466C233.413 85.2903 232.741 86.1669 231.912 86.7766C230.233 88.0515 228.511 88.7009 226.746 88.7251C225.007 88.7468 223.422 88.3801 221.989 87.6249C220.558 86.8962 219.439 85.9121 218.632 84.6724C217.483 82.9012 216.488 81.0625 215.648 79.1565C214.927 77.0792 214.371 73.8626 213.981 69.5067C213.948 69.1349 213.878 68.6592 213.773 68.0796C213.668 67.5 213.591 66.9446 213.544 66.4134C213.494 65.8556 213.493 65.2533 213.542 64.6063C213.687 62.9334 213.74 61.8845 213.702 61.4595C213.751 61.1071 213.797 60.5676 213.839 59.8409C213.881 59.1143 213.95 58.5458 214.047 58.1355C214.145 57.7252 214.302 57.3898 214.52 57.1294C214.8 56.6759 215.191 55.9582 215.692 54.9762C216.22 53.9919 216.659 53.2164 217.01 52.6495C217.385 52.0537 217.877 51.4206 218.487 50.7503C219.122 50.0775 219.869 49.5957 220.727 49.3048C221.584 49.0138 222.564 48.8993 223.668 48.9611C225.261 48.8185 226.544 48.9446 227.517 49.3394C228.516 49.7319 229.482 50.5022 230.414 51.6503C231.736 52.3619 232.9 53.5429 233.904 55.1932C234.935 56.8412 235.636 58.6927 236.008 60.7477C236.212 61.8272 236.393 63.2567 236.552 65.0363C236.567 65.1956 236.599 65.5542 236.649 66.112C236.696 66.6432 236.731 67.0283 236.752 67.2673C236.774 67.5064 236.795 67.8927 236.816 68.4263C236.861 68.9309 236.886 69.3571 236.89 69.7048C236.894 70.0524 236.891 70.4677 236.881 70.9505C236.871 71.4334 236.846 71.9041 236.807 72.3628C236.767 72.8214 236.715 73.2813 236.649 73.7423C236.19 77.5852 235.282 81.0533 233.926 84.1466ZM230.33 83.9063C231.072 81.4302 231.587 79.1084 231.875 76.9407C232.261 75.273 232.308 72.8057 232.016 69.5387C231.966 68.981 231.944 68.2868 231.95 67.4563C231.98 66.5969 231.971 65.9015 231.924 65.3703C231.876 64.8391 231.752 64.0471 231.55 62.9942C231.376 61.9389 231.263 61.1323 231.213 60.5746C230.9 60.0671 230.562 59.2808 230.199 58.2156C229.836 57.1504 229.483 56.352 229.141 55.8204C229.05 55.6947 228.813 55.3009 228.433 54.6388C228.079 53.9744 227.809 53.5033 227.624 53.2254C227.436 52.9209 227.138 52.5861 226.731 52.221C226.347 51.827 225.961 51.5536 225.573 51.401C225.068 51.4462 224.521 51.4683 223.932 51.4675C223.37 51.4643 222.81 51.4877 222.252 51.5377C220.97 53.0714 220.05 55.0547 219.491 57.4875C219.031 58.6264 218.898 60.2848 219.093 62.4628C218.941 67.6437 219.754 73.5815 221.531 80.2764C221.782 80.6823 222.084 81.3648 222.438 82.3237C222.82 83.3069 223.185 83.9435 223.532 84.2337C223.825 84.2076 224.026 84.3636 224.136 84.7017C224.276 85.064 224.418 85.3057 224.563 85.4266C225.228 85.9828 226.293 86.0615 227.757 85.6627C229.249 85.2882 230.107 84.7027 230.33 83.9063ZM254.925 63.7931C256.048 64.9776 256.92 66.6398 257.54 68.7797C258.158 70.8931 258.684 73.4831 259.119 76.5499C259.557 79.6432 259.905 81.7405 260.164 82.8418C260.536 82.8085 260.815 82.7835 261.001 82.7669C261.189 82.7768 261.382 82.8398 261.58 82.956C261.778 83.0721 261.889 83.263 261.913 83.5286C262.005 84.5645 261.449 85.23 260.244 85.5253C259.041 85.8472 257.829 85.9156 256.608 85.7304C256.393 85.7229 256.232 85.7238 256.126 85.7334C255.579 85.3004 255.315 84.7484 255.335 84.0773C255.356 83.4061 255.442 82.5818 255.596 81.6042C255.778 80.6508 255.645 79.3107 255.196 77.5839C255.028 76.9028 254.869 75.8729 254.718 74.4941C254.592 73.0864 254.376 71.8609 254.068 70.8175C253.785 69.7451 253.311 68.7969 252.649 67.9727C252.499 67.7987 252.304 67.5618 252.063 67.2621C251.849 66.96 251.652 66.7099 251.474 66.5116C251.295 66.3134 251.061 66.0934 250.772 65.8516C250.748 65.586 250.651 65.3939 250.48 65.2754C250.332 65.1279 250.091 64.9755 249.756 64.8181C249.42 64.6607 249.138 64.4985 248.909 64.3316C248.537 64.3649 248.26 64.4032 248.076 64.4464C247.89 64.463 247.71 64.5461 247.536 64.6955C247.362 64.845 247.286 65.0392 247.307 65.2783C247.156 66.5769 247.15 68.0098 247.29 69.5769C247.428 71.1174 247.642 72.7582 247.932 74.4993C248.219 76.2138 248.394 77.4164 248.456 78.1069C248.66 80.3911 249.08 82.0938 249.716 83.2149C249.742 83.5071 250.046 83.761 250.628 83.9767C251.236 84.1899 251.552 84.4294 251.575 84.695C251.583 84.7747 251.592 84.8809 251.604 85.0137C251.616 85.1465 251.624 85.2395 251.629 85.2926C251.636 85.3723 251.644 85.4653 251.654 85.5715C251.663 85.6777 251.656 85.7453 251.632 85.7743C251.61 85.8298 251.588 85.8853 251.567 85.9408C251.547 86.0228 251.512 86.0795 251.461 86.1108C251.411 86.1421 251.347 86.1746 251.269 86.2083C251.192 86.242 251.1 86.2636 250.994 86.2731C250.755 86.2945 250.073 86.3021 248.948 86.2957C247.852 86.3135 246.88 86.3737 246.032 86.4764C245.187 86.6056 244.537 86.8244 244.083 87.1328C243.366 87.197 242.846 87.2168 242.522 87.1922C242.228 87.1918 241.896 87.0743 241.527 86.8396C241.184 86.6025 240.842 86.2182 240.5 85.6865C241.037 85.103 241.863 84.7613 242.978 84.6615L241.676 70.1196C241.643 69.7478 241.662 69.2106 241.733 68.5082C241.804 67.8057 241.814 67.1756 241.765 66.6178C241.712 66.0335 241.531 65.5009 241.22 65.02C241.194 64.7278 241.203 64.379 241.247 63.9735C241.291 63.5679 241.308 63.1648 241.299 62.764C241.26 61.4288 241.072 59.6251 240.734 57.3528C240.397 55.0805 240.176 53.36 240.071 52.1913C238 52.3768 236.927 52.0578 236.853 51.2345C236.749 50.0658 236.937 49.3261 237.418 49.0153C237.898 48.7045 238.869 48.4837 240.33 48.353C240.622 48.3268 240.934 48.2186 241.265 48.0283C241.623 47.8357 241.934 47.7274 242.2 47.7037C243.586 47.3386 244.97 47.0942 246.351 46.9706C247.73 46.8204 249.107 46.8042 250.483 46.9219C251.883 47.0108 253.095 47.3842 254.117 48.0423C255.167 48.6981 255.89 49.5972 256.287 50.7397C257.234 53.5464 257.437 55.8173 256.896 57.5524C256.564 58.6263 255.83 59.8433 254.693 61.2034L253.895 62.1584C253.919 62.424 254.09 62.6898 254.408 62.9558C254.727 63.2218 254.899 63.5009 254.925 63.7931ZM245.144 50.0906C245.377 52.6935 245.797 56.19 246.405 60.58C246.515 60.9182 246.872 61.0201 247.476 60.8857C248.08 60.7513 248.751 60.477 249.491 60.0628C250.257 59.6461 250.773 59.2787 251.039 58.9604C251.01 58.6416 251.079 58.0599 251.244 57.2151C251.409 56.3703 251.505 55.7995 251.532 55.5026C251.658 55.1165 251.645 54.5153 251.491 53.699C251.338 52.8828 251.249 52.3419 251.226 52.0763C251.209 51.8903 251.166 51.7068 251.096 51.5256C251.026 51.3445 250.96 51.2031 250.897 51.1016C250.832 50.9736 250.713 50.837 250.539 50.6919C250.39 50.5179 250.286 50.4067 250.228 50.3583C250.168 50.2834 250.01 50.1637 249.754 49.9992C249.523 49.8057 249.378 49.6848 249.32 49.6364C249.028 49.6626 248.326 49.7389 247.212 49.8653C246.099 49.9917 245.41 50.0668 245.144 50.0906ZM302.802 41.9971C302.938 43.5111 302.767 44.2894 302.288 44.3322L299.938 44.5427C299.761 45.2547 299.342 47.4607 298.683 51.1609C298.021 54.8346 297.357 57.5847 296.691 59.4115C296.379 59.8142 296.163 60.2485 296.044 60.7143C295.95 61.1511 295.904 61.5434 295.909 61.8911C295.94 62.2363 296.017 62.805 296.142 63.5971C296.264 64.3626 296.349 65.0109 296.396 65.5421C296.28 66.0345 296.239 66.4799 296.275 66.8783C296.337 67.2743 296.443 67.8539 296.591 68.617C296.764 69.3512 296.862 69.8511 296.886 70.1167C296.929 70.5948 296.974 71.394 297.02 72.5143C297.07 73.6611 297.113 74.5943 297.151 75.3138C297.215 76.0309 297.348 76.7687 297.549 77.527C297.78 78.3096 298.084 78.858 298.46 79.1724C299.836 78.9957 300.547 79.1596 300.592 79.6642C301.167 81.005 301.195 81.7655 300.676 81.9459C299.922 82.2007 299.134 82.365 298.31 82.4388C297.489 82.539 296.664 82.5862 295.833 82.5802C295.003 82.5742 294.455 82.5831 294.189 82.6069L290.364 82.9493C289.607 82.2675 289.539 81.5105 290.161 80.6784C290.405 80.4156 290.912 80.2497 291.683 80.1807C292.453 80.1118 292.946 79.9338 293.161 79.6468C293.116 79.1421 293.036 78.1051 292.923 76.5357C292.811 74.9928 292.705 73.8108 292.605 72.9898C292.534 72.193 292.407 71.0799 292.226 69.6504C292.044 68.2208 291.819 67.0496 291.55 66.1366C291.307 65.2213 291.006 64.2443 290.645 63.2057C290.282 62.1405 289.827 61.2441 289.28 60.5167C288.757 59.7603 288.153 59.145 287.468 58.6709C287.032 57.6925 286.116 55.9807 284.719 53.5355C283.405 50.5207 282.661 48.0438 282.488 46.1049C280.974 46.2404 280.195 46.0692 280.153 45.5911C280.047 45.0115 280.086 44.5528 280.27 44.2151C280.481 43.875 280.809 43.6581 281.256 43.5646C281.701 43.4445 282.136 43.3787 282.564 43.3672C282.989 43.3292 283.484 43.325 284.049 43.3548C284.614 43.3845 285.015 43.3887 285.255 43.3673C285.733 43.3245 286.493 43.2966 287.536 43.2835C288.603 43.2415 289.389 43.1979 289.894 43.1527C290.444 43.6122 290.764 44.3466 290.854 45.3559C290.721 45.3678 290.426 45.3541 289.967 45.3148C289.508 45.2756 289.095 45.2992 288.728 45.3856C288.385 45.443 288.117 45.5875 287.924 45.819C288.032 46.1306 288.229 47.1304 288.514 48.8184C288.583 49.2941 288.697 49.8194 288.855 50.3942C289.014 50.969 289.105 51.3892 289.129 51.6548C289.665 53.1597 290.342 54.585 291.158 55.9309C291.973 57.2502 292.785 58.2484 293.595 58.9255C294.052 58.6437 294.394 58.2784 294.621 57.8297C294.847 57.3544 295.067 56.6787 295.283 55.8026C295.524 54.8975 295.731 54.223 295.905 53.779C296.879 51.2019 297.263 48.4634 297.057 45.5636C297.024 45.1917 296.543 44.9002 295.614 44.6888C294.682 44.451 294.073 44.0771 293.786 43.5673C293.746 43.1158 294.053 42.8072 294.707 42.6415C295.386 42.4469 296.487 42.3349 298.011 42.3056C299.532 42.2498 300.372 42.2147 300.531 42.2004C300.717 42.1838 300.952 42.1093 301.234 41.9769C301.541 41.8155 301.814 41.7242 302.053 41.7028C302.319 41.679 302.568 41.7771 302.802 41.9971ZM324.579 76.0309C324.066 77.1746 323.394 78.0512 322.566 78.6609C320.886 79.9358 319.164 80.5853 317.399 80.6094C315.66 80.6312 314.075 80.2644 312.642 79.5092C311.211 78.7805 310.092 77.7964 309.285 76.5567C308.136 74.7855 307.141 72.9468 306.301 71.0408C305.58 68.9635 305.024 65.7469 304.634 61.391C304.601 61.0192 304.532 60.5435 304.426 59.9639C304.321 59.3843 304.244 58.8289 304.197 58.2977C304.147 57.74 304.146 57.1376 304.195 56.4906C304.34 54.8177 304.394 53.7688 304.356 53.3438C304.404 52.9914 304.45 52.4519 304.492 51.7252C304.534 50.9986 304.603 50.4301 304.701 50.0198C304.798 49.6095 304.955 49.2742 305.173 49.0137C305.453 48.5602 305.844 47.8425 306.345 46.8606C306.873 45.8763 307.312 45.1007 307.663 44.5338C308.038 43.938 308.53 43.3049 309.14 42.6346C309.776 41.9619 310.522 41.48 311.38 41.1891C312.237 40.8981 313.218 40.7836 314.321 40.8455C315.914 40.7028 317.197 40.8289 318.17 41.2238C319.169 41.6162 320.135 42.3865 321.067 43.5346C322.389 44.2462 323.553 45.4272 324.557 47.0775C325.588 48.7255 326.29 50.577 326.661 52.6321C326.865 53.7115 327.046 55.141 327.205 56.9206C327.22 57.08 327.252 57.4385 327.302 57.9963C327.349 58.5275 327.384 58.9126 327.405 59.1517C327.427 59.3907 327.448 59.777 327.469 60.3106C327.514 60.8153 327.539 61.2414 327.543 61.5891C327.547 61.9367 327.544 62.352 327.534 62.8348C327.524 63.3177 327.499 63.7884 327.46 64.2471C327.421 64.7058 327.368 65.1656 327.302 65.6266C326.843 69.4696 325.935 72.9377 324.579 76.0309ZM320.983 75.7906C321.725 73.3145 322.24 70.9927 322.528 68.8251C322.915 67.1573 322.961 64.69 322.669 61.423C322.619 60.8653 322.597 60.1711 322.603 59.3406C322.633 58.4812 322.624 57.7859 322.577 57.2546C322.529 56.7234 322.405 55.9314 322.203 54.8785C322.029 53.8232 321.916 53.0167 321.866 52.4589C321.553 51.9515 321.215 51.1651 320.852 50.0999C320.489 49.0347 320.136 48.2363 319.794 47.7047C319.703 47.5791 319.467 47.1852 319.086 46.5232C318.732 45.8588 318.462 45.3876 318.277 45.1097C318.089 44.8052 317.791 44.4705 317.384 44.1053C317 43.7113 316.614 43.4379 316.226 43.2853C315.721 43.3305 315.174 43.3527 314.585 43.3519C314.023 43.3487 313.463 43.372 312.905 43.422C311.623 44.9557 310.703 46.939 310.144 49.3718C309.684 50.5107 309.551 52.1692 309.746 54.3471C309.594 59.528 310.407 65.4658 312.185 72.1607C312.435 72.5666 312.737 73.2491 313.091 74.208C313.473 75.1912 313.838 75.8278 314.185 76.118C314.478 76.0919 314.679 76.2479 314.79 76.586C314.929 76.9484 315.071 77.19 315.216 77.3109C315.881 77.8671 316.946 77.9458 318.41 77.5471C319.902 77.1725 320.76 76.587 320.983 75.7906ZM338.279 72.8366C340.044 74.3117 341.574 74.4961 342.867 73.3897C343.512 72.8232 344.007 72.0695 344.351 71.1284C344.695 70.1873 344.873 69.0335 344.884 67.667C344.923 66.2982 344.926 65.2938 344.896 64.654C344.863 63.9876 344.786 62.9771 344.665 61.6225L343.577 49.4711C343.508 48.7009 343.471 47.6868 343.465 46.429C343.484 45.1422 343.457 44.1004 343.386 43.3036C343.312 42.4802 343.135 41.8402 342.853 41.3835C342.59 41.1393 342.32 40.9627 342.042 40.8536C341.762 40.718 341.542 40.6441 341.38 40.6318L341.181 40.6496C341.169 40.5168 340.939 40.0421 340.491 39.2255C340.262 38.764 340.307 38.519 340.626 38.4905C341.104 38.4477 342.043 38.3235 343.444 38.1177C344.871 37.9097 345.918 37.7892 346.584 37.7563C347.516 37.6996 348.263 37.8202 348.825 38.1179C349.385 38.3891 349.655 38.7129 349.635 39.0896C349.642 39.4638 349.538 39.7944 349.322 40.0814C348.706 40.672 348.373 41.5854 348.323 42.8214C348.273 44.0575 348.326 45.552 348.483 47.305C348.667 49.0556 348.709 50.4306 348.611 51.43L349.336 59.5176L349.414 60.3941C349.649 63.0236 349.679 65.2967 349.502 67.2134C349.353 69.1277 348.889 70.9765 348.111 72.7595C346.648 76.1569 344.629 77.9708 342.053 78.2015C341.867 78.2181 341.655 78.2504 341.419 78.2984C341.182 78.3464 340.758 78.3977 340.147 78.4524C338.076 78.3433 336.16 77.1227 334.398 74.7904C333.817 73.9857 333.357 72.7284 333.016 71.0186C332.678 69.3354 332.39 68.21 332.152 67.6423L330.336 47.3634C330.334 47.3368 330.29 46.5509 330.205 45.0056C330.121 43.4604 330.02 42.6394 329.904 42.5427C329.854 42.2794 329.688 42.0667 329.406 41.9046C329.123 41.7424 328.819 41.6358 328.493 41.5847C328.192 41.5046 327.911 41.3557 327.65 41.1381C327.39 40.9204 327.244 40.639 327.213 40.2937C327.358 40.12 327.507 39.9862 327.659 39.8923C327.809 39.7718 328.001 39.6743 328.235 39.5998C328.47 39.5252 328.653 39.482 328.786 39.4701C328.943 39.4293 329.207 39.3923 329.579 39.359C329.949 39.2991 330.225 39.2476 330.409 39.2044C331.114 39.0074 332 38.8879 333.067 38.8459C334.135 38.8039 334.929 39.0005 335.45 39.4358C335.97 39.8711 335.729 40.7629 334.725 42.1111L335.157 46.9318L335.813 54.2625C335.92 55.4577 336.051 56.9185 336.205 58.645C336.384 60.3424 336.496 61.4435 336.541 61.9482C337.01 67.1806 337.589 70.81 338.279 72.8366ZM369.389 53.5457C370.513 54.7303 371.384 56.3925 372.004 58.5324C372.622 60.6458 373.148 63.2358 373.583 66.3025C374.021 69.3958 374.369 71.4931 374.629 72.5944C375 72.5611 375.279 72.5362 375.465 72.5195C375.654 72.5294 375.847 72.5925 376.044 72.7086C376.242 72.8248 376.353 73.0157 376.377 73.2813C376.469 74.3171 375.913 74.9827 374.708 75.278C373.505 75.5999 372.293 75.6682 371.072 75.4831C370.857 75.4755 370.697 75.4765 370.59 75.486C370.043 75.0531 369.779 74.5011 369.799 73.8299C369.82 73.1588 369.907 72.3344 370.06 71.3568C370.242 70.4035 370.109 69.0633 369.66 67.3365C369.492 66.6554 369.333 65.6255 369.183 64.2468C369.056 62.8391 368.84 61.6135 368.532 60.5701C368.249 59.4978 367.776 58.5495 367.113 57.7253C366.963 57.5513 366.768 57.3144 366.527 57.0147C366.313 56.7127 366.116 56.4625 365.938 56.2643C365.759 56.0661 365.526 55.8461 365.236 55.6042C365.212 55.3386 365.115 55.1466 364.944 55.028C364.797 54.8805 364.555 54.7281 364.22 54.5707C363.885 54.4133 363.602 54.2512 363.373 54.0843C363.001 54.1176 362.724 54.1558 362.54 54.199C362.354 54.2157 362.174 54.2987 362 54.4482C361.826 54.5976 361.75 54.7919 361.771 55.0309C361.62 56.3296 361.614 57.7625 361.754 59.3295C361.892 60.87 362.106 62.5108 362.396 64.2519C362.683 65.9665 362.858 67.169 362.92 67.8596C363.124 70.1438 363.544 71.8465 364.18 72.9676C364.206 73.2597 364.51 73.5136 365.092 73.7293C365.7 73.9426 366.016 74.182 366.04 74.4477C366.047 74.5273 366.056 74.6336 366.068 74.7664C366.08 74.8992 366.088 74.9921 366.093 75.0453C366.1 75.1249 366.109 75.2179 366.118 75.3241C366.128 75.4304 366.12 75.498 366.096 75.5269C366.074 75.5824 366.052 75.6379 366.031 75.6934C366.011 75.7755 365.976 75.8322 365.925 75.8635C365.875 75.8948 365.811 75.9273 365.733 75.961C365.656 75.9947 365.564 76.0163 365.458 76.0258C365.219 76.0472 364.537 76.0547 363.412 76.0483C362.316 76.0661 361.344 76.1264 360.496 76.229C359.651 76.3582 359.001 76.577 358.547 76.8855C357.83 76.9497 357.31 76.9695 356.986 76.9449C356.692 76.9445 356.36 76.8269 355.991 76.5922C355.648 76.3552 355.306 75.9708 354.964 75.4392C355.501 74.8557 356.327 74.514 357.442 74.4141L356.14 59.8723C356.107 59.5004 356.126 58.9633 356.197 58.2608C356.268 57.5584 356.279 56.9282 356.229 56.3705C356.176 55.7861 355.995 55.2535 355.684 54.7727C355.658 54.4805 355.667 54.1317 355.711 53.7261C355.755 53.3206 355.772 52.9174 355.763 52.5166C355.724 51.1815 355.536 49.3777 355.198 47.1054C354.861 44.8331 354.64 43.1126 354.535 41.944C352.464 42.1294 351.391 41.8105 351.317 40.9871C351.213 39.8185 351.401 39.0787 351.882 38.768C352.363 38.4572 353.333 38.2364 354.794 38.1056C355.086 38.0795 355.398 37.9712 355.729 37.781C356.087 37.5883 356.398 37.4801 356.664 37.4563C358.05 37.0913 359.434 36.8469 360.815 36.7232C362.194 36.573 363.571 36.5568 364.947 36.6746C366.347 36.7634 367.559 37.1369 368.581 37.795C369.631 38.4507 370.354 39.3498 370.751 40.4923C371.698 43.299 371.901 45.5699 371.361 47.3051C371.028 48.379 370.294 49.596 369.157 50.9561L368.359 51.911C368.383 52.1766 368.554 52.4424 368.872 52.7085C369.191 52.9745 369.363 53.2536 369.389 53.5457ZM359.608 39.8433C359.841 42.4462 360.262 45.9427 360.869 50.3327C360.979 50.6708 361.336 50.7727 361.94 50.6383C362.544 50.504 363.216 50.2297 363.955 49.8154C364.721 49.3988 365.237 49.0313 365.503 48.713C365.474 48.3943 365.543 47.8125 365.708 46.9678C365.873 46.123 365.969 45.5521 365.996 45.2552C366.122 44.8691 366.109 44.2679 365.955 43.4517C365.802 42.6354 365.713 42.0945 365.69 41.8289C365.673 41.643 365.63 41.4595 365.56 41.2783C365.49 41.0971 365.424 40.9558 365.361 40.8543C365.296 40.7263 365.177 40.5897 365.003 40.4446C364.854 40.2706 364.75 40.1594 364.692 40.111C364.632 40.0361 364.474 39.9163 364.219 39.7518C363.987 39.5584 363.842 39.4374 363.785 39.3891C363.492 39.4152 362.79 39.4915 361.677 39.618C360.563 39.7444 359.874 39.8195 359.608 39.8433ZM416.438 67.8073C415.925 68.9509 415.254 69.8276 414.425 70.4373C412.745 71.7121 411.023 72.3616 409.258 72.3858C407.52 72.4075 405.934 72.0408 404.501 71.2855C403.07 70.5569 401.951 69.5727 401.144 68.3331C399.995 66.5618 399 64.7232 398.16 62.8172C397.439 60.7399 396.883 57.5233 396.493 53.1674C396.46 52.7955 396.391 52.3198 396.285 51.7403C396.18 51.1607 396.103 50.6053 396.056 50.0741C396.006 49.5163 396.005 48.9139 396.055 48.267C396.199 46.5941 396.253 45.5451 396.215 45.1202C396.263 44.7678 396.309 44.2282 396.351 43.5016C396.393 42.7749 396.463 42.2065 396.56 41.7962C396.657 41.3859 396.814 41.0505 397.032 40.7901C397.313 40.3366 397.703 39.6188 398.205 38.6369C398.732 37.6526 399.171 36.877 399.522 36.3101C399.897 35.7143 400.39 35.0813 400.999 34.4109C401.635 33.7382 402.381 33.2564 403.239 32.9654C404.096 32.6745 405.077 32.5599 406.18 32.6218C407.774 32.4791 409.057 32.6052 410.029 33.0001C411.028 33.3926 411.994 34.1629 412.927 35.3109C414.249 36.0225 415.412 37.2035 416.416 38.8539C417.447 40.5018 418.149 42.3533 418.52 44.4084C418.724 45.4879 418.905 46.9174 419.065 48.6969C419.079 48.8563 419.111 49.2149 419.161 49.7726C419.209 50.3038 419.243 50.689 419.264 50.928C419.286 51.1671 419.307 51.5534 419.328 52.087C419.373 52.5916 419.398 53.0178 419.402 53.3654C419.407 53.7131 419.404 54.1283 419.393 54.6112C419.383 55.094 419.358 55.5648 419.319 56.0234C419.28 56.4821 419.227 56.942 419.161 57.403C418.702 61.2459 417.794 64.714 416.438 67.8073ZM412.842 67.5669C413.585 65.0909 414.1 62.769 414.388 60.6014C414.774 58.9337 414.821 56.4663 414.528 53.1994C414.478 52.6416 414.456 51.9475 414.462 51.117C414.492 50.2575 414.484 49.5622 414.436 49.031C414.388 48.4998 414.264 47.7077 414.063 46.6548C413.888 45.5995 413.775 44.793 413.726 44.2352C413.412 43.7278 413.074 42.9415 412.711 41.8763C412.348 40.8111 411.995 40.0127 411.653 39.4811C411.562 39.3554 411.326 38.9616 410.945 38.2995C410.591 37.6351 410.321 37.1639 410.136 36.886C409.948 36.5816 409.65 36.2468 409.243 35.8817C408.86 35.4876 408.474 35.2143 408.085 35.0616C407.58 35.1068 407.034 35.129 406.445 35.1282C405.882 35.125 405.322 35.1484 404.764 35.1983C403.482 36.7321 402.562 38.7153 402.004 41.1482C401.543 42.2871 401.411 43.9455 401.606 46.1235C401.454 51.3043 402.266 57.2422 404.044 63.937C404.294 64.343 404.596 65.0254 404.95 65.9844C405.332 66.9675 405.697 67.6042 406.045 67.8944C406.337 67.8682 406.538 68.0242 406.649 68.3624C406.788 68.7247 406.93 68.9663 407.075 69.0872C407.741 69.6435 408.805 69.7222 410.269 69.3234C411.761 68.9488 412.619 68.3633 412.842 67.5669ZM437.437 47.4537C438.561 48.6383 439.432 50.3005 440.052 52.4404C440.67 54.5538 441.196 57.1438 441.632 60.2106C442.069 63.3039 442.417 65.4012 442.677 66.5024C443.049 66.4691 443.327 66.4442 443.513 66.4275C443.702 66.4374 443.895 66.5005 444.093 66.6166C444.29 66.7328 444.401 66.9237 444.425 67.1893C444.518 68.2251 443.961 68.8907 442.756 69.186C441.554 69.5079 440.342 69.5762 439.12 69.3911C438.905 69.3835 438.745 69.3845 438.638 69.394C438.091 68.9611 437.827 68.4091 437.848 67.7379C437.868 67.0668 437.955 66.2424 438.108 65.2649C438.291 64.3115 438.157 62.9714 437.708 61.2445C437.54 60.5635 437.381 59.5336 437.231 58.1548C437.105 56.7471 436.888 55.5215 436.58 54.4781C436.297 53.4058 435.824 52.4575 435.161 51.6334C435.011 51.4593 434.816 51.2225 434.575 50.9228C434.361 50.6207 434.164 50.3705 433.986 50.1723C433.808 49.9741 433.574 49.7541 433.284 49.5122C433.261 49.2466 433.163 49.0546 432.992 48.936C432.845 48.7886 432.603 48.6361 432.268 48.4787C431.933 48.3214 431.651 48.1592 431.421 47.9923C431.05 48.0256 430.772 48.0638 430.588 48.1071C430.402 48.1237 430.222 48.2067 430.048 48.3562C429.874 48.5056 429.798 48.6999 429.819 48.9389C429.668 50.2376 429.662 51.6705 429.803 53.2375C429.941 54.778 430.154 56.4189 430.444 58.16C430.731 59.8745 430.906 61.077 430.968 61.7676C431.172 64.0518 431.593 65.7545 432.228 66.8756C432.255 67.1677 432.558 67.4217 433.14 67.6373C433.748 67.8506 434.064 68.0901 434.088 68.3557C434.095 68.4354 434.104 68.5416 434.116 68.6744C434.128 68.8072 434.136 68.9002 434.141 68.9533C434.148 69.033 434.157 69.1259 434.166 69.2322C434.176 69.3384 434.168 69.406 434.144 69.4349C434.122 69.4904 434.101 69.5459 434.079 69.6014C434.059 69.6835 434.024 69.7402 433.974 69.7715C433.923 69.8028 433.859 69.8353 433.781 69.869C433.704 69.9027 433.612 69.9243 433.506 69.9338C433.267 69.9552 432.585 69.9627 431.46 69.9564C430.364 69.9742 429.392 70.0344 428.545 70.137C427.699 70.2663 427.05 70.4851 426.595 70.7935C425.878 70.8577 425.358 70.8775 425.034 70.8529C424.74 70.8525 424.408 70.7349 424.039 70.5002C423.696 70.2632 423.354 69.8788 423.012 69.3472C423.549 68.7637 424.375 68.422 425.491 68.3221L424.189 53.7803C424.155 53.4084 424.174 52.8713 424.245 52.1688C424.316 51.4664 424.327 50.8363 424.277 50.2785C424.224 49.6942 424.043 49.1616 423.732 48.6807C423.706 48.3885 423.715 48.0397 423.759 47.6341C423.803 47.2286 423.82 46.8254 423.811 46.4246C423.772 45.0895 423.584 43.2858 423.247 41.0134C422.909 38.7411 422.688 37.0207 422.584 35.852C420.512 36.0375 419.439 35.7185 419.366 34.8951C419.261 33.7265 419.449 32.9868 419.93 32.676C420.411 32.3652 421.382 32.1444 422.842 32.0136C423.135 31.9875 423.446 31.8793 423.777 31.689C424.135 31.4963 424.446 31.3881 424.712 31.3643C426.098 30.9993 427.482 30.7549 428.863 30.6313C430.242 30.4811 431.619 30.4648 432.995 30.5826C434.395 30.6715 435.607 31.0449 436.63 31.703C437.679 32.3587 438.402 33.2578 438.799 34.4003C439.746 37.207 439.949 39.478 439.409 41.2131C439.076 42.287 438.342 43.504 437.205 44.8641L436.407 45.8191C436.431 46.0847 436.602 46.3505 436.921 46.6165C437.239 46.8825 437.411 47.1616 437.437 47.4537ZM427.657 33.7513C427.89 36.3542 428.31 39.8507 428.917 44.2407C429.027 44.5788 429.385 44.6807 429.988 44.5464C430.592 44.412 431.264 44.1377 432.003 43.7234C432.769 43.3068 433.285 42.9393 433.551 42.621C433.522 42.3023 433.591 41.7206 433.756 40.8758C433.921 40.031 434.018 39.4602 434.045 39.1632C434.171 38.7771 434.157 38.1759 434.004 37.3597C433.85 36.5435 433.762 36.0025 433.738 35.7369C433.721 35.551 433.678 35.3675 433.608 35.1863C433.538 35.0051 433.472 34.8638 433.41 34.7623C433.345 34.6343 433.225 34.4977 433.052 34.3526C432.902 34.1786 432.799 34.0674 432.741 34.019C432.68 33.9441 432.522 33.8244 432.267 33.6598C432.035 33.4664 431.891 33.3455 431.833 33.2971C431.541 33.3233 430.838 33.3995 429.725 33.526C428.612 33.6524 427.922 33.7275 427.657 33.7513ZM446.238 66.4648L449.584 66.1652C449.876 66.139 450.157 65.98 450.425 65.6883C450.693 65.3965 450.96 65.2388 451.226 65.215L450.388 55.8524C450.25 54.3119 449.934 52.4259 449.44 50.1944C448.972 47.9606 448.706 46.4851 448.642 45.768C448.237 41.2527 447.668 38.1845 446.934 36.5635L446.627 33.1373C446.309 33.1658 445.917 33.2811 445.454 33.4833C444.987 33.6589 444.625 33.7984 444.367 33.9019C444.106 33.9788 443.861 33.9338 443.632 33.7669C443.4 33.5734 443.257 33.1712 443.202 32.5604C443.181 32.3213 443.231 32.1294 443.352 31.9848C443.499 31.8377 443.724 31.6569 444.026 31.4425C444.328 31.228 444.576 31.005 444.769 30.7735L445.527 29.8221C446.593 29.1645 448.268 28.7334 450.552 28.5289C450.924 28.4956 451.348 28.4443 451.823 28.375C452.323 28.2767 452.799 28.2073 453.251 28.1669C453.702 28.1265 454.238 28.132 454.858 28.1836C454.883 28.1546 454.921 28.1378 454.974 28.133C455.025 28.1017 455.117 28.0801 455.25 28.0682C455.38 28.0298 455.501 28.0324 455.612 28.076C455.928 28.3154 456.524 28.6904 457.399 29.2011C458.299 29.6827 458.908 30.0566 459.227 30.3226C459.779 30.5141 460.304 30.8419 460.801 31.3062C461.297 31.7704 461.684 32.2043 461.961 32.6079C462.238 33.0114 462.582 33.5563 462.991 34.2425C464.627 36.9609 465.693 39.449 466.189 41.7071C466.225 41.8109 466.29 42.0863 466.384 42.533C466.475 42.9532 466.528 43.243 466.542 43.4024C466.583 43.5594 466.649 43.848 466.74 44.2682C466.829 44.6618 466.883 44.9649 466.902 45.1774C466.945 45.3609 466.984 45.6519 467.02 46.0503C467.082 46.4463 467.124 46.7639 467.145 47.0029C467.167 47.242 467.181 47.5486 467.188 47.9228C467.221 48.2947 467.224 48.6291 467.197 48.926C467.197 49.2205 467.173 49.5573 467.127 49.9363C467.105 50.2863 467.068 50.6243 467.017 50.9501C467.105 51.9328 467.05 52.9685 466.853 54.0571C466.654 55.1191 466.451 55.994 466.245 56.6818C466.039 57.3696 465.615 58.3178 464.974 59.5265C464.332 60.7352 463.906 61.5096 463.696 61.8497C463.512 62.1874 463.034 62.9799 462.262 64.227C462.059 64.3523 461.555 64.7053 460.75 65.286C459.948 65.8933 459.16 66.3654 458.387 66.7024C457.614 67.0393 456.71 67.2541 455.674 67.3469L454.04 67.4931C452.948 68.1531 450.994 68.6092 448.179 68.8612C446.939 67.8745 446.292 67.0757 446.238 66.4648ZM452.414 30.9325C452.245 31.1351 452.125 31.4403 452.054 31.8482C452.01 32.2538 452.002 32.6159 452.031 32.9346C452.057 33.2268 452.095 33.6518 452.145 34.2095C452.221 34.7649 452.264 35.0957 452.274 35.202C452.355 36.105 452.479 37.1916 452.646 38.4618C452.84 39.7295 452.959 40.6158 453.005 41.1204C453.055 41.6782 453.188 42.5765 453.406 43.8153C453.624 45.0541 453.774 46.1251 453.855 47.0281L454.611 55.4744C454.663 56.0587 454.887 56.9088 455.281 58.0248C455.673 59.1141 455.893 59.9244 455.94 60.4556C455.978 60.8806 455.954 61.3514 455.866 61.8679C455.778 62.3844 455.748 62.7888 455.774 63.081C455.802 63.3997 455.96 63.6667 456.247 63.8819C456.539 63.8558 456.951 63.6717 457.483 63.3296C458.017 63.014 458.43 62.8432 458.722 62.817C458.698 62.5514 458.746 62.333 458.864 62.1617C459.012 62.0147 459.164 61.9207 459.321 61.8799L459.52 61.8621C459.759 61.8407 459.939 61.7576 460.06 61.6129C460.181 61.4682 460.234 61.3162 460.22 61.1568L460.242 60.9541C460.704 60.1363 461.016 59.1311 461.177 57.9387C461.34 56.7728 461.399 55.7903 461.355 54.9911C461.334 54.163 461.256 52.9919 461.12 51.478C461.09 51.1327 461.088 50.5171 461.116 49.631C461.17 48.7427 461.16 47.8868 461.087 47.0634C461.011 46.2135 460.82 45.4274 460.514 44.7051L460.286 42.1553C460.094 41.5031 459.817 40.5105 459.457 39.1773C459.121 37.8152 458.84 36.7694 458.614 36.04C458.415 35.3082 458.074 34.4953 457.592 33.6014C457.111 32.7074 456.55 31.9812 455.911 31.4226C455.506 31.084 455.074 30.8951 454.616 30.8559C454.157 30.8166 453.423 30.8421 452.414 30.9325ZM485.038 31.9073C484.746 31.6389 484.565 31.1063 484.494 30.3095C484.422 29.5127 484.229 28.9946 483.913 28.7551C483.355 28.5105 482.786 28.2804 482.204 28.0647C479.522 28.3049 477.661 28.7526 476.622 29.4079C476.525 29.5236 476.43 29.6526 476.335 29.795C476.265 29.9083 476.212 30.0604 476.175 30.251C476.139 30.4417 476.112 30.5914 476.095 30.7C476.078 30.8086 476.069 31.0102 476.069 31.3047C476.093 31.5703 476.109 31.7563 476.119 31.8625C476.128 31.9687 476.15 32.2078 476.183 32.5796C476.216 32.9515 476.238 33.1905 476.247 33.2968C476.321 34.1201 476.377 35.0521 476.417 36.0927C476.483 37.131 476.538 37.8891 476.581 38.3672C476.633 38.9516 476.749 39.6506 476.929 40.4645C477.135 41.276 477.264 41.9606 477.314 42.5184C477.364 43.0762 477.29 43.6048 477.094 44.1043C477.697 44.559 479.34 44.6663 482.022 44.4261C481.88 42.8325 482.087 42.0107 482.645 41.9608C483.044 41.9251 483.313 41.9412 483.453 42.009C483.59 42.0502 483.889 42.251 484.35 42.6113C484.115 43.275 484.108 44.0922 484.328 45.063C484.547 46.0073 484.683 46.9322 484.737 47.8376C484.789 48.7165 484.576 49.1773 484.098 49.2201C482.959 48.7598 482.366 48.2641 482.318 47.7329L482.244 46.8962L478.22 47.2565C478.047 48.0216 477.977 48.8846 478.01 49.8455C478.066 50.7775 478.19 51.8641 478.382 53.1053C478.571 54.32 478.683 55.1265 478.719 55.5249C478.8 56.4279 478.957 57.7391 479.192 59.4584C479.426 61.1777 479.563 62.2631 479.604 62.7146C481.271 63.1008 483.46 63.1726 486.169 62.9301C486.601 62.6772 486.806 62.2707 486.783 61.7105C486.786 61.148 486.788 60.5722 486.789 59.9831C486.792 59.4206 487.01 59.0129 487.442 58.7599C487.814 58.7267 488.13 58.8188 488.391 59.0365C488.678 59.2517 488.882 59.5949 489.005 60.0658C489.127 60.5368 489.216 60.9304 489.271 61.2468C489.329 61.5897 489.384 62.0533 489.436 62.6376C489.481 63.1423 489.01 64.0144 488.024 65.254L483.92 65.6213C478.502 66.1064 474.147 66.2151 470.857 65.9474L470.711 64.314L473.978 64.0215C474.088 62.5658 474.077 61.0943 473.944 59.6069C473.811 58.1195 473.596 56.4655 473.299 54.6447C473.029 52.8215 472.843 51.3522 472.744 50.2366L472.597 48.6032L471.866 40.4358L471.577 37.2087L470.925 29.9179L467.658 30.2104L467.511 28.5769C468.601 28.1849 470.209 27.7597 472.337 27.3015C474.491 26.841 476.087 26.4303 477.126 26.0696L485.254 25.342C485.859 25.8232 486.187 26.3428 486.237 26.9005C486.26 27.1661 486.369 27.6383 486.564 28.317C486.756 28.9691 486.885 29.5064 486.949 29.929C487.014 30.3516 486.905 30.7764 486.622 31.2033C486.336 31.6037 485.808 31.8384 485.038 31.9073ZM506.38 41.2816C507.504 42.4662 508.375 44.1284 508.995 46.2683C509.613 48.3817 510.139 50.9717 510.575 54.0385C511.012 57.1318 511.361 59.2291 511.62 60.3303C511.992 60.297 512.27 60.2721 512.456 60.2554C512.645 60.2653 512.838 60.3284 513.036 60.4445C513.233 60.5607 513.344 60.7516 513.368 61.0172C513.461 62.053 512.904 62.7186 511.699 63.0139C510.497 63.3358 509.285 63.4041 508.063 63.219C507.848 63.2114 507.688 63.2124 507.581 63.2219C507.034 62.789 506.77 62.237 506.791 61.5659C506.811 60.8947 506.898 60.0704 507.051 59.0928C507.234 58.1394 507.1 56.7993 506.651 55.0724C506.483 54.3914 506.324 53.3615 506.174 51.9827C506.048 50.575 505.831 49.3494 505.523 48.306C505.24 47.2337 504.767 46.2855 504.104 45.4613C503.955 45.2872 503.759 45.0504 503.518 44.7507C503.304 44.4486 503.107 44.1984 502.929 44.0002C502.751 43.802 502.517 43.582 502.227 43.3402C502.204 43.0746 502.106 42.8825 501.935 42.7639C501.788 42.6165 501.547 42.464 501.211 42.3067C500.876 42.1493 500.594 41.9871 500.364 41.8202C499.993 41.8535 499.715 41.8918 499.531 41.935C499.345 41.9516 499.165 42.0346 498.991 42.1841C498.817 42.3335 498.741 42.5278 498.762 42.7668C498.611 44.0655 498.605 45.4984 498.746 47.0655C498.884 48.606 499.097 50.2468 499.387 51.9879C499.674 53.7024 499.849 54.905 499.911 55.5955C500.115 57.8797 500.536 59.5824 501.171 60.7035C501.198 60.9956 501.501 61.2496 502.083 61.4652C502.691 61.6785 503.007 61.918 503.031 62.1836C503.038 62.2633 503.047 62.3695 503.059 62.5023C503.071 62.6351 503.08 62.7281 503.084 62.7812C503.091 62.8609 503.1 62.9538 503.109 63.0601C503.119 63.1663 503.111 63.2339 503.087 63.2628C503.065 63.3183 503.044 63.3738 503.022 63.4293C503.002 63.5114 502.967 63.5681 502.917 63.5994C502.866 63.6307 502.802 63.6632 502.724 63.6969C502.647 63.7306 502.555 63.7522 502.449 63.7617C502.21 63.7831 501.528 63.7906 500.403 63.7843C499.307 63.8021 498.335 63.8623 497.488 63.965C496.642 64.0942 495.993 64.313 495.538 64.6214C494.821 64.6856 494.301 64.7054 493.977 64.6808C493.683 64.6804 493.351 64.5628 492.982 64.3282C492.639 64.0911 492.297 63.7067 491.955 63.1751C492.492 62.5916 493.318 62.2499 494.434 62.15L493.132 47.6082C493.098 47.2364 493.117 46.6992 493.188 45.9967C493.259 45.2943 493.27 44.6642 493.22 44.1064C493.167 43.5221 492.986 42.9895 492.675 42.5086C492.649 42.2164 492.658 41.8676 492.702 41.462C492.746 41.0565 492.763 40.6533 492.754 40.2525C492.715 38.9174 492.527 37.1137 492.19 34.8414C491.852 32.569 491.631 30.8486 491.527 29.6799C489.455 29.8654 488.382 29.5464 488.309 28.723C488.204 27.5544 488.392 26.8147 488.873 26.5039C489.354 26.1931 490.325 25.9723 491.785 25.8415C492.078 25.8154 492.389 25.7072 492.72 25.5169C493.078 25.3242 493.389 25.216 493.655 25.1922C495.041 24.8272 496.425 24.5828 497.806 24.4592C499.185 24.309 500.562 24.2927 501.938 24.4105C503.338 24.4994 504.55 24.8728 505.573 25.5309C506.622 26.1866 507.345 27.0857 507.742 28.2282C508.689 31.0349 508.892 33.3059 508.352 35.041C508.019 36.1149 507.285 37.3319 506.149 38.692L505.35 39.647C505.374 39.9126 505.545 40.1784 505.864 40.4444C506.182 40.7104 506.354 40.9895 506.38 41.2816ZM496.6 27.5792C496.833 30.1821 497.253 33.6786 497.86 38.0686C497.97 38.4067 498.328 38.5086 498.931 38.3743C499.535 38.2399 500.207 37.9656 500.946 37.5513C501.712 37.1347 502.228 36.7673 502.494 36.4489C502.465 36.1302 502.534 35.5485 502.699 34.7037C502.864 33.8589 502.961 33.2881 502.988 32.9911C503.114 32.605 503.1 32.0039 502.947 31.1876C502.793 30.3714 502.705 29.8305 502.681 29.5648C502.664 29.3789 502.621 29.1954 502.551 29.0142C502.481 28.833 502.415 28.6917 502.353 28.5902C502.288 28.4622 502.168 28.3256 501.995 28.1805C501.845 28.0065 501.742 27.8953 501.684 27.8469C501.623 27.772 501.465 27.6523 501.21 27.4877C500.978 27.2943 500.834 27.1734 500.776 27.125C500.484 27.1512 499.781 27.2275 498.668 27.3539C497.555 27.4803 496.865 27.5554 496.6 27.5792Z" fill="black"/>
</svg>
