<svg width="174" height="115" viewBox="0 0 174 115" fill="none" xmlns="http://www.w3.org/2000/svg">
<path d="M8.09938 51.5896C8.97878 42.3774 7.72216 38.0727 4.61398 30.8209L162.756 9.41115C159.72 14.3021 159.015 18.5862 163.409 28.6607C168.747 33.4412 168.897 41.7447 166.423 61.9794C167.821 72.2498 169.266 76.8368 172.628 83.5975L11.5924 106.96C11.5614 95.3261 11.0135 89.2681 8.34268 79.9167C4.68152 68.8005 3.85423 62.5864 8.09938 51.5896Z" fill="#DFD9CE"/>
<path d="M53.7999 79.2019C55.1401 78.9709 56.089 79.0102 56.6465 79.3199C57.2342 79.6514 57.2353 80.3005 56.65 81.267C55.6777 81.4346 54.516 81.689 53.165 82.0301C51.8442 82.393 50.6845 82.6605 49.6859 82.8327C48.7135 83.0003 47.7237 83.0492 46.7165 82.9793C46.0607 82.5513 45.6902 82.0471 45.6048 81.4667C45.9631 80.9721 46.2416 80.6671 46.4402 80.5517C46.6427 80.4627 47.1512 80.348 47.9659 80.2076C48.1938 79.9248 48.301 79.5547 48.2876 79.0971C48.278 78.6659 48.1834 78.1142 48.0036 77.4418C47.8239 76.7694 47.7204 76.3409 47.6933 76.1562C47.3759 74.1821 47.0393 71.7107 46.6835 68.7423C46.3276 65.7738 46.0643 63.7092 45.8936 62.5483C45.847 62.2317 45.7786 61.6754 45.6885 60.8794C45.5983 60.0834 45.497 59.3029 45.3844 58.5378C45.268 57.7463 45.1253 56.9593 44.9563 56.1769C44.8503 56.0058 44.6998 55.1661 44.5049 53.6578C44.3323 52.1185 44.1743 50.8608 44.0307 49.8846C44.0074 49.7263 43.9744 49.5021 43.9317 49.2119C43.9114 48.8907 43.8916 48.6642 43.8722 48.5323C43.8489 48.374 43.7974 48.2071 43.7176 48.0314C43.6603 47.8249 43.5845 47.6757 43.4901 47.5837C43.3919 47.4654 43.26 47.3935 43.0946 47.3679C42.8163 47.3076 42.4255 47.3074 41.9223 47.367C41.4153 47.4004 40.9827 47.2991 40.6247 47.0632C40.3688 46.9721 40.1673 46.8851 40.0204 46.8022C39.8959 46.6884 39.8127 46.581 39.7709 46.48C39.7515 46.3481 39.7341 46.2294 39.7185 46.1238C39.7293 46.0138 39.7775 45.8837 39.8632 45.7337C39.9713 45.5527 40.059 45.4159 40.1262 45.3232C40.1934 45.2304 40.3073 45.0891 40.468 44.899C40.6287 44.709 40.7445 44.5809 40.8156 44.5145C41.5583 44.2512 42.3049 44.0143 43.0553 43.8038C43.832 43.5888 44.6521 43.3933 45.5154 43.2174C46.3787 43.0416 47.0995 42.9038 47.6776 42.8041C48.2519 42.6781 49.0797 42.5354 50.161 42.3761C51.2647 42.1858 52.0531 42.0499 52.5261 41.9684C52.6575 41.9457 52.877 41.8808 53.1846 41.7737C53.5184 41.662 53.8639 41.6295 54.2211 41.6762C55.7802 41.6509 57.2981 42.4443 58.7747 44.0563C60.2475 45.6419 61.3722 47.5175 62.1488 49.683C62.6339 52.9809 62.684 55.2446 62.299 56.4742C62.2005 57.0863 61.9856 57.732 61.6544 58.4113C61.3193 59.0642 60.995 59.607 60.6814 60.0398C60.3639 60.4462 59.9194 60.9963 59.3478 61.6899C58.7723 62.3572 58.3838 62.83 58.1822 63.1082C57.4783 63.6353 56.74 64.0195 55.9671 64.261C55.1904 64.476 54.0531 64.7126 52.5552 64.9709C52.5026 64.9799 52.4257 65.0067 52.3245 65.0512C52.2456 65.0648 52.139 65.1643 52.0046 65.3498C51.8664 65.5089 51.8147 65.7072 51.8496 65.9446L52.3328 69.2293C52.4415 69.968 52.5291 71.0214 52.5956 72.3896C52.6661 73.7841 52.7828 75.0355 52.9458 76.1435C53.1088 77.2516 53.3935 78.2711 53.7999 79.2019ZM50.6271 57.634L51.2325 61.7498C51.6888 62.1039 52.2644 62.2617 52.9593 62.2231C53.6805 62.1799 54.1944 62.0102 54.5011 61.7138C55.2158 61.0767 55.8263 60.2816 56.3328 59.3286C56.8355 58.3493 57.1279 57.4062 57.21 56.4993C57.2354 56.3056 57.2642 56.0436 57.2965 55.7134C57.3249 55.3568 57.3464 55.1367 57.361 55.053C57.3757 54.9694 57.3787 54.8065 57.37 54.5646C57.3876 54.3181 57.3887 54.142 57.3732 54.0365C57.38 53.9001 57.3641 53.6999 57.3253 53.4361C57.3127 53.1678 57.2871 52.9017 57.2483 52.6378C57.2056 52.3476 57.1532 51.9915 57.0911 51.5693C56.7068 48.9574 55.9151 46.781 54.7159 45.04C54.4794 45.0808 53.9982 45.0149 53.2722 44.8425C52.5463 44.6701 51.8811 44.6359 51.2767 44.7401L48.7933 45.1682C48.7129 46.4535 48.7756 47.7953 48.9813 49.1936C49.1831 50.5655 49.4739 52.0843 49.8537 53.7502C50.2335 55.416 50.4913 56.7106 50.6271 57.634ZM86.5133 72.7919C86.068 73.9778 85.4505 74.9093 84.6609 75.5864C83.0632 76.998 81.3875 77.7873 79.6337 77.9544C77.9061 78.1169 76.3082 77.8784 74.8399 77.2388C73.3755 76.6256 72.2065 75.7315 71.3331 74.5565C70.0891 72.8773 68.995 71.1182 68.0508 69.2791C67.2148 67.2591 66.4785 64.0857 65.842 59.7589C65.7877 59.3896 65.6915 58.9192 65.5536 58.3478C65.4157 57.7765 65.3079 57.227 65.2302 56.6993C65.1487 56.1453 65.114 55.5426 65.126 54.8913C65.1744 53.2057 65.1676 52.1519 65.1055 51.7298C65.1339 51.3732 65.1482 50.8297 65.1485 50.0992C65.1489 49.3688 65.1856 48.7944 65.2588 48.376C65.332 47.9576 65.4694 47.6093 65.671 47.3311C65.9242 46.8546 66.272 46.1048 66.7143 45.0818C67.1829 44.0542 67.5754 43.2426 67.892 42.647C68.231 42.0205 68.6843 41.3472 69.252 40.6271C69.846 39.9026 70.5611 39.36 71.3973 38.9994C72.2334 38.6389 73.2019 38.4449 74.3026 38.4175C75.8793 38.1457 77.1625 38.1679 78.1522 38.4843C79.1681 38.7961 80.1726 39.4886 81.1658 40.5618C82.5212 41.1667 83.7455 42.2542 84.8387 43.8241C85.9582 45.3895 86.7613 47.1852 87.248 49.2114C87.5122 50.275 87.7743 51.6906 88.0344 53.4582C88.0576 53.6165 88.11 53.9727 88.1915 54.5267C88.2692 55.0544 88.3254 55.4369 88.3604 55.6744C88.3953 55.9118 88.4384 56.2966 88.4898 56.8288C88.5635 57.3301 88.6125 57.7545 88.6366 58.102C88.6608 58.4495 88.6816 58.8652 88.6989 59.3491C88.7162 59.8331 88.7184 60.3061 88.7055 60.7682C88.6927 61.2303 88.6667 61.6947 88.6275 62.1613C88.3902 66.0435 87.6855 69.5871 86.5133 72.7919ZM82.9235 72.8426C83.5203 70.3051 83.8999 67.9402 84.0625 65.7481C84.3513 64.0481 84.257 61.5756 83.7797 58.3305C83.6982 57.7765 83.6367 57.0838 83.5952 56.2523C83.5761 55.3899 83.5278 54.6949 83.4501 54.1673C83.3725 53.6396 83.2035 52.8572 82.9432 51.82C82.7091 50.7783 82.5513 49.9804 82.4698 49.4264C82.1294 48.944 81.7482 48.1846 81.3263 47.1482C80.9044 46.1118 80.5082 45.3415 80.1376 44.8373C80.0394 44.719 79.7821 44.3441 79.3658 43.7125C78.9759 43.0763 78.6807 42.6268 78.4803 42.3637C78.2761 42.0743 77.9609 41.7635 77.5348 41.4311C77.1311 41.0679 76.7317 40.8257 76.3366 40.7044C75.8373 40.7905 75.2947 40.8569 74.7088 40.9038C74.1491 40.9462 73.5934 41.0149 73.0415 41.1101C71.8544 42.7484 71.0526 44.8073 70.6359 47.2868C70.2431 48.4636 70.2059 50.1337 70.5241 52.2971C70.6688 57.4931 71.816 63.3685 73.9658 69.9232C74.2381 70.3091 74.5775 70.9674 74.9839 71.8983C75.4204 72.851 75.8197 73.4585 76.1816 73.7207C76.4707 73.6709 76.6798 73.8107 76.8091 74.14C76.9686 74.4913 77.1237 74.7215 77.2745 74.8308C77.9682 75.3334 79.0314 75.326 80.4643 74.8085C81.9272 74.3128 82.747 73.6575 82.9235 72.8426ZM104.461 36.4651C104.756 38.4702 104.622 41.2254 104.06 44.7308C103.86 45.3875 103.555 46.3328 103.143 47.567C102.754 48.7702 102.493 49.5591 102.36 49.9338C102.422 50.3559 102.485 50.602 102.549 50.6721C102.636 50.7113 102.876 50.6969 103.27 50.629C103.598 50.843 104.182 51.1481 105.022 51.5444C105.888 51.9361 106.485 52.239 106.813 52.453C107.692 53.3023 108.407 54.3153 108.957 55.4919C109.504 56.642 110.06 58.2234 110.625 60.236C111.213 62.2176 111.596 63.45 111.775 63.9332C111.83 64.3025 111.836 64.8019 111.794 65.4314C111.782 66.0827 111.805 66.6062 111.863 67.0019C111.925 67.4241 112.092 67.7335 112.363 67.9301C112.402 68.194 112.761 68.5244 113.439 68.9215C114.117 69.3186 114.477 69.6622 114.52 69.9524C114.551 70.1635 114.533 70.41 114.467 70.692C114.427 70.9694 114.377 71.1808 114.318 71.3263L114.195 71.591C113.328 71.7405 112.003 71.9824 110.22 72.3168C108.44 72.6776 107.328 72.8965 106.881 72.9735C106.609 72.7769 106.428 72.5511 106.337 72.2964C106.245 72.0416 106.227 71.8283 106.283 71.6564L106.333 71.4449L107.71 69.5438C107.85 69.0327 107.882 68.5133 107.804 67.9856C107.727 67.458 107.587 66.8734 107.385 66.232C107.186 65.6169 107.06 65.1247 107.006 64.7553L106.295 59.9273L106.179 59.1358C105.985 57.8167 105.583 56.547 104.972 55.3267C104.361 54.1064 103.648 53.3773 102.831 53.1393C101.112 52.6241 99.5089 52.9005 98.0223 53.9683C97.7087 54.4011 97.5352 55.0532 97.5017 55.9246C97.4643 56.7696 97.5 57.5615 97.6086 58.3002C97.7436 59.0344 97.9247 59.9906 98.1519 61.1688C98.4015 62.316 98.5651 63.1535 98.6427 63.6811C98.7203 64.2088 98.6748 64.9064 98.506 65.7741C98.3674 66.6637 98.3369 67.3723 98.4145 67.8999L98.8803 71.0659C99.8096 71.3385 100.426 71.7733 100.729 72.3702C101.059 72.9627 100.876 73.5488 100.18 74.1287C99.3485 73.9744 98.2823 74.1446 96.9809 74.6395C95.7096 75.1562 94.6604 75.3506 93.8332 75.2227C93.3506 74.873 93.0602 74.639 92.962 74.5207C92.89 74.3978 92.8269 74.1517 92.7725 73.7824C92.9517 73.5351 93.1723 73.2942 93.4342 73.0597C93.6961 72.8252 93.883 72.6306 93.995 72.4761C94.107 72.3215 94.1455 72.1255 94.1106 71.888L93.5226 67.8911L92.5795 61.4801C92.6282 61.4446 92.6118 61.1499 92.5303 60.5958L92.3409 59.8575C92.3137 59.6728 92.3636 59.0962 92.4905 58.1275C92.6399 57.1278 92.6699 56.3246 92.5807 55.7178C91.5638 48.8056 90.5816 44.0515 89.6338 41.4556L89.2845 39.0811C88.9429 39.14 88.6801 39.1853 88.4962 39.217C88.3346 39.2178 88.1522 39.1681 87.9488 39.0679C87.7454 38.9677 87.6244 38.7857 87.5855 38.5219C87.2138 38.5589 86.9832 38.274 86.894 37.6672C86.831 37.0559 86.9227 36.5802 87.1691 36.2401C87.3034 36.0547 87.502 35.9393 87.7648 35.894C88.0237 35.8223 88.4087 35.783 88.9196 35.7761C89.4267 35.7428 89.8773 35.6921 90.2715 35.6242C90.4554 35.5925 90.8477 35.5113 91.4482 35.3808C92.0449 35.2238 92.5534 35.1091 92.9739 35.0366C93.4206 34.9596 93.8995 34.9177 94.4104 34.9107C94.9477 34.8993 95.3671 35.0028 95.6687 35.2214C95.9966 35.4353 96.1935 35.7666 96.2595 36.2151C96.2944 36.4526 96.2427 36.6508 96.1045 36.8099C95.9925 36.9645 95.8055 37.159 95.5436 37.3935C95.2817 37.628 95.0612 37.8689 94.882 38.1162C95.0372 39.1715 95.384 40.6131 95.9224 42.441C96.4607 44.2689 96.8075 45.7105 96.9627 46.7658C96.986 46.9241 96.9669 47.252 96.9054 47.7495C96.8701 48.2426 96.8816 48.6869 96.9398 49.0827C96.998 49.4784 97.1629 49.7746 97.4343 49.9713C100.04 48.8188 101.553 46.0963 101.972 41.8039C101.895 41.2763 101.91 40.4621 102.017 39.3615C102.151 38.2564 102.177 37.4268 102.096 36.8728L100.479 37.1514C100.437 36.8612 100.251 36.609 99.9236 36.395C99.622 36.1765 99.4518 35.9353 99.413 35.6715C99.639 35.0104 100.373 34.5051 101.615 34.1557C102.879 33.7755 103.671 33.4768 103.989 33.2596C104.76 33.3702 105.276 33.6735 105.538 34.1694C105.826 34.6608 105.843 35.1448 105.59 35.6212C105.363 36.0932 104.986 36.3745 104.461 36.4651ZM128.705 35.4509C128.4 35.206 128.189 34.6878 128.073 33.8963C127.956 33.1048 127.734 32.6021 127.406 32.3881C126.838 32.1884 126.258 32.0043 125.668 31.8356C123.014 32.2931 121.188 32.8918 120.193 33.6315C120.103 33.7552 120.015 33.892 119.93 34.042C119.866 34.1612 119.822 34.3176 119.797 34.5113C119.771 34.7051 119.753 34.857 119.742 34.967C119.732 35.0771 119.734 35.2795 119.751 35.5742C119.79 35.8381 119.817 36.0227 119.832 36.1283C119.848 36.2338 119.883 36.4713 119.937 36.8406C119.991 37.21 120.026 37.4474 120.042 37.5529C120.162 38.3708 120.272 39.2987 120.371 40.3367C120.496 41.3702 120.593 42.1244 120.663 42.5992C120.748 43.1797 120.904 43.8697 121.129 44.6695C121.381 45.4647 121.547 46.1393 121.629 46.6934C121.71 47.2474 121.668 47.7823 121.501 48.2979C122.127 48.7041 123.767 48.6784 126.421 48.2208C126.188 46.6379 126.348 45.7988 126.899 45.7037C127.294 45.6358 127.562 45.63 127.705 45.6865C127.844 45.7166 128.153 45.8933 128.632 46.2166C128.436 46.8996 128.476 47.7179 128.751 48.6714C129.022 49.5985 129.21 50.5128 129.316 51.4144C129.418 52.2895 129.232 52.7679 128.759 52.8494C127.6 52.4811 126.982 52.0331 126.904 51.5055L126.782 50.6744L122.801 51.3607C122.673 52.1402 122.652 53.0094 122.74 53.9682C122.849 54.8961 123.035 55.9733 123.296 57.1997C123.553 58.3997 123.711 59.1976 123.769 59.5933C123.901 60.4903 124.133 61.7895 124.464 63.4908C124.795 65.1921 124.993 66.267 125.059 66.7155C126.74 66.9668 128.921 66.8614 131.601 66.3994C132.017 66.1113 132.197 65.688 132.142 65.1294C132.113 64.5663 132.082 63.99 132.049 63.4006C132.02 62.8375 132.214 62.4119 132.629 62.1238C132.997 62.0604 133.317 62.127 133.588 62.3237C133.886 62.5158 134.109 62.8426 134.258 63.3039C134.407 63.7652 134.517 64.1518 134.59 64.4639C134.667 64.8023 134.748 65.2618 134.833 65.8422C134.907 66.3435 134.489 67.2542 133.578 68.5744L129.518 69.2743C124.157 70.1984 119.833 70.6597 116.545 70.6583L116.307 69.0358L119.539 68.4786C119.566 67.0132 119.471 65.5418 119.253 64.0643C119.036 62.5869 118.728 60.9493 118.329 59.1515C117.956 57.3492 117.688 55.8941 117.525 54.786L117.286 53.1634L116.093 45.0508L115.621 41.8453L114.556 34.6032L111.323 35.1604L111.085 33.5378C112.146 33.0574 113.721 32.5018 115.811 31.871C117.927 31.2357 119.491 30.6956 120.504 30.2505L128.545 28.8644C129.174 29.2969 129.53 29.7902 129.611 30.3442C129.65 30.6081 129.786 31.0716 130.018 31.7349C130.247 32.3718 130.405 32.8991 130.493 33.3167C130.582 33.7343 130.497 34.1681 130.24 34.6182C129.979 35.042 129.468 35.3195 128.705 35.4509Z" fill="#1B1B1B"/>
</svg>
