<svg width="516" height="206" viewBox="0 0 516 206" fill="none" xmlns="http://www.w3.org/2000/svg">
<path d="M13.6777 71.4722C20.9878 63.4297 21.8761 57.1741 16.7999 42.3927L504.162 79.4833C500.588 85.9088 499.804 89.7496 499.146 96.745C509.13 103.746 511.206 109.589 500.024 128.124C493.369 143.362 494.505 150.759 502.595 162.52L5.91409 125.546C8.89703 117.578 10.3418 112.883 11.2713 102.861C6.22485 88.0631 3.79665 79.9367 13.6777 71.4722Z" fill="#DFD9CE"/>
<path d="M57.8887 80.8369C57.3004 80.4729 56.9829 79.5139 56.9362 77.9596C56.9181 76.3808 56.842 75.4126 56.7077 75.0552C55.4843 74.9656 54.485 74.9192 53.7099 74.916C52.9613 74.9146 52.0282 75.0602 50.9105 75.3527C49.7928 75.6452 48.9541 76.1453 48.3942 76.853C48.3352 76.9289 48.198 77.1595 47.9826 77.5448C47.7673 77.9301 47.5996 78.212 47.4796 78.3903C47.3861 78.5707 47.2318 78.8535 47.0164 79.2388C46.8295 79.5994 46.6722 79.9221 46.5444 80.2069C46.4452 80.467 46.3287 80.7794 46.1951 81.1439C46.0614 81.5085 45.9544 81.8749 45.874 82.2434C45.8201 82.6138 45.7805 82.9718 45.7552 83.3176C45.6559 84.674 45.4557 86.678 45.1546 89.3298C44.8802 91.9835 44.6942 93.9752 44.5969 95.305C44.5443 96.0231 44.4029 97.0421 44.1725 98.3622C43.9688 99.6842 43.828 100.877 43.7501 101.941C43.6703 103.031 43.715 104.064 43.8843 105.039C43.9991 105.662 44.2005 106.198 44.4885 106.647C44.7764 107.096 45.19 107.474 45.729 107.781C46.2946 108.09 46.772 108.325 47.1612 108.487C47.577 108.652 48.2046 108.845 49.044 109.066C49.8814 109.315 50.4957 109.507 50.8868 109.643C51.854 109.58 52.6373 109.289 53.2367 108.772C53.8607 108.283 54.3132 107.581 54.5941 106.665C54.875 105.75 55.0732 104.869 55.1887 104.022C55.3042 103.174 55.4097 102.099 55.5051 100.796C55.6005 99.4929 55.7011 98.4842 55.8068 97.7701C55.6116 97.5151 55.381 97.3779 55.115 97.3584C54.8491 97.339 54.6324 97.3766 54.4651 97.4713L54.2111 97.6532C54.0262 97.9873 53.8063 98.8001 53.5513 100.092C53.3249 101.358 52.8808 102.128 52.2192 102.4C51.9798 102.383 51.7985 102.303 51.6753 102.16C51.552 102.017 51.408 101.793 51.2433 101.487C51.0805 101.154 50.9128 100.888 50.7403 100.688C50.9389 97.9752 51.343 96.1064 51.9528 95.0815C52.3784 95.1126 52.9654 95.1289 53.714 95.1302C54.4911 95.1069 55.1057 95.1118 55.5578 95.1449C56.0119 95.1514 56.5123 95.2549 57.0592 95.4553C57.6079 95.6292 58.0549 95.9159 58.3999 96.3155C58.6218 96.5724 58.722 96.8471 58.7006 97.1397C58.6811 97.4056 58.5922 97.7066 58.4339 98.0426C58.3042 98.354 58.2325 98.6027 58.2189 98.7889C58.1683 99.4804 58.1228 100.466 58.0825 101.747C58.0708 103.003 58.0387 103.99 57.9861 104.708C57.9316 105.452 57.7924 106.258 57.5686 107.124C57.3448 107.99 57.0262 108.688 56.613 109.219C56.5955 109.459 56.4307 109.701 56.1187 109.945C55.8313 110.218 55.4632 110.499 55.0143 110.787C54.5635 111.102 54.2382 111.345 54.0384 111.518C53.1561 111.881 51.9837 112.009 50.5209 111.902C49.0828 111.823 47.8218 111.517 46.7379 110.983C44.9307 110.102 43.6564 109.247 42.915 108.417C42.1717 107.614 41.1712 106.124 39.9135 103.946C39.0547 100.701 38.7276 97.6828 38.932 94.8903L39.2854 90.0632C39.373 88.8664 39.7344 87.0346 40.3696 84.5677C40.8055 82.9953 41.1646 81.9254 41.4468 81.3578C41.6946 80.8946 41.956 80.2453 42.2311 79.4099C42.5328 78.5763 42.838 77.8767 43.1468 77.3111C43.4575 76.7189 43.8698 76.2009 44.3835 75.7573C44.6975 75.4861 45.0069 75.0943 45.3118 74.5819C45.6167 74.0695 45.9119 73.69 46.1973 73.4435C46.4367 73.461 46.6942 73.413 46.9699 73.2995C47.2722 73.188 47.4947 73.0706 47.6374 72.9473L47.8914 72.7654C49.0227 72.2867 50.6654 72.1262 52.8197 72.2839C52.9526 72.2937 53.2757 72.2638 53.7888 72.1944C54.3304 72.1004 54.8672 72.0729 55.3991 72.1118C55.931 72.1507 56.4276 72.3074 56.8888 72.5818C57.3143 72.613 57.806 72.8361 58.3638 73.2513C58.9236 73.6399 59.1899 74.0203 59.1626 74.3927C59.4415 75.6965 59.4136 76.9913 59.0788 78.2769C58.7726 79.5379 58.3759 80.3912 57.8887 80.8369ZM75.2148 110.381C75.7502 103.067 75.8285 97.9791 75.4498 95.1172C74.9977 95.0841 74.0101 94.8781 72.487 94.4992C70.9925 94.0957 69.7931 93.8608 68.8889 93.7946C68.2629 94.3103 67.8652 95.725 67.6958 98.0388C66.9206 100.228 66.3275 104.129 65.9167 109.74C66.2183 110.003 66.6484 110.155 67.2069 110.196C67.7654 110.236 68.1679 110.4 68.4144 110.685L68.172 112.352C67.3904 112.803 66.5332 113.007 65.6004 112.966C64.6676 112.924 63.8613 112.798 63.1815 112.588C62.4997 112.404 61.6818 112.438 60.7275 112.689L59.0949 110.885C60.1588 109.867 61.0364 109.383 61.7279 109.434C61.9939 109.453 62.2002 109.374 62.3468 109.198C62.52 109.024 62.6134 108.843 62.627 108.657C62.6672 108.473 62.7019 108.181 62.7312 107.782C63.1619 105.915 63.8192 102.782 64.7028 98.3812C65.615 93.956 66.2349 90.9666 66.5626 89.4131C66.73 87.1258 67.4787 84.9347 68.8085 82.8395C69.6279 80.4128 71.2163 77.7083 73.5736 74.7258C73.6307 74.6765 73.7021 74.6148 73.7877 74.5409C73.8733 74.4669 74.055 74.3599 74.3326 74.2198C74.6122 74.0531 74.8746 73.9386 75.1198 73.8764C75.3935 73.7895 75.7033 73.7587 76.049 73.784C76.3948 73.8093 76.7081 73.9124 76.9889 74.0934C77.8088 74.5813 78.5434 75.504 79.1927 76.8617C79.842 78.2194 80.1335 79.3504 80.0673 80.2546C80.6102 81.6045 80.9257 83.1383 81.0139 84.856C81.1273 87.3242 81.2024 91.0463 81.2392 96.0223C81.276 100.998 81.3258 104.518 81.3886 106.581L81.0148 111.688C81.0031 111.847 81.1176 112.11 81.3583 112.475C81.5989 112.84 81.7085 113.169 81.6871 113.462C81.6657 113.754 81.3803 114.001 80.8308 114.201L79.8111 113.886C79.2526 113.845 78.4518 113.826 77.4088 113.83C76.3657 113.834 75.5516 113.815 74.9665 113.772C74.8601 113.764 74.673 113.764 74.4051 113.771C74.1352 113.804 73.9205 113.815 73.761 113.804C73.626 113.821 73.4665 113.809 73.2822 113.769C73.0961 113.755 72.9527 113.704 72.8522 113.617C72.7782 113.531 72.7461 113.422 72.7559 113.289C72.7909 112.81 73.1036 112.191 73.6939 111.433C74.2823 110.7 74.7892 110.35 75.2148 110.381ZM73.2699 78.8747C71.831 82.4592 70.7869 85.217 70.1375 87.148C70.12 87.3874 69.9364 88.0691 69.5867 89.1933C69.2656 90.2928 69.0923 91.0154 69.067 91.3611C70.679 91.9871 72.8679 92.4014 75.6338 92.6039L76.0018 87.5773C76.1946 84.9444 75.869 82.0863 75.0252 79.0032C75.0291 78.95 75.0207 78.8825 74.9999 78.8008C75.0077 78.6944 74.9377 78.5556 74.7898 78.3843C74.6685 78.215 74.4748 78.1206 74.2089 78.1011L73.2699 78.8747ZM101.681 93.3075C102.598 94.6581 103.19 96.4394 103.456 98.6514C103.723 100.837 103.824 103.478 103.758 106.575C103.69 109.698 103.694 111.824 103.772 112.953C104.145 112.98 104.424 113 104.61 113.014C104.794 113.054 104.975 113.148 105.151 113.294C105.327 113.441 105.406 113.647 105.386 113.913C105.311 114.95 104.654 115.517 103.417 115.614C102.178 115.737 100.971 115.609 99.7955 115.228C99.5847 115.186 99.4261 115.161 99.3197 115.153C98.8494 114.638 98.6785 114.05 98.807 113.391C98.9354 112.732 99.1544 111.933 99.4638 110.993C99.7979 110.081 99.883 108.737 99.7189 106.961C99.6632 106.261 99.6726 105.219 99.7473 103.834C99.8505 102.425 99.8346 101.18 99.6997 100.101C99.5934 98.997 99.2798 97.9847 98.7589 97.0642C98.6396 96.8683 98.4852 96.603 98.2958 96.2683C98.133 95.9355 97.9796 95.6569 97.8356 95.4325C97.6916 95.208 97.4964 94.9531 97.2499 94.6677C97.2694 94.4017 97.2042 94.1964 97.0543 94.0517C96.933 93.8824 96.7196 93.693 96.4141 93.4835C96.1086 93.2739 95.8563 93.0683 95.6571 92.8666C95.2848 92.8393 95.0046 92.8321 94.8165 92.8451C94.6303 92.8315 94.4393 92.8843 94.2434 93.0037C94.0474 93.123 93.9407 93.3024 93.9232 93.5418C93.5638 94.7989 93.3267 96.212 93.2118 97.7811C93.0989 99.3237 93.0446 100.977 93.0491 102.742C93.0555 104.481 93.0334 105.696 92.9828 106.387C92.8154 108.675 92.9548 110.423 93.401 111.632C93.3796 111.924 93.6384 112.224 94.1774 112.531C94.7431 112.84 95.0161 113.127 94.9967 113.393C94.9908 113.473 94.983 113.579 94.9733 113.712C94.9636 113.845 94.9568 113.938 94.9529 113.992C94.947 114.071 94.9402 114.164 94.9324 114.271C94.9246 114.377 94.9065 114.443 94.8779 114.467C94.8474 114.519 94.8169 114.57 94.7865 114.621C94.754 114.699 94.7102 114.749 94.6551 114.772C94.6 114.795 94.5315 114.816 94.4498 114.837C94.3681 114.858 94.274 114.864 94.1676 114.856C93.9283 114.839 93.254 114.736 92.1447 114.548C91.0602 114.388 90.0914 114.291 89.2384 114.255C88.3834 114.246 87.7069 114.357 87.2087 114.588C86.4906 114.535 85.9739 114.471 85.6587 114.394C85.3681 114.346 85.0596 114.176 84.7334 113.885C84.4337 113.596 84.158 113.161 83.9064 112.581C84.5304 112.092 85.4009 111.888 86.5179 111.97L87.5839 97.4092C87.6112 97.0369 87.7166 96.5098 87.9002 95.8281C88.0838 95.1464 88.196 94.5262 88.2369 93.9677C88.2798 93.3826 88.1867 92.8277 87.9577 92.3029C87.9792 92.0103 88.0444 91.6675 88.1534 91.2744C88.2623 90.8813 88.3447 90.4863 88.4005 90.0893C88.5777 88.7654 88.6835 86.9549 88.7179 84.658C88.7524 82.361 88.8125 80.6275 88.8981 79.4573C86.8237 79.3054 85.8167 78.8172 85.877 77.9928C85.9627 76.8226 86.2679 76.123 86.7927 75.894C87.3175 75.6651 88.3112 75.6041 89.774 75.7112C90.0665 75.7326 90.3915 75.6762 90.749 75.542C91.133 75.4096 91.458 75.3532 91.7239 75.3727C93.151 75.2365 94.556 75.2191 95.939 75.3203C97.3239 75.3949 98.6858 75.6016 100.025 75.9403C101.392 76.2543 102.527 76.8187 103.43 77.6334C104.36 78.4501 104.928 79.4543 105.135 80.6459C105.616 83.5689 105.449 85.8428 104.635 87.4677C104.134 88.4737 103.212 89.556 101.871 90.7145L100.929 91.5279C100.909 91.7938 101.035 92.0838 101.306 92.3978C101.578 92.7117 101.702 93.015 101.681 93.3075ZM94.2439 78.2042C94.0531 80.8106 93.9025 84.329 93.792 88.7594C93.8465 89.111 94.1825 89.2693 94.8001 89.2343C95.4176 89.1993 96.1247 89.0371 96.9212 88.7479C97.7444 88.4605 98.313 88.1813 98.6269 87.9102C98.6503 87.591 98.8119 87.028 99.1116 86.221C99.4113 85.4141 99.5984 84.8663 99.6731 84.5776C99.8599 84.217 99.9436 83.6215 99.9242 82.7912C99.9047 81.9609 99.9047 81.4128 99.9242 81.1468C99.9378 80.9607 99.9249 80.7725 99.8853 80.5825C99.8458 80.3924 99.8033 80.2422 99.7579 80.132C99.7144 79.9951 99.6187 79.841 99.4709 79.6698C99.3515 79.4739 99.2672 79.3474 99.2179 79.2903C99.1705 79.2066 99.034 79.0629 98.8083 78.8592C98.6111 78.6309 98.4878 78.4882 98.4385 78.4311C98.146 78.4097 97.4402 78.3714 96.3213 78.3162C95.2023 78.261 94.5099 78.2237 94.2439 78.2042ZM133.924 78.422C133.906 78.6613 133.821 78.9091 133.669 79.1653C133.517 79.4216 133.369 79.6113 133.226 79.7345L133.009 79.9593L131.374 79.8395C131.117 80.0614 130.978 80.3186 130.956 80.6111C130.937 80.8771 130.963 81.2533 131.034 81.7398C131.132 82.2283 131.166 82.672 131.137 83.0709C131.106 83.4964 130.947 85.4901 130.659 89.052C130.398 92.6158 130.224 94.9961 130.136 96.1928C130.077 97.365 129.96 99.335 129.784 102.103C129.635 104.873 129.523 107.311 129.449 109.418C129.399 111.553 129.377 113.691 129.381 115.83C129.353 116.577 129.076 117.064 128.551 117.293C128.025 117.549 127.474 117.589 126.898 117.413C126.321 117.264 125.897 117.032 125.626 116.718C125.377 115.737 124.919 113.953 124.253 111.364C123.587 108.775 122.973 106.39 122.41 104.21C121.877 102.005 121.455 100.089 121.147 98.4625C120.97 97.594 120.46 95.9658 119.619 93.578L119.194 92.2634C119.103 92.0429 118.981 91.3387 118.827 90.151C118.674 88.9633 118.289 88.1865 117.674 87.8206L117.265 93.4057L116.798 99.7886L116.328 106.211L116.153 108.605L115.861 112.594C116.354 113.165 117.119 113.489 118.156 113.564C118.137 113.83 118.126 114.151 118.126 114.525C118.152 114.901 118.157 115.196 118.141 115.408C118.15 115.65 118.121 115.875 118.052 116.084C118.008 116.321 117.902 116.487 117.735 116.582C117.567 116.676 117.337 116.713 117.045 116.692C116.378 116.67 115.778 116.639 115.247 116.6C114.981 116.581 114.089 116.529 112.571 116.444C111.051 116.387 110.158 116.348 109.892 116.329C109.733 116.317 109.617 116.255 109.545 116.143C109.473 116.03 109.431 115.867 109.42 115.652C109.436 115.439 109.452 115.213 109.47 114.974C109.485 114.761 109.52 114.47 109.574 114.099C109.626 113.756 109.662 113.451 109.681 113.185C110.531 113.621 110.976 113.574 111.015 113.042C111.289 112.581 111.463 112.032 111.537 111.395C111.635 110.788 111.676 110.042 111.66 109.158C111.671 108.277 111.686 107.716 111.703 107.477C111.766 106.626 111.807 105.332 111.827 103.596C111.874 101.861 111.915 100.755 111.95 100.276C111.989 99.744 112.042 98.8255 112.111 97.5203C112.207 96.2172 112.277 95.2597 112.322 94.648C112.364 94.0629 112.37 93.2612 112.337 92.2427C112.305 91.2243 112.308 90.4492 112.347 89.9173C112.366 89.6513 112.317 89.2332 112.198 88.663C112.106 88.0948 112.07 87.6777 112.089 87.4117L112.148 86.6139L112.326 84.1804C112.343 83.941 112.351 83.6475 112.35 83.2998C112.351 82.9255 112.366 82.5389 112.395 82.14C112.424 81.7411 112.341 81.2403 112.144 80.6377C111.949 80.0084 111.861 79.5742 111.878 79.3348C111.107 79.2783 110.52 79.075 110.118 78.7247C109.716 78.3744 109.531 77.9864 109.562 77.5609C109.591 77.162 109.749 76.826 110.037 76.5529C110.324 76.2798 110.667 76.1579 111.066 76.1871C111.359 76.2085 111.639 76.2156 111.907 76.2085C112.203 76.1767 112.539 76.1612 112.913 76.1619C113.181 76.1547 113.578 76.2105 114.104 76.3293C114.658 76.4233 115.122 76.484 115.494 76.5113C115.813 76.5346 116.084 76.6747 116.306 76.9316C116.528 77.1885 116.669 77.4529 116.729 77.7246L116.782 78.0895C117.635 79.5958 118.386 81.2016 119.037 82.907C119.687 84.6124 120.386 86.7491 121.134 89.3172C121.911 91.8607 122.463 93.6258 122.792 94.6124C123.228 96.3288 123.903 98.2499 124.817 100.376C124.774 100.961 124.94 101.802 125.314 102.899C125.355 103.062 125.456 103.511 125.616 104.244C125.805 104.953 125.993 105.676 126.18 106.411C126.395 107.122 126.611 107.646 126.827 107.983C126.897 108.121 126.948 107.965 126.981 107.513C127.009 107.14 127.019 106.272 127.012 104.908C127.008 103.491 127.021 102.582 127.051 102.184C127.144 100.907 127.357 98.73 127.689 95.6527C128.023 92.5489 128.252 90.1592 128.374 88.4836L128.433 87.6858C128.493 86.8613 128.439 85.7745 128.271 84.4252C128.102 83.076 128.047 82.0024 128.105 81.2046C127.119 80.0628 126.347 79.4716 125.789 79.4307C125.69 79.3165 125.514 79.1566 125.262 78.951C125.038 78.7207 124.89 78.5494 124.818 78.4372C124.773 78.3269 124.759 78.1521 124.777 77.9127C124.823 77.6487 124.953 77.3241 125.169 76.9388C125.408 76.9563 125.591 77.0098 125.719 77.0993C125.872 77.1908 126.162 77.2521 126.587 77.2833C126.933 77.3086 127.253 77.3186 127.548 77.3135C127.871 77.2836 128.101 77.247 128.238 77.2035L128.4 77.1753C129.053 77.3836 129.73 77.4598 130.429 77.4041C131.157 77.3237 131.863 77.3487 132.549 77.4791C133.261 77.6114 133.72 77.9257 133.924 78.422ZM143.099 81.5402C142.757 82.5579 142.578 83.3604 142.562 83.9474C142.546 84.5344 142.552 85.3638 142.58 86.4354C142.635 87.5089 142.628 88.3373 142.559 88.9204C142.383 90.5921 142.083 93.2305 141.659 96.8358C141.234 100.441 140.861 103.716 140.538 106.66C140.242 109.607 139.996 112.423 139.799 115.109C140.071 115.423 140.462 115.732 140.975 116.037C141.514 116.344 141.894 116.626 142.116 116.883C142.099 117.122 142.018 117.303 141.876 117.427C141.731 117.576 141.506 117.734 141.199 117.899C140.893 118.063 140.626 118.244 140.398 118.441C139.859 118.135 138.698 117.916 136.916 117.786C135.161 117.657 133.882 117.416 133.079 117.063C132.561 116.464 132.6 115.932 133.196 115.468C133.217 115.175 133.427 115.043 133.826 115.073C134.252 115.104 134.594 114.995 134.853 114.747C135.11 114.525 135.253 114.215 135.282 113.816C135.311 113.417 135.278 112.96 135.182 112.445C135.11 111.958 135.08 111.635 135.092 111.475C135.154 110.624 135.255 109.429 135.395 107.888C135.563 106.323 135.676 105.141 135.735 104.343C135.707 103.619 135.714 102.978 135.755 102.42L136.295 95.0395L137.315 81.1167C136.969 81.0914 136.703 81.0719 136.517 81.0583C136.359 81.02 136.192 80.9276 136.016 80.781C135.839 80.6344 135.761 80.4281 135.78 80.1621L135.9 78.5265C135.918 78.2872 136.006 78.1733 136.166 78.185C136.325 78.1967 136.613 78.2846 137.029 78.4487C137.473 78.5882 137.908 78.6735 138.333 78.7047C138.679 78.73 139.335 78.7245 140.3 78.6882C141.294 78.6273 142.19 78.626 142.987 78.6844C143.785 78.7428 144.415 78.9092 144.876 79.1836C145.297 79.6423 145.299 80.1638 144.882 80.7482C144.465 81.3327 143.87 81.5967 143.099 81.5402ZM159.725 81.3937C159.768 80.8086 160.082 80.5375 160.667 80.5803C161.039 80.6076 161.318 80.6413 161.502 80.6815C161.688 80.6952 161.855 80.7876 162.003 80.9589C162.179 81.1055 162.258 81.3118 162.238 81.5777C162.487 81.8365 162.596 82.1787 162.564 82.6042C162.535 83.0032 162.436 83.4504 162.266 83.946C162.098 84.415 162.008 84.7293 161.996 84.8888C161.933 85.0179 161.825 85.2106 161.673 85.4668C161.547 85.725 161.438 85.9309 161.347 86.0847C161.256 86.2384 161.134 86.4434 160.981 86.6996C160.857 86.9311 160.736 87.1228 160.618 87.2746C160.529 87.4017 160.411 87.5535 160.264 87.73C160.119 87.8798 159.977 88.003 159.836 88.0997C159.697 88.1697 159.546 88.2255 159.382 88.267C159.219 88.3085 159.044 88.3225 158.858 88.3089C158.7 88.2706 158.532 88.1914 158.354 88.0714C158.132 87.8145 158.037 87.4733 158.068 87.0478C158.099 86.6223 158.192 86.081 158.347 85.4239C158.529 84.7687 158.634 84.2417 158.664 83.8427C158.271 83.3595 157.689 82.9157 156.916 82.5116C156.144 82.1074 155.358 81.8762 154.56 81.8178C154.046 82.6357 153.726 83.8957 153.602 85.5979C153.477 87.3 153.609 88.6064 153.997 89.5172C154.315 90.2891 154.847 91.05 155.594 91.7999C156.368 92.5517 157.136 93.2095 157.896 93.7732C158.659 94.3104 159.464 95.011 160.309 95.875C161.155 96.7391 161.798 97.6417 162.237 98.583C162.818 99.7753 163.289 100.826 163.651 101.735C164.379 103.472 164.668 105.365 164.518 107.413C164.318 110.152 163.601 112.64 162.368 114.876C161.628 116.212 160.698 117.227 159.578 117.92C158.456 118.64 157.015 119.15 155.255 119.449L151.824 119.198C151.106 119.145 150.27 118.696 149.316 117.851C148.388 117.008 147.618 116.203 147.006 115.436C145.906 112.922 145.8 110.361 146.686 107.752C146.393 107.731 146.09 107.855 145.776 108.127C145.489 108.4 145.212 108.526 144.946 108.507C144.404 107.879 144.174 107.007 144.255 105.89C145.046 105.68 146.169 105.495 147.625 105.334C149.107 105.175 150.301 104.942 151.206 104.634C152.057 104.696 152.629 105.099 152.922 105.842C153.215 106.586 153.118 107.367 152.63 108.187C151.513 108.105 150.64 108.336 150.013 108.878C149.076 109.612 148.725 110.949 148.957 112.892C149.213 114.862 149.938 116.105 151.13 116.62C151.423 116.642 151.726 116.517 152.04 116.246C152.354 115.974 152.657 115.85 152.95 115.871C155.515 114.802 157.346 112.797 158.444 109.856C159.566 106.944 159.83 103.701 159.236 100.128C158.844 99.2704 158.414 98.5705 157.946 98.0282C157.478 97.4859 156.848 96.9585 156.056 96.446C154.954 95.8038 153.872 94.869 152.812 93.6417C152.591 93.3848 152.2 93.0621 151.64 92.6735C151.08 92.2849 150.579 91.8205 150.138 91.2801C150.064 91.1945 149.854 90.9519 149.509 90.5523C149.191 90.1546 148.97 89.8844 148.847 89.7417C148.725 89.5724 148.53 89.3175 148.261 88.9769C148.018 88.6383 147.838 88.3577 147.721 88.1352C147.632 87.8881 147.545 87.6144 147.46 87.314C147.375 87.0137 147.342 86.7305 147.362 86.4646C146.857 84.2351 147.874 82.0235 150.415 79.8297C150.627 79.8453 151.103 79.7331 151.843 79.4931C152.582 79.2532 153.258 79.1556 153.87 79.2003C154.402 79.2393 154.864 79.3132 155.257 79.4222C155.65 79.5312 156.107 79.685 156.627 79.8835C157.147 80.082 157.643 80.252 158.114 80.3934C158.603 81.0174 159.14 81.3509 159.725 81.3937ZM188.393 85.177C187.755 86.2265 187.316 88.3869 187.077 91.6581L186.545 98.9187L186.069 105.421C185.97 106.778 185.944 108.955 185.992 111.953C186.064 114.98 186.052 117.158 185.955 118.488C186.127 118.688 186.353 118.891 186.632 119.099C186.937 119.308 187.152 119.485 187.275 119.627C187.423 119.799 187.488 120.004 187.471 120.243L187.351 121.879C187.328 121.824 187.305 121.769 187.283 121.713C187.26 121.658 187.172 121.585 187.018 121.493C186.891 121.404 186.74 121.46 186.565 121.661C186.319 121.723 186.089 121.76 185.875 121.771C185.685 121.81 185.55 121.827 185.47 121.821L185.313 121.77C185.101 121.754 184.716 121.713 184.159 121.645C183.627 121.606 183.056 121.564 182.444 121.52C182.151 121.498 181.819 121.474 181.447 121.447C181.072 121.446 180.765 121.437 180.526 121.419C180.428 121.305 180.341 121.205 180.267 121.12C180.193 121.034 180.147 120.937 180.128 120.829C180.134 120.749 180.126 120.681 180.103 120.626C180.105 120.6 180.136 120.535 180.197 120.433C180.283 120.359 180.341 120.296 180.371 120.245C180.4 120.22 180.486 120.146 180.628 120.023C180.798 119.902 180.911 119.816 180.968 119.767C180.989 119.475 181.276 119.215 181.827 118.988C182.379 118.761 182.664 118.514 182.683 118.248C183.063 116.351 183.337 114.245 183.507 111.932C183.674 109.644 183.794 107.1 183.865 104.297C183.963 101.497 184.065 99.3788 184.17 97.9427C184.187 97.7033 184.135 97.5123 184.011 97.3696C183.89 97.2003 183.751 97.0965 183.593 97.0582L183.394 97.0436C182.693 96.7516 181.877 96.5716 180.946 96.5035C180.016 96.4353 178.973 96.4259 177.82 96.4751C176.669 96.4978 175.827 96.4897 175.295 96.4507C174.753 96.919 174.324 97.4759 174.01 98.1213C173.724 98.7421 173.536 99.3032 173.445 99.8046C173.384 100.281 173.315 101.038 173.239 102.076L172.588 110.972L172.407 113.445C172.66 113.999 172.758 114.674 172.699 115.472C172.639 116.296 172.722 116.984 172.949 117.536C173.455 117.573 173.871 117.911 174.199 118.55C174.526 119.189 174.316 119.681 173.569 120.028C172.798 119.971 171.903 119.959 170.885 119.992C169.864 120.051 168.942 120.05 168.117 119.989C167.293 119.929 166.411 119.744 165.471 119.435C164.992 118.303 165.052 117.492 165.649 117.001L167.285 117.121L167.521 113.89L168.891 95.1797L169.011 93.5441L169.069 92.7462L169.244 90.3526L169.306 89.5149C169.079 88.9635 169.015 88.0096 169.114 86.6533C169.213 85.2969 169.137 84.3287 168.885 83.7488C168.354 83.7099 167.829 83.3907 167.311 82.7913C166.818 82.2205 166.858 81.6753 167.431 81.1557L170.702 81.3952C171.048 81.4205 171.624 81.4092 172.429 81.3612C173.263 81.2886 174.013 81.2766 174.678 81.3253C175.343 81.3739 175.906 81.5355 176.367 81.8099C176.793 81.841 177.152 82.0412 177.446 82.4103C177.766 82.7813 177.912 83.1663 177.883 83.5653C177.842 84.1238 177.01 84.3436 175.388 84.2249C175.131 84.4467 174.992 84.7039 174.971 84.9964C174.951 85.2624 174.976 85.6519 175.046 86.165C175.143 86.6535 175.178 87.0972 175.149 87.4961C175.123 87.8419 175.014 88.4221 174.821 89.2368C174.656 90.0269 174.549 90.7544 174.5 91.4193C174.452 92.0841 174.53 92.6647 174.734 93.161C177.947 94.1983 181.191 94.4358 184.468 93.8736C184.785 89.5385 184.724 86.5394 184.284 84.8761C184.04 84.5641 183.519 84.3789 182.721 84.3205C181.923 84.2621 181.401 84.0902 181.154 83.8047L181.274 82.1691C182.926 81.5147 184.555 81.3665 186.159 81.7246C186.313 81.8161 186.764 81.8625 187.513 81.8638L188.633 81.9057C189.145 82.2106 189.475 82.6358 189.622 83.1814C189.796 83.7288 189.761 84.2076 189.517 84.6175C189.3 85.0294 188.925 85.2159 188.393 85.177ZM208.671 89.87C208.427 89.558 208.334 89.0031 208.392 88.2052C208.451 87.4073 208.343 86.8647 208.07 86.5773C207.56 86.2459 207.035 85.9267 206.496 85.6199C203.81 85.4232 201.901 85.5642 200.77 86.0429C200.655 86.1415 200.54 86.2534 200.424 86.3786C200.337 86.4791 200.259 86.6205 200.193 86.8028C200.126 86.9851 200.075 87.1284 200.041 87.2329C200.006 87.3373 199.965 87.5348 199.917 87.8254C199.898 88.0914 199.884 88.2775 199.876 88.3839C199.869 88.4903 199.851 88.7297 199.824 89.102C199.797 89.4743 199.779 89.7137 199.771 89.8201C199.711 90.6445 199.616 91.5734 199.487 92.6068C199.384 93.642 199.316 94.399 199.281 94.8778C199.238 95.4629 199.239 96.1715 199.285 97.0038C199.358 97.838 199.374 98.5343 199.333 99.0928C199.292 99.6513 199.134 100.161 198.86 100.622C199.382 101.169 200.985 101.54 203.672 101.737C203.788 100.141 204.126 99.3635 204.685 99.4044C205.083 99.4336 205.347 99.493 205.474 99.5825C205.603 99.6454 205.865 99.8919 206.262 100.322C205.922 100.939 205.783 101.744 205.844 102.738C205.907 103.705 205.892 104.64 205.799 105.542C205.709 106.418 205.424 106.838 204.945 106.803C203.896 106.165 203.39 105.58 203.429 105.048L203.49 104.21L199.461 103.915C199.167 104.642 198.959 105.483 198.836 106.436C198.741 107.365 198.688 108.457 198.676 109.713C198.666 110.942 198.647 111.757 198.617 112.155C198.551 113.06 198.495 114.379 198.448 116.114C198.401 117.848 198.361 118.942 198.328 119.394C199.911 120.044 202.06 120.469 204.772 120.668C205.24 120.488 205.508 120.12 205.575 119.563C205.669 119.009 205.764 118.441 205.86 117.859C205.954 117.305 206.235 116.938 206.703 116.758C207.075 116.785 207.372 116.927 207.594 117.184C207.843 117.443 207.989 117.815 208.034 118.299C208.079 118.784 208.103 119.187 208.106 119.508C208.107 119.856 208.086 120.322 208.044 120.907C208.007 121.412 207.401 122.197 206.227 123.261L202.118 122.96C196.692 122.563 192.378 121.966 189.174 121.17L189.294 119.534L192.565 119.774C192.909 118.355 193.136 116.901 193.245 115.412C193.354 113.923 193.409 112.255 193.411 110.411C193.439 108.568 193.494 107.088 193.575 105.971L193.695 104.335L194.294 96.1571L194.53 92.9257L195.065 85.6253L191.794 85.3858L191.913 83.7502C193.052 83.5394 194.708 83.3799 196.882 83.2716C199.082 83.1653 200.724 83.0181 201.807 82.8301L209.945 83.4258C210.465 83.9986 210.704 84.5643 210.663 85.1228C210.644 85.3888 210.675 85.8723 210.758 86.5736C210.842 87.2482 210.882 87.7992 210.877 88.2267C210.873 88.6542 210.696 89.0557 210.348 89.4313C210.001 89.7802 209.443 89.9265 208.671 89.87ZM225.565 86.2137C225.607 85.6286 225.921 85.3575 226.507 85.4003C226.879 85.4276 227.157 85.4613 227.341 85.5015C227.528 85.5152 227.695 85.6076 227.842 85.7789C228.019 85.9255 228.097 86.1317 228.078 86.3977C228.326 86.6565 228.435 86.9987 228.404 87.4242C228.375 87.8232 228.275 88.2704 228.105 88.766C227.937 89.235 227.847 89.5493 227.835 89.7088C227.773 89.8379 227.665 90.0306 227.512 90.2868C227.387 90.545 227.278 90.7509 227.186 90.9046C227.095 91.0584 226.973 91.2633 226.821 91.5196C226.697 91.7511 226.576 91.9428 226.458 92.0946C226.368 92.2217 226.25 92.3735 226.103 92.55C225.959 92.6998 225.816 92.823 225.675 92.9197C225.536 92.9897 225.385 93.0455 225.222 93.087C225.058 93.1285 224.884 93.1425 224.697 93.1288C224.54 93.0906 224.372 93.0114 224.193 92.8914C223.972 92.6345 223.876 92.2933 223.907 91.8678C223.939 91.4423 224.032 90.901 224.187 90.2439C224.368 89.5887 224.474 89.0617 224.503 88.6627C224.111 88.1794 223.528 87.7357 222.755 87.3316C221.983 86.9274 221.198 86.6962 220.4 86.6377C219.885 87.4557 219.566 88.7157 219.441 90.4178C219.317 92.12 219.448 93.4264 219.836 94.3371C220.154 95.1091 220.687 95.87 221.434 96.6199C222.208 97.3717 222.975 98.0295 223.736 98.5932C224.499 99.1304 225.303 99.8309 226.149 100.695C226.995 101.559 227.637 102.462 228.076 103.403C228.657 104.595 229.129 105.646 229.49 106.555C230.218 108.292 230.508 110.185 230.358 112.233C230.157 114.972 229.44 117.46 228.207 119.696C227.467 121.032 226.538 122.047 225.417 122.74C224.295 123.46 222.854 123.97 221.094 124.269L217.663 124.018C216.945 123.965 216.109 123.516 215.155 122.671C214.227 121.828 213.457 121.023 212.845 120.256C211.746 117.742 211.639 115.181 212.525 112.572C212.233 112.551 211.93 112.675 211.616 112.947C211.328 113.22 211.051 113.346 210.786 113.327C210.243 112.699 210.013 111.827 210.095 110.71C210.886 110.5 212.009 110.315 213.464 110.154C214.947 109.995 216.14 109.762 217.045 109.454C217.896 109.516 218.468 109.919 218.761 110.662C219.055 111.406 218.957 112.187 218.469 113.007C217.352 112.925 216.48 113.156 215.852 113.698C214.916 114.432 214.564 115.769 214.796 117.712C215.053 119.682 215.777 120.925 216.97 121.44C217.262 121.462 217.565 121.337 217.879 121.066C218.193 120.794 218.497 120.67 218.789 120.691C221.354 119.622 223.185 117.617 224.283 114.676C225.405 111.764 225.67 108.521 225.075 104.948C224.684 104.09 224.254 103.39 223.785 102.848C223.317 102.306 222.687 101.778 221.896 101.266C220.793 100.624 219.712 99.689 218.652 98.4617C218.43 98.2048 218.039 97.8821 217.479 97.4935C216.92 97.1049 216.419 96.6404 215.977 96.1001C215.903 96.0145 215.694 95.7718 215.349 95.3723C215.03 94.9746 214.809 94.7044 214.686 94.5617C214.565 94.3924 214.37 94.1375 214.1 93.7969C213.858 93.4583 213.678 93.1777 213.56 92.9552C213.471 92.7081 213.385 92.4343 213.3 92.134C213.215 91.8337 213.182 91.5505 213.201 91.2846C212.696 89.0551 213.714 86.8434 216.254 84.6497C216.467 84.6653 216.943 84.5531 217.682 84.3131C218.422 84.0731 219.097 83.9755 219.709 84.0203C220.241 84.0593 220.704 84.1332 221.097 84.2422C221.49 84.3512 221.946 84.505 222.467 84.7035C222.987 84.902 223.482 85.072 223.953 85.2134C224.442 85.8374 224.98 86.1709 225.565 86.2137ZM265.876 124.339C266.412 117.025 266.49 111.937 266.111 109.075C265.659 109.042 264.672 108.836 263.149 108.457C261.654 108.054 260.455 107.819 259.551 107.753C258.925 108.268 258.527 109.683 258.357 111.997C257.582 114.186 256.989 118.086 256.578 123.698C256.88 123.961 257.31 124.113 257.869 124.154C258.427 124.194 258.83 124.358 259.076 124.643L258.834 126.31C258.052 126.761 257.195 126.965 256.262 126.924C255.329 126.882 254.523 126.756 253.843 126.546C253.161 126.362 252.343 126.396 251.389 126.647L249.757 124.843C250.82 123.825 251.698 123.341 252.39 123.391C252.656 123.411 252.862 123.332 253.008 123.156C253.182 122.982 253.275 122.801 253.289 122.615C253.329 122.431 253.364 122.139 253.393 121.74C253.824 119.873 254.481 116.74 255.364 112.339C256.277 107.914 256.897 104.925 257.224 103.371C257.392 101.084 258.14 98.8927 259.47 96.7975C260.29 94.3708 261.878 91.6663 264.235 88.6837C264.292 88.6345 264.364 88.5728 264.449 88.4989C264.535 88.4249 264.717 88.3179 264.994 88.1778C265.274 88.0111 265.536 87.8966 265.781 87.8344C266.055 87.7475 266.365 87.7167 266.711 87.742C267.056 87.7673 267.37 87.8704 267.651 88.0514C268.47 88.5393 269.205 89.462 269.854 90.8197C270.504 92.1774 270.795 93.3084 270.729 94.2126C271.272 95.5625 271.587 97.0963 271.676 98.814C271.789 101.282 271.864 105.004 271.901 109.98C271.938 114.956 271.987 118.476 272.05 120.539L271.676 125.646C271.665 125.805 271.779 126.068 272.02 126.433C272.261 126.798 272.37 127.127 272.349 127.42C272.327 127.712 272.042 127.959 271.492 128.159L270.473 127.844C269.914 127.803 269.113 127.784 268.07 127.788C267.027 127.792 266.213 127.772 265.628 127.73C265.522 127.722 265.335 127.722 265.067 127.729C264.797 127.762 264.582 127.773 264.423 127.762C264.288 127.779 264.128 127.767 263.944 127.727C263.758 127.713 263.614 127.662 263.514 127.575C263.44 127.489 263.408 127.38 263.417 127.247C263.453 126.768 263.765 126.149 264.356 125.391C264.944 124.658 265.451 124.308 265.876 124.339ZM263.932 92.8326C262.493 96.4172 261.449 99.1749 260.799 101.106C260.782 101.345 260.598 102.027 260.248 103.151C259.927 104.251 259.754 104.973 259.729 105.319C261.341 105.945 263.53 106.359 266.295 106.562L266.663 101.535C266.856 98.9024 266.531 96.0443 265.687 92.9611C265.691 92.908 265.682 92.8405 265.662 92.7588C265.669 92.6524 265.599 92.5136 265.451 92.3423C265.33 92.173 265.136 92.0786 264.871 92.0591L263.932 92.8326ZM300.899 90.6459C300.881 90.8853 300.796 91.133 300.644 91.3893C300.492 91.6455 300.344 91.8352 300.201 91.9585L299.984 92.1832L298.349 92.0635C298.092 92.2853 297.953 92.5425 297.931 92.8351C297.912 93.101 297.938 93.4772 298.009 93.9638C298.107 94.4522 298.141 94.8959 298.112 95.2948C298.081 95.7204 297.922 97.714 297.634 101.276C297.373 104.84 297.199 107.22 297.111 108.417C297.052 109.589 296.935 111.559 296.759 114.327C296.61 117.097 296.498 119.535 296.424 121.642C296.375 123.777 296.352 125.915 296.356 128.054C296.328 128.801 296.051 129.288 295.526 129.517C295 129.773 294.449 129.813 293.873 129.637C293.296 129.488 292.872 129.256 292.601 128.942C292.352 127.961 291.894 126.177 291.228 123.588C290.562 120.999 289.948 118.614 289.385 116.434C288.852 114.229 288.43 112.313 288.122 110.686C287.945 109.818 287.435 108.19 286.594 105.802L286.169 104.487C286.078 104.267 285.956 103.563 285.802 102.375C285.649 101.187 285.264 100.41 284.649 100.045L284.24 105.63L283.773 112.013L283.303 118.435L283.128 120.829L282.836 124.818C283.329 125.389 284.094 125.713 285.131 125.788C285.112 126.054 285.101 126.375 285.101 126.749C285.127 127.125 285.132 127.42 285.116 127.632C285.125 127.874 285.096 128.099 285.027 128.308C284.983 128.545 284.877 128.711 284.71 128.806C284.542 128.9 284.312 128.937 284.02 128.916C283.353 128.894 282.754 128.863 282.222 128.824C281.956 128.805 281.064 128.753 279.546 128.668C278.026 128.611 277.133 128.572 276.867 128.552C276.708 128.541 276.592 128.479 276.52 128.367C276.448 128.254 276.406 128.091 276.395 127.876C276.411 127.663 276.427 127.437 276.445 127.198C276.46 126.985 276.495 126.694 276.549 126.323C276.601 125.979 276.637 125.675 276.656 125.409C277.507 125.845 277.951 125.798 277.99 125.266C278.265 124.804 278.438 124.256 278.512 123.619C278.61 123.012 278.651 122.266 278.635 121.382C278.646 120.501 278.661 119.94 278.678 119.701C278.741 118.85 278.782 117.556 278.802 115.82C278.849 114.085 278.89 112.979 278.925 112.5C278.964 111.968 279.017 111.049 279.086 109.744C279.182 108.441 279.252 107.484 279.297 106.872C279.339 106.287 279.345 105.485 279.312 104.467C279.28 103.448 279.283 102.673 279.322 102.141C279.342 101.875 279.292 101.457 279.173 100.887C279.081 100.319 279.045 99.9016 279.064 99.6357L279.123 98.8378L279.301 96.4043C279.318 96.165 279.327 95.8714 279.325 95.5238C279.326 95.1495 279.341 94.7629 279.37 94.3639C279.399 93.965 279.316 93.4642 279.119 92.8616C278.924 92.2324 278.836 91.7981 278.853 91.5587C278.082 91.5023 277.495 91.2989 277.093 90.9486C276.691 90.5983 276.506 90.2104 276.537 89.7849C276.566 89.3859 276.724 89.0499 277.012 88.7768C277.299 88.5038 277.642 88.3818 278.041 88.411C278.334 88.4324 278.614 88.4396 278.882 88.4325C279.178 88.4007 279.514 88.3851 279.888 88.3858C280.156 88.3787 280.553 88.4345 281.079 88.5532C281.633 88.6473 282.097 88.7079 282.469 88.7352C282.788 88.7586 283.059 88.8987 283.281 89.1556C283.503 89.4124 283.644 89.6768 283.704 89.9486L283.757 90.3135C284.61 91.8197 285.361 93.4255 286.012 95.1309C286.662 96.8363 287.361 98.9731 288.109 101.541C288.886 104.085 289.438 105.85 289.767 106.836C290.203 108.553 290.878 110.474 291.792 112.6C291.749 113.185 291.915 114.026 292.289 115.123C292.33 115.286 292.431 115.735 292.591 116.468C292.78 117.177 292.968 117.9 293.155 118.635C293.37 119.346 293.586 119.87 293.802 120.207C293.872 120.345 293.923 120.189 293.956 119.737C293.984 119.364 293.994 118.496 293.987 117.132C293.983 115.715 293.996 114.806 294.026 114.407C294.119 113.131 294.332 110.954 294.664 107.877C294.998 104.773 295.227 102.383 295.35 100.708L295.408 99.9097C295.468 99.0852 295.414 97.9984 295.246 96.6492C295.077 95.2999 295.022 94.2264 295.08 93.4285C294.094 92.2868 293.322 91.6955 292.764 91.6546C292.665 91.5404 292.49 91.3805 292.237 91.1749C292.013 90.9446 291.866 90.7734 291.794 90.6611C291.748 90.5509 291.734 90.376 291.752 90.1367C291.798 89.8727 291.928 89.548 292.144 89.1627C292.383 89.1802 292.566 89.2338 292.694 89.3233C292.847 89.4147 293.137 89.4761 293.563 89.5072C293.908 89.5325 294.228 89.5426 294.523 89.5374C294.846 89.5076 295.076 89.4709 295.213 89.4275L295.375 89.3993C296.028 89.6075 296.705 89.6838 297.404 89.628C298.132 89.5476 298.838 89.5726 299.524 89.703C300.236 89.8354 300.695 90.1497 300.899 90.6459ZM300.097 127.606L303.448 127.851C303.74 127.873 304.043 127.761 304.355 127.517C304.667 127.272 304.956 127.16 305.222 127.179L305.908 117.804C306.021 116.262 306.014 114.349 305.887 112.067C305.786 109.787 305.762 108.288 305.815 107.57C306.146 103.049 306.08 99.929 305.618 98.2106L305.869 94.7798C305.55 94.7564 305.145 94.807 304.654 94.9315C304.166 95.0295 303.786 95.1086 303.514 95.1689C303.244 95.2026 303.01 95.1186 302.811 94.9169C302.613 94.6885 302.537 94.2685 302.582 93.6568C302.6 93.4175 302.68 93.2362 302.822 93.1129C302.992 92.9916 303.243 92.8496 303.576 92.6868C303.908 92.524 304.189 92.344 304.417 92.1468L305.319 91.3305C306.477 90.8537 308.2 90.6991 310.487 90.8665C310.859 90.8938 311.286 90.9116 311.766 90.9201C312.276 90.9039 312.756 90.9123 313.208 90.9454C313.66 90.9785 314.189 91.0707 314.792 91.2218C314.821 91.1972 314.862 91.1868 314.915 91.1907C314.97 91.168 315.064 91.1615 315.197 91.1713C315.332 91.1544 315.451 91.1765 315.553 91.2374C315.826 91.5248 316.354 91.9912 317.135 92.6367C317.946 93.2575 318.486 93.7249 318.757 94.0388C319.272 94.3171 319.736 94.7255 320.152 95.2639C320.567 95.8023 320.878 96.2931 321.087 96.7361C321.295 97.1792 321.545 97.7724 321.839 98.5158C323.013 101.463 323.663 104.091 323.788 106.399C323.807 106.507 323.827 106.79 323.847 107.246C323.869 107.675 323.874 107.97 323.862 108.129C323.877 108.291 323.896 108.586 323.918 109.016C323.942 109.418 323.946 109.726 323.93 109.939C323.943 110.127 323.935 110.421 323.906 110.82C323.903 111.22 323.893 111.541 323.876 111.78C323.858 112.019 323.822 112.324 323.769 112.695C323.741 113.067 323.69 113.397 323.616 113.686C323.568 113.977 323.49 114.305 323.383 114.672C323.305 115.014 323.214 115.341 323.111 115.654C323.039 116.638 322.817 117.652 322.447 118.694C322.079 119.71 321.737 120.54 321.422 121.186C321.108 121.831 320.536 122.699 319.708 123.788C318.879 124.877 318.334 125.572 318.071 125.874C317.835 126.177 317.235 126.882 316.272 127.988C316.051 128.079 315.497 128.346 314.609 128.789C313.719 129.258 312.865 129.597 312.048 129.804C311.231 130.012 310.303 130.078 309.266 130.002L307.631 129.882C306.446 130.357 304.444 130.491 301.625 130.285C300.561 129.111 300.052 128.218 300.097 127.606ZM311.936 93.5394C311.736 93.712 311.568 93.9938 311.432 94.385C311.324 94.7781 311.257 95.1342 311.234 95.4533C311.213 95.7459 311.181 96.1714 311.141 96.7299C311.126 97.2904 311.115 97.6238 311.107 97.7302C311.041 98.6344 310.988 99.7268 310.948 101.007C310.934 102.29 310.909 103.184 310.872 103.689C310.831 104.247 310.818 105.155 310.833 106.413C310.848 107.671 310.822 108.752 310.756 109.656L310.137 118.114C310.094 118.699 310.177 119.574 310.386 120.739C310.596 121.877 310.682 122.712 310.643 123.244C310.612 123.67 310.512 124.13 310.342 124.626C310.172 125.122 310.076 125.516 310.055 125.808C310.031 126.127 310.144 126.416 310.392 126.675C310.685 126.697 311.121 126.581 311.701 126.33C312.279 126.105 312.714 126.003 313.007 126.024C313.026 125.758 313.108 125.55 313.253 125.401C313.422 125.279 313.588 125.211 313.749 125.196L313.949 125.211C314.188 125.228 314.379 125.176 314.522 125.052C314.664 124.929 314.742 124.788 314.753 124.628L314.808 124.432C315.396 123.699 315.866 122.758 316.218 121.607C316.567 120.483 316.785 119.523 316.87 118.727C316.983 117.906 317.096 116.738 317.207 115.222C317.232 114.876 317.33 114.269 317.5 113.399C317.698 112.531 317.826 111.685 317.887 110.86C317.949 110.009 317.888 109.203 317.703 108.44L317.89 105.887C317.806 105.213 317.693 104.188 317.553 102.814C317.442 101.416 317.334 100.338 317.229 99.582C317.15 98.8276 316.945 97.9704 316.615 97.0103C316.284 96.0503 315.848 95.243 315.308 94.5885C314.963 94.1889 314.567 93.9326 314.121 93.8197C313.675 93.7069 312.946 93.6134 311.936 93.5394ZM360.087 96.0619C360.13 95.4768 360.444 95.2056 361.029 95.2485C361.402 95.2757 361.68 95.3095 361.864 95.3497C362.05 95.3633 362.217 95.4558 362.365 95.627C362.542 95.7736 362.62 95.9799 362.601 96.2459C362.849 96.5047 362.958 96.8469 362.927 97.2724C362.897 97.6713 362.798 98.1186 362.628 98.6142C362.46 99.0832 362.37 99.3974 362.358 99.557C362.295 99.6861 362.188 99.8787 362.035 100.135C361.909 100.393 361.801 100.599 361.709 100.753C361.618 100.907 361.496 101.112 361.343 101.368C361.219 101.599 361.098 101.791 360.98 101.943C360.891 102.07 360.773 102.222 360.626 102.398C360.482 102.548 360.339 102.671 360.198 102.768C360.059 102.838 359.908 102.894 359.745 102.935C359.581 102.977 359.406 102.991 359.22 102.977C359.063 102.939 358.895 102.86 358.716 102.74C358.494 102.483 358.399 102.141 358.43 101.716C358.461 101.29 358.554 100.749 358.709 100.092C358.891 99.4369 358.997 98.9098 359.026 98.5109C358.633 98.0276 358.051 97.5839 357.278 97.1798C356.506 96.7756 355.721 96.5443 354.923 96.4859C354.408 97.3039 354.089 98.5639 353.964 100.266C353.84 101.968 353.971 103.275 354.359 104.185C354.677 104.957 355.209 105.718 355.957 106.468C356.73 107.22 357.498 107.878 358.259 108.441C359.021 108.979 359.826 109.679 360.672 110.543C361.517 111.407 362.16 112.31 362.599 113.251C363.18 114.443 363.651 115.494 364.013 116.403C364.741 118.141 365.03 120.033 364.88 122.081C364.68 124.821 363.963 127.308 362.73 129.544C361.99 130.88 361.06 131.895 359.94 132.589C358.818 133.309 357.377 133.818 355.617 134.117L352.186 133.866C351.468 133.813 350.632 133.364 349.678 132.519C348.75 131.676 347.98 130.871 347.368 130.104C346.269 127.59 346.162 125.029 347.048 122.42C346.756 122.399 346.452 122.524 346.138 122.795C345.851 123.068 345.574 123.195 345.308 123.175C344.766 122.547 344.536 121.675 344.618 120.558C345.408 120.348 346.532 120.163 347.987 120.002C349.469 119.843 350.663 119.61 351.568 119.302C352.419 119.364 352.991 119.767 353.284 120.51C353.577 121.254 353.48 122.035 352.992 122.855C351.875 122.774 351.003 123.004 350.375 123.546C349.439 124.28 349.087 125.618 349.319 127.56C349.576 129.53 350.3 130.773 351.492 131.288C351.785 131.31 352.088 131.185 352.402 130.914C352.716 130.643 353.02 130.518 353.312 130.539C355.877 129.47 357.708 127.465 358.806 124.524C359.928 121.612 360.192 118.369 359.598 114.796C359.207 113.939 358.776 113.239 358.308 112.696C357.84 112.154 357.21 111.627 356.419 111.114C355.316 110.472 354.235 109.537 353.175 108.31C352.953 108.053 352.562 107.73 352.002 107.342C351.442 106.953 350.942 106.489 350.5 105.948C350.426 105.863 350.217 105.62 349.871 105.22C349.553 104.823 349.332 104.553 349.209 104.41C349.088 104.241 348.892 103.986 348.623 103.645C348.381 103.306 348.201 103.026 348.083 102.803C347.994 102.556 347.907 102.283 347.822 101.982C347.737 101.682 347.705 101.399 347.724 101.133C347.219 98.9032 348.236 96.6916 350.777 94.4979C350.99 94.5135 351.466 94.4013 352.205 94.1613C352.945 93.9213 353.62 93.8237 354.232 93.8685C354.764 93.9074 355.226 93.9814 355.619 94.0904C356.013 94.1994 356.469 94.3531 356.989 94.5516C357.51 94.7502 358.005 94.9201 358.476 95.0616C358.965 95.6856 359.502 96.019 360.087 96.0619ZM380.453 132.727C380.988 125.413 381.066 120.325 380.688 117.463C380.236 117.43 379.248 117.224 377.725 116.845C376.23 116.442 375.031 116.207 374.127 116.141C373.501 116.656 373.103 118.071 372.934 120.385C372.158 122.574 371.565 126.474 371.155 132.086C371.456 132.349 371.886 132.501 372.445 132.541C373.003 132.582 373.406 132.746 373.652 133.031L373.41 134.698C372.628 135.149 371.771 135.353 370.838 135.312C369.905 135.27 369.099 135.144 368.419 134.934C367.738 134.75 366.92 134.784 365.965 135.035L364.333 133.231C365.397 132.213 366.274 131.729 366.966 131.779C367.232 131.799 367.438 131.72 367.585 131.544C367.758 131.369 367.851 131.189 367.865 131.003C367.905 130.819 367.94 130.527 367.969 130.128C368.4 128.261 369.057 125.128 369.941 120.727C370.853 116.302 371.473 113.313 371.8 111.759C371.968 109.472 372.716 107.281 374.046 105.185C374.866 102.759 376.454 100.054 378.811 97.0717C378.869 97.0224 378.94 96.9607 379.026 96.8868C379.111 96.8129 379.293 96.7058 379.57 96.5657C379.85 96.399 380.112 96.2845 380.358 96.2223C380.631 96.1354 380.941 96.1046 381.287 96.1299C381.633 96.1552 381.946 96.2583 382.227 96.4393C383.047 96.9272 383.781 97.8499 384.431 99.2076C385.08 100.565 385.371 101.696 385.305 102.601C385.848 103.95 386.164 105.484 386.252 107.202C386.365 109.67 386.44 113.392 386.477 118.368C386.514 123.344 386.564 126.864 386.626 128.927L386.253 134.034C386.241 134.193 386.355 134.456 386.596 134.821C386.837 135.186 386.946 135.515 386.925 135.807C386.904 136.1 386.618 136.346 386.069 136.547L385.049 136.232C384.49 136.191 383.69 136.172 382.647 136.176C381.604 136.18 380.789 136.16 380.204 136.118C380.098 136.11 379.911 136.109 379.643 136.117C379.373 136.15 379.158 136.161 378.999 136.15C378.864 136.166 378.704 136.155 378.52 136.115C378.334 136.101 378.191 136.05 378.09 135.963C378.016 135.877 377.984 135.768 377.994 135.635C378.029 135.156 378.341 134.537 378.932 133.778C379.52 133.046 380.027 132.695 380.453 132.727ZM378.508 101.221C377.069 104.805 376.025 107.563 375.375 109.494C375.358 109.733 375.174 110.415 374.825 111.539C374.503 112.639 374.33 113.361 374.305 113.707C375.917 114.333 378.106 114.747 380.872 114.95L381.24 109.923C381.432 107.29 381.107 104.432 380.263 101.349C380.267 101.296 380.259 101.228 380.238 101.147C380.246 101.04 380.175 100.901 380.028 100.73C379.906 100.561 379.713 100.467 379.447 100.447L378.508 101.221ZM396.942 131.407C398.446 133.148 399.925 133.577 401.38 132.695C402.108 132.24 402.718 131.576 403.21 130.703C403.702 129.83 404.064 128.72 404.296 127.373C404.555 126.029 404.721 125.038 404.794 124.402C404.87 123.739 404.957 122.729 405.056 121.373L405.947 109.205C406.004 108.434 406.131 107.427 406.329 106.185C406.555 104.918 406.697 103.886 406.756 103.088C406.816 102.264 406.744 101.603 406.54 101.107C406.32 100.823 406.082 100.606 405.826 100.453C405.571 100.274 405.366 100.165 405.208 100.127L405.008 100.112C405.018 99.9795 404.868 99.4739 404.558 98.5956C404.407 98.1032 404.491 97.8687 404.81 97.8921C405.289 97.9271 406.236 97.9563 407.651 97.9798C409.093 98.0051 410.146 98.0554 410.809 98.1307C411.738 98.2254 412.455 98.4651 412.962 98.8498C413.47 99.2079 413.684 99.5712 413.604 99.9396C413.55 100.31 413.394 100.619 413.135 100.868C412.431 101.351 411.955 102.199 411.706 103.41C411.456 104.622 411.268 106.105 411.139 107.861C411.037 109.618 410.857 110.982 410.599 111.952L410.006 120.051L409.942 120.928C409.749 123.561 409.411 125.809 408.927 127.672C408.469 129.537 407.713 131.286 406.657 132.92C404.665 136.037 402.378 137.5 399.799 137.311C399.612 137.298 399.399 137.295 399.157 137.305C398.916 137.314 398.49 137.296 397.878 137.251C395.851 136.809 394.157 135.294 392.796 132.708C392.353 131.82 392.102 130.505 392.042 128.762C391.98 127.047 391.878 125.889 391.735 125.291L393.221 104.985C393.223 104.958 393.307 104.176 393.473 102.637C393.639 101.098 393.673 100.272 393.575 100.158C393.567 99.8899 393.438 99.6531 393.185 99.4475C392.933 99.2418 392.65 99.0875 392.337 98.9843C392.052 98.8565 391.799 98.6642 391.577 98.4073C391.355 98.1504 391.257 97.8491 391.282 97.5033C391.454 97.3555 391.622 97.2475 391.787 97.1794C391.955 97.0847 392.16 97.0195 392.403 96.9838C392.646 96.9481 392.835 96.9352 392.968 96.9449C393.129 96.93 393.396 96.9362 393.768 96.9634C394.143 96.9641 394.424 96.9579 394.612 96.945C395.34 96.8646 396.234 96.8899 397.294 97.021C398.353 97.152 399.105 97.4744 399.549 97.9882C399.993 98.502 399.61 99.343 398.402 100.511L398.048 105.338L397.511 112.679C397.423 113.875 397.316 115.338 397.19 117.067C397.092 118.771 397.024 119.876 396.987 120.381C396.604 125.62 396.589 129.296 396.942 131.407ZM434.031 102.317C434.012 102.583 434.139 102.86 434.412 103.147C434.685 103.435 434.811 103.711 434.792 103.977C434.59 106.743 434.196 108.105 433.611 108.062C433.238 108.035 432.972 107.841 432.811 107.482C432.652 107.096 432.576 106.676 432.582 106.222C432.615 105.77 432.609 105.302 432.565 104.817C432.52 104.332 432.425 103.991 432.279 103.793C429.655 102.746 427.447 102.584 425.656 103.309C425.342 103.58 424.865 104.253 424.225 105.329C423.587 106.379 423.125 107.027 422.839 107.273C422.797 107.859 422.49 108.398 421.919 108.891C421.575 109.935 421.296 111.011 421.081 112.118C420.866 113.225 420.715 114.19 420.628 115.013C420.543 115.809 420.438 117.071 420.311 118.8L419.949 123.746C420.664 130.777 422.301 135.082 424.859 136.659C425.245 136.875 425.636 137.01 426.033 137.066C426.454 137.151 426.897 137.129 427.361 137.003C427.823 136.903 428.219 136.785 428.55 136.649C428.905 136.541 429.359 136.374 429.91 136.147C430.217 135.608 430.421 134.647 430.522 133.264C430.624 131.881 430.828 130.92 431.134 130.381C431.773 130.428 432.294 130.613 432.698 130.936C433.102 131.26 433.397 131.429 433.583 131.442L433.157 137.267C432.903 137.81 432.524 138.25 432.018 138.587C431.512 138.924 430.999 139.168 430.48 139.317C429.988 139.468 429.328 139.54 428.499 139.533C427.697 139.528 427.018 139.491 426.462 139.424C425.903 139.383 425.138 139.247 424.165 139.015C423.218 138.812 422.534 138.655 422.114 138.544C421.721 138.435 421.079 138.254 420.189 138.002C420.005 137.962 419.874 137.925 419.796 137.893C419.5 137.55 419.001 137.059 418.299 136.42C417.622 135.809 417.038 135.204 416.547 134.607C416.056 134.01 415.598 133.321 415.174 132.541C415.088 131.893 414.867 130.527 414.512 128.442C414.156 126.357 413.903 124.52 413.752 122.932C413.601 121.343 413.58 119.804 413.689 118.315C413.909 117.502 414.217 116.214 414.613 114.452C415.038 112.665 415.433 111.103 415.799 109.766C416.191 108.431 416.629 107.193 417.113 106.052C417.372 105.804 417.641 105.422 417.919 104.908C418.199 104.367 418.524 103.95 418.893 103.656C419.95 102.369 421.311 101.306 422.977 100.465C424.671 99.6001 426.476 99.2376 428.391 99.3777C428.807 99.5419 429.353 99.7423 430.031 99.9791C430.736 100.218 431.257 100.403 431.595 100.535C431.959 100.668 432.37 100.899 432.828 101.227C433.287 101.528 433.688 101.891 434.031 102.317ZM454.069 107.835C453.825 107.523 453.732 106.968 453.79 106.17C453.849 105.372 453.741 104.83 453.468 104.542C452.958 104.211 452.433 103.892 451.894 103.585C449.208 103.388 447.299 103.529 446.168 104.008C446.053 104.107 445.938 104.219 445.822 104.344C445.735 104.444 445.657 104.586 445.591 104.768C445.524 104.95 445.473 105.094 445.439 105.198C445.404 105.302 445.363 105.5 445.315 105.791C445.296 106.057 445.282 106.243 445.274 106.349C445.267 106.455 445.249 106.695 445.222 107.067C445.194 107.439 445.177 107.679 445.169 107.785C445.109 108.61 445.014 109.539 444.885 110.572C444.782 111.607 444.714 112.364 444.679 112.843C444.636 113.428 444.637 114.137 444.683 114.969C444.756 115.803 444.772 116.499 444.731 117.058C444.69 117.616 444.532 118.126 444.258 118.588C444.78 119.134 446.383 119.505 449.07 119.702C449.186 118.106 449.524 117.329 450.083 117.37C450.481 117.399 450.744 117.458 450.872 117.548C451.001 117.611 451.263 117.857 451.66 118.287C451.32 118.904 451.181 119.709 451.242 120.703C451.305 121.67 451.29 122.605 451.197 123.507C451.107 124.383 450.822 124.803 450.343 124.768C449.293 124.13 448.788 123.545 448.827 123.013L448.888 122.175L444.859 121.88C444.565 122.607 444.357 123.448 444.233 124.401C444.139 125.33 444.086 126.423 444.074 127.678C444.064 128.908 444.045 129.722 444.015 130.121C443.949 131.025 443.893 132.344 443.846 134.079C443.799 135.813 443.759 136.907 443.726 137.359C445.309 138.009 447.458 138.434 450.17 138.633C450.638 138.453 450.906 138.085 450.973 137.528C451.067 136.974 451.162 136.406 451.258 135.825C451.352 135.27 451.633 134.903 452.101 134.723C452.473 134.75 452.77 134.893 452.992 135.149C453.241 135.408 453.387 135.78 453.432 136.265C453.477 136.749 453.501 137.152 453.504 137.473C453.505 137.821 453.484 138.287 453.442 138.872C453.405 139.377 452.799 140.162 451.625 141.226L447.516 140.925C442.09 140.528 437.776 139.931 434.572 139.135L434.692 137.5L437.963 137.739C438.307 136.32 438.534 134.866 438.643 133.377C438.752 131.888 438.807 130.221 438.809 128.376C438.837 126.533 438.892 125.053 438.973 123.936L439.093 122.3L439.692 114.122L439.928 110.891L440.463 103.59L437.192 103.351L437.311 101.715C438.45 101.505 440.106 101.345 442.28 101.237C444.48 101.13 446.122 100.983 447.205 100.795L455.343 101.391C455.863 101.964 456.102 102.529 456.061 103.088C456.042 103.354 456.073 103.837 456.156 104.539C456.24 105.213 456.28 105.764 456.275 106.192C456.271 106.619 456.094 107.021 455.746 107.396C455.399 107.745 454.841 107.892 454.069 107.835ZM470.963 104.179C471.005 103.594 471.319 103.323 471.904 103.365C472.277 103.393 472.555 103.426 472.739 103.467C472.925 103.48 473.093 103.573 473.24 103.744C473.417 103.891 473.495 104.097 473.476 104.363C473.724 104.622 473.833 104.964 473.802 105.389C473.773 105.788 473.673 106.236 473.503 106.731C473.335 107.2 473.245 107.514 473.233 107.674C473.171 107.803 473.063 107.996 472.91 108.252C472.785 108.51 472.676 108.716 472.584 108.87C472.493 109.024 472.371 109.228 472.219 109.485C472.095 109.716 471.974 109.908 471.856 110.06C471.766 110.187 471.648 110.339 471.501 110.515C471.357 110.665 471.214 110.788 471.073 110.885C470.934 110.955 470.783 111.011 470.62 111.052C470.456 111.094 470.282 111.108 470.095 111.094C469.938 111.056 469.77 110.977 469.591 110.857C469.37 110.6 469.274 110.258 469.305 109.833C469.336 109.407 469.43 108.866 469.585 108.209C469.766 107.554 469.872 107.027 469.901 106.628C469.509 106.145 468.926 105.701 468.153 105.297C467.381 104.893 466.596 104.661 465.798 104.603C465.283 105.421 464.964 106.681 464.839 108.383C464.715 110.085 464.846 111.392 465.234 112.302C465.552 113.074 466.085 113.835 466.832 114.585C467.606 115.337 468.373 115.995 469.134 116.558C469.897 117.095 470.701 117.796 471.547 118.66C472.393 119.524 473.035 120.427 473.474 121.368C474.055 122.56 474.527 123.611 474.888 124.52C475.616 126.258 475.906 128.15 475.756 130.198C475.555 132.938 474.838 135.425 473.605 137.661C472.865 138.997 471.936 140.012 470.815 140.706C469.693 141.426 468.252 141.935 466.492 142.234L463.061 141.983C462.343 141.93 461.507 141.481 460.553 140.636C459.625 139.793 458.855 138.988 458.243 138.221C457.144 135.707 457.037 133.146 457.923 130.537C457.631 130.516 457.327 130.641 457.014 130.912C456.726 131.185 456.449 131.312 456.184 131.292C455.641 130.664 455.411 129.792 455.493 128.675C456.284 128.465 457.407 128.28 458.862 128.119C460.345 127.96 461.538 127.727 462.443 127.419C463.294 127.481 463.866 127.884 464.159 128.627C464.453 129.371 464.355 130.152 463.867 130.972C462.75 130.891 461.878 131.121 461.25 131.663C460.314 132.397 459.962 133.735 460.194 135.677C460.451 137.647 461.175 138.89 462.368 139.405C462.66 139.427 462.963 139.302 463.277 139.031C463.591 138.76 463.895 138.635 464.187 138.656C466.752 137.587 468.583 135.582 469.681 132.641C470.803 129.729 471.067 126.486 470.473 122.913C470.082 122.056 469.652 121.356 469.183 120.813C468.715 120.271 468.085 119.744 467.294 119.231C466.191 118.589 465.11 117.654 464.05 116.427C463.828 116.17 463.437 115.847 462.877 115.459C462.318 115.07 461.817 114.606 461.375 114.065C461.301 113.98 461.092 113.737 460.747 113.337C460.428 112.94 460.207 112.67 460.084 112.527C459.963 112.358 459.767 112.103 459.498 111.762C459.256 111.423 459.076 111.143 458.958 110.92C458.869 110.673 458.783 110.399 458.698 110.099C458.613 109.799 458.58 109.516 458.599 109.25C458.094 107.02 459.112 104.809 461.652 102.615C461.865 102.63 462.341 102.518 463.08 102.278C463.82 102.038 464.495 101.941 465.107 101.985C465.639 102.024 466.102 102.098 466.495 102.207C466.888 102.316 467.344 102.47 467.865 102.669C468.385 102.867 468.88 103.037 469.351 103.179C469.84 103.803 470.377 104.136 470.963 104.179Z" fill="black"/>
</svg>
