<svg width="131" height="63" viewBox="0 0 131 63" fill="none" xmlns="http://www.w3.org/2000/svg">
<path d="M4.5 16C6.38201 9.46937 5.96749 6.18079 4.5 0.5L130 7.5C127.007 10.6023 125.903 13.5973 128 21.5C131.52 25.7121 130.555 31.7325 126 46C125.748 53.6187 126.271 57.1379 128 62.5L0 56.5C1.49097 48.0901 1.85472 43.6356 1 36.5C-0.393355 27.9487 -0.22609 23.3417 4.5 16Z" fill="#DFD9CE"/>
<path d="M28.7402 19.9239C28.2394 19.1661 27.0997 18.7383 25.3211 18.6405C23.553 18.5433 22.2983 19.069 21.557 20.2175C21.3059 20.6106 21.164 21.1035 21.1314 21.6964C21.0714 22.7885 21.5053 23.8138 22.4332 24.7725C23.0449 25.4112 23.9002 26.0789 24.999 26.7757C26.1082 27.4731 27.0391 28.0929 27.7918 28.635C30.6323 30.669 31.9914 32.7989 31.869 35.0247C31.7603 37.0009 30.9485 38.4846 29.4334 39.4759C27.9288 40.4677 26.022 40.9001 23.7129 40.7731C21.4143 40.6467 19.593 40.0928 18.2491 39.1113C16.9161 38.1199 16.2819 37.0366 16.3465 35.8613C16.4117 34.6756 16.929 33.9007 17.8984 33.5367C18.197 33.4175 18.518 33.3674 18.8612 33.3862C19.5165 33.4223 20.0401 33.6701 20.4321 34.1299C20.8345 34.5901 21.0174 35.1531 20.9808 35.8188C20.9442 36.4844 20.6114 37.0347 19.9824 37.4696C20.7491 38.3255 22.0685 38.8049 23.9407 38.9078C25.8233 39.0113 27.1479 38.4478 27.9145 37.2172C28.1882 36.7941 28.341 36.2913 28.373 35.7088C28.4285 34.6999 27.9599 33.7353 26.9673 32.8148C26.451 32.3378 25.5675 31.7102 24.3167 30.9321C23.0768 30.144 22.1008 29.4905 21.3886 28.9715C18.7701 27.0748 17.526 24.9408 17.6564 22.5694C17.7582 20.718 18.5374 19.2586 19.994 18.1911C21.4611 17.1242 23.2243 16.6474 25.2837 16.7606C27.3535 16.8745 29.0245 17.4097 30.2968 18.3664C31.5795 19.3237 32.186 20.4368 32.1162 21.7057C32.0785 22.3922 31.8335 22.9577 31.3813 23.4023C30.9401 23.8371 30.3971 24.0367 29.7523 24.0013C28.7642 23.9469 28.1014 23.4776 27.7641 22.5931C27.664 22.3268 27.6219 22.048 27.6379 21.7568C27.682 20.9559 28.0494 20.345 28.7402 19.9239ZM45.8518 39.7057C49.981 39.9328 52.1866 37.4825 52.4685 32.3548L53.0364 22.0267C53.0736 21.3506 52.9823 20.9231 52.7627 20.7441C52.3626 20.43 51.6114 20.2426 50.5089 20.182L50.6032 18.4658L58.5288 18.9016L58.4344 20.6178C57.4463 20.5634 56.796 20.6268 56.4835 20.8078C56.1716 20.9785 55.968 21.1707 55.8728 21.3845C55.7776 21.5984 55.7214 21.8613 55.7043 22.1734L55.1614 32.3307C54.8806 37.4376 52.8958 40.5208 49.2071 41.5803C48.0308 41.912 46.9071 42.0485 45.8358 41.9896C44.7645 41.9307 43.8691 41.8032 43.1496 41.6071C42.4399 41.4221 41.7614 41.1448 41.1141 40.7754C39.698 39.9672 38.5989 38.801 37.8168 37.2766C37.0347 35.7522 36.7081 33.8199 36.8367 31.4796L37.4038 21.1671C37.4404 20.5014 37.3491 20.0739 37.13 19.8845C36.7612 19.5721 36.0619 19.3876 35.0323 19.331L35.1266 17.6148L43.8634 18.0952L43.7691 19.8114C42.7186 19.7536 42.0267 19.8147 41.6934 19.9946C41.371 20.1646 41.1571 20.3563 41.0515 20.5696C40.9562 20.7834 40.9001 21.0464 40.8829 21.3584L40.2978 31.9986C40.16 34.5052 40.6248 36.3929 41.6921 37.6618C42.7595 38.9306 44.1461 39.612 45.8518 39.7057ZM72.2994 22.3191C71.7986 21.5613 70.6589 21.1335 68.8803 21.0357C67.1122 20.9384 65.8575 21.4641 65.1162 22.6126C64.8651 23.0057 64.7232 23.4986 64.6906 24.0915C64.6306 25.1836 65.0645 26.209 65.9924 27.1676C66.6041 27.8063 67.4594 28.4741 68.5582 29.1709C69.6674 29.8682 70.5983 30.488 71.351 31.0301C74.1915 33.0642 75.5506 35.1941 75.4282 37.4199C75.3195 39.3961 74.5077 40.8798 72.9926 41.871C71.488 42.8628 69.5812 43.2952 67.2721 43.1683C64.9735 43.0419 63.1522 42.4879 61.8083 41.5064C60.4753 40.515 59.8411 39.4317 59.9057 38.2564C59.9709 37.0707 60.4882 36.2959 61.4576 35.9319C61.7562 35.8127 62.0772 35.7625 62.4204 35.7814C63.0757 35.8174 63.5993 36.0653 63.9913 36.525C64.3937 36.9853 64.5766 37.5482 64.54 38.2139C64.5034 38.8796 64.1706 39.4298 63.5416 39.8647C64.3083 40.7206 65.6277 41.2 67.4999 41.303C69.3825 41.4065 70.7071 40.8429 71.4737 39.6123C71.7474 39.1892 71.9002 38.6864 71.9322 38.104C71.9877 37.0951 71.5191 36.1304 70.5265 35.2099C70.0102 34.7329 69.1267 34.1054 67.8759 33.3272C66.636 32.5392 65.66 31.8856 64.9478 31.3666C62.3293 29.47 61.0852 27.3359 61.2156 24.9645C61.3174 23.1132 62.0966 21.6537 63.5532 20.5863C65.0203 19.5194 66.7835 19.0425 68.8429 19.1558C70.9127 19.2696 72.5837 19.8048 73.856 20.7616C75.1387 21.7188 75.7452 22.8319 75.6754 24.1009C75.6377 24.7873 75.3927 25.3529 74.9405 25.7975C74.4993 26.2322 73.9563 26.4319 73.3115 26.3964C72.3234 26.3421 71.6606 25.8727 71.3233 24.9883C71.2232 24.7219 71.1811 24.4432 71.1971 24.1519C71.2412 23.3511 71.6086 22.7401 72.2994 22.3191ZM77.8054 41.7131C78.7935 41.7675 79.4435 41.7093 79.7554 41.5387C80.0679 41.3576 80.2718 41.1602 80.367 40.9464C80.4622 40.7325 80.5184 40.4696 80.5356 40.1575L81.431 23.588C81.4682 22.9119 81.3769 22.4844 81.1573 22.3054C80.7572 21.9913 80.006 21.8039 78.9035 21.7433L78.9978 20.0271L87.7659 20.5092L87.6715 22.2254C86.6834 22.1711 86.0331 22.2344 85.7206 22.4155C85.4087 22.5861 85.2051 22.7783 85.1099 22.9922C85.0147 23.206 84.9585 23.469 84.9413 23.781L84.5579 30.7548L96.1809 31.3939L96.5644 24.4201C96.6016 23.744 96.5103 23.3165 96.2907 23.1375C95.8906 22.8234 95.1394 22.636 94.0369 22.5754L94.1312 20.8593L102.899 21.3414L102.805 23.0575C101.817 23.0032 101.166 23.0665 100.854 23.2476C100.542 23.4182 100.339 23.6104 100.243 23.8243C100.148 24.0381 100.092 24.3011 100.075 24.6131L99.1793 41.1827C99.1421 41.8587 99.2334 42.2863 99.453 42.4653C99.8531 42.7794 100.604 42.9667 101.707 43.0274L101.612 44.7435L92.8445 44.2614L92.9388 42.5452C93.9269 42.5996 94.5769 42.5414 94.8888 42.3708C95.2013 42.1898 95.4052 41.9923 95.5004 41.7785C95.5956 41.5646 95.6518 41.3017 95.669 40.9897L96.0694 33.4221L84.4464 32.783L84.0459 40.3506C84.0087 41.0266 84.1 41.4542 84.3196 41.6331C84.7197 41.9473 85.4709 42.1346 86.5734 42.1952L86.4791 43.9114L77.7111 43.4293L77.8054 41.7131ZM104.094 43.1586C105.082 43.2129 105.732 43.1548 106.044 42.9842C106.356 42.8031 106.56 42.6057 106.655 42.3918C106.751 42.178 106.807 41.9151 106.824 41.603L107.719 25.0335C107.757 24.3574 107.66 23.9296 107.43 23.75C107.04 23.4365 106.294 23.2494 105.192 23.1888L105.286 21.4726L114.054 21.9547L113.96 23.6709C112.972 23.6166 112.322 23.6799 112.009 23.8609C111.697 24.0316 111.494 24.2238 111.398 24.4377C111.303 24.6515 111.247 24.9144 111.23 25.2265L110.334 41.796C110.297 42.4721 110.394 42.8999 110.624 43.0795C111.013 43.393 111.759 43.5801 112.862 43.6407L112.767 45.3569L103.999 44.8748L104.094 43.1586Z" fill="#1B1B1B"/>
</svg>
