<svg width="165" height="78" viewBox="0 0 165 78" fill="none" xmlns="http://www.w3.org/2000/svg">
<path d="M5.70586 19.5C8.0922 11.284 7.5666 7.1468 5.70586 0L164.836 8.80645C161.042 12.7093 159.641 16.4773 162.3 26.4194C166.763 31.7185 165.54 39.2925 159.764 57.2419C159.444 66.8268 160.108 71.2542 162.3 78L0 70.4516C1.8905 59.8715 2.35172 54.2673 1.26797 45.2903C-0.498763 34.5322 -0.286676 28.7363 5.70586 19.5Z" fill="#DFD9CE"/>
<path d="M46.9554 20.387C46.9876 19.8012 47.2966 19.5244 47.8824 19.5566C48.2551 19.5771 48.534 19.6058 48.7189 19.6427C48.9053 19.6529 49.074 19.7423 49.2249 19.9109C49.404 20.0542 49.4862 20.2591 49.4716 20.5253C49.7247 20.7796 49.8395 21.1198 49.8161 21.5458C49.7941 21.9452 49.7027 22.3942 49.5417 22.8928C49.3822 23.3647 49.2981 23.6806 49.2893 23.8403C49.2287 23.9705 49.1246 24.1651 48.9768 24.424C48.8556 24.6845 48.7507 24.8923 48.6621 25.0477C48.5734 25.2031 48.4552 25.4102 48.3074 25.6692C48.1877 25.903 48.0702 26.0968 47.955 26.2507C47.8678 26.3794 47.7525 26.5333 47.6091 26.7124C47.4672 26.8648 47.3267 26.9907 47.1877 27.0898C47.0502 27.1624 46.9001 27.2209 46.7374 27.2654C46.5747 27.3099 46.4002 27.327 46.2138 27.3167C46.0555 27.2813 45.8861 27.2052 45.7056 27.0885C45.4791 26.8357 45.3776 26.4962 45.401 26.0702C45.4244 25.6442 45.5077 25.1013 45.6508 24.4415C45.8205 23.7831 45.9164 23.2543 45.9384 22.8549C45.5372 22.3788 44.9468 21.9457 44.167 21.5557C43.3873 21.1656 42.598 20.9486 41.7992 20.9047C41.2997 21.7318 41.0031 22.9975 40.9094 24.7015C40.8157 26.4056 40.971 27.7095 41.3753 28.613C41.7071 29.3791 42.2534 30.1302 43.0141 30.8664C43.8014 31.6041 44.5806 32.2478 45.3516 32.7976C46.124 33.3208 46.9409 34.0067 47.8023 34.8553C48.6637 35.7039 49.3224 36.5947 49.7786 37.5278C50.3813 38.7094 50.8715 39.7512 51.2492 40.6533C52.009 42.3776 52.3325 44.2649 52.2198 46.3151C52.069 49.0576 51.3974 51.5579 50.2049 53.8158C49.4898 55.1652 48.5784 56.1968 47.4709 56.9104C46.3619 57.6506 44.9304 58.1861 43.1762 58.517L39.7414 58.3281C39.0225 58.2886 38.1784 57.8549 37.209 57.0271C36.2663 56.2008 35.4819 55.4099 34.8558 54.6544C33.7109 52.1611 33.5578 49.6021 34.3965 46.9776C34.1037 46.9615 33.8027 47.0918 33.4937 47.3686C33.2113 47.6468 32.937 47.7786 32.6708 47.764C32.1172 47.146 31.8711 46.2779 31.9326 45.1596C32.7194 44.9357 33.8391 44.7302 35.2916 44.543C36.7706 44.3573 37.9598 44.1022 38.859 43.7777C39.711 43.8246 40.2903 44.217 40.5969 44.9549C40.9036 45.6929 40.8204 46.4762 40.3476 47.3048C39.2292 47.2433 38.3611 47.4893 37.7431 48.0429C36.8205 48.7934 36.4929 50.1374 36.7602 52.075C37.0528 54.0407 37.7997 55.2703 39.0011 55.7636C39.294 55.7797 39.5949 55.6494 39.9039 55.3726C40.2129 55.0958 40.5139 54.9655 40.8068 54.9816C43.3518 53.8663 45.1464 51.8284 46.1905 48.8679C47.2598 45.9356 47.4651 42.6886 46.8063 39.1271C46.399 38.2767 45.9563 37.5847 45.4783 37.051C45.0002 36.5173 44.3609 36.0014 43.5603 35.5034C42.4461 34.8813 41.3481 33.9663 40.2661 32.7584C40.0396 32.5056 39.643 32.19 39.0763 31.8116C38.5095 31.4333 38.0004 30.978 37.5489 30.4457C37.4735 30.3614 37.2596 30.1227 36.9073 29.7294C36.5817 29.3376 36.3559 29.0715 36.2301 28.931C36.1058 28.7639 35.9059 28.5126 35.6306 28.177C35.3819 27.8428 35.1969 27.5656 35.0754 27.3452C34.9821 27.0997 34.8902 26.8276 34.7998 26.5289C34.7094 26.2301 34.6716 25.9476 34.6862 25.6814C34.1406 23.4614 35.1178 21.2317 37.6179 18.9922C37.8309 19.0039 38.3049 18.8831 39.0399 18.6297C39.7749 18.3764 40.4487 18.2665 41.0611 18.3002C41.5936 18.3295 42.0574 18.3951 42.4524 18.4969C42.8474 18.5987 43.3067 18.7442 43.8305 18.9332C44.3542 19.1223 44.8528 19.2832 45.3262 19.4161C45.8266 20.0311 46.3696 20.3548 46.9554 20.387ZM60.6921 53.7515C62.227 55.465 63.7138 55.8672 65.1526 54.9582C65.8727 54.4904 66.4706 53.8155 66.9464 52.9336C67.4222 52.0518 67.764 50.9355 67.9718 49.5849C68.2063 48.2357 68.3544 47.2424 68.4161 46.6048C68.4794 45.9406 68.5483 44.9295 68.623 43.5716L69.2928 31.39C69.3353 30.6178 69.4441 29.6089 69.6195 28.3633C69.8229 27.0926 69.9465 26.0578 69.9905 25.259C70.0358 24.4336 69.9519 23.7747 69.7386 23.2822C69.5136 23.0028 69.2716 22.7892 69.0127 22.6414C68.7552 22.467 68.5473 22.3621 68.389 22.3267L68.1893 22.3157C68.1967 22.1826 68.0374 21.6797 67.7114 20.8072C67.5514 20.3177 67.6311 20.0817 67.9507 20.0992C68.4299 20.1256 69.3774 20.1376 70.793 20.1354C72.2352 20.1345 73.2884 20.1657 73.9526 20.229C74.8831 20.3068 75.605 20.5335 76.1185 20.9089C76.6335 21.2577 76.8541 21.617 76.7803 21.9869C76.7332 22.3582 76.5825 22.6704 76.3282 22.9235C75.6333 23.4194 75.1723 24.2754 74.9452 25.4914C74.7181 26.7074 74.5562 28.1941 74.4596 29.9515C74.3896 31.7103 74.2343 33.0771 73.9937 34.0521L73.5479 42.1598L73.4996 43.0385C73.3547 45.6745 73.0571 47.9282 72.607 49.7997C72.1836 51.6726 71.459 53.4355 70.4334 55.0883C68.4974 58.2401 66.2381 59.745 63.6553 59.603C63.4689 59.5928 63.2552 59.5944 63.0141 59.6078C62.773 59.6213 62.3462 59.6111 61.7338 59.5775C59.6997 59.1718 57.9785 57.6884 56.5704 55.1273C56.1113 54.2474 55.8362 52.937 55.7449 51.196C55.6523 49.4817 55.5288 48.3265 55.3747 47.7305L56.4925 27.4012C56.4939 27.3745 56.5638 26.5905 56.7019 25.0491C56.8401 23.5077 56.8589 22.6808 56.7582 22.5685C56.7462 22.3007 56.6122 22.0664 56.3562 21.8653C56.1002 21.6643 55.8146 21.5151 55.4995 21.4176C55.2125 21.295 54.9557 21.1073 54.7293 20.8545C54.5028 20.6017 54.3991 20.3022 54.4181 19.9561C54.5867 19.8051 54.753 19.694 54.9172 19.623C55.0828 19.5252 55.2869 19.4563 55.5294 19.4163C55.772 19.3762 55.9598 19.3598 56.093 19.3671C56.2542 19.3493 56.5212 19.3506 56.894 19.3711C57.2682 19.365 57.5492 19.3537 57.7371 19.3373C58.4633 19.2437 59.3575 19.2528 60.4196 19.3647C61.4818 19.4765 62.2393 19.7852 62.6922 20.2908C63.1451 20.7965 62.778 21.6442 61.5909 22.8342L61.3252 27.6669L60.9211 35.0158C60.8552 36.214 60.7747 37.6784 60.6795 39.4092C60.6124 41.1147 60.565 42.2205 60.5372 42.7264C60.2488 47.9718 60.3004 51.6468 60.6921 53.7515ZM91.3025 22.8254C91.3347 22.2397 91.6437 21.9629 92.2294 21.9951C92.6022 22.0156 92.8811 22.0443 93.066 22.0811C93.2524 22.0914 93.421 22.1808 93.572 22.3493C93.7511 22.4927 93.8333 22.6975 93.8187 22.9638C94.0717 23.2181 94.1866 23.5582 94.1631 23.9842C94.1412 24.3836 94.0497 24.8326 93.8888 25.3312C93.7293 25.8032 93.6452 26.119 93.6364 26.2788C93.5758 26.409 93.4716 26.6036 93.3239 26.8625C93.2027 27.1229 93.0978 27.3308 93.0091 27.4862C92.9205 27.6415 92.8023 27.8487 92.6545 28.1076C92.5348 28.3414 92.4173 28.5353 92.302 28.6892C92.2148 28.8179 92.0995 28.9718 91.9562 29.1509C91.8142 29.3033 91.6738 29.4291 91.5348 29.5283C91.3973 29.6009 91.2472 29.6594 91.0845 29.7038C90.9218 29.7483 90.7473 29.7654 90.5609 29.7552C90.4026 29.7198 90.2332 29.6437 90.0526 29.5269C89.8262 29.2741 89.7247 28.9347 89.7481 28.5087C89.7715 28.0826 89.8548 27.5397 89.9979 26.8799C90.1676 26.2216 90.2635 25.6927 90.2854 25.2933C89.8843 24.8172 89.2938 24.3842 88.5141 23.9941C87.7343 23.604 86.945 23.3871 86.1463 23.3431C85.6468 24.1703 85.3502 25.4359 85.2565 27.14C85.1628 28.8441 85.3181 30.1479 85.7224 31.0515C86.0542 31.8175 86.6004 32.5686 87.3612 33.3049C88.1485 34.0425 88.9277 34.6863 89.6987 35.2361C90.4711 35.7593 91.288 36.4452 92.1494 37.2938C93.0108 38.1423 93.6695 39.0332 94.1256 39.9663C94.7283 41.1478 95.2185 42.1896 95.5963 43.0917C96.3561 44.8161 96.6796 46.7033 96.5669 48.7536C96.4161 51.4961 95.7445 53.9963 94.552 56.2543C93.8369 57.6037 92.9255 58.6352 91.818 59.3488C90.709 60.0891 89.2775 60.6246 87.5233 60.9555L84.0885 60.7666C83.3696 60.7271 82.5255 60.2934 81.5561 59.4656C80.6134 58.6393 79.829 57.8483 79.2028 57.0928C78.058 54.5995 77.9049 52.0406 78.7436 49.416C78.4507 49.3999 78.1498 49.5303 77.8408 49.8071C77.5584 50.0853 77.2841 50.2171 77.0178 50.2025C76.4643 49.5845 76.2182 48.7163 76.2797 47.598C77.0665 47.3742 78.1862 47.1687 79.6386 46.9815C81.1177 46.7958 82.3069 46.5407 83.206 46.2162C84.0581 46.2631 84.6374 46.6555 84.944 47.3934C85.2506 48.1313 85.1675 48.9146 84.6946 49.7432C83.5763 49.6818 82.7082 49.9278 82.0902 50.4814C81.1676 51.2318 80.84 52.5759 81.1073 54.5135C81.3998 56.4792 82.1468 57.7087 83.3482 58.2021C83.6411 58.2182 83.942 58.0878 84.251 57.8111C84.56 57.5343 84.8609 57.4039 85.1538 57.42C87.6989 56.3048 89.4935 54.2669 90.5376 51.3064C91.6069 48.374 91.8121 45.1271 91.1533 41.5655C90.7461 40.7152 90.3034 40.0232 89.8253 39.4895C89.3472 38.9558 88.7079 38.4399 87.9074 37.9418C86.7932 37.3197 85.6951 36.4047 84.6131 35.1968C84.3867 34.944 83.9901 34.6284 83.4233 34.2501C82.8566 33.8717 82.3475 33.4164 81.896 32.8842C81.8205 32.7999 81.6066 32.5611 81.2544 32.1679C80.9287 31.7761 80.703 31.5099 80.5772 31.3695C80.4528 31.2024 80.253 30.951 79.9777 30.6154C79.729 30.2813 79.5439 30.004 79.4225 29.7837C79.3292 29.5382 79.2373 29.2661 79.1469 28.9673C79.0565 28.6686 79.0186 28.3861 79.0333 28.1198C78.4877 25.8998 79.4649 23.6701 81.9649 21.4307C82.178 21.4424 82.652 21.3216 83.387 21.0682C84.122 20.8148 84.7957 20.705 85.4081 20.7387C85.9407 20.768 86.4044 20.8335 86.7994 20.9354C87.1944 21.0372 87.6538 21.1826 88.1776 21.3717C88.7013 21.5607 89.1999 21.7217 89.6733 21.8545C90.1736 22.4696 90.7167 22.7932 91.3025 22.8254ZM120.034 26.0878C119.415 27.1488 119.016 29.3168 118.836 32.5918L118.436 39.8608L118.078 46.371C118.003 47.729 118.017 49.9063 118.119 52.9031C118.247 55.928 118.274 58.1061 118.201 59.4375C118.377 59.6341 118.606 59.8336 118.889 60.0361C119.198 60.2401 119.416 60.4123 119.542 60.5527C119.692 60.7213 119.761 60.9254 119.748 61.165L119.658 62.8025C119.634 62.7478 119.611 62.6931 119.587 62.6384C119.563 62.5837 119.474 62.512 119.318 62.4233C119.19 62.3361 119.04 62.3946 118.868 62.5989C118.624 62.6656 118.395 62.7064 118.18 62.7213C117.991 62.7643 117.857 62.7836 117.777 62.7792L117.619 62.7305C117.406 62.7188 117.021 62.6842 116.463 62.6269C115.93 62.5976 115.358 62.5661 114.746 62.5324C114.453 62.5163 114.12 62.498 113.747 62.4775C113.373 62.4837 113.066 62.4801 112.826 62.467C112.726 62.3546 112.638 62.2563 112.562 62.172C112.487 62.0877 112.438 61.9916 112.418 61.8836C112.422 61.8038 112.412 61.7365 112.389 61.6817C112.39 61.6551 112.421 61.59 112.48 61.4864C112.564 61.4109 112.621 61.3473 112.65 61.2955C112.678 61.2704 112.763 61.1949 112.903 61.0691C113.07 60.9447 113.182 60.8574 113.238 60.8071C113.254 60.5142 113.536 60.2492 114.083 60.0122C114.63 59.7753 114.911 59.5236 114.926 59.2574C115.271 57.3534 115.507 55.2432 115.634 52.9267C115.76 50.6369 115.833 48.0904 115.854 45.2873C115.901 42.4856 115.964 40.3659 116.044 38.9281C116.057 38.6884 116 38.4984 115.875 38.3579C115.75 38.1909 115.609 38.0896 115.451 38.0542L115.251 38.0432C114.545 37.7641 113.726 37.5989 112.794 37.5476C111.862 37.4964 110.82 37.5058 109.668 37.576C108.517 37.6196 107.676 37.6267 107.143 37.5974C106.609 38.0755 106.191 38.6401 105.888 39.2911C105.613 39.9169 105.436 40.4813 105.354 40.9843C105.302 41.4621 105.246 42.2203 105.189 43.2587L104.7 52.1652L104.563 54.6415C104.827 55.1901 104.937 55.8638 104.893 56.6626C104.848 57.4881 104.943 58.1743 105.18 58.7215C105.686 58.7493 106.109 59.0797 106.448 59.7126C106.787 60.3455 106.586 60.8419 105.845 61.2018C105.073 61.1593 104.178 61.1635 103.16 61.2144C102.141 61.2919 101.219 61.3079 100.394 61.2625C99.5683 61.2172 98.6829 61.0483 97.7375 60.756C97.2384 59.6335 97.283 58.8214 97.8714 58.3196L99.509 58.4097L99.6869 55.1746L100.717 36.4429L100.807 34.8053L100.851 34.0065L100.983 31.6102L101.029 30.7714C100.792 30.2242 100.711 29.2717 100.785 27.9137C100.86 26.5558 100.766 25.5892 100.504 25.0139C99.9715 24.9846 99.441 24.6751 98.9126 24.0852C98.4093 23.5233 98.4394 22.9775 99.0026 22.4476L102.278 22.6277C102.624 22.6467 103.199 22.625 104.004 22.5624C104.837 22.4746 105.586 22.4491 106.251 22.4857C106.917 22.5223 107.483 22.6736 107.949 22.9396C108.375 22.963 108.738 23.1566 109.039 23.5203C109.366 23.8854 109.519 24.2677 109.497 24.6671C109.466 25.2263 108.638 25.4612 107.014 25.3719C106.761 25.5984 106.627 25.858 106.611 26.1509C106.596 26.4172 106.628 26.8062 106.707 27.318C106.814 27.8046 106.856 28.2476 106.834 28.6469C106.815 28.9931 106.716 29.5752 106.538 30.3933C106.387 31.1862 106.294 31.9155 106.257 32.5812C106.221 33.2469 106.309 33.8259 106.522 34.3184C109.753 35.2973 113.002 35.4759 116.268 34.8542C116.506 30.5141 116.391 27.5166 115.921 25.8616C115.671 25.5541 115.146 25.3784 114.347 25.3344C113.548 25.2905 113.023 25.1281 112.772 24.8472L112.862 23.2097C114.502 22.5254 116.127 22.3477 117.738 22.6766C117.894 22.7653 118.346 22.8035 119.094 22.7912L120.215 22.8128C120.732 23.1083 121.07 23.5275 121.227 24.0703C121.411 24.6145 121.384 25.0938 121.148 25.5081C120.938 25.9239 120.567 26.1171 120.034 26.0878ZM131.042 26.3726C130.719 27.3964 130.554 28.2019 130.549 28.7892C130.543 29.3764 130.564 30.2055 130.612 31.2764C130.687 32.3488 130.695 33.1771 130.636 33.7614C130.49 35.436 130.238 38.0795 129.879 41.6919C129.52 45.3043 129.206 48.5853 128.937 51.535C128.695 54.4861 128.5 57.3064 128.352 59.9956C128.629 60.3046 129.026 60.6069 129.544 60.9024C130.088 61.1994 130.474 61.4744 130.7 61.7272C130.687 61.9668 130.61 62.1495 130.47 62.2754C130.328 62.4278 130.106 62.5891 129.802 62.7594C129.499 62.9297 129.235 63.1155 129.011 63.3168C128.466 63.0198 127.302 62.8222 125.518 62.7241C123.761 62.6275 122.477 62.4101 121.668 62.0718C121.139 61.4819 121.169 60.9494 121.756 60.4742C121.772 60.1813 121.98 60.0458 122.379 60.0678C122.805 60.0912 123.145 59.9764 123.399 59.7233C123.652 59.4968 123.79 59.1839 123.812 58.7845C123.834 58.3851 123.792 57.9288 123.687 57.4156C123.606 56.9305 123.571 56.608 123.58 56.4483C123.626 55.5962 123.706 54.3988 123.817 52.8559C123.957 51.2878 124.049 50.1044 124.092 49.3056C124.052 48.5823 124.047 47.9411 124.078 47.3819L124.484 39.9931L125.251 26.0542C124.905 26.0351 124.638 26.0205 124.452 26.0102C124.294 25.9748 124.125 25.8854 123.946 25.7421C123.767 25.5987 123.685 25.3939 123.699 25.1276L123.789 23.4901C123.803 23.2504 123.889 23.135 124.049 23.1438C124.209 23.1526 124.498 23.2352 124.916 23.3918C125.363 23.5232 125.8 23.6006 126.226 23.624C126.572 23.6431 127.227 23.6257 128.191 23.5719C129.184 23.4929 130.08 23.4754 130.878 23.5193C131.677 23.5632 132.31 23.7182 132.776 23.9842C133.205 24.4351 133.216 24.9565 132.81 25.5484C132.403 26.1403 131.814 26.4151 131.042 26.3726Z" fill="#1B1B1B"/>
</svg>
